<?xml version="1.0" encoding="utf-8"?>
<!-- Generator: Adobe Illustrator 16.0.0, SVG Export Plug-In . SVG Version: 6.00 Build 0)  -->
<!DOCTYPE svg PUBLIC "-//W3C//DTD SVG 1.1//EN" "http://www.w3.org/Graphics/SVG/1.1/DTD/svg11.dtd" [
	<!ENTITY ns_flows "http://ns.adobe.com/Flows/1.0/">
	<!ENTITY ns_extend "http://ns.adobe.com/Extensibility/1.0/">
	<!ENTITY ns_ai "http://ns.adobe.com/AdobeIllustrator/10.0/">
	<!ENTITY ns_graphs "http://ns.adobe.com/Graphs/1.0/">
	<!ENTITY ns_vars "http://ns.adobe.com/Variables/1.0/">
	<!ENTITY ns_imrep "http://ns.adobe.com/ImageReplacement/1.0/">
	<!ENTITY ns_sfw "http://ns.adobe.com/SaveForWeb/1.0/">
	<!ENTITY ns_custom "http://ns.adobe.com/GenericCustomNamespace/1.0/">
	<!ENTITY ns_adobe_xpath "http://ns.adobe.com/XPath/1.0/">
]>
<svg version="1.1" id="图层_1" xmlns:x="&ns_extend;" xmlns:i="&ns_ai;" xmlns:graph="&ns_graphs;"
	 xmlns="http://www.w3.org/2000/svg" xmlns:xlink="http://www.w3.org/1999/xlink" xmlns:a="http://ns.adobe.com/AdobeSVGViewerExtensions/3.0/"
	 x="0px" y="0px" width="232px" height="72px" viewBox="0 0 232 72" enable-background="new 0 0 232 72" xml:space="preserve">
<metadata>
	<sfw  xmlns="&ns_sfw;">
		<slices></slices>
		<sliceSourceBounds  y="0.115" x="-0.844" height="72.001" width="249.913" bottomLeftOrigin="true"></sliceSourceBounds>
	</sfw>
</metadata>
<g>
	
		<sodipodi:namedview  id="base" showgrid="false" inkscape:cy="38.024323" inkscape:cx="67.4659" inkscape:zoom="6.5246067" borderopacity="1.0" bordercolor="#666666" pagecolor="#ffffff" inkscape:window-maximized="0" inkscape:window-y="117" inkscape:window-x="667" inkscape:window-height="781" inkscape:window-width="930" inkscape:current-layer="layer1" inkscape:document-units="mm" inkscape:pageshadow="2" inkscape:pageopacity="0.0" inkscape:pagecheckerboard="true" fit-margin-bottom="0" fit-margin-right="0" fit-margin-left="0" fit-margin-top="0">
		</sodipodi:namedview>
	<g id="layer1" transform="translate(677.9313,-313.85407)" inkscape:label="Layer 1" inkscape:groupmode="layer">
		<g id="layer1-1" transform="matrix(0.03978217,0,0,0.03978217,-658.51488,317.36166)" inkscape:label="Layer 1">
			<path id="path21" inkscape:connector-curvature="0" fill="#0089D6" d="M357.973,1634.671
				c300.196-52.999,548.153-96.89,551.001-97.504l5.18-1.105l-283.405-337.116c-155.903-185.41-283.43-337.852-283.43-338.687
				c0-1.694,292.635-807.612,294.304-810.472c0.54-0.957,199.697,342.897,482.758,833.522
				c264.994,459.339,483.47,838.039,485.532,841.598l3.682,6.456l-900.71-0.147l-900.71-0.074L357.973,1634.671z M3812.174,1553.172
				c-137.075-8.813-216.831-86.875-237.991-233.008c-5.597-38.859-5.622-39.866-6.211-292.267l-0.516-244.239h60.633h60.658
				l0.491,236.261c0.442,212.928,0.736,237.918,2.774,252.892c8.273,60.756,24.72,101.677,52.68,130.987
				c22.412,23.517,48.678,37.264,84.985,44.554c17.11,3.412,65.862,3.412,81.474,0c36.822-8.101,66.353-24.13,92.349-50.151
				c29.703-29.654,51.624-71.729,62.253-119.352l3.609-16.03l0.393-238.237l0.417-238.261h61.934h61.91v374.576v374.527h-61.271
				H4071.4v-59.43c0-40.381-0.417-59.308-1.399-58.988c-0.737,0.245-3.879,5.081-6.947,10.727
				c-21.136,38.516-56.362,73.766-94.927,95C3921.879,1548.165,3875.532,1557.223,3812.174,1553.172L3812.174,1553.172z
				 M5203.816,1552.559c-48.384-3.658-99.345-20.301-141.027-46.052c-87.758-54.324-139.702-143.801-154.921-267.007
				c-5.229-42.615-5.892-99.861-1.522-136.093c9.819-80.91,41.633-160.42,86.924-217.126c11.611-14.532,37.951-40.848,52.508-52.483
				c39.252-31.348,85.157-53.269,133.909-63.935c28.451-6.223,78.43-9.132,108.624-6.346
				c75.853,7.033,145.348,42.738,192.603,98.952c47.966,57.074,74.38,136.879,77.743,235.119c0.491,15.391,0.638,42.37,0.245,59.97
				l-0.663,31.986l-265.608,0.319l-265.534,0.319v11.857c0,36.085,8.788,77.178,23.91,112.159
				c13.084,30.145,35.594,63.063,54.03,79.02c37.804,32.624,84.052,52.189,134.645,56.926c18.779,1.718,66.623-0.123,87.979-3.437
				c61.001-9.328,119.008-33.287,165.87-68.39c5.499-4.173,10.752-8.003,11.709-8.592c1.375-0.859,1.669,9.942,1.62,55.306v56.386
				l-12.593,7.782c-52.95,32.747-113.681,53.784-177.947,61.664C5297.147,1553.197,5226.744,1554.277,5203.816,1552.559z
				 M5434.959,1077.067c0-60.461-25.48-127.624-61.492-162.138c-25.726-24.72-56.853-39.743-93.797-45.487
				c-17.454-2.749-54.349-1.718-72.76,2.062c-39.007,7.855-71.238,25.014-99.345,52.753
				c-29.556,29.286-51.771,64.782-65.715,105.286c-5.032,14.508-10.875,38.393-12.716,51.698l-0.859,6.333h203.354h203.33V1077.067
				L5434.959,1077.067z M1832.415,1533.731c0.319-0.884,90.483-237.82,200.433-526.453l199.819-524.858h64.217l64.217-0.025
				l5.327,13.685c16.275,41.731,400.105,1038.19,400.105,1038.73c0,0.319-30.758,0.614-68.341,0.565h-68.317l-55.331-147.238
				l-55.282-147.312h-222.723h-222.747l-1.915,4.983c-1.055,2.774-24.695,69.029-52.532,147.312l-50.593,142.255h-68.415
				C1846.113,1535.375,1831.973,1535.056,1832.415,1533.731L1832.415,1533.731z M2478.588,1128.421
				c0-0.196-37.215-101.088-82.702-224.22c-85.107-230.308-89.87-244.177-96.62-281.146c-3.142-17.343-4.738-17.834-6.603-2.013
				c-1.35,11.317-7.144,36.613-11.636,50.654c-2.209,6.959-40.553,112.171-85.156,233.781
				c-44.628,121.61-81.155,221.643-81.155,222.256c0,0.614,81.892,1.154,181.949,1.154
				C2396.721,1128.887,2478.588,1128.667,2478.588,1128.421z M2807.848,1516.228v-19.172l221.888-305.081l221.888-305.007
				l-200.9-0.687l-200.924-0.638l-0.319-51.01l-0.368-50.974h290.597h290.597v17.196v17.22l-221.962,306.762
				c-122.052,168.668-221.913,306.971-221.913,307.315c0,0.319,98.682,0.638,219.286,0.638h219.237v51.305v51.33h-308.542h-308.567
				V1516.228z M4436.181,1534.516c-0.491-0.442-0.859-169.601-0.859-375.852V783.659h60.609h60.658v77.289
				c0,42.517,0.54,77.301,1.154,77.301s3.584-6.947,6.579-15.465c13.624-38.957,37.264-75.386,67.728-104.341
				c27.445-26.07,58.817-41.658,95.811-47.623c10.408-1.682,19.196-2.001,39.964-1.448c26.144,0.675,39.792,2.565,55.674,7.769
				l5.032,1.632v62.928v62.99l-14.36-7.193c-25.309-12.691-50.274-17.65-80.296-16.128c-19.54,0.982-32.379,3.535-48.016,9.426
				c-32.133,12.028-58.178,33.287-76.393,62.425c-26.364,42.05-45.192,96.105-50.716,145.839
				c-1.006,8.911-1.62,81.548-1.841,224.785l-0.369,211.578h-59.7C4463.944,1535.424,4436.672,1535.007,4436.181,1534.516z
				 M-722.943,1531.89c0-0.491,133.516-232.296,296.734-515.161l296.759-514.314l345.83-290.254
				C406.602,52.526,562.727-78.265,563.365-78.511c0.638-0.221-1.89,6.076-5.572,14.005
				c-3.658,7.941-172.67,370.402-375.508,805.513l-368.856,791.104l-268.185,0.319c-147.508,0.172-268.185-0.074-268.185-0.565
				V1531.89L-722.943,1531.89z"/>
		</g>
	</g>
</g>
</svg>
