<?xml version="1.0" encoding="utf-8"?>
<!-- Generator: Adobe Illustrator 16.0.0, SVG Export Plug-In . SVG Version: 6.00 Build 0)  -->
<!DOCTYPE svg PUBLIC "-//W3C//DTD SVG 1.1//EN" "http://www.w3.org/Graphics/SVG/1.1/DTD/svg11.dtd">
<svg version="1.1" id="图层_1" xmlns="http://www.w3.org/2000/svg" xmlns:xlink="http://www.w3.org/1999/xlink" x="0px" y="0px"
	 width="308px" height="72px" viewBox="0 0 308 72" enable-background="new 0 0 308 72" xml:space="preserve">
<g>
	<path fill="#FF4400" d="M170.679,63.659c10.285-0.278,13.899-7.506,13.899-13.622V12.511h1.389l1.391-5.56h-30.299l1.39,5.56h20.57
		v36.971c0,5.281-3.892,8.896-9.729,8.896L170.679,63.659L170.679,63.659z"/>
	<path fill="#FF4400" d="M171.791,50.871c1.39-1.39,1.946-3.336,1.946-6.671V17.515h-16.401v35.303h9.173
		C168.733,52.817,170.679,52.261,171.791,50.871z M163.173,46.701V23.074h5.004v20.571c0,2.223-0.834,3.057-2.78,3.057H163.173z
		 M134.264,6.395v56.986h5.56v-50.87h6.95l-4.17,17.791c1.668,1.39,4.726,5.003,4.726,11.397c0,6.393-3.614,8.617-4.726,9.173v5.838
		c3.058-0.278,10.841-4.448,10.841-14.732c0-6.116-2.224-10.563-4.17-13.343l5.004-22.238H134.264L134.264,6.395z M198.199,57.821
		l-1.112,5.56h50.592l-1.39-5.56h-21.127v-7.229h19.459l-1.39-5.559h-18.069v-7.228h13.066c6.114,0,9.45-3.058,9.45-9.451V6.117
		h-50.592v31.412h22.238v6.95h-18.068l-1.39,5.559h19.458v7.506h-21.126V57.821z M225.162,25.297h13.344l-1.39-5.559h-11.954v-7.228
		h16.679v15.845c0,2.779-1.11,3.891-3.335,3.891h-13.344V25.297L225.162,25.297z M203.202,32.247V12.511h16.401v6.949h-11.954
		l-1.39,5.56h13.344v7.227H203.202L203.202,32.247z M302.44,6.395h-39.751l-1.39,6.116h42.809L302.44,6.395z M260.466,63.103
		l-0.278,0.557h38.917c2.224,0,3.892-0.557,5.004-1.946c1.112-1.668,0.834-3.614,0.278-4.726c-0.557-2.78-2.78-12.787-3.336-14.177
		v-0.278h-5.837l0.277,0.556c0.278,1.391,2.78,11.675,3.335,15.011h-31.133c1.391-6.672,3.893-17.79,5.281-23.35H308l-1.39-5.559
		h-47.812l-1.39,5.559h9.728C266.025,39.752,262.412,53.929,260.466,63.103L260.466,63.103z"/>
	<path fill="#FF4400" d="M20.849,55.319c-2.502-0.557-4.17-2.502-4.17-5.282V21.961c0.278-2.501,1.946-4.447,4.17-5.003l26.13-5.559
		l2.78-11.12h-30.3C8.617,0.002,0,8.619,0,19.183v33.356c0,10.563,8.895,19.459,19.458,19.459h30.3l-2.78-11.119L20.849,55.319z
		 M97.015,0.002H66.437l2.78,11.119l26.13,5.56c2.502,0.556,4.17,2.502,4.17,5.003v28.075c-0.278,2.502-1.946,4.448-4.17,5.004
		l-26.13,5.561l-2.78,11.118h30.578c10.563,0,19.458-8.616,19.458-19.458V18.626C116.195,8.619,107.578,0.002,97.015,0.002
		L97.015,0.002z"/>
	<path fill="#FF4400" d="M46.979,34.471h22.238v2.78H46.979V34.471z"/>
</g>
<g>
</g>
<g>
</g>
<g>
</g>
<g>
</g>
<g>
</g>
<g>
</g>
</svg>
