<?xml version="1.0" encoding="utf-8"?>
<!-- Generator: Adobe Illustrator 16.0.0, SVG Export Plug-In . SVG Version: 6.00 Build 0)  -->
<!DOCTYPE svg PUBLIC "-//W3C//DTD SVG 1.1//EN" "http://www.w3.org/Graphics/SVG/1.1/DTD/svg11.dtd">
<svg version="1.1" id="图层_1" xmlns="http://www.w3.org/2000/svg" xmlns:xlink="http://www.w3.org/1999/xlink" x="0px" y="0px"
	 width="505px" height="72px" viewBox="0 0 505 72" enable-background="new 0 0 505 72" xml:space="preserve">
<path fill="#373C41" d="M426.726,23.391h-5.069c-6.308,0-11.49,5.125-11.49,11.491v14.869c0,6.309,5.183,11.49,11.49,11.49h5.069
	c6.309,0,11.49-5.125,11.49-11.49V34.882C438.216,28.517,433.034,23.391,426.726,23.391z M431.627,49.695
	c0,2.703-2.197,4.899-4.901,4.899h-5.069c-2.703,0-4.9-2.196-4.9-4.899v-14.87c0-2.704,2.197-4.901,4.9-4.901h5.069
	c2.704,0,4.901,2.197,4.901,4.901V49.695z M182.214,10.887h6.59v49.454h-6.59V10.887z M196.465,24.236h6.59v36.105h-6.59V24.236z
	 M199.788,10.887c-2.422,0-4.393,1.971-4.393,4.393c0,2.422,1.971,4.45,4.393,4.45c2.422,0,4.394-1.972,4.394-4.45
	C204.182,12.858,202.21,10.887,199.788,10.887z M158.558,10.887h-7.999c-3.041,5.351-10.251,20.108-17.686,49.454h6.872
	c1.183-4.506,2.309-8.618,3.436-12.393h24.051c1.126,3.774,2.253,7.887,3.436,12.393h6.872
	c-7.435-29.346-14.645-44.104-17.686-49.454H158.558L158.558,10.887z M145.208,41.302c3.718-11.489,7.097-19.149,9.35-23.712h1.295
	c2.253,4.506,5.576,12.167,9.294,23.712H145.208z M397.549,10.831h6.59v49.51h-6.59V10.831z M235.725,25.982
	c-3.605-2.872-9.632-3.379-18.363-1.577V10.887h-6.59v49.454h6.309c3.267,0.563,6.421,0.845,8.787,0.845
	c4.168,0,7.379-0.901,9.688-2.704c3.942-3.098,3.942-7.716,3.942-9.969V35.445C239.442,33.361,239.498,28.968,235.725,25.982z
	 M232.852,46.653v1.859c0,2.027-0.113,3.772-1.408,4.787c-1.183,0.958-5.351,2.197-14.082,0.395V31.108
	c9.97-2.253,13.293-0.732,14.25,0.056c1.126,0.901,1.24,2.422,1.24,4.337V46.653z M363.922,31.953v-8.787
	c0-0.62,0.339-3.887,4.507-4.9c7.716-1.915,16.785-0.451,21.347,1.408l1.635-6.421c-4.169-1.521-9.576-2.422-14.928-2.422
	c-3.322,0-6.646,0.337-9.631,1.07c-7.548,1.859-9.52,8.224-9.52,11.322v25.628c0,3.098,1.972,9.462,9.52,11.321
	c2.984,0.732,6.252,1.069,9.631,1.069c5.296,0,10.646-0.845,14.758-2.365l-1.633-6.421c-4.619,1.803-13.575,3.21-21.179,1.295
	c-4.225-1.069-4.507-4.28-4.507-4.899V31.953L363.922,31.953z M464.577,53.75c-8.449,1.747-11.716,0.508-12.898-0.45
	c-1.296-1.015-1.409-2.76-1.409-4.787V24.18h-6.59v24.333c0,2.253,0,6.871,3.942,9.969c2.31,1.803,5.521,2.704,9.688,2.704
	c2.31,0,4.957-0.281,7.942-0.845h5.971V24.236h-6.591V53.75H464.577z M504.005,10.887h-6.59v13.237
	c-7.999-1.465-13.631-0.845-17.067,1.858c-3.772,2.986-3.717,7.379-3.717,9.519v12.955c0,2.252,0,6.871,3.942,9.969
	c2.31,1.803,5.521,2.704,9.688,2.704c2.31,0,4.956-0.282,7.941-0.845h5.858V10.887H504.005z M484.629,53.3
	c-1.295-1.015-1.407-2.76-1.407-4.787V35.501c0-1.915,0.056-3.436,1.238-4.337c0.957-0.732,4.056-2.14,12.955-0.338V53.75
	C489.079,55.44,485.812,54.258,484.629,53.3z M268.675,25.757c-6.534-4.675-18.7-1.183-21.629-0.225l1.634,6.421
	c3.83-1.295,12.787-3.211,16.166-0.789c0.62,0.451,1.296,1.183,1.296,3.21v4.675c-2.76-0.451-6.703-0.788-11.266,0
	c-4.224,0.675-7.266,2.422-9.125,5.069c-1.634,2.365-2.141,5.351-1.408,8.618c1.183,5.463,5.632,8.617,12.335,8.617
	c2.76,0,6.59-0.338,9.575-0.845h6.421V34.262C272.731,29.643,270.534,27.052,268.675,25.757L268.675,25.757z M250.82,51.216
	c-0.225-1.014-0.338-2.422,0.394-3.549c0.958-1.408,3.098-2.028,4.731-2.253c4.394-0.732,8.11-0.226,10.195,0.225v8.056
	c-2.479,0.506-6.59,0.9-9.463,0.9C251.496,54.595,250.989,52.173,250.82,51.216L250.82,51.216z M338.294,25.757
	c-6.533-4.675-18.644-1.183-21.629-0.225l1.633,6.421c3.831-1.295,12.786-3.211,16.166-0.789c0.619,0.451,1.296,1.183,1.296,3.21
	v4.675c-2.761-0.451-6.703-0.788-11.266,0c-4.225,0.675-7.322,2.422-9.125,5.069c-1.633,2.365-2.084,5.351-1.408,8.618
	c1.183,5.463,5.633,8.617,12.336,8.617c2.76,0,6.59-0.338,9.575-0.845h6.421V34.262C342.406,29.643,340.152,27.052,338.294,25.757
	L338.294,25.757z M320.438,51.216c-0.226-1.014-0.338-2.422,0.395-3.549c0.957-1.408,3.099-2.028,4.731-2.253
	c4.394-0.732,8.111-0.226,10.195,0.225v8.056c-2.479,0.506-6.591,0.9-9.463,0.9C321.171,54.595,320.664,52.173,320.438,51.216z
	 M305.399,25.982c-3.604-2.872-9.631-3.379-18.362-1.577V10.887h-6.59v49.454h6.308c3.268,0.563,6.422,0.845,8.788,0.845
	c4.168,0,7.379-0.901,9.688-2.704c3.943-3.098,3.943-7.716,3.943-9.969V35.445C309.117,33.361,309.117,28.968,305.399,25.982z
	 M302.527,41.979v6.534c0,2.027-0.112,3.772-1.409,4.787c-1.183,0.958-5.35,2.197-14.081,0.395V31.108
	c9.971-2.253,13.293-0.732,14.251,0.056c1.127,0.901,1.239,2.422,1.239,4.337V41.979z"/>
<path fill="#373C41" d="M46.976,60.904l-26.135-5.689c-2.366-0.563-4.168-2.647-4.281-5.182V21.87
	c0.112-2.535,1.915-4.618,4.281-5.182L46.976,11l2.816-11.096H19.376C8.674-0.097,0.056,8.521,0,19.223v33.344
	C0,63.326,8.674,72,19.32,72h30.416L46.976,60.904L46.976,60.904z M69.225,60.904l26.135-5.689c2.366-0.563,4.168-2.647,4.281-5.182
	V21.87c-0.112-2.535-1.915-4.618-4.281-5.182L69.225,11L66.408-0.097h30.416c10.702,0,19.32,8.618,19.376,19.32v33.344
	c-0.057,10.646-8.674,19.32-19.376,19.32H66.408L69.225,60.904L69.225,60.904z"/>
<path fill="#373C41" d="M46.976,34.6h22.249v2.76H46.976V34.6z"/>
<g>
</g>
<g>
</g>
<g>
</g>
<g>
</g>
<g>
</g>
<g>
</g>
</svg>
