<?xml version="1.0" encoding="utf-8"?>
<!-- Generator: Adobe Illustrator 16.0.0, SVG Export Plug-In . SVG Version: 6.00 Build 0)  -->
<!DOCTYPE svg PUBLIC "-//W3C//DTD SVG 1.1//EN" "http://www.w3.org/Graphics/SVG/1.1/DTD/svg11.dtd">
<svg version="1.1" id="图层_1" xmlns="http://www.w3.org/2000/svg" xmlns:xlink="http://www.w3.org/1999/xlink" x="0px" y="0px"
	 width="120px" height="72px" viewBox="0 0 120 72" enable-background="new 0 0 120 72" xml:space="preserve">
<g>
	<path fill="#252F3E" d="M34.047,26.269c0,1.464,0.158,2.65,0.435,3.521c0.316,0.87,0.712,1.82,1.266,2.849
		c0.198,0.316,0.277,0.633,0.277,0.91c0,0.396-0.237,0.79-0.751,1.187l-2.493,1.661c-0.356,0.237-0.712,0.356-1.028,0.356
		c-0.396,0-0.792-0.198-1.187-0.555c-0.554-0.593-1.028-1.227-1.424-1.859c-0.396-0.672-0.792-1.424-1.227-2.333
		c-3.086,3.64-6.963,5.459-11.631,5.459c-3.323,0-5.974-0.95-7.912-2.849s-2.927-4.431-2.927-7.595c0-3.363,1.187-6.093,3.6-8.15
		c2.413-2.057,5.617-3.085,9.692-3.085c1.345,0,2.73,0.118,4.193,0.316c1.464,0.197,2.967,0.514,4.55,0.87v-2.888
		c0-3.007-0.633-5.104-1.859-6.33c-1.266-1.227-3.402-1.819-6.448-1.819c-1.385,0-2.809,0.158-4.273,0.514
		c-1.463,0.356-2.888,0.792-4.272,1.346C9.994,8.07,9.52,8.229,9.243,8.308C8.965,8.387,8.768,8.427,8.609,8.427
		c-0.554,0-0.831-0.396-0.831-1.227V5.262c0-0.633,0.079-1.107,0.277-1.385c0.198-0.276,0.554-0.554,1.108-0.83
		c1.384-0.713,3.046-1.306,4.984-1.78c1.938-0.515,3.996-0.752,6.171-0.752c4.708,0,8.149,1.068,10.365,3.204
		c2.176,2.137,3.284,5.381,3.284,9.732v12.817H34.047z M17.985,32.281c1.306,0,2.65-0.237,4.075-0.712s2.69-1.345,3.758-2.531
		c0.633-0.752,1.107-1.583,1.345-2.532c0.237-0.949,0.396-2.097,0.396-3.441v-1.662c-1.147-0.276-2.374-0.515-3.64-0.673
		s-2.492-0.237-3.719-0.237c-2.65,0-4.589,0.515-5.895,1.583c-1.305,1.068-1.938,2.571-1.938,4.549c0,1.859,0.475,3.244,1.464,4.193
		C14.781,31.807,16.166,32.281,17.985,32.281z M49.752,36.554c-0.712,0-1.187-0.118-1.503-0.396
		c-0.316-0.237-0.593-0.791-0.831-1.543l-9.297-30.58c-0.237-0.791-0.356-1.306-0.356-1.582c0-0.633,0.316-0.989,0.949-0.989h3.877
		c0.752,0,1.266,0.119,1.543,0.396c0.316,0.237,0.554,0.791,0.791,1.543l6.646,26.189l6.171-26.189
		c0.198-0.791,0.435-1.306,0.751-1.543s0.871-0.396,1.583-0.396h3.166c0.751,0,1.265,0.119,1.581,0.396
		c0.316,0.237,0.594,0.791,0.752,1.543l6.25,26.506L78.67,3.402c0.238-0.791,0.516-1.306,0.793-1.543
		c0.316-0.237,0.83-0.396,1.543-0.396h3.678c0.633,0,0.99,0.316,0.99,0.989c0,0.197-0.041,0.396-0.08,0.633
		s-0.119,0.554-0.277,0.989l-9.533,30.579c-0.238,0.792-0.514,1.307-0.832,1.543c-0.316,0.238-0.83,0.396-1.502,0.396h-3.402
		c-0.752,0-1.266-0.119-1.582-0.396c-0.316-0.276-0.594-0.791-0.752-1.582L61.581,9.1l-6.092,25.477
		c-0.198,0.791-0.435,1.305-0.752,1.582c-0.316,0.277-0.87,0.396-1.582,0.396H49.752z M100.588,37.622
		c-2.059,0-4.115-0.237-6.094-0.712c-1.977-0.475-3.52-0.989-4.549-1.582c-0.633-0.357-1.068-0.752-1.227-1.108
		c-0.158-0.355-0.236-0.751-0.236-1.107v-2.018c0-0.831,0.316-1.227,0.91-1.227c0.236,0,0.475,0.04,0.711,0.119
		c0.238,0.079,0.594,0.237,0.99,0.396c1.344,0.594,2.809,1.068,4.352,1.385c1.582,0.316,3.125,0.475,4.707,0.475
		c2.492,0,4.43-0.436,5.775-1.306s2.057-2.137,2.057-3.758c0-1.108-0.355-2.018-1.068-2.77c-0.711-0.752-2.057-1.424-3.994-2.058
		l-5.736-1.78c-2.889-0.909-5.025-2.255-6.33-4.035c-1.305-1.74-1.979-3.679-1.979-5.736c0-1.661,0.357-3.125,1.068-4.391
		c0.713-1.266,1.662-2.374,2.848-3.244c1.188-0.91,2.533-1.582,4.115-2.057c1.582-0.476,3.244-0.673,4.984-0.673
		c0.871,0,1.781,0.039,2.65,0.158c0.91,0.118,1.74,0.276,2.572,0.436c0.791,0.197,1.543,0.396,2.254,0.633
		c0.713,0.237,1.266,0.475,1.662,0.712c0.555,0.316,0.949,0.633,1.188,0.989c0.236,0.316,0.355,0.751,0.355,1.305v1.859
		c0,0.831-0.316,1.267-0.91,1.267c-0.316,0-0.83-0.158-1.504-0.475c-2.254-1.029-4.785-1.543-7.596-1.543
		c-2.254,0-4.035,0.355-5.26,1.107c-1.227,0.752-1.859,1.898-1.859,3.521c0,1.108,0.395,2.058,1.186,2.81
		c0.791,0.751,2.256,1.503,4.352,2.176l5.617,1.78c2.85,0.909,4.906,2.176,6.133,3.798c1.227,1.621,1.82,3.48,1.82,5.538
		c0,1.701-0.357,3.244-1.029,4.589c-0.713,1.345-1.662,2.532-2.889,3.481c-1.225,0.988-2.689,1.701-4.391,2.215
		C104.465,37.346,102.605,37.622,100.588,37.622z"/>
	<g>
		<path fill="#FF9900" d="M108.064,56.848C95.049,66.461,76.139,71.564,59.88,71.564c-22.787,0-43.319-8.426-58.826-22.43
			c-1.227-1.108-0.119-2.611,1.345-1.741C19.172,57.125,39.862,63.02,61.265,63.02c14.438,0,30.304-3.006,44.901-9.178
			C108.342,52.853,110.201,55.266,108.064,56.848z"/>
		<path fill="#FF9900" d="M113.484,50.677c-1.662-2.136-10.998-1.028-15.23-0.515c-1.266,0.158-1.465-0.949-0.316-1.779
			c7.438-5.223,19.66-3.719,21.086-1.979c1.424,1.78-0.396,14.004-7.359,19.859c-1.068,0.91-2.096,0.436-1.621-0.752
			C111.625,61.596,115.146,52.773,113.484,50.677z"/>
	</g>
</g>
<g>
</g>
<g>
</g>
<g>
</g>
<g>
</g>
<g>
</g>
<g>
</g>
</svg>
