<?xml version="1.0" encoding="utf-8"?>
<!-- Generator: Adobe Illustrator 16.0.0, SVG Export Plug-In . SVG Version: 6.00 Build 0)  -->
<!DOCTYPE svg PUBLIC "-//W3C//DTD SVG 1.1//EN" "http://www.w3.org/Graphics/SVG/1.1/DTD/svg11.dtd">
<svg version="1.1" id="图层_1" xmlns="http://www.w3.org/2000/svg" xmlns:xlink="http://www.w3.org/1999/xlink" x="0px" y="0px"
	 width="336px" height="72px" viewBox="0 0 336 72" enable-background="new 0 0 336 72" xml:space="preserve">
<g>
	<path fill="#21CF68" d="M47.16,22.809c0.84,0.473,1.838,0.473,2.678,0l10.871-6.254l-5.882-3.416L32.035,0l-3.833,2.207
		c-0.21,0.105-0.368,0.21-0.578,0.315L3.204,16.659l10.818,6.307c0.84,0.474,1.838,0.474,2.678,0l5.462-3.101l7.089-4.099
		c1.628-0.999,3.729-0.999,5.357,0l5.567,3.205L47.16,22.809z"/>
	<path fill="#FB5138" d="M51.833,30.691v14.4c0,1.892-1.05,3.731-2.678,4.677l-12.762,7.358c-0.84,0.473-1.313,1.366-1.313,2.313V72
		l24.63-14.19c0.053,0,0.053-0.053,0.105-0.053l4.254-2.47V22.125l-10.819,6.254C52.307,28.853,51.833,29.746,51.833,30.691
		L51.833,30.691z"/>
	<path fill="#1267FA" d="M27.256,56.969l-12.394-7.095c-1.628-0.998-2.678-2.732-2.678-4.678V30.691
		c0-0.945-0.473-1.839-1.313-2.313L0,22.178v33.163l3.833,2.206c0.158,0.105,0.315,0.21,0.525,0.315l24.263,13.979V59.281
		C28.569,58.335,28.096,57.39,27.256,56.969L27.256,56.969z"/>
	<path fill="#232323" d="M82.083,20.233h18.748l-0.263,0.841l-1.733,5.308H84.184v34.161h37.444c3.728,0,5.934-2.155,5.934-5.729
		V26.382h-19.956l2.048-6.201h20.271v-6.148H82.188v6.201H82.083L82.083,20.233z M120.21,51.766c0,1.682-0.998,2.838-2.573,2.838
		H91.904v-8.618h28.254v5.78H120.21L120.21,51.766z M120.158,32.163v8.094H91.956v-8.041h28.202V32.163L120.158,32.163z
		 M177.453,21.705h-6.67v1.682h-15.597v-1.682h-6.67v1.682h-4.253V28.8h4.253v9.407h25.838c1.733,0,3.099-1.419,3.099-3.101V28.8
		h4.254v-5.36h-4.254V21.705L177.453,21.705z M170.783,31.27c0,0.894-0.735,1.577-1.576,1.577h-14.021V28.8h15.597V31.27z"/>
	<path fill="#232323" d="M164.167,11.457h-7.982v2.575h-20.955v35.264c0,6.045-0.893,9.407-1.627,11.299h7.037
		c0.893-3.048,1.313-6.832,1.313-11.299V19.445h39.755v-5.413h-17.593v-2.575H164.167z"/>
	<path fill="#232323" d="M169.68,53.815l-0.578-0.21l0.578-0.315c4.307-2.313,9.401-5.203,10.399-5.729v-6.148h-34.556v6.148
		c0.945,0.525,6.04,3.416,10.398,5.729l0.577,0.315l-0.577,0.21c-2.363,0.894-4.044,1.366-4.989,1.366h-7.038v5.361h7.72
		c0.892,0,3.15,0,10.976-3.731l0.052-0.053h0.21l0.053,0.053c7.772,3.679,10.135,3.679,10.976,3.679h7.825v-5.36h-7.038
		C173.724,55.182,172.044,54.762,169.68,53.815L169.68,53.815z M162.801,50.82c-0.525-0.053-7.772-3.627-8.56-3.994l0.157-0.525
		h16.753l0.158,0.525C169.733,47.614,163.326,50.662,162.801,50.82z M336,36.631v-6.307h-45.217v6.307h8.035l-7.614,18.499v5.413
		h38.179c3.099,0,5.62-2.523,5.62-5.624v-8.671H328.7v6.148c0,1.051-0.841,1.84-1.838,1.84h-28.411l7.353-17.711H336V36.631
		L336,36.631z M292.044,13.349h43.746v6.306h-43.746V13.349z M192.105,30.481h-4.989v5.729h5.934c1.681,0,3.204-0.841,4.202-2.207
		l1.733-2.522l2.625,3.101c0.945,0.998,2.258,1.576,3.677,1.576h5.408v-5.676h-4.253c-0.421,0-0.946-0.157-1.261-0.525l-1.628-2.207
		h7.667v-5.571h-8.822v-2.417h8.822v-5.571h-14.599l1.417-1.892h-6.983l-1.733,2.365c-0.264,0.314-0.683,0.525-1.051,0.525h-1.313
		v5.57h2.783c0.944,0,1.838-0.315,2.573-0.998h3.413v2.417h-8.665v5.571h7.667l-0.997,1.786
		C193.365,30.166,192.787,30.481,192.105,30.481z M212.534,36.367h15.755c3.15,0,5.724-2.575,5.724-5.729V13.296h-21.531v23.071
		H212.534z M218.678,19.393h9.243v8.986c0,1.052-0.892,1.893-1.891,1.893h-7.353V19.393L218.678,19.393z M226.766,37.682h-38.651
		v22.913h39.02c3.15,0,5.724-2.575,5.724-5.729V37.734h-6.092V37.682z M226.766,53.396c0,0.735-0.578,1.313-1.313,1.313h-31.195
		v-2.681h32.508V53.396z M226.766,45.984h-32.508v-2.47h32.508V45.984z M257.487,19.918c0,0.735-0.525,1.262-1.26,1.262h-8.034
		l6.722-8.672h-7.668l-7.458,9.46v4.94h18.696c2.626,0,4.831-2.155,4.831-4.835v-3.784h-5.724v1.576h-0.105V19.918z M270.722,27.696
		V22.65h8.456c3.045,0,5.409-2.47,5.409-5.623v-3.994h-6.145v2.418c0,0.578-0.473,1.051-1.051,1.051h-6.617v-3.889h-5.987v17.027
		c0,3.153,2.573,5.729,5.725,5.729h14.862v-5.991h-12.972C271.51,29.431,270.722,28.694,270.722,27.696L270.722,27.696z
		 M270.722,52.817v-4.625h9.033c2.626,0,4.832-2.155,4.832-4.835v-4.73h-6.145v2.522c0,0.526-0.421,0.999-0.998,0.999h-6.723v-4.625
		h-5.986v17.291c0,3.153,2.573,5.729,5.725,5.729h14.862v-5.991h-12.972C271.51,54.604,270.722,53.763,270.722,52.817
		L270.722,52.817z M240.787,28.747v31.848h6.146v-7.777h9.558v0.315c0,1.104-0.893,1.997-1.996,1.997v5.413h2.154
		c3.308,0,5.934-2.681,5.934-5.939V28.747H240.787L240.787,28.747z M246.933,34.896h9.558v2.838h-9.558V34.896L246.933,34.896z
		 M246.933,43.883h9.558v2.838h-9.558V43.883L246.933,43.883z"/>
</g>
<g>
</g>
<g>
</g>
<g>
</g>
<g>
</g>
<g>
</g>
<g>
</g>
</svg>
