<?xml version="1.0" encoding="utf-8"?>
<!-- Generator: Adobe Illustrator 16.0.0, SVG Export Plug-In . SVG Version: 6.00 Build 0)  -->
<!DOCTYPE svg PUBLIC "-//W3C//DTD SVG 1.1//EN" "http://www.w3.org/Graphics/SVG/1.1/DTD/svg11.dtd">
<svg version="1.1" id="图层_1" xmlns="http://www.w3.org/2000/svg" xmlns:xlink="http://www.w3.org/1999/xlink" x="0px" y="0px"
	 width="232px" height="72px" viewBox="0 0 232 72" enable-background="new 0 0 232 72" xml:space="preserve">
<g>
	<path fill="#EA020A" d="M30.685,0.097c-3.63,0-6.957,1.647-9.276,4.302c-3.629,4.974-1.008,11.897,1.008,15.863
		c1.983,3.966,10.922,18.183,11.259,18.519c0.336,0.336,0.672,0.336,0.672,0s1.008-21.174,0.336-26.147
		C33.642,8.028,32.332,4.063,30.685,0.097z M11.159,9.675c-0.672,0-5.276,4.975-5.949,9.276c-0.672,4.301,1.647,7.595,6.957,11.258
		c5.613,3.966,18.518,10.923,18.854,10.587c0.336-0.673-4.974-9.915-9.578-16.872C16.805,16.968,11.831,9.675,11.159,9.675z
		 M12.806,52.021c3.966,1.646,10.25-2.319,11.897-3.293l4.638-3.295L6.857,46.105C8.201,48.393,10.184,50.375,12.806,52.021z
		 M13.477,33.839c-3.965-1.983-12.232-6.62-12.569-6.62c-0.336,0-1.646,5.948,1.008,10.251c2.655,4.301,7.596,5.611,9.915,5.947
		c2.655,0.336,17.846,0.336,17.846,0C29.374,43.082,17.443,35.822,13.477,33.839L13.477,33.839z M50.514,4.398
		c-2.319-2.655-5.612-4.302-9.275-4.302c-1.647,3.966-2.991,7.932-3.63,12.233c-0.672,4.974,0.336,26.147,0.336,26.147
		c0,0.336,0.336,0.336,0.672,0s9.578-14.89,11.259-18.519C51.522,16.296,54.177,9.339,50.514,4.398L50.514,4.398z M71.351,27.219
		c-0.336,0-8.604,4.638-12.57,6.621c-3.966,1.982-15.863,9.276-16.199,9.579c0,0.336,15.224,0.336,17.846,0
		c2.319-0.336,7.293-1.646,9.915-5.948C72.695,33.167,71.351,27.219,71.351,27.219L71.351,27.219z M47.22,48.729
		c1.647,1.008,7.932,4.975,11.897,3.293c2.655-1.311,4.638-3.629,5.949-6.283l-22.484-0.674L47.22,48.729L47.22,48.729z
		 M66.746,18.951c-0.336-4.302-5.276-9.276-5.949-9.276c-0.672,0-6.285,7.293-10.586,14.216c-4.302,6.957-9.579,16.2-9.276,16.873
		c0.336,0.672,13.242-6.622,18.854-10.586C65.066,26.546,67.049,23.589,66.746,18.951L66.746,18.951z"/>
	<path d="M41.876,71.716h2.05c0.168-0.336,2.285-6.653,2.688-7.729l0.101-0.234l0.672,1.982c0.538,1.646,1.176,3.326,1.748,5.008
		c0.067,0.168,0.135,0.336,0.168,0.504c0.101,0.27,0.101,0.438,0.235,0.438h1.916c0.134,0,0.235-0.402,0.336-0.705l1.613-4.604
		c0.101-0.269,0.168-0.504,0.269-0.772l0.538-1.545c0.168-0.539,0.37-1.01,0.538-1.547c0.101-0.27,1.042-2.925,1.042-3.126h-2.487
		c-0.134,0-0.134,0.201-0.235,0.472L52.564,61.4c-0.235,0.707-0.437,1.412-0.672,2.117l-1.378,4.201L49.842,65.6
		c-0.403-1.345-0.941-2.789-1.378-4.201l-0.504-1.545c-0.101-0.271-0.101-0.472-0.235-0.472h-1.882
		c-0.134,0-0.134,0.201-0.235,0.472l-1.21,3.695c-0.235,0.706-0.47,1.379-0.706,2.084c-0.101,0.336-0.202,0.706-0.336,1.042
		L43.02,67.75l-0.202-0.504c-0.37-1.008-0.807-2.555-1.176-3.663c-0.033-0.136-1.311-4-1.311-4.201h-2.688
		c0.101,0.472,2.319,6.688,2.655,7.63c0.202,0.537,0.336,1.008,0.538,1.545l0.806,2.285C41.675,71.178,41.809,71.413,41.876,71.716
		L41.876,71.716z M0.74,71.716h2.487v-4.974h5.545v4.873c0,0.101,0.034,0.101,0.101,0.101h2.42V59.482H8.772v4.906H3.227v-4.939
		H0.74V71.716z M57.538,71.716h9.242v-2.284h-6.755v-2.959h4.503v-2.25h-4.503v-2.488h6.52V59.45h-9.007V71.716z M14.251,66.811
		c0,1.143,0.437,2.688,1.21,3.494c0.975,1.008,1.781,1.344,3.192,1.547c0.639,0.101,0.84,0.032,1.277,0
		c2.453-0.067,3.966-1.412,4.604-3.529c0.202-0.639,0.269-1.613,0.269-2.453V59.55c0-0.101-0.034-0.101-0.101-0.101h-2.42v6.99
		c0,1.108-0.336,2.285-1.412,2.756s-2.756,0.336-3.529-0.672c-0.437-0.571-0.605-1.346-0.605-2.319v-6.755h-2.487v7.361H14.251z
		 M32.265,62.643c0.168,0.102,0.874,1.948,0.941,2.116l0.908,2.185H30.45L32.265,62.643z M25.846,71.716h2.521l0.84-1.916
		c0.067-0.167,0.235-0.47,0.269-0.638h5.579l1.075,2.554h2.521c0.168-0.032,0.101-0.032-0.034-0.368l-1.748-3.967
		c-0.135-0.303-0.235-0.57-0.37-0.874l-0.37-0.874c-0.706-1.646-1.579-3.563-2.319-5.275l-0.403-0.907h-2.218l-1.344,3.059
		c-0.101,0.234-0.202,0.505-0.336,0.739l-0.504,1.143c-0.067,0.168-0.101,0.235-0.168,0.403c-0.504,1.21-1.176,2.588-1.68,3.831
		C27.055,68.928,25.879,71.48,25.846,71.716L25.846,71.716z M69.57,71.648h2.419V59.449H69.57V71.648z"/>
	<g>
		<polygon points="133.977,59.643 129.852,59.643 129.852,49.682 112.587,49.682 112.587,45.869 129.852,45.869 129.852,40.674 
			133.977,40.674 133.977,45.869 151.282,45.869 151.282,49.682 133.977,49.682 		"/>
		<path d="M123.431,42.729h-4.047V31.59c-1.489,1.436-3.083,2.781-4.75,4.009l-0.488,0.36l-0.26-0.549
			c-0.461-0.973-0.968-1.948-1.507-2.897l-0.225-0.396l0.374-0.26c4.552-3.172,8.222-7.14,10.907-11.793l0.237-0.41l3.682,1.867
			l-0.287,0.463c-1.119,1.808-2.343,3.545-3.636,5.166v6.546l0.583-0.154c3.204-0.844,6.244-1.864,9.042-3.032v-9.992h4.047v8.125
			c3.47-1.782,6.606-3.868,9.331-6.208l0.374-0.321l2.75,3.113l-0.421,0.327c-3.432,2.663-7.479,5.131-12.033,7.341v2.889
			c0,0.985,0.313,2.116,2.742,2.116h4.141c1.737,0,2.66-0.674,2.905-2.123c0.283-1.443,0.464-2.943,0.541-4.473l0.036-0.718
			l0.66,0.283c1.254,0.538,2.263,0.926,2.998,1.154l0.406,0.126l-0.06,0.42c-0.233,1.695-0.485,3.179-0.748,4.411
			c-0.537,3.108-2.582,4.693-6.075,4.693h-5.898c-3.726,0-5.694-1.848-5.694-5.344v-1.604c-2.22,0.946-4.582,1.853-7.032,2.702
			l-0.419,0.145l-0.194-0.398c-0.455-0.935-1.021-1.899-1.682-2.866l-0.298-0.436v8.856H123.431z"/>
		<path d="M155.633,60.04l-0.28-0.351c-0.728-0.908-1.519-1.869-2.375-2.881l-0.383-0.453l0.511-0.301
			c7.777-4.589,12.71-11.922,14.669-21.804H153.68v-4.047h14.723c0.34-3.038,0.512-6.349,0.512-9.852v-0.5h4.358v0.5
			c0,3.631-0.164,6.942-0.485,9.852h16.549l-0.01,0.51c-0.154,8.017-0.393,14.726-0.703,19.942
			c-0.276,5.156-3.047,7.773-8.233,7.773c-2.022,0-4.462-0.064-7.25-0.195l-0.431-0.021l-0.043-0.429
			c-0.103-0.994-0.297-2.2-0.578-3.584l-0.141-0.691l0.698,0.098c2.412,0.334,4.82,0.502,7.158,0.502
			c2.874,0,4.278-1.313,4.423-4.135c0.352-4.931,0.584-10.215,0.691-15.725h-12.7c-1.991,11.369-7.442,19.963-16.208,25.547
			L155.633,60.04z"/>
		<path d="M179.209,48.609l-0.332-0.395c-1.985-2.346-4.172-4.729-6.498-7.081l-0.37-0.374l2.881-2.566l0.333,0.31
			c2.495,2.313,4.792,4.623,6.827,6.866l0.337,0.371L179.209,48.609z"/>
		<path d="M162.903,29.736l-0.341-0.373c-1.909-2.089-3.91-4.117-5.948-6.027l-0.393-0.367l2.832-2.623l0.338,0.294
			c2.159,1.873,4.27,3.825,6.273,5.803l0.371,0.366L162.903,29.736z"/>
		<path d="M226.536,58.518l-0.299-0.408c-0.883-1.215-1.766-2.399-2.648-3.555c-9.188,0.32-17.062,0.691-23.398,1.104
			c-1.059,0.123-2.096,0.328-3.059,0.605l-0.422,0.123l-1.93-4.439l0.434-0.209c1.49-0.719,2.748-1.688,3.74-2.877
			c2.588-3.131,5.024-6.557,7.25-10.195h-13.694v-3.891h39.202v3.891h-20.115c-3.521,5.236-6.645,9.521-9.296,12.762
			c7.751-0.195,13.944-0.384,18.44-0.559c-1.854-2.352-3.74-4.659-5.613-6.872l-0.362-0.429l3.405-2.271l0.289,0.322
			c3.842,4.282,7.711,8.892,11.504,13.696l0.318,0.402L226.536,58.518z"/>
		<rect x="196.142" y="22.783" width="31.897" height="3.891"/>
	</g>
</g>
</svg>
