<?xml version="1.0" encoding="utf-8"?>
<!-- Generator: Adobe Illustrator 16.0.0, SVG Export Plug-In . SVG Version: 6.00 Build 0)  -->
<!DOCTYPE svg PUBLIC "-//W3C//DTD SVG 1.1//EN" "http://www.w3.org/Graphics/SVG/1.1/DTD/svg11.dtd">
<svg version="1.1" id="图层_1" xmlns="http://www.w3.org/2000/svg" xmlns:xlink="http://www.w3.org/1999/xlink" x="0px" y="0px"
	 width="357px" height="72px" viewBox="0 0 357 72" enable-background="new 0 0 357 72" xml:space="preserve">
<g>
	<path fill="#EA020A" d="M30.397,0.097c-3.63,0-6.957,1.647-9.276,4.302c-3.629,4.974-1.008,11.897,1.008,15.863
		c1.983,3.966,10.922,18.183,11.259,18.519c0.336,0.336,0.672,0.336,0.672,0s1.008-21.174,0.336-26.147
		C33.354,8.028,32.044,4.063,30.397,0.097z M10.871,9.675c-0.672,0-5.276,4.975-5.949,9.276c-0.672,4.301,1.647,7.595,6.957,11.258
		c5.613,3.966,18.518,10.923,18.854,10.587c0.336-0.673-4.974-9.915-9.578-16.872C16.517,16.968,11.543,9.675,10.871,9.675z
		 M12.518,52.021c3.966,1.647,10.25-2.319,11.897-3.293l4.638-3.294L6.569,46.106C7.913,48.392,9.896,50.375,12.518,52.021z
		 M13.189,33.839C9.224,31.856,0.957,27.219,0.62,27.219c-0.336,0-1.646,5.948,1.008,10.251c2.655,4.302,7.596,5.612,9.915,5.948
		c2.655,0.336,17.846,0.336,17.846,0C29.086,43.082,17.155,35.822,13.189,33.839L13.189,33.839z M50.226,4.398
		c-2.319-2.655-5.612-4.302-9.275-4.302c-1.647,3.966-2.991,7.932-3.63,12.233c-0.672,4.974,0.336,26.147,0.336,26.147
		c0,0.336,0.336,0.336,0.672,0c0.336-0.336,9.578-14.889,11.259-18.518C51.234,16.296,53.889,9.339,50.226,4.398L50.226,4.398z
		 M71.063,27.219c-0.336,0-8.604,4.638-12.57,6.621c-3.966,1.982-15.863,9.276-16.199,9.579c0,0.336,15.224,0.336,17.846,0
		c2.319-0.336,7.293-1.646,9.915-5.948C72.407,33.167,71.063,27.219,71.063,27.219L71.063,27.219z M46.932,48.729
		c1.647,1.008,7.932,4.974,11.897,3.293c2.655-1.311,4.638-3.63,5.949-6.284l-22.484-0.673L46.932,48.729L46.932,48.729z
		 M66.458,18.951c-0.336-4.302-5.276-9.276-5.949-9.276c-0.672,0-6.285,7.293-10.586,14.216c-4.302,6.957-9.579,16.2-9.276,16.872
		c0.336,0.672,13.242-6.621,18.854-10.586C64.778,26.546,66.761,23.589,66.458,18.951L66.458,18.951z"/>
	<path d="M41.588,71.716h2.05c0.168-0.336,2.285-6.654,2.688-7.729l0.101-0.235l0.672,1.982c0.538,1.647,1.176,3.327,1.748,5.008
		c0.067,0.168,0.135,0.336,0.168,0.504c0.101,0.27,0.101,0.438,0.235,0.438h1.916c0.134,0,0.235-0.403,0.336-0.706l1.613-4.604
		c0.101-0.269,0.168-0.504,0.269-0.772l0.538-1.546c0.168-0.538,0.37-1.009,0.538-1.546c0.101-0.27,1.042-2.925,1.042-3.126h-2.487
		c-0.134,0-0.134,0.201-0.235,0.471l-0.504,1.546c-0.235,0.706-0.437,1.411-0.672,2.117l-1.378,4.201L49.554,65.6
		c-0.403-1.345-0.941-2.79-1.378-4.201l-0.504-1.546c-0.101-0.27-0.101-0.471-0.235-0.471h-1.882c-0.134,0-0.134,0.201-0.235,0.471
		l-1.21,3.696c-0.235,0.706-0.47,1.378-0.706,2.084c-0.101,0.336-0.202,0.706-0.336,1.042l-0.336,1.075l-0.202-0.504
		c-0.37-1.008-0.807-2.554-1.176-3.663c-0.033-0.135-1.311-4-1.311-4.201h-2.688c0.101,0.471,2.319,6.688,2.655,7.629
		c0.202,0.538,0.336,1.009,0.538,1.546l0.806,2.285C41.387,71.178,41.521,71.413,41.588,71.716L41.588,71.716z M0.452,71.716h2.487
		v-4.974h5.545v4.873c0,0.101,0.034,0.101,0.101,0.101h2.42V59.482H8.484v4.907H2.939v-4.94H0.452V71.716z M57.25,71.716h9.242
		v-2.285h-6.755v-2.958h4.503v-2.251h-4.503v-2.487h6.52v-2.285H57.25V71.716z M13.963,66.81c0,1.143,0.437,2.688,1.21,3.495
		c0.975,1.008,1.781,1.344,3.192,1.546c0.639,0.101,0.84,0.033,1.277,0c2.453-0.067,3.966-1.412,4.604-3.529
		c0.202-0.639,0.269-1.613,0.269-2.453V59.55c0-0.101-0.034-0.101-0.101-0.101h-2.42v6.99c0,1.109-0.336,2.285-1.412,2.756
		s-2.756,0.336-3.529-0.672c-0.437-0.571-0.605-1.345-0.605-2.319v-6.755h-2.487V66.81L13.963,66.81z M31.977,62.642
		c0.168,0.102,0.874,1.949,0.941,2.117l0.908,2.185h-3.664L31.977,62.642z M25.558,71.716h2.521l0.84-1.916
		c0.067-0.167,0.235-0.47,0.269-0.638h5.579l1.075,2.554h2.521c0.168-0.033,0.101-0.033-0.034-0.369l-1.748-3.966
		c-0.135-0.303-0.235-0.571-0.37-0.874l-0.37-0.874c-0.706-1.646-1.579-3.563-2.319-5.276l-0.403-0.907h-2.218l-1.344,3.059
		c-0.101,0.234-0.202,0.504-0.336,0.739l-0.504,1.143c-0.067,0.168-0.101,0.235-0.168,0.403c-0.504,1.21-1.176,2.588-1.68,3.831
		C26.767,68.927,25.591,71.48,25.558,71.716L25.558,71.716z M69.282,71.648h2.419V59.449h-2.419V71.648z"/>
	<path d="M186.338,52.627h3.898c0.336-0.639,4.303-12.503,5.041-14.519l0.202-0.438l1.277,3.764c1.042,3.093,2.218,6.285,3.26,9.411
		c0.101,0.302,0.235,0.672,0.336,0.94c0.202,0.505,0.169,0.841,0.437,0.841h3.597c0.269,0,0.437-0.773,0.639-1.312l2.991-8.637
		c0.201-0.504,0.303-0.941,0.504-1.445l1.008-2.89c0.336-0.976,0.673-1.883,1.009-2.891c0.168-0.538,1.983-5.478,1.983-5.848h-4.672
		c-0.27,0-0.27,0.37-0.438,0.84l-0.94,2.924c-0.471,1.345-0.841,2.621-1.277,3.966l-2.588,7.932l-1.276-3.966
		c-0.773-2.521-1.781-5.244-2.622-7.898l-0.975-2.924c-0.168-0.504-0.202-0.908-0.471-0.908h-3.528c-0.27,0-0.27,0.37-0.438,0.84
		l-2.285,6.924l-1.311,3.933c-0.201,0.638-0.403,1.311-0.639,1.949l-0.639,2.017l-0.336-0.941c-0.672-1.916-1.513-4.84-2.185-6.856
		c-0.067-0.235-2.454-7.562-2.487-7.865h-5.041c0.202,0.908,4.369,12.57,5.008,14.351c0.336,1.009,0.639,1.916,0.975,2.891
		l1.512,4.302C185.969,51.652,186.203,52.089,186.338,52.627L186.338,52.627z M112.031,52.627h4.672v-9.344h10.418v9.142
		c0,0.168,0.034,0.202,0.202,0.202h4.537V29.605h-4.739v9.276h-10.418v-9.276h-4.672V52.627L112.031,52.627z M214.771,52.627h17.341
		v-4.235h-12.636v-5.612h8.401v-4.269h-8.401v-4.671h12.199v-4.234h-16.904V52.627z M137.405,43.418c0,2.15,0.84,5.075,2.286,6.554
		c1.815,1.882,3.327,2.521,6.016,2.891c1.21,0.168,1.58,0.033,2.42,0.033c4.604-0.101,7.461-2.688,8.637-6.621
		c0.37-1.21,0.504-3.024,0.504-4.604V29.806c0-0.168-0.034-0.201-0.202-0.201h-4.538v13.174c0,2.084-0.638,4.269-2.655,5.176
		s-5.209,0.639-6.621-1.243c-0.807-1.076-1.177-2.521-1.177-4.369V29.605h-4.671V43.418L137.405,43.418z M169.232,35.587
		c0.302,0.201,1.646,3.629,1.781,3.965l1.714,4.101h-6.89L169.232,35.587z M157.234,52.627h4.739l1.579-3.597
		c0.135-0.336,0.437-0.873,0.504-1.21h10.486l2.016,4.807h4.739c0.303-0.067,0.201-0.034-0.066-0.673l-3.294-7.427
		c-0.235-0.571-0.47-1.109-0.739-1.647l-0.739-1.646c-1.311-3.125-2.958-6.688-4.335-9.915l-0.739-1.714h-4.167l-2.521,5.747
		c-0.168,0.437-0.403,0.94-0.605,1.411l-0.941,2.152c-0.135,0.302-0.202,0.437-0.336,0.739c-0.941,2.285-2.218,4.906-3.159,7.191
		C159.452,47.417,157.268,52.189,157.234,52.627L157.234,52.627z M235.339,52.56h4.604V29.605h-4.604V52.56z"/>
	<path d="M357,40.864c-0.033,0.269-0.101,0.537-0.101,0.772c-0.034,1.814-0.538,3.529-1.378,5.108
		c-1.681,3.126-4.336,4.94-7.764,5.579c-0.84,0.168-1.681,0.235-2.521,0.235c-2.419,0.033-4.839,0-7.259,0
		c-0.134,0-0.269,0-0.437-0.034V29.941c0.135,0,0.303-0.034,0.437-0.034c2.655,0,5.344-0.034,7.999,0
		c1.68,0.034,3.361,0.302,4.94,0.907c3.294,1.277,5.209,3.697,5.848,7.125c0.101,0.538,0.101,1.076,0.135,1.613
		c0.033,0.202,0.067,0.37,0.101,0.571V40.864z M342.111,49.098c1.277-0.033,2.487,0,3.697-0.101
		c2.822-0.269,4.772-1.781,5.814-4.402c0.738-1.916,0.84-3.899,0.504-5.882c-0.471-2.79-2.252-4.571-5.041-5.042
		c-1.613-0.269-3.227-0.168-4.873-0.168c-0.034,0-0.068,0.033-0.135,0.067C342.111,38.713,342.111,43.855,342.111,49.098
		L342.111,49.098z M287.666,41.637c0-1.714,0.202-3.26,0.74-4.773c1.176-3.36,3.461-5.579,6.855-6.621
		c2.588-0.807,5.243-0.84,7.831-0.134c3.495,0.941,5.848,3.193,6.923,6.621c0.941,2.992,0.908,6.049-0.135,9.007
		c-1.143,3.327-3.461,5.545-6.822,6.587c-2.621,0.807-5.276,0.874-7.897,0.134c-3.898-1.108-6.218-3.729-7.158-7.629
		C287.768,43.721,287.633,42.611,287.666,41.637L287.666,41.637z M292.405,40.864c0,2.016,0.235,3.528,0.907,4.939
		c0.907,1.916,2.387,3.159,4.504,3.496c0.672,0.101,1.377,0.101,2.084,0.066c1.209-0.066,2.285-0.504,3.26-1.243
		c1.143-0.907,1.848-2.083,2.252-3.428c0.705-2.42,0.638-4.84-0.102-7.26c-0.269-0.908-0.739-1.681-1.378-2.386
		c-1.21-1.277-2.688-1.782-4.437-1.815c-3.024-0.067-5.276,1.445-6.385,4.235C292.606,38.68,292.405,39.956,292.405,40.864
		L292.405,40.864z M328.77,29.975h4.47c0.033,0.168,0.033,0.302,0.033,0.47c0,4.84,0.034,9.713,0,14.552
		c-0.033,3.529-1.949,6.185-5.209,7.327c-0.571,0.201-1.177,0.369-1.781,0.437c-2.151,0.336-4.335,0.27-6.419-0.403
		c-2.42-0.807-4.168-2.318-4.975-4.806c-0.269-0.84-0.402-1.681-0.402-2.555v-14.62c0-0.101,0-0.235,0.033-0.37h4.47v13.914
		c0,0.571,0.034,1.177,0.134,1.714c0.337,1.883,1.513,3.059,3.361,3.462c0.907,0.202,1.849,0.202,2.756,0
		c1.883-0.369,3.025-1.579,3.361-3.529c0.1-0.604,0.135-1.176,0.135-1.78V30.748C328.77,30.479,328.77,30.243,328.77,29.975z
		 M269.652,31.251c-0.369,1.143-0.705,2.252-1.041,3.294c-1.009-0.336-1.983-0.74-2.958-1.009c-1.21-0.336-2.487-0.403-3.73-0.235
		c-2.319,0.37-3.933,1.647-4.839,3.765c-0.773,1.781-0.908,3.629-0.74,5.512c0.067,0.807,0.235,1.612,0.504,2.386
		c0.874,2.655,2.957,4.201,5.748,4.369c1.982,0.135,3.897-0.235,5.713-0.975c0.201-0.067,0.402-0.135,0.639-0.235
		c0.336,1.109,0.639,2.185,0.975,3.26c-0.202,0.102-0.37,0.202-0.538,0.27c-1.849,0.84-3.798,1.21-5.78,1.243
		c-1.715,0.033-3.395-0.101-5.041-0.639c-3.227-1.042-5.378-3.159-6.318-6.419c-0.908-3.092-0.875-6.218,0.201-9.243
		c1.344-3.798,4.134-6.049,8.066-6.755c2.924-0.538,5.746-0.168,8.436,1.042C269.182,30.982,269.418,31.117,269.652,31.251
		L269.652,31.251z M273.215,29.941h4c0.168,0,0.302,0,0.537,0.034v18.787h9.074c-0.101,1.311-0.201,2.521-0.336,3.798h-13.275
		V29.941L273.215,29.941z"/>
</g>
<g>
</g>
<g>
</g>
<g>
</g>
<g>
</g>
<g>
</g>
<g>
</g>
</svg>
