<?xml version="1.0" encoding="utf-8"?>
<!-- Generator: Adobe Illustrator 16.0.0, SVG Export Plug-In . SVG Version: 6.00 Build 0)  -->
<!DOCTYPE svg PUBLIC "-//W3C//DTD SVG 1.1//EN" "http://www.w3.org/Graphics/SVG/1.1/DTD/svg11.dtd">
<svg version="1.1" id="图层_1" xmlns="http://www.w3.org/2000/svg" xmlns:xlink="http://www.w3.org/1999/xlink" x="0px" y="0px"
	 width="235px" height="72px" viewBox="0 0 235 72" enable-background="new 0 0 235 72" xml:space="preserve">
<g>
	<path fill="#56606F" d="M188.716,23.696h-23.24v3.19h7.291v12.759h-8.658v3.646h8.658v20.507h3.646V43.291h9.114v20.051h7.291
		v-3.646h-3.19v-36H188.716z M176.413,39.189V26.886h9.114v12.759h-9.114V39.189z M123.552,54.228h18.684v3.646h-18.684V54.228z
		 M110.336,47.848c0,6.38-0.456,10.938-1.823,15.038c0,0.456,0,0.456,0.456,0.456h3.646c1.367-5.924,1.367-10.481,1.367-14.127
		h5.012v10.481h-3.189c-0.456,0-0.456,0-0.456,0.455l0.912,3.19h6.379V23.696h-11.848L110.336,47.848L110.336,47.848z
		 M114.438,46.48v-8.202h5.013v8.658h-5.013V46.48z M118.995,26.886v8.203h-5.012v-8.203H118.995z"/>
	<path fill="#56606F" d="M143.603,37.822h4.557v-3.189h-13.215c0-0.911,0-2.278,0.911-3.19h11.848v-3.189h-3.19
		c0.456-1.823,1.367-4.102,1.367-4.102c0-0.456,0-0.456-0.456-0.456h-2.734l-1.367,4.557h-4.101
		c0.456-1.823,0.456-3.646,0.911-5.924c0-0.456,0-0.456-0.456-0.456h-2.734c-0.456,2.278-0.456,4.557-1.367,6.38h-2.279
		l-1.367-4.557h-2.734c-0.456,0-0.456,0-0.456,0.456s0.456,2.278,1.367,4.102h-3.19v3.189h7.747
		c-0.456,0.912-0.456,2.279-1.367,3.19h-7.291v3.189h5.469c-2.279,3.19-4.557,4.558-5.469,5.013v3.646c0,0.456,0.456,0.456,0.456,0
		c1.367,0.456,2.278-0.911,3.189-1.822h13.215v5.013h-10.481l0.456-2.734c0-0.456,0-0.456-0.456-0.456h-3.19l-0.456,5.925
		c0,0.455,0,0.455,0.456,0.455h17.772v8.658h-7.747c-0.456,0-0.456,0-0.456,0.456l0.911,3.189h10.937V50.127h-4.102V42.38
		c1.823,1.367,3.19,2.734,5.013,3.189c0.456,0.456,0.456,0.456,0.456,0V42.38C148.159,41.924,145.881,40.557,143.603,37.822
		L143.603,37.822z M139.501,37.822c0.456,1.367,1.823,2.734,2.734,3.646h-11.393c0.912-0.912,1.823-2.279,2.734-3.646H139.501
		L139.501,37.822z M167.754,51.949l-6.38,5.013V34.633h-8.658v3.646h5.013v21.418c-1.367,0.911-2.278,1.367-2.278,1.367l2.278,2.734
		l10.481-7.747L167.754,51.949C168.21,51.949,167.754,51.949,167.754,51.949L167.754,51.949z M158.185,30.987h3.646
		c0.456,0,0.456-0.456,0.456-0.456l-5.468-8.203h-3.646l-0.456,0.456C153.172,23.241,158.185,30.987,158.185,30.987L158.185,30.987z
		 M200.108,24.152h29.62v3.646h-29.62V24.152z M211.045,42.38h23.24v-3.646h-37.822v3.646h10.48
		c-2.278,5.924-7.746,20.051-7.746,20.506c0,0.456,0,0.456,0.455,0.456h32.811c0.456,0,0.456-0.456,0.456-0.456l-5.013-12.759
		h-3.646c-0.456,0-0.456,0.455-0.456,0.455c0,0.456,3.646,9.114,3.646,9.114h-21.873C205.121,59.24,211.045,42.38,211.045,42.38
		L211.045,42.38z"/>
	<path fill="#00A3FF" d="M85.729,58.785c-1.367,1.366-4.557,4.101-10.481,4.101H41.526C52.007,52.86,60.21,44.202,61.122,43.747
		c0.911-0.912,2.734-2.734,4.557-4.102c3.646-4.101,6.835-4.557,10.025-4.557c4.102,0,7.292,1.367,10.025,4.101
		C91.197,44.202,91.197,53.772,85.729,58.785L85.729,58.785z M92.564,32.81c-4.101-4.101-10.025-7.291-15.949-7.291
		c-5.924,0-10.481,2.278-14.583,5.013c-1.367,1.367-4.101,3.19-5.924,5.924c-2.278,1.367-36,35.544-36,35.544H69.78
		c3.19,0,5.924,0,7.747-0.456c5.013-0.455,10.481-2.734,14.583-6.38C100.767,56.051,100.767,41.469,92.564,32.81L92.564,32.81z"/>
	<path fill="#00C8DC" d="M36.514,30.532c-4.557-3.19-8.659-4.557-14.127-4.557c-6.38,0-12.304,2.734-15.949,7.291
		C-2.22,42.38-2.22,56.962,6.894,66.076c3.646,3.646,7.747,5.468,12.304,5.468l9.114-8.658h-5.013
		c-5.013-0.455-8.203-2.278-10.481-4.101c-5.469-5.469-5.469-14.127,0-20.051c2.734-2.734,5.468-4.102,10.025-4.102
		c2.734,0,5.469,0.456,9.114,4.102c1.367,1.822,5.468,4.557,6.835,6.38h0.456l5.468-6.38C42.894,36.456,38.336,32.81,36.514,30.532"
		/>
	<path fill="#006EFF" d="M77.982,20.051C73.881,8.203,62.033,0,49.273,0C33.78,0,21.476,11.393,18.742,25.975
		c0.911,0,2.278-0.456,3.646-0.456s3.646,0.456,5.013,0.456C29.678,15.949,38.336,9.114,48.362,9.114
		c8.658,0,16.405,5.013,20.051,12.76c0,0,0.456,0.456,0.456,0C72.058,21.418,75.248,20.051,77.982,20.051
		C77.982,20.962,77.982,20.962,77.982,20.051"/>
</g>
<g>
</g>
<g>
</g>
<g>
</g>
<g>
</g>
<g>
</g>
<g>
</g>
</svg>
