<?xml version="1.0" encoding="utf-8"?>
<!-- Generator: Adobe Illustrator 16.0.0, SVG Export Plug-In . SVG Version: 6.00 Build 0)  -->
<!DOCTYPE svg PUBLIC "-//W3C//DTD SVG 1.1//EN" "http://www.w3.org/Graphics/SVG/1.1/DTD/svg11.dtd">
<svg version="1.1" id="图层_1" xmlns="http://www.w3.org/2000/svg" xmlns:xlink="http://www.w3.org/1999/xlink" x="0px" y="0px"
	 width="240px" height="240px" viewBox="0 0 240 240" enable-background="new 0 0 240 240" xml:space="preserve">
<path fill-rule="evenodd" clip-rule="evenodd" fill="#006EE5" d="M26,1c63.333,0,126.667,0,190,0c0.89,0.42,1.739,1.017,2.676,1.232
	c12.852,2.953,19.81,11.435,19.824,24.903c0.067,62.406,0.071,124.813-0.003,187.219c-0.017,14.142-6.521,22.051-20.306,25.521
	c-0.775,0.195-1.463,0.741-2.191,1.124c-63.333,0-126.667,0-190,0c-0.891-0.418-1.742-1.012-2.679-1.229
	c-12.699-2.937-19.778-11.26-19.8-24.41c-0.108-62.907-0.109-125.815,0-188.724C3.543,13.49,10.639,5.148,23.324,2.232
	C24.261,2.017,25.11,1.42,26,1z M91.689,122.759c-0.317,0.106-0.634,0.214-0.951,0.32c-4.415-7.812-9.116-15.479-13.136-23.489
	c-2.437-4.854-5.573-7.105-10.943-6.08c-0.804,0.153-1.678,0.125-2.493,0.005c-4.266-0.63-5.483,1.412-5.443,5.407
	c0.141,14.164,0.024,28.331,0.063,42.497c0.017,6.05,0.081,6.05,7.218,6.05c7.13,0,7.175,0,7.212-6.057
	c0.047-7.566,0.011-15.134,0.011-22.7c5.636,8.072,10.42,16.224,14.876,24.553c1.729,3.229,3.881,4.694,7.515,4.243
	c1.806-0.225,3.669-0.147,5.493-0.021c2.714,0.188,4.063-0.924,4.062-3.686c-0.009-15.498,0.067-30.997-0.127-46.493
	c-0.016-1.26-1.711-3.408-2.852-3.572c-3.354-0.481-6.821-0.172-10.505-0.172C91.689,103.821,91.689,113.29,91.689,122.759z
	 M113.586,120.559c0,7.499,0.084,15-0.041,22.497c-0.051,3.092,0.859,4.51,4.245,4.465c11.497-0.15,23.001-0.238,34.494,0.027
	c4.992,0.116,4.014-3.025,4.198-5.92c0.207-3.268-0.25-5.381-4.447-5.177c-6.484,0.315-13.002-0.1-19.492,0.136
	c-4.931,0.179-4.207-3.102-4.172-6.041c0.034-2.869-0.916-6.307,4.079-6.123c5.659,0.208,11.338-0.132,16.995,0.097
	c4.151,0.168,4.093-2.399,3.962-5.196c-0.124-2.657,0.912-5.979-3.815-5.823c-5.327,0.176-10.667-0.07-15.996,0.069
	c-3.244,0.085-5.369-0.282-5.354-4.458c0.016-3.923,1.632-4.815,5.132-4.696c5.825,0.199,11.674-0.166,17.492,0.124
	c4.071,0.203,4.793-1.765,4.586-5.142c-0.181-2.957,0.612-6.044-4.284-5.938c-11.16,0.242-22.33,0.146-33.494,0.031
	c-3.016-0.031-4.166,1.063-4.121,4.069C113.667,105.226,113.591,112.893,113.586,120.559z M159.85,104.47
	c3.81,0,6.978,0.161,10.121-0.043c3.447-0.225,4.738,1.069,4.676,4.585c-0.169,9.658-0.112,19.321-0.041,28.982
	c0.081,10.891-1.248,9.182,9.654,9.545c3.914,0.131,5.285-1.121,5.214-5.076c-0.198-10.989,0.082-21.988-0.141-32.978
	c-0.082-4.017,1.351-5.382,5.224-5.066c3.094,0.251,6.223,0.051,9.585,0.051c0-3.886,0-7.106,0-10.623c-14.876,0-29.427,0-44.292,0
	C159.85,97.383,159.85,100.604,159.85,104.47z M43.547,147.469c8.134,0.008,8.987-0.83,7.682-8.737
	c-0.199-1.208-2.021-2.8-3.311-3.039c-2.572-0.479-5.312-0.309-7.949-0.06c-1.091,0.104-2.666,0.852-3.05,1.73
	C34.318,143.317,37.124,147.463,43.547,147.469z"/>
<path fill-rule="evenodd" clip-rule="evenodd" fill="#FFFFFF" d="M91.689,122.759c0-9.469,0-18.938,0-29.195
	c3.685,0,7.152-0.31,10.505,0.172c1.141,0.164,2.836,2.313,2.852,3.572c0.194,15.496,0.118,30.995,0.127,46.493
	c0.001,2.762-1.348,3.873-4.062,3.686c-1.824-0.126-3.688-0.203-5.493,0.021c-3.634,0.451-5.787-1.014-7.515-4.243
	c-4.456-8.329-9.24-16.48-14.876-24.553c0,7.566,0.036,15.134-0.011,22.7c-0.038,6.057-0.082,6.057-7.212,6.057
	c-7.137,0-7.201,0-7.218-6.05c-0.039-14.166,0.078-28.333-0.063-42.497c-0.04-3.995,1.177-6.037,5.443-5.407
	c0.815,0.12,1.689,0.148,2.493-0.005c5.37-1.025,8.506,1.227,10.943,6.08c4.021,8.01,8.722,15.678,13.136,23.489
	C91.055,122.973,91.372,122.865,91.689,122.759z"/>
<path fill-rule="evenodd" clip-rule="evenodd" fill="#FFFFFF" d="M113.589,120.559c0.002-7.666,0.079-15.333-0.036-22.998
	c-0.045-3.006,1.104-4.101,4.121-4.069c11.164,0.115,22.334,0.211,33.494-0.031c4.896-0.106,4.104,2.98,4.284,5.938
	c0.207,3.377-0.515,5.345-4.586,5.142c-5.818-0.29-11.667,0.075-17.492-0.124c-3.5-0.119-5.116,0.773-5.132,4.696
	c-0.016,4.176,2.109,4.543,5.354,4.458c5.329-0.14,10.669,0.106,15.996-0.069c4.728-0.156,3.691,3.166,3.815,5.823
	c0.131,2.797,0.189,5.364-3.962,5.196c-5.657-0.229-11.336,0.111-16.995-0.097c-4.995-0.184-4.045,3.254-4.079,6.123
	c-0.035,2.939-0.759,6.22,4.172,6.041c6.49-0.235,13.008,0.18,19.492-0.136c4.197-0.204,4.654,1.909,4.447,5.177
	c-0.185,2.895,0.794,6.036-4.198,5.92c-11.492-0.266-22.997-0.178-34.494-0.027c-3.385,0.045-4.296-1.373-4.245-4.465
	C113.671,135.559,113.586,128.058,113.589,120.559z"/>
<path fill-rule="evenodd" clip-rule="evenodd" fill="#FFFFFF" d="M159.85,104.47c0-3.865,0-7.087,0-10.623
	c14.865,0,29.416,0,44.292,0c0,3.517,0,6.737,0,10.623c-3.362,0-6.491,0.2-9.585-0.051c-3.873-0.315-5.306,1.05-5.224,5.066
	c0.223,10.989-0.058,21.988,0.141,32.978c0.071,3.955-1.3,5.207-5.214,5.076c-10.902-0.363-9.573,1.346-9.654-9.545
	c-0.071-9.661-0.128-19.324,0.041-28.982c0.063-3.516-1.229-4.81-4.676-4.585C166.827,104.631,163.659,104.47,159.85,104.47z"/>
<path fill-rule="evenodd" clip-rule="evenodd" fill="#FFFFFF" d="M43.547,147.469c-6.424-0.006-9.229-4.151-6.628-10.105
	c0.384-0.879,1.959-1.627,3.05-1.73c2.638-0.249,5.377-0.419,7.949,0.06c1.29,0.239,3.112,1.831,3.311,3.039
	C52.534,146.639,51.682,147.477,43.547,147.469z"/>
</svg>
