<?xml version="1.0" encoding="utf-8"?>
<!-- Generator: Adobe Illustrator 16.0.0, SVG Export Plug-In . SVG Version: 6.00 Build 0)  -->
<!DOCTYPE svg PUBLIC "-//W3C//DTD SVG 1.1//EN" "http://www.w3.org/Graphics/SVG/1.1/DTD/svg11.dtd">
<svg version="1.1" id="图层_1" xmlns="http://www.w3.org/2000/svg" xmlns:xlink="http://www.w3.org/1999/xlink" x="0px" y="0px"
	 width="240px" height="240px" viewBox="0 0 240 240" enable-background="new 0 0 240 240" xml:space="preserve">
<path fill-rule="evenodd" clip-rule="evenodd" fill="#C12766" d="M218,241c-64.667,0-129.333,0-194,0
	c-0.908-0.382-1.787-0.866-2.728-1.129c-10.847-3.026-17.656-11.647-17.98-22.969c-0.12-4.159-0.025-8.324-0.025-12.487
	c0-59.106-0.01-118.213,0.008-177.319C3.278,13.82,9.542,5.587,22.251,1.916C22.871,1.736,23.418,1.311,24,1
	c64.667,0,129.333,0,194,0c0.422,0.262,0.813,0.629,1.271,0.771c13.786,4.233,19.451,11.878,19.46,26.324
	c0.008,12.153,0.002,24.308,0.002,36.462c0,50.116-0.01,100.231,0.008,150.347c0.003,10.126-3.765,18.141-12.911,23.051
	C223.381,239.269,220.619,240.001,218,241z"/>
<path fill-rule="evenodd" clip-rule="evenodd" fill="#FFFFFF" d="M101.932,125.665c0,5.037-0.05,9.173,0.014,13.307
	c0.062,3.928-1.695,5.804-5.713,5.78c-11.994-0.068-23.989-0.048-35.984-0.012c-3.971,0.012-5.836-2.033-5.85-5.827
	c-0.042-11.994-0.055-23.989,0.011-35.983c0.021-3.839,2.074-5.697,5.997-5.679c11.995,0.059,23.99,0.049,35.984,0.007
	c3.721-0.013,5.555,1.694,5.539,5.429c-0.015,3.498-0.205,7.021,0.167,10.481c0.122,1.131,1.689,2.898,2.729,2.998
	c3.767,0.364,7.589,0.144,12.18,0.144c0-2.405,0-4.339,0-6.272c0-18.991-0.001-37.983,0.001-56.975c0-1.333-0.444-2.945,0.145-3.937
	c1.059-1.78,2.745-3.187,4.168-4.749c1.547,1.608,4.275,3.113,4.427,4.844c0.551,6.283,0.423,12.649,0.182,18.97
	c-0.146,3.8,0.861,5.385,4.996,5.246c11.962-0.399,10.138,1.481,10.27-10.431c0.096-8.589,0.147-8.719,8.674-8.722
	c10.662-0.005,21.326,0.122,31.985-0.054c4.722-0.078,6.716,1.996,6.704,6.535c-0.03,11.328-0.036,22.657,0.003,33.985
	c0.016,4.457-1.89,6.872-6.556,6.856c-11.495-0.039-22.99-0.05-34.485,0.008c-4.331,0.021-6.535-1.796-6.327-6.305
	c0.131-2.826-0.135-5.674,0.056-8.492c0.21-3.123-0.893-4.421-4.152-4.643c-11.09-0.753-11.1-0.843-11.1,10.094
	c0,17.493,0.088,34.985-0.066,52.477c-0.034,3.879,0.746,5.75,5.179,5.599c12.072-0.415,9.946,1.358,10.097-10.012
	c0.121-9.142,0.025-9.146,9.23-9.147c10.495-0.001,20.992,0.134,31.483-0.057c4.59-0.084,6.238,1.875,6.193,6.264
	c-0.117,11.493-0.143,22.99,0.011,34.483c0.061,4.555-1.867,6.192-6.306,6.131c-11.492-0.161-22.989-0.144-34.483-0.011
	c-4.481,0.052-6.508-1.763-6.123-6.269c0.127-1.488,0.158-3.013-0.012-4.492c-0.308-2.69-0.318-7.444-1.298-7.67
	c-3.933-0.905-8.206-0.594-12.309-0.231c-0.647,0.058-1.5,2.686-1.522,4.136c-0.141,9.161-0.113,18.324-0.055,27.487
	c0.021,3.262-0.434,6.475-4.356,6.553c-4.28,0.086-4.678-3.297-4.671-6.73c0.039-19.658-0.188-39.319,0.155-58.972
	c0.092-5.285-1.606-6.802-6.498-6.199C108.048,125.929,105.38,125.665,101.932,125.665z M179.327,92.354
	c0-9.32,0.101-18.084-0.152-26.838c-0.026-0.893-2.151-2.433-3.339-2.469c-7.476-0.227-14.969-0.278-22.437,0.05
	c-1.245,0.055-3.377,2.206-3.431,3.46c-0.321,7.469-0.265,14.962-0.03,22.438c0.036,1.146,1.624,3.187,2.539,3.212
	C161.233,92.453,169.999,92.354,179.327,92.354z M179.418,169.327c0-9.384,0.098-17.991-0.131-26.589
	c-0.026-1.016-1.815-2.811-2.831-2.843c-7.795-0.24-15.604-0.263-23.396,0.009c-1.124,0.039-3.084,1.981-3.123,3.097
	c-0.271,7.792-0.249,15.602-0.003,23.396c0.032,1.006,1.865,2.773,2.9,2.801C161.43,169.426,170.033,169.327,179.418,169.327z
	 M63.965,135.425c8.983,0,17.584,0.081,26.179-0.112c0.971-0.021,2.712-1.573,2.733-2.449c0.207-8.581,0.125-17.169,0.125-25.958
	c-10.05,0-19.414,0-29.037,0C63.965,116.344,63.965,125.428,63.965,135.425z"/>
</svg>
