<?xml version="1.0" encoding="utf-8"?>
<!-- Generator: Adobe Illustrator 16.0.0, SVG Export Plug-In . SVG Version: 6.00 Build 0)  -->
<!DOCTYPE svg PUBLIC "-//W3C//DTD SVG 1.1//EN" "http://www.w3.org/Graphics/SVG/1.1/DTD/svg11.dtd">
<svg version="1.1" id="图层_1" xmlns="http://www.w3.org/2000/svg" xmlns:xlink="http://www.w3.org/1999/xlink" x="0px" y="0px"
	 width="240px" height="240px" viewBox="0 0 240 240" enable-background="new 0 0 240 240" xml:space="preserve">
<path fill-rule="evenodd" clip-rule="evenodd" fill="#622A84" d="M218,241c-64.667,0-129.333,0-194,0
	c-0.244-0.221-0.459-0.587-0.737-0.643C9.18,237.53,3.039,225.868,3.216,212.335c0.397-30.274,0.124-60.558,0.124-90.837
	c0-31.443-0.019-62.888,0.01-94.332C3.362,13.942,9.603,5.769,22.349,2.025C22.948,1.85,23.452,1.349,24,1c64.667,0,129.333,0,194,0
	c0.242,0.223,0.455,0.592,0.73,0.648c14.187,2.877,20.198,14.561,20.054,28.015c-0.372,34.601-0.125,69.208-0.125,103.813
	c0,27.118,0.025,54.236-0.011,81.354c-0.018,13.245-6.249,21.403-18.991,25.147C219.057,240.155,218.55,240.652,218,241z
	 M6.66,120.5c0,31.66-0.011,63.321,0.005,94.982c0.007,13.639,8.115,21.85,21.6,21.852c61.822,0.014,123.644,0.014,185.466,0.001
	c13.485-0.003,21.602-8.214,21.604-21.848c0.012-62.988,0.012-125.977,0-188.965c-0.003-13.835-8.123-21.857-22.099-21.859
	c-61.489-0.008-122.978-0.008-184.466,0C14.605,4.665,6.667,12.696,6.663,27.017C6.653,58.178,6.66,89.339,6.66,120.5z"/>
<path fill-rule="evenodd" clip-rule="evenodd" fill="#FFFFFF" d="M6.66,120.5c0-31.161-0.007-62.322,0.003-93.483
	C6.667,12.696,14.605,4.665,28.77,4.663c61.489-0.008,122.977-0.008,184.466,0c13.976,0.002,22.096,8.024,22.099,21.859
	c0.012,62.988,0.012,125.977,0,188.965c-0.002,13.634-8.118,21.845-21.604,21.848c-61.822,0.013-123.644,0.013-185.466-0.001
	c-13.485-0.002-21.593-8.213-21.6-21.852C6.649,183.821,6.66,152.16,6.66,120.5z M144.516,52.642c0.373,1.33,0.418,1.81,0.629,2.197
	c11.454,21.092,14.114,43.406,9.49,66.801c-0.714,3.612-2.178,5.476-6.127,5.681c-10.546,0.547-20.748,3.259-31.638,2.587
	c-10.755-0.664-21.712,2.217-32.607,3.265c-1.886,0.182-4.528-0.415-5.76-1.683c-6.356-6.548-12.525-13.297-18.423-20.261
	c-2.505-2.958-4.189-6.61-6.247-9.948c-0.301,3.535-0.041,6.825,0.436,10.083c2.124,14.522,5.147,28.766,11.9,42.018
	c5.066,9.94,12.597,16.164,23.877,17.339c7.283,0.758,14.566,1.601,21.871,2.048c15.716,0.962,30.645,4.215,43.597,13.828
	c0.729,0.541,1.648,0.825,2.48,1.229c0.324-0.634,0.564-0.906,0.596-1.201c0.088-0.826,0.138-1.662,0.118-2.492
	c-0.346-14.217,3.787-27.207,10.694-39.466c3.759-6.672,7.415-13.402,11.105-20.112c5.791-10.528,6.441-21.019,0.377-31.795
	C171.928,76.84,159.257,64.415,144.516,52.642z"/>
<path fill-rule="evenodd" clip-rule="evenodd" fill="#69308C" d="M144.516,52.642c14.741,11.773,27.412,24.198,36.37,40.116
	c6.064,10.776,5.414,21.267-0.377,31.795c-3.69,6.71-7.347,13.44-11.105,20.112c-6.907,12.259-11.04,25.249-10.694,39.466
	c0.02,0.83-0.03,1.666-0.118,2.492c-0.031,0.295-0.271,0.567-0.596,1.201c-0.832-0.403-1.752-0.688-2.48-1.229
	c-12.952-9.613-27.881-12.866-43.597-13.828c-7.305-0.447-14.588-1.29-21.871-2.048c-11.281-1.175-18.812-7.398-23.877-17.339
	c-6.753-13.252-9.776-27.495-11.9-42.018c-0.477-3.258-0.737-6.548-0.436-10.083c2.058,3.338,3.742,6.99,6.247,9.948
	c5.898,6.964,12.067,13.713,18.423,20.261c1.231,1.268,3.874,1.864,5.76,1.683c10.895-1.048,21.852-3.929,32.607-3.265
	c10.89,0.672,21.092-2.04,31.638-2.587c3.949-0.205,5.413-2.068,6.127-5.681c4.624-23.395,1.964-45.709-9.49-66.801
	C144.934,54.451,144.889,53.972,144.516,52.642z"/>
</svg>
