<?xml version="1.0" encoding="utf-8"?>
<!-- Generator: Adobe Illustrator 16.0.0, SVG Export Plug-In . SVG Version: 6.00 Build 0)  -->
<!DOCTYPE svg PUBLIC "-//W3C//DTD SVG 1.1//EN" "http://www.w3.org/Graphics/SVG/1.1/DTD/svg11.dtd">
<svg version="1.1" id="图层_1" xmlns="http://www.w3.org/2000/svg" xmlns:xlink="http://www.w3.org/1999/xlink" x="0px" y="0px"
	 width="240px" height="240px" viewBox="0 0 240 240" enable-background="new 0 0 240 240" xml:space="preserve">
<path fill-rule="evenodd" clip-rule="evenodd" fill="#33A630" d="M218,241c-64.667,0-129.333,0-194,0
	c-0.386-0.305-0.726-0.752-1.165-0.893C8.741,235.6,3.352,228.217,3.35,213.328c-0.004-31.94-0.001-63.882-0.001-95.822
	c0-30.111-0.02-60.222,0.01-90.333C3.371,13.947,9.59,5.807,22.362,2.037C22.958,1.861,23.457,1.354,24,1c64.667,0,129.333,0,194,0
	c0.7,0.398,1.354,0.956,2.106,1.172c11.667,3.352,18.457,11.609,18.477,23.59c0.101,63.49,0.106,126.981-0.007,190.472
	c-0.021,12.038-6.794,20.239-18.465,23.597C219.357,240.047,218.701,240.603,218,241z M198.345,120.854
	c0.684-9.383-3.036-17.196-9.803-23.467c-2.49-2.307-3.279-4.513-3.254-7.729c0.149-19.357-14.046-33.43-33.397-33.033
	c-3.142,0.064-5.208-0.73-7.264-3.124c-11.708-13.639-35.94-13.505-47.54,0.15c-1.925,2.266-3.839,3.044-6.795,2.98
	C70.233,56.2,56.067,70.732,56.444,90.869c0.035,1.849-0.836,4.367-2.188,5.49c-14.384,11.952-14.581,36.965-0.06,49.159
	c1.36,1.142,2.283,3.634,2.25,5.479c-0.357,20.394,13.763,34.59,34.257,34.525c2.093-0.007,4.782,1.271,6.195,2.849
	c12.131,13.535,35.824,13.713,47.712,0.153c2.053-2.341,4.089-3.278,7.238-3.251c19.864,0.173,33.401-13.547,33.628-33.451
	c0.026-2.302,1.203-5.13,2.807-6.78C194.861,138.273,198.972,130.662,198.345,120.854z"/>
<path fill-rule="evenodd" clip-rule="evenodd" fill="#FFFFFF" d="M198.345,120.854c0.627,9.808-3.483,17.419-10.061,24.188
	c-1.604,1.65-2.78,4.479-2.807,6.78c-0.227,19.904-13.764,33.624-33.628,33.451c-3.149-0.027-5.186,0.91-7.238,3.251
	c-11.889,13.56-35.582,13.382-47.712-0.153c-1.414-1.577-4.102-2.855-6.195-2.849c-20.494,0.064-34.614-14.132-34.257-34.525
	c0.032-1.845-0.89-4.337-2.25-5.479c-14.521-12.194-14.325-37.207,0.06-49.159c1.352-1.123,2.223-3.642,2.188-5.49
	C56.067,70.732,70.233,56.2,90.292,56.632c2.956,0.063,4.87-0.715,6.795-2.98c11.6-13.655,35.832-13.789,47.54-0.15
	c2.056,2.394,4.122,3.188,7.264,3.124c19.352-0.396,33.547,13.676,33.397,33.033c-0.025,3.217,0.764,5.423,3.254,7.729
	C195.309,103.658,199.028,111.472,198.345,120.854z M57.989,141.587c8.216-15.755,18.877-22.238,37.459-21.141
	c5.729,0.339,11.494,0.053,17.243,0.053c0.225-0.45,0.45-0.899,0.675-1.35c-7.532-7.15-14.455-15.123-22.741-21.255
	c-11.714-8.67-27.985-5.187-36.755,6.564C45.283,115.966,46.928,131.901,57.989,141.587z M121.501,112.42
	c0.475,0.305,0.949,0.609,1.423,0.914c6.685-6.927,13.912-13.415,19.938-20.873c12.234-15.145,4.613-37.628-14.102-42.955
	c-10.815-3.078-22.913,0.646-28.011,8.737c15.332,7.255,21.957,19.465,20.817,36.274
	C121.162,100.459,121.501,106.451,121.501,112.42z M116.461,115.429c0-10.424,0.607-20.052-0.154-29.569
	c-0.955-11.938-10.51-22.195-20.54-23.501c-15.54-2.023-27.152,3.655-31.991,16.12c-1.472,3.79-1.795,8.026-2.833,12.958
	c17.449-6.517,30.647-2.077,41.814,10.329C106.847,106.308,111.412,110.423,116.461,115.429z M110.067,127.339
	c-0.296-0.403-0.592-0.807-0.889-1.21c-8.354,0-16.758-0.568-25.05,0.154c-8.863,0.771-15.196,6.153-19.403,13.902
	c-2.652,4.886-2.097,6.044,3.376,7.686c6.837,2.051,13.973,2.058,19.705-1.951C95.698,140.4,102.69,133.594,110.067,127.339z
	 M126.98,132.467c-0.642,0.194-1.283,0.389-1.926,0.583c0.498,9.066,0.242,18.258,1.713,27.164
	c1.37,8.293,7.129,14.055,14.843,17.696c2.932,1.384,5.137,0.976,5.583-2.29c0.687-5.029,1.707-10.271,0.977-15.185
	C146.226,147.357,134.511,141.458,126.98,132.467z M97.402,180.425c3.901-2.54,7.503-4.313,10.411-6.876
	c12.847-11.323,8.439-26.358,8.262-40.768c-6.753,6.302-13.583,12.488-18.635,19.888C91.841,160.869,92.405,170.199,97.402,180.425z
	 M132.73,124.636c6.175,6.653,11.019,12.876,16.869,17.935c8.222,7.109,21.548,7.519,29.944,1.712
	c-3.308-9.634-9.819-16.465-19.784-18.223C151.103,124.532,142.086,125.046,132.73,124.636z"/>
<path fill-rule="evenodd" clip-rule="evenodd" fill="#007DC3" d="M57.989,141.587c-11.062-9.686-12.706-25.621-4.118-37.128
	c8.771-11.751,25.042-15.234,36.755-6.564c8.286,6.132,15.209,14.104,22.741,21.255c-0.225,0.45-0.45,0.899-0.675,1.35
	c-5.749,0-11.515,0.286-17.243-0.053C76.866,119.349,66.205,125.832,57.989,141.587z"/>
<path fill-rule="evenodd" clip-rule="evenodd" fill="#007DC3" d="M121.501,112.42c0-5.969-0.339-11.961,0.064-17.902
	c1.14-16.81-5.485-29.02-20.817-36.274c5.098-8.091,17.196-11.815,28.011-8.737c18.715,5.327,26.336,27.811,14.102,42.955
	c-6.025,7.458-13.253,13.946-19.938,20.873C122.45,113.029,121.976,112.725,121.501,112.42z"/>
<path fill-rule="evenodd" clip-rule="evenodd" fill="#007DC3" d="M116.461,115.429c-5.05-5.006-9.614-9.121-13.703-13.663
	C91.591,89.359,78.393,84.92,60.944,91.437c1.038-4.932,1.361-9.168,2.833-12.958c4.839-12.465,16.451-18.144,31.991-16.12
	c10.03,1.306,19.585,11.563,20.54,23.501C117.069,95.377,116.461,105.005,116.461,115.429z"/>
<path fill-rule="evenodd" clip-rule="evenodd" fill="#F8981D" d="M150.679,61.706c14.662-1.08,27.167,8.935,29.334,23.129
	c2.213,14.495-6.728,28.528-21.126,30.785c-10.182,1.597-20.721,0.933-31.101,1.277c-0.162-0.476-0.323-0.953-0.486-1.428
	c4.034-4.095,7.877-8.403,12.141-12.245C153.267,90.76,156.133,78.616,150.679,61.706z"/>
<path fill-rule="evenodd" clip-rule="evenodd" fill="#7BC143" d="M126.87,127.413c4.249,4.189,8.756,8.155,12.704,12.614
	c11.173,12.61,24.52,16.463,40.451,10.635c2.182,9.311-3.658,20.542-13.443,26.085c-16.93,9.589-38.292-0.766-40.49-20.109
	c-1.084-9.527-0.631-19.229-0.872-28.853C125.77,127.663,126.32,127.537,126.87,127.413z"/>
<path fill-rule="evenodd" clip-rule="evenodd" fill="#7BC143" d="M128.265,121.711c7.109-0.081,13.244-0.443,19.351-0.168
	c16.674,0.755,29.101-5.529,36.706-22.53c2.785,4.201,5.575,7.405,7.241,11.114c5.482,12.197,1.375,24.453-10.975,34.1
	c-7.971,6.228-21.983,5.833-31.155-1.868C142.119,136.221,135.689,129.028,128.265,121.711z"/>
<path fill-rule="evenodd" clip-rule="evenodd" fill="#7BC143" d="M114.056,127.324c-4.2,4.239-8.177,8.736-12.646,12.674
	c-12.637,11.142-16.521,24.479-10.732,40.425c-9.315,2.16-20.533-3.708-26.053-13.506c-9.548-16.953,0.857-38.29,20.208-40.441
	c9.529-1.062,19.229-0.585,28.854-0.803C113.808,126.223,113.933,126.774,114.056,127.324z"/>
<path fill-rule="evenodd" clip-rule="evenodd" fill="#7BC143" d="M119.754,128.731c0.064,7.11,0.412,13.246,0.122,19.352
	c-0.795,16.673,5.459,29.113,22.442,36.761c-4.208,2.774-7.419,5.557-11.132,7.215c-12.209,5.451-24.455,1.315-34.073-11.057
	c-6.208-7.986-5.78-21.998,1.943-31.152C105.211,142.551,112.419,136.141,119.754,128.731z"/>
<path fill-rule="evenodd" clip-rule="evenodd" fill="#00B25A" d="M110.067,127.339c-7.377,6.255-14.37,13.062-22.261,18.581
	c-5.731,4.009-12.867,4.002-19.705,1.951c-5.473-1.642-6.028-2.8-3.376-7.686c4.207-7.749,10.54-13.131,19.403-13.902
	c8.292-0.723,16.696-0.154,25.05-0.154C109.475,126.532,109.771,126.936,110.067,127.339z"/>
<path fill-rule="evenodd" clip-rule="evenodd" fill="#00B25A" d="M126.98,132.467c7.53,8.991,19.245,14.891,21.189,27.969
	c0.73,4.913-0.29,10.155-0.977,15.185c-0.446,3.266-2.651,3.674-5.583,2.29c-7.714-3.642-13.473-9.403-14.843-17.696
	c-1.471-8.906-1.215-18.098-1.713-27.164C125.697,132.855,126.339,132.661,126.98,132.467z"/>
<path fill-rule="evenodd" clip-rule="evenodd" fill="#00B25A" d="M97.402,180.425c-4.997-10.226-5.561-19.556,0.038-27.756
	c5.052-7.399,11.881-13.586,18.635-19.888c0.177,14.409,4.585,29.444-8.262,40.768C104.905,176.111,101.303,177.885,97.402,180.425z
	"/>
<path fill-rule="evenodd" clip-rule="evenodd" fill="#00B25A" d="M132.73,124.636c9.355,0.41,18.372-0.104,27.029,1.424
	c9.965,1.758,16.477,8.589,19.784,18.223c-8.396,5.807-21.723,5.397-29.944-1.712C143.749,137.512,138.905,131.289,132.73,124.636z"
	/>
<path fill-rule="evenodd" clip-rule="evenodd" fill="#00539B" d="M108.521,114.432c-7.496-6.113-14.616-12.785-22.611-18.153
	c-5.807-3.899-12.942-3.756-19.739-1.576c-5.441,1.746-5.974,2.915-3.229,7.749c4.354,7.667,10.788,12.928,19.664,13.53
	c8.305,0.565,16.696-0.164,25.048-0.323C107.944,115.25,108.232,114.841,108.521,114.432z"/>
<path fill-rule="evenodd" clip-rule="evenodd" fill="#00539B" d="M127.431,109.275c7.218-9.245,18.723-15.542,20.217-28.68
	c0.562-4.935-0.638-10.139-1.497-15.142c-0.558-3.249-2.775-3.581-5.659-2.097c-7.584,3.904-13.141,9.86-14.226,18.196
	c-1.164,8.951-0.593,18.128-0.779,27.207C126.136,108.931,126.783,109.103,127.431,109.275z"/>
<path fill-rule="evenodd" clip-rule="evenodd" fill="#00539B" d="M98.099,62.415c-5.409,10.013-6.353,19.313-1.093,27.734
	c4.746,7.599,11.318,14.059,17.81,20.63c0.764-14.39,5.78-29.233-6.595-41.07C105.42,67.03,101.894,65.111,98.099,62.415z"/>
<path fill-rule="evenodd" clip-rule="evenodd" fill="#FFC222" d="M134.126,117.567c9.328-0.817,18.359-0.697,26.941-2.6
	c9.879-2.19,16.087-9.298,18.973-19.066c-8.642-5.436-21.938-4.447-29.842,3.014C144.573,104.224,140.005,110.651,134.126,117.567z"
	/>
</svg>
