<?xml version="1.0" encoding="utf-8"?>
<!-- Generator: Adobe Illustrator 16.0.0, SVG Export Plug-In . SVG Version: 6.00 Build 0)  -->
<!DOCTYPE svg PUBLIC "-//W3C//DTD SVG 1.1//EN" "http://www.w3.org/Graphics/SVG/1.1/DTD/svg11.dtd">
<svg version="1.1" id="图层_1" xmlns="http://www.w3.org/2000/svg" xmlns:xlink="http://www.w3.org/1999/xlink" x="0px" y="0px"
	 width="240px" height="240px" viewBox="0 0 240 240" enable-background="new 0 0 240 240" xml:space="preserve">
<path fill-rule="evenodd" clip-rule="evenodd" fill="#CC0000" d="M23,1c65.333,0,130.667,0,196,0
	c16.062,6.461,19.904,12.215,19.904,29.795c0.001,60.97,0.005,121.939-0.018,182.909c0,2.489,0.018,5.03-0.444,7.457
	c-2.068,10.876-9.3,16.813-19.442,19.839c-65.333,0-130.667,0-196,0c-16.054-6.446-19.905-12.209-19.905-29.794
	c0-60.97-0.005-121.939,0.018-182.908c0.001-2.488-0.012-5.028,0.447-7.456C5.616,9.954,12.877,4.047,23,1z M103.545,128.496
	c1.58,1.197,2.767,2.045,3.896,2.962c17.986,14.593,35.95,29.212,53.956,43.781c4.847,3.922,8.625,4.371,12.176,1.519
	c4.166-3.346,3.486-7.35,1.676-11.723c-14.527-35.071-28.973-70.176-43.426-105.278c-1.511-3.67-3.188-7.11-7.9-7.195
	c-4.857-0.088-6.881,3.132-8.512,7.094c-15.588,37.876-31.244,75.724-46.864,113.586c-0.53,1.284-0.878,2.643-1.471,4.453
	c2.334,0,3.988-0.004,5.642,0c11.244,0.026,11.228,0.021,15.373-10.419C93.172,154.482,98.282,141.7,103.545,128.496z"/>
<path fill-rule="evenodd" clip-rule="evenodd" fill="#FFFFFF" d="M175.249,165.035c-14.527-35.071-28.973-70.176-43.426-105.278
	c-1.511-3.67-3.188-7.11-7.9-7.195c-4.857-0.088-6.881,3.132-8.512,7.094c-15.588,37.876-31.244,75.724-46.864,113.586
	c-0.53,1.284-0.878,2.643-1.471,4.453c2.334,0,3.988-0.004,5.642,0c11.244,0.026,11.228,0.021,15.373-10.419
	c5.081-12.793,10.19-25.575,15.453-38.779c1.58,1.197,2.767,2.045,3.896,2.962c17.986,14.593,35.95,29.212,53.956,43.781
	c4.847,3.922,8.625,4.371,12.176,1.519C177.739,173.412,177.06,169.408,175.249,165.035z"/>
<path fill-rule="evenodd" clip-rule="evenodd" fill="#CC0000" d="M151.395,148.514c-13.536-10.71-27.099-21.388-40.547-32.207
	c-0.812-0.653-1.333-2.663-0.956-3.646c4.367-11.407,8.932-22.738,13.848-35.103c9.728,24.154,19.06,47.324,28.391,70.494
	C151.885,148.206,151.64,148.359,151.395,148.514z"/>
</svg>
