<?xml version="1.0" encoding="utf-8"?>
<!-- Generator: Adobe Illustrator 16.0.0, SVG Export Plug-In . SVG Version: 6.00 Build 0)  -->
<!DOCTYPE svg PUBLIC "-//W3C//DTD SVG 1.1//EN" "http://www.w3.org/Graphics/SVG/1.1/DTD/svg11.dtd">
<svg version="1.1" id="图层_1" xmlns="http://www.w3.org/2000/svg" xmlns:xlink="http://www.w3.org/1999/xlink" x="0px" y="0px"
	 width="240px" height="240px" viewBox="0 0 240 240" enable-background="new 0 0 240 240" xml:space="preserve">
<path fill-rule="evenodd" clip-rule="evenodd" fill="#CC0000" d="M219,241c-65.333,0-130.667,0-196,0
	c-16.054-6.446-19.905-12.209-19.905-29.794c0-60.97-0.005-121.939,0.018-182.908c0.001-2.488-0.012-5.028,0.447-7.456
	C5.616,9.954,12.877,4.047,23,1c65.333,0,130.667,0,196,0c16.062,6.461,19.904,12.215,19.904,29.795
	c0.001,60.97,0.005,121.939-0.018,182.909c0,2.489,0.018,5.03-0.444,7.457C236.374,232.037,229.143,237.974,219,241z
	 M169.604,120.968c0.008,0,0.016,0,0.023,0c0-17.65,0.024-35.301-0.012-52.951c-0.016-8.023-3.135-11.044-11.235-11.047
	c-16.817-0.007-33.637-0.113-50.452,0.126c-2.33,0.033-5.166,1.241-6.863,2.855c-8.322,7.916-16.495,16.007-24.351,24.383
	c-1.913,2.04-3.409,5.381-3.434,8.139c-0.251,27.139-0.156,54.281-0.149,81.423c0.002,7.962,3.168,11.125,11.203,11.131
	c24.144,0.017,48.289,0.008,72.433,0.006c10.06-0.001,12.831-2.719,12.835-12.612C169.608,155.27,169.604,138.118,169.604,120.968z"
	/>
<path fill-rule="evenodd" clip-rule="evenodd" fill="#FFFFFF" d="M169.604,120.968c0,17.15,0.005,34.302-0.001,51.452
	c-0.004,9.894-2.775,12.611-12.835,12.612c-24.145,0.002-48.289,0.011-72.433-0.006c-8.035-0.006-11.201-3.169-11.203-11.131
	c-0.007-27.142-0.103-54.284,0.149-81.423c0.025-2.758,1.521-6.099,3.434-8.139c7.855-8.376,16.028-16.467,24.351-24.383
	c1.698-1.614,4.533-2.822,6.863-2.855c16.815-0.239,33.634-0.133,50.452-0.126c8.101,0.003,11.22,3.023,11.235,11.047
	c0.036,17.65,0.012,35.301,0.012,52.951C169.619,120.968,169.611,120.968,169.604,120.968z M102.055,68.299
	c-7.66,7.64-14.429,14.249-20.976,21.072c-0.968,1.009-1.238,3.021-1.242,4.571c-0.072,26.493,0.005,52.986-0.119,79.479
	c-0.017,3.582,0.845,4.987,4.708,4.964c24.493-0.149,48.987-0.128,73.48-0.02c3.757,0.017,5.146-0.978,5.126-5.067
	c-0.165-34.99-0.159-69.981,0.006-104.972c0.02-4.084-1.319-5.076-5.142-5.031c-14.827,0.176-29.657,0.062-44.486,0.09
	c-1.41,0.003-2.82,0.25-4.328,0.394c0,8.993-0.112,17.479,0.051,25.96c0.073,3.815-1.315,5.542-5.224,5.426
	c-4.994-0.149-10.02,0.233-14.982-0.191c-1.657-0.142-3.161-2.063-4.735-3.17c1.589-1.089,3.097-2.938,4.782-3.116
	c4.243-0.451,8.566-0.149,13.08-0.149C102.055,81.876,102.055,75.791,102.055,68.299z"/>
<path fill-rule="evenodd" clip-rule="evenodd" fill="#CC0000" d="M102.055,68.299c0,7.492,0,13.577,0,20.238
	c-4.514,0-8.837-0.302-13.08,0.149c-1.685,0.179-3.193,2.027-4.782,3.116c1.574,1.107,3.078,3.028,4.735,3.17
	c4.962,0.425,9.988,0.042,14.982,0.191c3.909,0.116,5.297-1.61,5.224-5.426c-0.163-8.48-0.051-16.967-0.051-25.96
	c1.508-0.144,2.917-0.391,4.328-0.394c14.829-0.028,29.659,0.086,44.486-0.09c3.822-0.045,5.161,0.947,5.142,5.031
	c-0.165,34.99-0.171,69.981-0.006,104.972c0.02,4.09-1.369,5.084-5.126,5.067c-24.493-0.108-48.987-0.13-73.48,0.02
	c-3.863,0.023-4.725-1.382-4.708-4.964c0.125-26.492,0.047-52.985,0.119-79.479c0.004-1.55,0.273-3.563,1.242-4.571
	C87.626,82.548,94.395,75.938,102.055,68.299z M150.269,111.476c-0.063-5.043-8.546-10.525-12.749-8.542
	c-3.712,1.751-6.563,1.599-7.646-2.875c-1.045-4.308-3.797-5.155-7.793-5.066c-4.204,0.094-7.96-0.04-9.143,5.302
	c-0.83,3.748-3.588,4.915-6.809,2.836c-4.99-3.223-7.417,0.368-10.528,3.149c-2.952,2.639-3.714,5.188-1.598,8.678
	c2.16,3.563,0.964,6.127-2.989,7.129c-4.23,1.072-5.188,3.739-5.068,7.791c0.124,4.21-0.026,7.94,5.301,9.138
	c3.688,0.829,4.929,3.467,2.847,6.789c-2.496,3.982-1.028,6.616,2.028,9.446c2.915,2.697,5.273,5.556,9.77,2.713
	c3.45-2.181,6.146-1.041,7.081,3.022c0.93,4.043,3.426,5.225,7.306,4.976c3.905-0.251,8.215,0.856,9.486-4.745
	c0.97-4.268,3.744-5.48,7.428-3.166c4.298,2.7,6.617,0.03,9.367-2.608c2.857-2.74,5.003-5.229,2.351-9.385
	c-2.228-3.491-1.008-6.182,2.962-7.123c4.67-1.107,5.153-4.25,5.082-8.288c-0.068-3.865,0.023-7.329-4.803-8.472
	c-4.179-0.989-5.354-3.55-3.227-7.46C149.551,113.564,149.938,112.286,150.269,111.476z"/>
<path fill-rule="evenodd" clip-rule="evenodd" fill="#FFFFFF" d="M150.269,111.476c-0.33,0.811-0.718,2.089-1.343,3.238
	c-2.128,3.91-0.952,6.471,3.227,7.46c4.826,1.143,4.734,4.606,4.803,8.472c0.071,4.038-0.412,7.181-5.082,8.288
	c-3.97,0.941-5.189,3.632-2.962,7.123c2.652,4.155,0.507,6.645-2.351,9.385c-2.75,2.639-5.069,5.309-9.367,2.608
	c-3.684-2.314-6.458-1.102-7.428,3.166c-1.271,5.602-5.581,4.494-9.486,4.745c-3.879,0.249-6.376-0.933-7.306-4.976
	c-0.935-4.063-3.631-5.203-7.081-3.022c-4.497,2.843-6.855-0.016-9.77-2.713c-3.056-2.83-4.524-5.464-2.028-9.446
	c2.082-3.322,0.841-5.96-2.847-6.789c-5.327-1.197-5.178-4.928-5.301-9.138c-0.119-4.052,0.838-6.719,5.068-7.791
	c3.953-1.002,5.149-3.566,2.989-7.129c-2.116-3.49-1.354-6.039,1.598-8.678c3.111-2.781,5.538-6.372,10.528-3.149
	c3.22,2.079,5.979,0.912,6.809-2.836c1.183-5.342,4.939-5.208,9.143-5.302c3.996-0.089,6.748,0.759,7.793,5.066
	c1.084,4.474,3.935,4.626,7.646,2.875C141.723,100.95,150.206,106.433,150.269,111.476z M151.232,130.613
	c-1.785-1.389-2.716-2.398-3.865-2.956c-5.268-2.554-7.547-8.157-5.586-13.497c0.421-1.146,0.503-3.101-0.169-3.771
	c-0.682-0.681-2.63-0.626-3.78-0.215c-5.392,1.928-10.994-0.366-13.579-5.555c-0.549-1.102-1.822-2.251-2.954-2.499
	c-0.677-0.148-2.057,1.245-2.557,2.231c-2.802,5.522-8.185,7.753-13.861,5.735c-1.044-0.372-2.971-0.48-3.38,0.088
	c-0.657,0.914-0.83,2.647-0.438,3.766c1.904,5.431-0.314,11.184-5.3,13.65c-1.141,0.564-2.612,1.827-2.663,2.834
	c-0.047,0.94,1.402,2.335,2.513,2.893c5.144,2.58,7.432,8.231,5.504,13.58c-0.411,1.141-0.433,3.132,0.255,3.763
	c0.726,0.666,2.647,0.543,3.815,0.123c5.316-1.91,10.926,0.465,13.431,5.729c0.481,1.012,1.73,2.459,2.455,2.367
	c1.124-0.143,2.527-1.217,3.071-2.277c2.798-5.454,8.237-7.683,13.917-5.697c1.113,0.39,2.844,0.189,3.761-0.472
	c0.56-0.403,0.436-2.327,0.057-3.363c-2.044-5.593,0.208-11.122,5.72-13.834C148.63,132.729,149.494,131.885,151.232,130.613z"/>
<path fill-rule="evenodd" clip-rule="evenodd" fill="#CC0000" d="M151.232,130.613c-1.738,1.271-2.603,2.115-3.633,2.623
	c-5.512,2.712-7.764,8.241-5.72,13.834c0.379,1.036,0.503,2.96-0.057,3.363c-0.917,0.661-2.647,0.861-3.761,0.472
	c-5.68-1.985-11.119,0.243-13.917,5.697c-0.544,1.061-1.947,2.135-3.071,2.277c-0.725,0.092-1.974-1.355-2.455-2.367
	c-2.505-5.265-8.115-7.64-13.431-5.729c-1.168,0.42-3.09,0.543-3.815-0.123c-0.688-0.631-0.666-2.622-0.255-3.763
	c1.928-5.349-0.36-11-5.504-13.58c-1.111-0.558-2.561-1.952-2.513-2.893c0.051-1.007,1.521-2.27,2.663-2.834
	c4.986-2.467,7.204-8.22,5.3-13.65c-0.392-1.118-0.219-2.852,0.438-3.766c0.409-0.568,2.336-0.46,3.38-0.088
	c5.676,2.018,11.059-0.213,13.861-5.735c0.5-0.986,1.88-2.38,2.557-2.231c1.132,0.248,2.405,1.397,2.954,2.499
	c2.585,5.188,8.188,7.482,13.579,5.555c1.15-0.411,3.099-0.466,3.78,0.215c0.672,0.671,0.59,2.626,0.169,3.771
	c-1.961,5.34,0.318,10.943,5.586,13.497C148.517,128.215,149.447,129.225,151.232,130.613z M134.296,131.083
	c-0.037-6.632-6.227-12.89-12.785-12.926c-6.538-0.037-12.815,6.191-12.912,12.811c-0.1,6.864,6.221,13.21,13.044,13.093
	C128.284,143.946,134.332,137.743,134.296,131.083z"/>
<path fill-rule="evenodd" clip-rule="evenodd" fill="#FFFFFF" d="M134.296,131.083c0.036,6.66-6.012,12.863-12.652,12.978
	c-6.823,0.117-13.145-6.229-13.044-13.093c0.097-6.619,6.374-12.848,12.912-12.811C128.069,118.193,134.259,124.451,134.296,131.083
	z M121.354,137.335c4.022-0.115,6.343-2.156,6.35-6.137c0.007-3.918-2.128-6.2-6.193-6.215c-4.016-0.014-6.261,2.094-6.3,6.093
	C115.169,135.078,117.411,137.141,121.354,137.335z"/>
<path fill-rule="evenodd" clip-rule="evenodd" fill="#CC0000" d="M121.354,137.335c-3.942-0.194-6.184-2.257-6.144-6.259
	c0.04-3.999,2.285-6.106,6.3-6.093c4.065,0.015,6.2,2.297,6.193,6.215C127.696,135.179,125.376,137.22,121.354,137.335z"/>
</svg>
