<?xml version="1.0" encoding="utf-8"?>
<!-- Generator: Adobe Illustrator 16.0.0, SVG Export Plug-In . SVG Version: 6.00 Build 0)  -->
<!DOCTYPE svg PUBLIC "-//W3C//DTD SVG 1.1//EN" "http://www.w3.org/Graphics/SVG/1.1/DTD/svg11.dtd">
<svg version="1.1" id="图层_1" xmlns="http://www.w3.org/2000/svg" xmlns:xlink="http://www.w3.org/1999/xlink" x="0px" y="0px"
	 width="240px" height="240px" viewBox="0 0 240 240" enable-background="new 0 0 240 240" xml:space="preserve">
<path fill="#191919" d="M216,241c-63.333,0-126.667,0-190,0c-0.891-0.418-1.742-1.012-2.679-1.229
	c-12.699-2.938-19.778-11.261-19.8-24.41c-0.108-62.907-0.109-125.815,0-188.725C3.543,13.49,10.639,5.148,23.324,2.232
	C24.261,2.017,25.11,1.42,26,1c63.333,0,126.667,0,190,0c0.891,0.42,1.738,1.017,2.676,1.232
	c12.852,2.953,19.811,11.435,19.824,24.903c0.066,62.406,0.07,124.813-0.003,187.219c-0.017,14.143-6.521,22.051-20.306,25.521
	C217.416,240.07,216.729,240.617,216,241z"/>
<g>
	<path fill="#D74A19" d="M68.143,93.675l-12.755-4.148c-3.056-0.984-6.279,0.672-7.266,3.701c-0.986,3.025,0.67,6.278,3.697,7.264
		l12.756,4.148c0.596,0.191,1.191,0.285,1.783,0.285c2.431,0,4.688-1.548,5.482-3.985C72.826,97.913,71.17,94.659,68.143,93.675z"/>
	<path fill="#D74A19" d="M64.58,128.538l-12.761,4.137c-3.027,0.982-4.688,4.231-3.702,7.261c0.788,2.437,3.049,3.987,5.479,3.987
		c0.587,0,1.189-0.093,1.781-0.284l12.757-4.137c3.03-0.982,4.69-4.233,3.705-7.261C70.862,129.215,67.635,127.56,64.58,128.538z"/>
	<path fill="#D74A19" d="M120.001,65.943c3.188,0,5.766-2.58,5.766-5.763V46.771c0-3.184-2.577-5.763-5.766-5.763
		c-3.185,0-5.762,2.579-5.762,5.763V60.18C114.239,63.363,116.816,65.943,120.001,65.943z"/>
	<path fill="#D74A19" d="M173.647,104.923c0.592,0,1.188-0.093,1.778-0.285l12.753-4.142c3.029-0.985,4.688-4.236,3.705-7.263
		c-0.987-3.026-4.251-4.68-7.262-3.701l-12.755,4.143c-3.027,0.984-4.688,4.236-3.702,7.264
		C168.957,103.373,171.216,104.923,173.647,104.923z"/>
	<path fill="#D74A19" d="M164.427,55.441c-2.589-1.88-6.179-1.301-8.053,1.277l-7.88,10.852c-1.868,2.575-1.295,6.18,1.278,8.049
		c0.981,0.715,2.166,1.101,3.381,1.1c1.785,0,3.542-0.824,4.672-2.378l7.88-10.852C167.574,60.914,167,57.309,164.427,55.441z"/>
	<path fill="#D74A19" d="M188.179,132.681L188.179,132.681l-12.753-4.143c-3.029-0.978-6.276,0.674-7.261,3.7
		c-0.985,3.028,0.675,6.279,3.702,7.264l12.756,4.143c0.573,0.188,1.174,0.283,1.777,0.283c2.432,0,4.688-1.551,5.483-3.984
		C192.866,136.915,191.208,133.665,188.179,132.681z"/>
	<path fill="#D74A19" d="M86.852,76.72c1.17,0,2.357-0.357,3.381-1.1c2.573-1.869,3.148-5.474,1.279-8.049l-7.88-10.852
		c-1.875-2.572-5.471-3.152-8.054-1.277c-2.572,1.867-3.146,5.473-1.277,8.047l7.876,10.852C83.31,75.896,85.067,76.72,86.852,76.72
		z"/>
	<path fill="#D74A19" d="M120,73.237c-23.325,0-42.303,18.978-42.303,42.305c0,9.557,3.131,18.58,9.059,26.096
		c4.39,5.569,8.598,11.724,12.158,17.794l0.057,0.099v24.771c0,2.314,1.879,4.191,4.192,4.191h4.69
		c0.262,5.836,5.042,10.499,10.943,10.499h2.411c5.902,0,10.678-4.663,10.94-10.499h4.689c2.313,0,4.192-1.877,4.192-4.191v-24.765
		l0.058-0.105c3.611-6.152,7.701-12.141,12.162-17.792c5.927-7.515,9.054-16.539,9.054-26.098
		C162.302,92.215,143.327,73.237,120,73.237z M132.647,180.11h-25.293v-6.143h25.293V180.11z M132.647,167.681h-25.293v-6.178
		h25.293V167.681z M146.669,136.449c-4.194,5.316-8.06,10.885-11.575,16.672h-5.435h-3.689c0.013-0.025,0.025-0.05,0.04-0.08
		c0-0.044,0.011-0.103,0.034-0.171c0.022-0.068,0.057-0.125,0.103-0.171c0.045-0.137,0.091-0.273,0.137-0.41
		c0.045-0.137,0.091-0.296,0.137-0.479c0,0,13.822-43.032,13.822-43.748c0-2.047-1.66-3.707-3.707-3.707
		c-1.993,0-3.614,1.573-3.699,3.545l-11.819,39.601l-13.829-39.52c-0.043-2.015-1.688-3.636-3.713-3.636
		c-2.053,0-3.717,1.664-3.717,3.717c0,0.833,15.377,42.79,15.377,42.79c0.091,0.183,0.171,0.376,0.239,0.581s0.125,0.4,0.171,0.582
		c0.091,0.183,0.17,0.342,0.239,0.479c0.068,0.137,0.125,0.273,0.171,0.41c0.035,0.076,0.071,0.145,0.107,0.217h-11.155
		c-3.472-5.715-7.441-11.44-11.57-16.674c-4.749-6.022-7.256-13.25-7.256-20.905c0-18.706,15.215-33.923,33.919-33.923
		c18.705,0,33.92,15.217,33.92,33.923C153.92,123.197,151.416,130.428,146.669,136.449z"/>
</g>
</svg>
