<?xml version="1.0" encoding="utf-8"?>
<!-- Generator: Adobe Illustrator 16.0.0, SVG Export Plug-In . SVG Version: 6.00 Build 0)  -->
<!DOCTYPE svg PUBLIC "-//W3C//DTD SVG 1.1//EN" "http://www.w3.org/Graphics/SVG/1.1/DTD/svg11.dtd">
<svg version="1.1" id="图层_1" xmlns="http://www.w3.org/2000/svg" xmlns:xlink="http://www.w3.org/1999/xlink" x="0px" y="0px"
	 width="240px" height="240px" viewBox="0 0 240 240" enable-background="new 0 0 240 240" xml:space="preserve">
<path fill="#5979F8" d="M238,216c0,13.255-10.745,24-24,24H26c-13.255,0-24-10.745-24-24V24C2,10.745,12.745,0,26,0h188
	c13.255,0,24,10.745,24,24V216z"/>
<g>
	<path fill="#FFFFFF" d="M103.167,65.034V61c0-4.418,3.949-8,8.82-8H113V39.333h-12.833c-6.627,0-12,5.354-12,11.96v14.105
		c3.027-0.365,6.176-0.565,9.417-0.565C99.478,64.833,101.339,64.906,103.167,65.034z"/>
	<path fill="#FFFFFF" d="M126.25,86.833c-1.111,0-2.205,0.072-3.282,0.196c-2.407-8.675-12.708-15.196-25.051-15.196
		c-12.829,0-23.451,7.044-25.297,16.23c-1.238-0.148-2.5-0.23-3.786-0.23c-15.095,0-27.333,10.558-27.333,23.583
		c0,1.261,0.118,2.499,0.339,3.706c0.066,3.717,3.094,6.711,6.827,6.711c3.375,0,6.172-2.45,6.727-5.667h0.305
		c-0.085-0.386-0.151-0.778-0.199-1.174c0-0.269-0.02-0.533-0.05-0.794c-0.008-0.164-0.029-0.324-0.029-0.489
		c0-7.165,6.699-12.98,15.03-13.141c1.217,0.208,2.52,0.274,3.869,0.169c6.097-0.474,10.78-4.207,10.459-8.336
		c-0.005-0.072-0.021-0.141-0.03-0.212c1.824-4.373,6.872-7.523,12.836-7.523c6.292,0,11.568,3.503,13.112,8.25h0.344
		c-0.075,0.394-0.123,0.795-0.123,1.208c0,3.935,3.563,7.125,7.958,7.125c1.029,0,2.009-0.181,2.912-0.499h5.756
		c7.156,0,12.957,5.802,12.957,12.958c0,5.006-2.844,9.342-7,11.5v0.124h-21.513c-4.872,0-8.82-3.582-8.82-8v-25.5h-4.083
		c-5.615,0-10.235,4.208-10.844,9.618c-0.023-0.028-0.05-0.052-0.073-0.079v25.334c0,6.604,5.373,11.96,12,11.96H133.5h1.323h0.011
		v-0.004c10.936-3.494,18.833-13.473,18.833-25.247C153.667,98.735,141.393,86.833,126.25,86.833z"/>
	<path fill="#FFFFFF" d="M179.5,83.333c-1.801,0-3.305-1.198-3.807-2.833H175.5v-1.167v-28.04c0-6.605-5.373-11.96-12-11.96h-12.666
		V53h0.846c4.871,0,8.82,3.582,8.82,8v23.052c1.5,2.301,3.842,4.328,7.5,4.948c0,0-3.667,1.248-7.5,6.483v21.85
		c0,1.26-0.33,2.448-0.902,3.509c0.031,0.414,0.069,0.827,0.069,1.248c0,7.423-4.962,13.793-12.053,16.577H163.5
		c6.627,0,12-5.355,12-11.96V101v-0.667c0-2.209,1.791-4,4-4h5.334v-13H179.5z"/>
	<rect x="118.5" y="55.5" fill="#FFFFFF" width="20.667" height="4.167"/>
	<rect x="118.5" y="65.398" fill="#FFFFFF" width="29.114" height="3.268"/>
	<rect x="126.667" y="74.667" fill="#FFFFFF" width="15.5" height="3.667"/>
</g>
<g>
	<path fill="#FFFFFF" d="M69.039,188.52l6.083,1.929c-0.933,3.392-2.483,5.91-4.652,7.556c-2.169,1.646-4.92,2.47-8.255,2.47
		c-4.126,0-7.517-1.41-10.173-4.229c-2.657-2.819-3.985-6.673-3.985-11.562c0-5.172,1.335-9.188,4.006-12.049
		c2.67-2.861,6.182-4.292,10.534-4.292c3.801,0,6.888,1.123,9.262,3.369c1.413,1.329,2.472,3.236,3.179,5.723l-6.21,1.484
		c-0.367-1.611-1.134-2.883-2.299-3.815s-2.583-1.398-4.25-1.398c-2.303,0-4.172,0.826-5.606,2.479s-2.151,4.331-2.151,8.032
		c0,3.929,0.707,6.727,2.12,8.394c1.413,1.667,3.25,2.501,5.511,2.501c1.667,0,3.101-0.53,4.302-1.59
		C67.653,192.462,68.516,190.795,69.039,188.52z"/>
	<path fill="#FFFFFF" d="M79.233,184.599c0-3.165,0.473-5.821,1.42-7.969c0.707-1.583,1.671-3.003,2.893-4.261
		c1.222-1.257,2.561-2.189,4.017-2.798c1.936-0.818,4.168-1.229,6.697-1.229c4.578,0,8.241,1.42,10.989,4.26
		s4.123,6.789,4.123,11.848c0,5.017-1.364,8.94-4.091,11.773s-6.373,4.25-10.936,4.25c-4.621,0-8.294-1.41-11.021-4.229
		C80.596,193.426,79.233,189.544,79.233,184.599z M85.697,184.387c0,3.519,0.813,6.186,2.438,8.001
		c1.625,1.815,3.688,2.724,6.188,2.724s4.553-0.901,6.157-2.702c1.604-1.802,2.405-4.504,2.405-8.107
		c0-3.561-0.781-6.217-2.342-7.969c-1.562-1.752-3.635-2.628-6.221-2.628c-2.585,0-4.67,0.887-6.252,2.659
		C86.488,178.138,85.697,180.813,85.697,184.387z"/>
	<path fill="#FFFFFF" d="M114.246,168.872h11.466c2.586,0,4.558,0.198,5.914,0.594c1.822,0.537,3.384,1.491,4.684,2.861
		s2.289,3.049,2.967,5.033c0.679,1.985,1.018,4.434,1.018,7.344c0,2.558-0.317,4.763-0.953,6.613
		c-0.777,2.261-1.887,4.091-3.328,5.489c-1.088,1.06-2.558,1.887-4.408,2.479c-1.385,0.438-3.236,0.657-5.554,0.657h-11.805V168.872
		z M120.52,174.129v20.579h4.684c1.752,0,3.017-0.099,3.794-0.297c1.018-0.254,1.862-0.685,2.533-1.292s1.219-1.607,1.643-2.999
		s0.636-3.289,0.636-5.691c0-2.401-0.212-4.245-0.636-5.531s-1.018-2.289-1.78-3.01s-1.731-1.208-2.904-1.463
		c-0.876-0.197-2.593-0.296-5.15-0.296H120.52z"/>
	<path fill="#FFFFFF" d="M145.614,199.943v-31.071h23.038v5.257h-16.765v6.888h15.599v5.235h-15.599v8.456h17.358v5.235H145.614z"/>
	<path fill="#FFFFFF" d="M174.586,199.943v-31.071h13.204c3.32,0,5.733,0.279,7.238,0.838c1.505,0.558,2.709,1.551,3.613,2.978
		s1.356,3.06,1.356,4.896c0,2.332-0.686,4.257-2.056,5.775c-1.37,1.52-3.419,2.477-6.146,2.872c1.356,0.792,2.477,1.66,3.359,2.607
		c0.883,0.946,2.073,2.628,3.571,5.044l3.794,6.062h-7.503l-4.535-6.761c-1.611-2.416-2.713-3.938-3.307-4.567
		s-1.223-1.06-1.886-1.293c-0.665-0.233-1.717-0.35-3.158-0.35h-1.271v12.971H174.586z M180.86,182.013h4.642
		c3.009,0,4.889-0.127,5.638-0.381c0.748-0.255,1.335-0.692,1.759-1.314s0.636-1.398,0.636-2.331c0-1.046-0.279-1.89-0.837-2.533
		c-0.559-0.643-1.346-1.049-2.363-1.219c-0.509-0.07-2.035-0.105-4.578-0.105h-4.896V182.013z"/>
</g>
</svg>
