<?xml version="1.0" encoding="utf-8"?>
<!-- Generator: Adobe Illustrator 16.0.0, SVG Export Plug-In . SVG Version: 6.00 Build 0)  -->
<!DOCTYPE svg PUBLIC "-//W3C//DTD SVG 1.1//EN" "http://www.w3.org/Graphics/SVG/1.1/DTD/svg11.dtd">
<svg version="1.1" id="图层_1" xmlns="http://www.w3.org/2000/svg" xmlns:xlink="http://www.w3.org/1999/xlink" x="0px" y="0px"
	 width="240px" height="240px" viewBox="0 0 240 240" enable-background="new 0 0 240 240" xml:space="preserve">
<path fill-rule="evenodd" clip-rule="evenodd" fill="#00ADBC" d="M238,216c0,13.255-10.745,24-24,24H26c-13.255,0-24-10.745-24-24
	V24C2,10.745,12.745,0,26,0h188c13.255,0,24,10.745,24,24V216z"/>
<path fill-rule="evenodd" clip-rule="evenodd" fill="#FDFDFD" d="M48.999,83c0-8.333-0.061-16.666,0.021-24.999
	c0.058-5.921,3.005-8.943,8.938-8.972c16.666-0.08,33.332-0.079,49.998,0.004c5.432,0.027,9.22,3.542,9.278,9.021
	c0.175,16.33,0.177,32.665,0.021,48.996c-0.056,5.816-4.437,9.906-10.343,9.942c-15.999,0.098-31.999,0.102-47.998,0.001
	c-6.335-0.04-9.85-3.703-9.9-9.994C48.951,99,48.999,91,48.999,83z"/>
<path fill-rule="evenodd" clip-rule="evenodd" fill="#00ADBC" d="M69.842,82.37c-0.104,5.285,2.135,9.544,6.864,12.254
	c5.167,2.962,10.586,2.406,15.903,0.352c0.642-0.248,0.887-1.525,1.315-2.325c-0.814-0.356-1.667-1.076-2.435-0.994
	c-1.637,0.176-3.206,0.935-4.843,1.156c-4.667,0.63-9.223-0.545-11.074-4.868c-1.26-2.944-1.24-7.291,0.009-10.251
	c1.814-4.302,6.241-5.717,10.979-5c1.639,0.248,3.228,0.93,4.865,1.044c0.762,0.053,1.739-0.643,2.294-1.28
	c0.186-0.213-0.468-1.704-1.016-1.927c-4.946-2.004-10.039-2.745-14.995-0.216C72.948,72.746,70.093,76.639,69.842,82.37z"/>
<path fill-rule="evenodd" clip-rule="evenodd" fill="#FDFDFD" d="M194.001,160.5c-0.001,8.166,0.061,16.333-0.021,24.498
	c-0.06,5.922-3.005,8.944-8.938,8.973c-16.665,0.08-33.331,0.079-49.996-0.004c-5.425-0.026-9.221-3.61-9.268-9.02
	c-0.141-16.331-0.131-32.665-0.009-48.996c0.042-5.598,4.249-9.87,9.821-9.917c16.331-0.138,32.665-0.145,48.996-0.004
	c5.925,0.051,9.354,3.893,9.399,9.972C194.047,144.168,194.001,152.334,194.001,160.5z"/>
<path fill-rule="evenodd" clip-rule="evenodd" fill="#00ADBC" d="M167.65,173.5c0.026-0.867,0.053-1.733,0.079-2.601
	c-2.129-0.182-4.259-0.521-6.387-0.51c-3.066,0.018-5.363,0.053-5.336-4.361c0.027-4.247,2.301-3.942,5.084-4.019
	c2.045-0.056,4.08-0.502,6.119-0.774c-0.035-0.747-0.071-1.493-0.106-2.24c-2.478-0.193-4.968-0.639-7.43-0.521
	c-3.507,0.169-3.529-1.8-3.587-4.434c-0.061-2.795,0.783-3.951,3.676-3.857c2.585,0.084,5.185-0.288,9.124-0.547
	c-3.695-2.856-13.792-3.837-15.443-2.269c-0.724,0.687-1.154,2.016-1.17,3.062c-0.101,6.661-0.102,13.325,0.011,19.986
	c0.018,1.034,0.747,2.927,1.216,2.949C158.208,173.586,162.932,173.5,167.65,173.5z"/>
<path fill-rule="evenodd" clip-rule="evenodd" fill="#FDFDFD" d="M82.873,194.001c-8.167-0.001-16.333,0.058-24.499-0.02
	c-6.543-0.061-9.345-2.93-9.362-9.566c-0.041-15.999-0.039-31.999-0.001-47.998c0.016-6.905,3.483-10.396,10.488-10.425
	c15.666-0.065,31.332-0.071,46.998,0.004c6.473,0.031,10.742,4.12,10.791,10.538c0.121,15.832,0.117,31.665,0,47.497
	c-0.049,6.599-3.677,9.92-10.415,9.959C98.873,194.037,90.873,194.001,82.873,194.001z"/>
<path fill-rule="evenodd" clip-rule="evenodd" fill="#00ADBC" d="M71.825,160.229c0,3.328-0.228,6.68,0.114,9.973
	c0.133,1.287,1.552,3.487,2.376,3.482c4.772-0.023,9.752,0.152,14.26-1.141c5.79-1.661,8.999-8.013,8.254-13.877
	c-0.758-5.977-4.818-10.404-10.926-11.341c-3.431-0.526-6.961-0.396-10.444-0.596c-2.897-0.165-3.755,1.374-3.662,4.014
	C71.909,153.901,71.824,157.066,71.825,160.229z"/>
<path fill-rule="evenodd" clip-rule="evenodd" fill="#FDFDFD" d="M160.589,48.999c8,0.001,16-0.056,23.999,0.019
	c6.555,0.061,9.382,2.925,9.399,9.529c0.043,16.165,0.05,32.331-0.005,48.497c-0.021,6.276-3.577,9.912-9.94,9.95
	c-15.999,0.098-31.998,0.103-47.997-0.005c-6.123-0.041-10.26-4.292-10.295-10.485c-0.088-15.832-0.083-31.665-0.007-47.497
	c0.031-6.59,3.601-9.957,10.348-9.997C144.257,48.962,152.423,48.999,160.589,48.999z"/>
<path fill-rule="evenodd" clip-rule="evenodd" fill="#00ADBC" d="M145.548,82.705c-0.052,7.758,5.98,13.817,13.924,13.989
	c8.575,0.187,15.128-5.716,15.289-13.77c0.163-8.115-6.153-14.179-14.774-14.184C151.697,68.736,145.603,74.631,145.548,82.705z"/>
<path fill-rule="evenodd" clip-rule="evenodd" fill="#FDFDFD" d="M75.703,160.059c0-0.331-0.103-0.705,0.016-0.986
	c1.209-2.887-2.912-7.925,3.122-8.769c7.363-1.029,12.797,2.429,13.824,8.198c0.931,5.226-2.115,9.96-7.294,11.313
	c-0.637,0.167-1.294,0.276-1.948,0.36c-7.088,0.917-7.725,0.365-7.719-6.642C75.705,162.376,75.704,161.217,75.703,160.059z"/>
<path fill-rule="evenodd" clip-rule="evenodd" fill="#FDFDFD" d="M159.944,93.068c-5.699-0.104-10.619-5.028-10.483-10.492
	c0.139-5.573,5.133-10.219,10.851-10.092c5.824,0.129,10.622,4.908,10.486,10.445C170.661,88.471,165.628,93.172,159.944,93.068z"/>
</svg>
