<?xml version="1.0" encoding="utf-8"?>
<!-- Generator: Adobe Illustrator 16.0.0, SVG Export Plug-In . SVG Version: 6.00 Build 0)  -->
<!DOCTYPE svg PUBLIC "-//W3C//DTD SVG 1.1//EN" "http://www.w3.org/Graphics/SVG/1.1/DTD/svg11.dtd">
<svg version="1.1" id="图层_1" xmlns="http://www.w3.org/2000/svg" xmlns:xlink="http://www.w3.org/1999/xlink" x="0px" y="0px"
	 width="240px" height="240px" viewBox="0 0 240 240" enable-background="new 0 0 240 240" xml:space="preserve">
<path fill-rule="evenodd" clip-rule="evenodd" d="M220,241c-66,0-132,0-198,0c-14.345-4.938-19.268-15.212-19.169-30.024
	C3.24,149.995,2.995,89.01,3.025,28.026c0.001-2.65,0.049-5.359,0.573-7.94C5.674,9.881,12.73,4.342,22,1c66,0,132,0,198,0
	c14.334,4.945,19.27,15.209,19.17,30.025c-0.41,60.98-0.165,121.966-0.194,182.949c-0.002,2.651-0.041,5.362-0.57,7.942
	C236.313,232.107,229.306,237.694,220,241z M7.003,151.209c0,21.799-0.038,43.112,0.014,64.425
	c0.031,13.222,8.298,21.352,21.683,21.355c61.499,0.02,122.998,0.019,184.497,0.001c13.619-0.004,21.769-8.143,21.792-21.752
	c0.035-19.833,0.015-39.666,0-59.499c-0.001-1.448-0.143-2.896-0.228-4.53C158.836,151.209,83.238,151.209,7.003,151.209z
	 M146.487,94.707c-4.122,1.328-7.149,2.416-8.142,7.227c-1.535,7.452-8.322,11.505-15.807,10.572
	c-6.965-0.867-12.083-6.651-12.173-14.148c-0.124-10.317-0.144-20.639,0.009-30.954c0.12-8.045,5.989-14.089,13.598-14.407
	c7.815-0.327,14.195,5.428,15.071,13.587c0.147,1.372,0.322,2.741,0.564,4.792c3.251-2.258,7.948-1.551,7.254-6.876
	c-1.413-10.822-11.627-19.469-22.719-19.184c-11.569,0.298-21.337,9.342-21.656,20.646c-0.319,11.308-0.375,22.641-0.009,33.944
	c0.41,12.629,12.051,21.687,25.297,20.221C139.702,118.808,148.404,107.271,146.487,94.707z M162.434,129.021
	c7.774,0.825,11.902-2.198,12.497-9.357c0.535-6.445,0.406-12.952,0.451-19.433c0.04-5.711-0.424-11.566,7.79-14.227
	c-6.955-2.563-7.819-7.067-7.789-12.202c0.042-7.145,0.146-14.313-0.354-21.431c-0.49-6.96-4.746-10.108-14.088-9.806
	c9.34,4.395,7.342,11.719,7.519,18.366c0.07,2.658,0.053,5.321,0.01,7.981c-0.109,6.804-0.609,13.75,8.019,17.232
	c-7.119,3.362-8.152,8.9-8.035,15.04c0.089,4.654-0.137,9.32,0.072,13.967C168.776,120.748,168.126,125.816,162.434,129.021z
	 M87.684,128.915c-7.891-3.595-7.197-9.954-7.119-16.13c0.057-4.489-0.125-8.983,0.006-13.47c0.172-5.872-0.97-10.939-8.476-13.517
	c8.219-3.088,8.628-9.162,8.482-15.528c-0.076-3.324,0.007-6.652,0.002-9.979c-0.009-6.612-1.229-13.642,7.602-17.542
	c-9.014-0.872-13.622,2.575-14.124,10.05c-0.445,6.624-0.436,13.303-0.191,19.942c0.208,5.653-0.569,10.53-7.249,13.133
	c6.375,2.801,7.474,7.425,7.252,13.024c-0.269,6.805-0.227,13.645,0.124,20.445C74.355,126.336,79.482,130.166,87.684,128.915z"/>
<path fill-rule="evenodd" clip-rule="evenodd" fill="#FFFFFF" d="M7.003,151.209c76.235,0,151.833,0,227.758,0
	c0.085,1.634,0.227,3.082,0.228,4.53c0.015,19.833,0.035,39.666,0,59.499c-0.023,13.609-8.173,21.748-21.792,21.752
	c-61.499,0.018-122.998,0.019-184.497-0.001c-13.385-0.004-21.652-8.134-21.683-21.355C6.965,194.321,7.003,173.008,7.003,151.209z
	 M125.898,180.932c-9.509-0.699-12.995,0.509-15.138,5.507c-2.31,5.387-2.431,10.977,1.633,15.487
	c5.136,5.7,11.667,4.055,18.197,2.519c0-11.712,0-23.119,0-34.88c-1.66,0.307-3.046,0.563-4.691,0.868
	C125.898,173.999,125.898,177.296,125.898,180.932z M184.121,181.049c-1.149-0.094-1.951-0.126-2.744-0.229
	c-8.067-1.051-12.844,2.766-13.43,10.744c-0.795,10.828,6.416,16.361,17.958,13.486c1.318-0.328,3.105-2.4,3.138-3.702
	c0.245-10.122,0.119-20.254,0.073-30.382c-0.002-0.418-0.351-0.833-0.64-1.475c-1.433,0.382-2.781,0.742-4.355,1.162
	C184.121,174.271,184.121,177.554,184.121,181.049z M80.758,199.695c-8.621,2.619-13.119,1.856-16.066-2.429
	c-2.863-4.163-2.865-12.126,0.185-16.11c4.29-5.604,9.775-4.496,15.589-2.186c0.497-1.518,0.927-2.835,1.341-4.102
	c-8.583-3.99-16.706-2.671-21.227,3.202c-4.692,6.096-4.589,17.136,0.214,22.931c4.502,5.432,13.313,6.53,21.274,2.513
	C81.668,202.346,81.256,201.146,80.758,199.695z M163.967,205.077c0-5.065,0.023-9.199-0.005-13.333
	c-0.065-9.385-4.501-12.833-13.665-10.957c-3.487,0.714-3.447,2.223-1.895,4.646c8.091-1.324,9.367-0.776,10.271,4.561
	c-2.295,0.173-4.604,0.145-6.833,0.558c-4.177,0.772-6.998,2.96-6.903,7.681c0.094,4.724,2.961,7.009,7.211,7.306
	C155.887,205.798,159.68,205.277,163.967,205.077z M83.867,193.005c-0.039,7.582,4.35,12.659,11.046,12.778
	c6.909,0.122,11.763-5.185,11.671-12.762c-0.089-7.424-4.741-12.549-11.407-12.565C88.466,180.438,83.905,185.499,83.867,193.005z
	 M140.722,205.154c0-8.385,0-16.123,0-24.22c-1.716,0.208-3.079,0.373-4.335,0.525c0,8.078,0,15.677,0,23.499
	C137.896,205.027,139.17,205.085,140.722,205.154z M138.897,178.737c1.292-2.141,2.645-3.404,2.599-4.615
	c-0.036-0.963-2.022-2.773-2.715-2.591c-1.257,0.332-2.936,1.793-3.051,2.925C135.622,175.505,137.326,176.739,138.897,178.737z"/>
<path fill-rule="evenodd" clip-rule="evenodd" fill="#FFFFFF" d="M146.487,94.707c1.917,12.564-6.785,24.101-18.712,25.42
	c-13.246,1.466-24.887-7.592-25.297-20.221c-0.366-11.304-0.31-22.637,0.009-33.944c0.318-11.305,10.087-20.349,21.656-20.646
	c11.092-0.285,21.306,8.361,22.719,19.184c0.694,5.325-4.003,4.618-7.254,6.876c-0.242-2.051-0.417-3.42-0.564-4.792
	c-0.876-8.159-7.256-13.914-15.071-13.587c-7.609,0.318-13.478,6.362-13.598,14.407c-0.153,10.315-0.133,20.637-0.009,30.954
	c0.09,7.497,5.208,13.281,12.173,14.148c7.484,0.933,14.271-3.12,15.807-10.572C139.338,97.123,142.365,96.035,146.487,94.707z"/>
<path fill-rule="evenodd" clip-rule="evenodd" fill="#FFFFFF" d="M162.434,129.021c5.692-3.204,6.343-8.272,6.091-13.868
	c-0.209-4.646,0.017-9.313-0.072-13.967c-0.117-6.14,0.916-11.678,8.035-15.04c-8.628-3.482-8.128-10.429-8.019-17.232
	c0.043-2.66,0.061-5.323-0.01-7.981c-0.177-6.647,1.821-13.972-7.519-18.366c9.342-0.303,13.598,2.846,14.088,9.806
	c0.5,7.118,0.396,14.286,0.354,21.431c-0.03,5.135,0.834,9.64,7.789,12.202c-8.214,2.66-7.75,8.516-7.79,14.227
	c-0.045,6.48,0.084,12.987-0.451,19.433C174.336,126.822,170.208,129.846,162.434,129.021z"/>
<path fill-rule="evenodd" clip-rule="evenodd" fill="#FFFFFF" d="M87.684,128.915c-8.201,1.251-13.329-2.579-13.689-9.57
	c-0.351-6.801-0.393-13.641-0.124-20.445c0.222-5.6-0.877-10.224-7.252-13.024c6.68-2.603,7.457-7.479,7.249-13.133
	c-0.245-6.64-0.254-13.318,0.191-19.942c0.502-7.475,5.109-10.922,14.124-10.05c-8.832,3.9-7.611,10.93-7.602,17.542
	c0.004,3.326-0.079,6.654-0.002,9.979c0.146,6.366-0.263,12.44-8.482,15.528c7.506,2.577,8.648,7.645,8.476,13.517
	c-0.132,4.486,0.051,8.98-0.006,13.47C80.486,118.961,79.792,125.32,87.684,128.915z"/>
<path fill-rule="evenodd" clip-rule="evenodd" fill="#505050" d="M125.898,180.932c0-3.636,0-6.933,0-10.499
	c1.646-0.305,3.031-0.562,4.691-0.868c0,11.761,0,23.168,0,34.88c-6.53,1.536-13.061,3.182-18.197-2.519
	c-4.064-4.511-3.942-10.101-1.633-15.487C112.904,181.44,116.39,180.232,125.898,180.932z M125.927,194.314
	c0-1.563,0.019-2.727-0.004-3.889c-0.085-4.386-3.137-6.563-7.152-5.114c-3.408,1.23-5.095,5.432-4.027,10.206
	c0.957,4.278,3.799,6.051,8.028,5.714C128.354,200.788,124.826,196.336,125.927,194.314z"/>
<path fill-rule="evenodd" clip-rule="evenodd" fill="#505050" d="M184.121,181.049c0-3.495,0-6.778,0-10.396
	c1.574-0.42,2.923-0.78,4.355-1.162c0.289,0.642,0.638,1.057,0.64,1.475c0.046,10.128,0.172,20.26-0.073,30.382
	c-0.032,1.302-1.819,3.374-3.138,3.702c-11.542,2.875-18.753-2.658-17.958-13.486c0.586-7.979,5.362-11.795,13.43-10.744
	C182.17,180.923,182.972,180.955,184.121,181.049z M184.282,193.525c0-1.16,0.029-2.321-0.005-3.481
	c-0.124-4.199-3.59-6.396-7.421-4.55c-3.764,1.814-4.743,5.498-3.672,8.857c0.82,2.575,3.123,5.459,5.521,6.557
	c3.152,1.443,6.31,0.401,5.599-4.402C184.16,195.532,184.283,194.52,184.282,193.525z"/>
<path fill-rule="evenodd" clip-rule="evenodd" fill="#505050" d="M80.758,199.695c0.498,1.45,0.91,2.65,1.311,3.819
	c-7.961,4.018-16.772,2.919-21.274-2.513c-4.803-5.795-4.906-16.835-0.214-22.931c4.521-5.873,12.645-7.192,21.227-3.202
	c-0.414,1.267-0.845,2.584-1.341,4.102c-5.814-2.311-11.299-3.419-15.589,2.186c-3.05,3.984-3.048,11.947-0.185,16.11
	C67.639,201.552,72.138,202.314,80.758,199.695z"/>
<path fill-rule="evenodd" clip-rule="evenodd" fill="#505050" d="M163.967,205.077c-4.287,0.2-8.08,0.721-11.818,0.46
	c-4.25-0.297-7.117-2.582-7.211-7.306c-0.095-4.721,2.727-6.908,6.903-7.681c2.229-0.413,4.538-0.385,6.833-0.558
	c-0.904-5.337-2.181-5.885-10.271-4.561c-1.553-2.423-1.593-3.932,1.895-4.646c9.164-1.876,13.6,1.572,13.665,10.957
	C163.99,195.878,163.967,200.012,163.967,205.077z M159.409,195.616c-0.49-0.577-0.981-1.153-1.472-1.73
	c-2.536,0.915-5.126,1.721-7.539,2.891c-0.292,0.141,0.082,3.104,0.643,3.294c2.076,0.7,4.617,1.503,6.471,0.837
	C158.633,200.505,158.809,197.469,159.409,195.616z"/>
<path fill-rule="evenodd" clip-rule="evenodd" fill="#505050" d="M83.867,193.005c0.038-7.506,4.599-12.566,11.311-12.549
	c6.666,0.017,11.318,5.142,11.407,12.565c0.091,7.577-4.762,12.884-11.671,12.762C88.217,205.664,83.828,200.587,83.867,193.005z
	 M88.898,193.237c0.041,4.824,2.629,8.078,6.37,8.008c3.732-0.07,6.145-3.324,6.102-8.232c-0.042-4.862-2.604-8.124-6.325-8.053
	C91.42,185.029,88.857,188.48,88.898,193.237z"/>
<path fill-rule="evenodd" clip-rule="evenodd" fill="#505050" d="M140.722,205.154c-1.552-0.069-2.826-0.127-4.335-0.195
	c0-7.822,0-15.421,0-23.499c1.256-0.152,2.619-0.317,4.335-0.525C140.722,189.031,140.722,196.77,140.722,205.154z"/>
<path fill-rule="evenodd" clip-rule="evenodd" fill="#505050" d="M138.897,178.737c-1.571-1.998-3.275-3.232-3.167-4.281
	c0.115-1.132,1.794-2.593,3.051-2.925c0.692-0.183,2.679,1.628,2.715,2.591C141.542,175.333,140.189,176.597,138.897,178.737z"/>
<path fill-rule="evenodd" clip-rule="evenodd" fill="#FFFFFF" d="M125.927,194.314c-1.101,2.021,2.428,6.474-3.155,6.917
	c-4.229,0.337-7.071-1.436-8.028-5.714c-1.067-4.774,0.62-8.976,4.027-10.206c4.015-1.449,7.067,0.729,7.152,5.114
	C125.945,191.588,125.927,192.751,125.927,194.314z"/>
<path fill-rule="evenodd" clip-rule="evenodd" fill="#FFFFFF" d="M184.283,193.525c0,0.994-0.123,2.007,0.021,2.98
	c0.711,4.804-2.446,5.846-5.599,4.402c-2.398-1.098-4.701-3.981-5.521-6.557c-1.071-3.359-0.092-7.043,3.672-8.857
	c3.831-1.846,7.297,0.351,7.421,4.55C184.312,191.204,184.282,192.365,184.283,193.525z"/>
<path fill-rule="evenodd" clip-rule="evenodd" fill="#FFFFFF" d="M159.409,195.616c-0.601,1.853-0.776,4.889-1.897,5.291
	c-1.854,0.666-4.395-0.137-6.471-0.837c-0.561-0.189-0.935-3.153-0.643-3.294c2.413-1.17,5.003-1.976,7.539-2.891
	C158.428,194.463,158.919,195.039,159.409,195.616z"/>
<path fill-rule="evenodd" clip-rule="evenodd" fill="#FFFFFF" d="M88.898,193.237c-0.041-4.757,2.522-8.208,6.147-8.277
	c3.721-0.071,6.283,3.19,6.325,8.053c0.042,4.908-2.37,8.162-6.102,8.232C91.527,201.315,88.938,198.062,88.898,193.237z"/>
</svg>
