<?xml version="1.0" encoding="utf-8"?>
<!-- Generator: Adobe Illustrator 16.0.0, SVG Export Plug-In . SVG Version: 6.00 Build 0)  -->
<!DOCTYPE svg PUBLIC "-//W3C//DTD SVG 1.1//EN" "http://www.w3.org/Graphics/SVG/1.1/DTD/svg11.dtd">
<svg version="1.1" id="图层_1" xmlns="http://www.w3.org/2000/svg" xmlns:xlink="http://www.w3.org/1999/xlink" x="0px" y="0px"
	 width="240px" height="240px" viewBox="0 0 240 240" enable-background="new 0 0 240 240" xml:space="preserve">
<path fill-rule="evenodd" clip-rule="evenodd" fill="#0B1822" d="M221,241c-66.667,0-133.333,0-200,0
	c-1.005-0.483-1.982-1.038-3.019-1.44C8.247,235.786,2.1,227.352,2.09,216.926c-0.065-63.95-0.065-127.901,0-191.852
	C2.1,14.644,8.237,6.229,17.987,2.447C19.022,2.046,19.997,1.486,21,1c66.667,0,133.333,0,200,0
	c0.368,0.302,0.689,0.729,1.111,0.886c12.59,4.689,17.822,12.203,17.834,25.688c0.009,9.325,0.002,18.65,0.002,27.977
	c0,53.289-0.029,106.577,0.028,159.866c0.01,8.576-2.904,15.691-9.858,20.766C227.369,238.187,224.056,239.417,221,241z
	 M77.479,79.316c-0.416,0.184-0.832,0.367-1.248,0.55c0,26.479,0,52.956,0,79.435c0.461,0.17,0.921,0.34,1.382,0.51
	c14.182-13.323,28.364-26.646,42.717-40.13C105.759,105.955,91.62,92.636,77.479,79.316z"/>
<path fill-rule="evenodd" clip-rule="evenodd" fill="#FFFFFF" d="M21,1c-1.003,0.486-1.978,1.046-3.013,1.447
	C8.237,6.229,2.1,14.644,2.09,25.074c-0.065,63.95-0.065,127.901,0,191.852c0.01,10.426,6.157,18.86,15.892,22.634
	c1.037,0.402,2.014,0.957,3.019,1.44c-6.655,0-13.31,0-19.982,0c0-80,0-160,0-240C7.69,1,14.345,1,21,1z"/>
<path fill-rule="evenodd" clip-rule="evenodd" fill="#FFFFFF" d="M221,241c3.056-1.583,6.369-2.813,9.117-4.817
	c6.954-5.074,9.868-12.189,9.858-20.766c-0.058-53.289-0.028-106.577-0.028-159.866c0-9.326,0.007-18.651-0.002-27.977
	c-0.012-13.485-5.244-20.999-17.834-25.688C221.689,1.729,221.368,1.302,221,1c6.667,0,13.333,0,20,0c0,80,0,160,0,240
	C234.333,241,227.667,241,221,241z"/>
<polygon fill-rule="evenodd" clip-rule="evenodd" fill="#504999" points="113.23,44.221 76.231,81.219 76.231,155.003 
	113.23,192.002 187.12,118.11 "/>
<path fill-rule="evenodd" clip-rule="evenodd" fill="#FFFFFF" d="M77.479,79.316c14.14,13.319,28.28,26.639,42.852,40.364
	c-14.354,13.484-28.535,26.807-42.717,40.13c-0.461-0.17-0.921-0.34-1.382-0.51c0-26.479,0-52.956,0-79.435
	C76.647,79.684,77.063,79.5,77.479,79.316z"/>
</svg>
