<?xml version="1.0" encoding="utf-8"?>
<!-- Generator: Adobe Illustrator 16.0.0, SVG Export Plug-In . SVG Version: 6.00 Build 0)  -->
<!DOCTYPE svg PUBLIC "-//W3C//DTD SVG 1.1//EN" "http://www.w3.org/Graphics/SVG/1.1/DTD/svg11.dtd">
<svg version="1.1" id="图层_1" xmlns="http://www.w3.org/2000/svg" xmlns:xlink="http://www.w3.org/1999/xlink" x="0px" y="0px"
	 width="240px" height="240px" viewBox="0 0 240 240" enable-background="new 0 0 240 240" xml:space="preserve">
<path fill-rule="evenodd" clip-rule="evenodd" fill="#2A2C2C" d="M219,241c-65.333,0-130.667,0-196,0
	c-16.072-6.508-19.897-12.236-19.897-29.8c0-60.966-0.005-121.932,0.018-182.897c0.001-2.487-0.003-5.025,0.452-7.455
	C5.613,9.95,12.903,4.074,23,1c65.333,0,130.667,0,196,0c16.077,6.52,19.896,12.241,19.896,29.801
	c0,60.966,0.005,121.932-0.018,182.897c-0.001,2.488,0.01,5.028-0.449,7.456C236.375,232.038,229.121,237.951,219,241z
	 M120.93,114.278c-0.104,0.414-0.206,0.829-0.31,1.244c-13.746-0.118-25.804,4.189-35.96,13.592
	c-12.982,12.018-14.838,27.496-5.013,42.267c12.282,18.465,47.399,25.026,67.865,12.211c16.244-10.172,27.211-25.794,39.293-40.155
	c3.094-3.677,1.054-7.4-3.73-8.403c-6.606-1.387-12.17,0.687-16.908,5.213c-7.224,6.901-14.541,13.717-21.5,20.879
	c-7.401,7.616-16.465,9.702-26.49,8.679c-10.928-1.115-17.159-9.081-16.103-20.043c0.655-6.797,5.229-11.462,12.039-11.663
	c4.807-0.143,9.632,0.348,14.449,0.565c5.614,0.255,11.283,1.11,16.826,0.598c4.65-0.43,7.773-3.816,8.011-8.826
	c0.223-4.699-2.081-8.188-6.579-9.47C138.249,118.524,129.565,116.484,120.93,114.278z M137.132,69.651
	c-0.32-0.025-0.642-0.05-0.962-0.075c0-6.654,0.464-13.357-0.229-19.938c-0.277-2.638-2.622-6.188-4.918-7.114
	c-1.733-0.7-5.62,1.518-7.217,3.507c-1.962,2.442-3.654,6.044-3.528,9.063c0.655,15.737,1.71,31.469,3.204,47.147
	c0.234,2.466,3.427,4.65,5.252,6.965c1.543-2.161,3.16-4.273,4.588-6.508c0.512-0.8,0.702-1.879,0.803-2.854
	C135.155,89.782,136.137,79.717,137.132,69.651z M107.925,97.654c-1.664-12.396-3.057-23.611-4.71-34.788
	c-1.111-7.51-4.739-10.928-10.246-10.231c-4.658,0.588-7.361,4.339-5.954,11.781c2.71,14.326,6.43,28.464,9.865,42.647
	c0.326,1.347,1.437,2.636,2.478,3.651c2.858,2.788,5.71,2.366,6.792-1.455C107.301,105.19,107.473,100.844,107.925,97.654z
	 M168.417,67.974c-0.343-0.104-0.686-0.209-1.028-0.313c-0.186-1.479,0.104-3.292-0.653-4.369c-1.613-2.293-3.462-5.098-5.827-5.911
	c-1.271-0.438-4.782,2.418-5.621,4.467c-6.343,15.501-10.153,31.584-9.105,48.481c0.104,1.697,1.479,4.381,2.728,4.681
	c1.698,0.407,4.045-0.722,5.729-1.795c1.292-0.823,2.471-2.447,2.877-3.939C161.251,95.535,164.809,81.747,168.417,67.974z
	 M80.411,126.386c0.658-0.068,1.316-0.138,1.974-0.206c0.148-1.975,0.597-3.982,0.378-5.916c-0.373-3.292-0.997-6.58-1.814-9.794
	c-2.289-9.004-4.395-18.078-7.243-26.907c-1.576-4.885-6.324-7.469-9.553-6.227c-4.559,1.754-4.911,5.86-4.024,9.638
	C63.608,101.806,71.96,114.143,80.411,126.386z"/>
<path fill-rule="evenodd" clip-rule="evenodd" fill="#FFFFFF" d="M120.93,114.278c8.636,2.206,17.319,4.246,25.889,6.687
	c4.498,1.281,6.802,4.771,6.579,9.47c-0.237,5.01-3.36,8.396-8.011,8.826c-5.543,0.513-11.212-0.343-16.826-0.598
	c-4.817-0.218-9.643-0.708-14.449-0.565c-6.81,0.201-11.384,4.866-12.039,11.663c-1.056,10.962,5.175,18.928,16.103,20.043
	c10.025,1.023,19.089-1.063,26.49-8.679c6.959-7.162,14.276-13.978,21.5-20.879c4.738-4.526,10.302-6.6,16.908-5.213
	c4.784,1.003,6.824,4.727,3.73,8.403c-12.082,14.361-23.049,29.983-39.293,40.155c-20.466,12.815-55.583,6.254-67.865-12.211
	c-9.826-14.771-7.969-30.249,5.013-42.267c10.157-9.402,22.215-13.71,35.96-13.592C120.724,115.107,120.826,114.692,120.93,114.278z
	"/>
<path fill-rule="evenodd" clip-rule="evenodd" fill="#FFFFFF" d="M137.132,69.651c-0.995,10.065-1.977,20.131-3.007,30.192
	c-0.101,0.976-0.291,2.055-0.803,2.854c-1.428,2.234-3.045,4.347-4.588,6.508c-1.825-2.314-5.018-4.499-5.252-6.965
	c-1.494-15.679-2.549-31.41-3.204-47.147c-0.126-3.02,1.566-6.621,3.528-9.063c1.597-1.989,5.483-4.207,7.217-3.507
	c2.296,0.927,4.641,4.477,4.918,7.114c0.692,6.581,0.229,13.284,0.229,19.938C136.49,69.602,136.812,69.626,137.132,69.651z"/>
<path fill-rule="evenodd" clip-rule="evenodd" fill="#FFFFFF" d="M107.925,97.654c-0.452,3.189-0.624,7.536-1.775,11.605
	c-1.082,3.821-3.934,4.243-6.792,1.455c-1.041-1.016-2.151-2.305-2.478-3.651c-3.436-14.184-7.155-28.321-9.865-42.647
	c-1.408-7.442,1.296-11.193,5.954-11.781c5.507-0.696,9.135,2.722,10.246,10.231C104.868,74.043,106.261,85.259,107.925,97.654z"/>
<path fill-rule="evenodd" clip-rule="evenodd" fill="#FFFFFF" d="M168.417,67.974c-3.608,13.773-7.166,27.562-10.902,41.301
	c-0.406,1.492-1.585,3.116-2.877,3.939c-1.684,1.073-4.03,2.202-5.729,1.795c-1.248-0.3-2.623-2.983-2.728-4.681
	c-1.048-16.897,2.763-32.98,9.105-48.481c0.839-2.049,4.351-4.904,5.621-4.467c2.365,0.813,4.214,3.618,5.827,5.911
	c0.758,1.077,0.468,2.89,0.653,4.369C167.731,67.765,168.074,67.869,168.417,67.974z"/>
<path fill-rule="evenodd" clip-rule="evenodd" fill="#FFFFFF" d="M80.411,126.386c-8.451-12.243-16.803-24.58-20.282-39.412
	c-0.886-3.777-0.534-7.884,4.024-9.638c3.229-1.242,7.977,1.342,9.553,6.227c2.849,8.829,4.954,17.903,7.243,26.907
	c0.817,3.214,1.441,6.502,1.814,9.794c0.219,1.934-0.23,3.941-0.378,5.916C81.727,126.248,81.069,126.317,80.411,126.386z"/>
</svg>
