<?xml version="1.0" encoding="utf-8"?>
<!-- Generator: Adobe Illustrator 16.0.0, SVG Export Plug-In . SVG Version: 6.00 Build 0)  -->
<!DOCTYPE svg PUBLIC "-//W3C//DTD SVG 1.1//EN" "http://www.w3.org/Graphics/SVG/1.1/DTD/svg11.dtd">
<svg version="1.1" id="图层_1" xmlns="http://www.w3.org/2000/svg" xmlns:xlink="http://www.w3.org/1999/xlink" x="0px" y="0px"
	 width="240px" height="240px" viewBox="0 0 240 240" enable-background="new 0 0 240 240" xml:space="preserve">
<path fill-rule="evenodd" clip-rule="evenodd" fill="#B21C62" d="M219,241c-65.333,0-130.667,0-196,0
	c-0.895-0.389-1.763-0.856-2.687-1.153c-10.299-3.301-17.081-11.895-17.092-22.727C3.154,153.122,3.159,89.124,3.337,25.126
	c0.028-9.982,4.991-17.432,14.15-21.765C19.565,2.378,21.824,1.777,24,1c64.667,0,129.333,0,194,0
	c0.584,0.309,1.136,0.73,1.757,0.91c12.736,3.687,18.939,11.897,18.985,25.215c0.022,6.666,0.009,13.333,0.012,19.999
	c0.025,55.999,0.029,111.997,0.102,167.996c0.011,8.533-2.678,15.813-9.681,20.866C226.151,238.168,222.413,239.359,219,241z
	 M162.428,64.554c-22.975-20.416-69.422-22.197-96.505,7.205c-27.268,29.601-25.429,76.839,3.751,103.354
	c29.016,26.366,73.484,21.556,92.488,2.853c-2.752-3.674-5.525-7.375-8.289-11.063c-31.207,21.53-63.771,9.357-78.553-8.106
	c-17.056-20.15-18.614-49.536-3.105-70.762c7.838-10.727,18.197-18.036,30.978-21.571c18.166-5.024,34.852-1.103,50.304,9.697
	C156.599,72.129,159.426,68.455,162.428,64.554z M118.243,137.067c8.759-0.017,15.831-7.095,15.833-15.845
	c0.002-8.83-6.988-15.765-15.878-15.752c-8.797,0.014-15.971,7.151-15.906,15.826C102.357,130.077,109.445,137.084,118.243,137.067z
	 M148.29,113.809c-4.173,0.077-7.56,3.624-7.391,7.739c0.159,3.856,3.621,7.229,7.471,7.279c4.014,0.051,7.693-3.6,7.672-7.61
	C156.021,117.124,152.47,113.731,148.29,113.809z M167.853,102.516c-4.291,0-7.701,3.43-7.553,7.597
	c0.143,4.027,3.386,7.133,7.477,7.157c4.434,0.027,7.516-3.116,7.418-7.565C175.104,105.573,171.979,102.515,167.853,102.516z
	 M167.554,140.9c4.027,0.102,7.603-3.446,7.61-7.554c0.008-3.841-3.333-7.206-7.282-7.337c-4.077-0.135-7.633,3.385-7.603,7.524
	C160.309,137.468,163.6,140.801,167.554,140.9z M195.233,109.338c-0.022-4.146-3.138-7.396-7.082-7.386
	c-3.912,0.009-7.285,3.354-7.347,7.287c-0.066,4.214,3.418,7.764,7.498,7.639C192.319,116.754,195.256,113.56,195.233,109.338z
	 M185.393,87.335c-0.039-4.062-3.197-7.343-7.16-7.44c-4.115-0.102-7.552,3.421-7.441,7.628c0.106,4.065,3.332,7.168,7.4,7.118
	C182.279,94.59,185.432,91.393,185.393,87.335z M195.239,133.06c0-4.217-2.888-7.185-7.056-7.252
	c-4.016-0.065-7.242,3.028-7.367,7.065c-0.131,4.249,3.133,7.529,7.443,7.479C192.453,140.305,195.24,137.393,195.239,133.06z
	 M178.148,163.045c3.973-0.046,7.214-3.38,7.218-7.425c0.004-4.038-3.263-7.236-7.351-7.198c-4.104,0.039-7.231,3.231-7.189,7.338
	C170.868,159.792,174.185,163.091,178.148,163.045z"/>
<path fill-rule="evenodd" clip-rule="evenodd" fill="#FFFFFF" d="M162.428,64.554c-3.002,3.901-5.829,7.575-8.932,11.607
	c-15.452-10.8-32.138-14.722-50.304-9.697c-12.78,3.535-23.14,10.845-30.978,21.571c-15.509,21.226-13.951,50.611,3.105,70.762
	c14.782,17.464,47.346,29.637,78.553,8.106c2.764,3.688,5.537,7.389,8.289,11.063c-19.004,18.703-63.473,23.514-92.488-2.853
	c-29.181-26.516-31.019-73.754-3.751-103.354C93.005,42.356,139.453,44.138,162.428,64.554z"/>
<path fill-rule="evenodd" clip-rule="evenodd" fill="#E6BACE" d="M118.243,137.067c-8.798,0.017-15.886-6.99-15.952-15.771
	c-0.065-8.675,7.109-15.813,15.906-15.826c8.89-0.013,15.88,6.922,15.878,15.752C134.074,129.973,127.002,137.051,118.243,137.067z"
	/>
<path fill-rule="evenodd" clip-rule="evenodd" fill="#FFFFFF" d="M148.29,113.809c4.18-0.077,7.73,3.315,7.752,7.408
	c0.021,4.011-3.658,7.661-7.672,7.61c-3.85-0.05-7.312-3.423-7.471-7.279C140.73,117.433,144.117,113.886,148.29,113.809z"/>
<path fill-rule="evenodd" clip-rule="evenodd" fill="#FFFFFF" d="M167.853,102.516c4.127-0.001,7.251,3.058,7.342,7.188
	c0.098,4.449-2.984,7.593-7.418,7.565c-4.091-0.024-7.334-3.13-7.477-7.157C160.151,105.945,163.562,102.516,167.853,102.516z"/>
<path fill-rule="evenodd" clip-rule="evenodd" fill="#FFFFFF" d="M167.554,140.9c-3.954-0.1-7.245-3.433-7.274-7.366
	c-0.03-4.14,3.525-7.659,7.603-7.524c3.949,0.131,7.29,3.496,7.282,7.337C175.156,137.454,171.581,141.002,167.554,140.9z"/>
<path fill-rule="evenodd" clip-rule="evenodd" fill="#FFFFFF" d="M195.233,109.338c0.022,4.222-2.914,7.416-6.931,7.54
	c-4.08,0.125-7.564-3.425-7.498-7.639c0.062-3.933,3.435-7.278,7.347-7.287C192.096,101.942,195.211,105.191,195.233,109.338z"/>
<path fill-rule="evenodd" clip-rule="evenodd" fill="#FFFFFF" d="M185.393,87.335c0.039,4.058-3.113,7.255-7.201,7.306
	c-4.068,0.05-7.294-3.053-7.4-7.118c-0.11-4.207,3.326-7.729,7.441-7.628C182.195,79.992,185.354,83.273,185.393,87.335z"/>
<path fill-rule="evenodd" clip-rule="evenodd" fill="#FFFFFF" d="M195.239,133.06c0.001,4.333-2.786,7.245-6.979,7.293
	c-4.311,0.05-7.574-3.23-7.443-7.479c0.125-4.037,3.352-7.131,7.367-7.065C192.352,125.875,195.239,128.843,195.239,133.06z"/>
<path fill-rule="evenodd" clip-rule="evenodd" fill="#FFFFFF" d="M178.148,163.045c-3.964,0.046-7.28-3.253-7.322-7.285
	c-0.042-4.106,3.086-7.299,7.189-7.338c4.088-0.038,7.354,3.16,7.351,7.198C185.362,159.665,182.121,162.999,178.148,163.045z"/>
</svg>
