<?xml version="1.0" encoding="utf-8"?>
<!-- Generator: Adobe Illustrator 16.0.0, SVG Export Plug-In . SVG Version: 6.00 Build 0)  -->
<!DOCTYPE svg PUBLIC "-//W3C//DTD SVG 1.1//EN" "http://www.w3.org/Graphics/SVG/1.1/DTD/svg11.dtd">
<svg version="1.1" id="图层_1" xmlns="http://www.w3.org/2000/svg" xmlns:xlink="http://www.w3.org/1999/xlink" x="0px" y="0px"
	 width="240px" height="240px" viewBox="0 0 240 240" enable-background="new 0 0 240 240" xml:space="preserve">
<path fill-rule="evenodd" clip-rule="evenodd" d="M22,1c66,0,132,0,198,0c14.34,4.94,19.271,15.208,19.172,30.023
	c-0.41,60.982-0.165,121.969-0.194,182.953c-0.002,2.651-0.045,5.361-0.568,7.942C236.338,232.132,229.28,237.67,220,241
	c-66,0-132,0-198,0c-14.346-4.936-19.27-15.209-19.171-30.021C3.238,149.996,2.993,89.01,3.023,28.024
	c0.001-2.65,0.052-5.358,0.571-7.941C5.65,9.856,12.757,4.367,22,1z"/>
<path fill-rule="evenodd" clip-rule="evenodd" fill="#EA2328" d="M200,121c0,43.631-35.369,79-79,79c-43.63,0-79-35.369-79-79
	c0-43.63,35.37-79,79-79C164.631,42,200,77.37,200,121z M162.334,93h-12.667v25H92.333V93H79.667c-6.627,0-12,5.373-12,12v28
	c0,6.627,5.373,12,12,12h82.667c6.627,0,12-5.373,12-12v-28C174.334,98.373,168.961,93,162.334,93z"/>
</svg>
