<?xml version="1.0" encoding="utf-8"?>
<!-- Generator: Adobe Illustrator 16.0.0, SVG Export Plug-In . SVG Version: 6.00 Build 0)  -->
<!DOCTYPE svg PUBLIC "-//W3C//DTD SVG 1.1//EN" "http://www.w3.org/Graphics/SVG/1.1/DTD/svg11.dtd">
<svg version="1.1" id="图层_1" xmlns="http://www.w3.org/2000/svg" xmlns:xlink="http://www.w3.org/1999/xlink" x="0px" y="0px"
	 width="240px" height="240px" viewBox="0 0 240 240" enable-background="new 0 0 240 240" xml:space="preserve">
<path fill-rule="evenodd" clip-rule="evenodd" fill="#2FA732" d="M218,241c-64.667,0-129.333,0-194,0
	c-0.701-0.398-1.355-0.955-2.108-1.173c-11.675-3.364-18.463-11.658-18.48-23.59c-0.091-63.491-0.091-126.983,0-190.475
	c0.017-11.931,6.81-20.229,18.483-23.589C22.647,1.958,23.3,1.399,24,1c64.667,0,129.333,0,194,0
	c0.699,0.399,1.354,0.958,2.105,1.174c11.675,3.361,18.466,11.656,18.482,23.589c0.091,63.49,0.096,126.981-0.006,190.472
	c-0.02,11.981-6.807,20.239-18.474,23.594C219.355,240.045,218.7,240.602,218,241z M6.635,120.924
	c0,31.653-0.014,63.306,0.006,94.958c0.009,13.235,8.235,21.475,21.447,21.478c61.973,0.014,123.945,0.015,185.917,0
	c13.147-0.004,21.352-8.295,21.354-21.572c0.014-63.138,0.013-126.276,0.001-189.415c-0.002-13.564-8.158-21.73-21.698-21.733
	C151.856,4.628,90.05,4.628,28.245,4.64C14.761,4.643,6.646,12.849,6.639,26.466C6.625,57.952,6.634,89.438,6.635,120.924z"/>
<path fill-rule="evenodd" clip-rule="evenodd" fill="#FFFFFF" d="M6.634,120.924c0-31.485-0.01-62.972,0.005-94.458
	C6.646,12.849,14.761,4.643,28.245,4.64C90.05,4.628,151.856,4.628,213.662,4.639c13.54,0.003,21.696,8.169,21.698,21.733
	c0.012,63.139,0.013,126.277-0.001,189.415c-0.002,13.277-8.206,21.568-21.354,21.572c-61.973,0.015-123.945,0.014-185.917,0
	c-13.212-0.003-21.438-8.242-21.447-21.478C6.621,184.229,6.635,152.577,6.634,120.924z M66.604,166.118
	c1.604,0.72,3.554-0.332,4.004-3.43c0.543-3.739-0.921-6.606-4.863-7.509c-6.915-1.583-12.372,0.663-16.426,6.698
	c-4.78,7.116-5.697,15.113-5.251,23.428c0.32,5.964,3.419,9.859,9.256,9.382c5.199-0.426,10.257-2.583,15.566-4.028
	c2.436,5.571,12.728,4.776,16.159-0.826c1.62-2.644,2.945-5.627,3.639-8.634c0.697-3.02,1.953-3.794,4.804-2.962
	c-0.513,3.164-1.464,6.138-1.314,9.054c0.112,2.206,1.103,5.519,2.653,6.212c1.979,0.885,4.955-0.204,7.421-0.784
	c0.971-0.229,1.726-1.379,2.147-1.739c2.105,1.272,3.807,3.143,5.575,3.209c4.809,0.181,9.646-0.402,14.514-0.686
	c0.351-1.43,0.694-2.704,0.972-3.992c0.876-4.064,1.355-8.268,2.745-12.146c0.692-1.93,3.034-3.269,4.63-4.874
	c0.38,1.974,1.185,3.979,1.037,5.913c-0.213,2.79-1.59,5.53-1.577,8.287c0.011,2.255,0.728,5.742,2.209,6.46
	c2.138,1.035,5.283,0.265,7.931-0.158c1.101-0.176,2.026-1.443,2.404-1.733c2.172,1.205,3.934,3.033,5.463,2.856
	c3.248-0.376,6.376-1.794,9.802-2.862c3.51,4.427,6.598,4.403,13.7-0.794c2.369,5.478,6.702,4.026,12.242,2.411
	c-3.382,1.885-5.971,2.648-7.463,4.364c-1.307,1.503-2.308,4.391-1.732,6.086c0.544,1.607,3.206,3.241,5.12,3.498
	c5.335,0.715,8.371-1.842,9.78-7.652c1.175-4.847,2.108-9.752,3.113-14.639c1.089-5.304,2.136-10.616,3.199-15.91
	c-5.008-1.521-7.731-0.861-8.327,4.617c-0.498,4.577-1.918,9.1-3.379,13.497c-0.371,1.118-2.45,1.67-3.745,2.481
	c-0.345-1.321-1.159-2.723-0.953-3.952c0.934-5.558,2.156-11.066,3.274-16.588c-6.793-1.474-6.879-1.435-8.231,4.681
	c-0.646,2.922-1.103,5.892-1.873,8.779c-0.507,1.9-1.067,3.985-2.271,5.436c-0.845,1.02-2.811,1.109-4.276,1.613
	c-0.323-1.311-0.962-2.639-0.894-3.929c0.096-1.801,0.742-3.569,1.113-5.36c1.531-7.393,3.048-14.789,4.558-22.125
	c-5.854-0.832-8.137,1.446-8.778,6.536c-0.704,5.593-2.074,11.113-3.381,16.612c-0.566,2.385-1.417,4.812-2.704,6.865
	c-0.588,0.938-2.543,1.021-3.878,1.491c-0.418-1.274-1.348-2.63-1.161-3.809c0.621-3.935,1.464-7.858,2.585-11.679
	c0.546-1.857,1.898-3.479,2.65-4.794c-0.313-2.919-0.63-5.866-0.943-8.794c-5.404-0.178-8.914,4.392-9.264,9.689
	c-0.384,5.807-2.076,11.562-3.612,17.226c-0.273,1.01-2.566,1.473-3.927,2.188c-0.451-1.42-1.422-2.906-1.251-4.247
	c0.439-3.452,1.942-6.841,1.928-10.251c-0.01-2.222-1.646-6.108-3.049-6.348c-4.745-0.808-9.714-0.416-14.586-0.208
	c-0.582,0.024-1.347,1.673-1.592,2.675c-1.148,4.683-1.83,9.508-3.353,14.057c-0.592,1.769-2.957,2.943-4.515,4.39
	c-0.429-1.84-1.431-3.762-1.179-5.503c0.746-5.157,1.987-10.243,3.019-15.283c-5.26-1.616-7.749-0.46-8.316,4.81
	c-0.476,4.421-1.79,8.796-3.18,13.046c-0.395,1.208-2.354,1.905-3.595,2.837c-0.436-1.396-1.418-2.878-1.213-4.172
	c0.876-5.528,2.102-11.001,3.248-16.733c-4.116-0.573-7.672-1.608-8.297,4.196c-0.153,1.421-2.736,2.581-4.202,3.86
	c0.068-0.697,0.137-1.395,0.206-2.092c-2.372-2.302-4.39-5.794-7.199-6.631c-4.423-1.317-8.634,1.19-10.959,5.195
	c-1.879,3.236-3.023,6.961-4.097,10.586c-1.239,4.181-5.286,6.948-10.275,6.627c-4.899-0.314-6.488-3.932-5.933-7.638
	c1.021-6.817,2.737-13.587,4.842-20.16c0.971-3.031,3.543-6.668,7.317-4.918C65.941,158.103,65.779,162.448,66.604,166.118z
	 M164.633,93.192c0-7.497,0.05-14.995-0.012-22.493c-0.088-10.627-6.547-17.245-17.061-17.309
	c-14.995-0.091-29.991-0.081-44.986-0.004c-10.581,0.055-17.132,6.602-17.188,17.178c-0.079,14.995-0.084,29.991,0.002,44.986
	c0.06,10.338,6.566,16.975,16.799,17.052c15.162,0.114,30.325,0.104,45.486,0.004c10.285-0.067,16.81-6.641,16.938-16.921
	C164.708,108.189,164.632,100.69,164.633,93.192z"/>
<path fill-rule="evenodd" clip-rule="evenodd" d="M66.604,166.118c-0.826-3.67-0.663-8.016-2.188-8.723
	c-3.774-1.75-6.347,1.887-7.317,4.918c-2.104,6.573-3.821,13.343-4.842,20.16c-0.555,3.706,1.033,7.323,5.933,7.638
	c4.99,0.321,9.037-2.446,10.275-6.627c1.074-3.625,2.218-7.35,4.097-10.586c2.325-4.005,6.536-6.513,10.959-5.195
	c2.809,0.837,4.827,4.329,7.199,6.631c-0.068,0.697-0.137,1.395-0.206,2.092c1.466-1.279,4.049-2.439,4.202-3.86
	c0.625-5.805,4.181-4.77,8.297-4.196c-1.146,5.732-2.372,11.205-3.248,16.733c-0.205,1.294,0.777,2.776,1.213,4.172
	c1.242-0.932,3.2-1.629,3.595-2.837c1.39-4.25,2.705-8.625,3.18-13.046c0.567-5.27,3.056-6.426,8.316-4.81
	c-1.032,5.04-2.273,10.126-3.019,15.283c-0.252,1.741,0.75,3.663,1.179,5.503c1.558-1.446,3.923-2.621,4.515-4.39
	c1.523-4.549,2.205-9.374,3.353-14.057c0.245-1.002,1.01-2.65,1.592-2.675c4.872-0.208,9.841-0.6,14.586,0.208
	c1.402,0.239,3.039,4.126,3.049,6.348c0.015,3.41-1.488,6.799-1.928,10.251c-0.171,1.341,0.8,2.827,1.251,4.247
	c1.36-0.715,3.653-1.178,3.927-2.188c1.536-5.664,3.229-11.419,3.612-17.226c0.35-5.298,3.859-9.867,9.264-9.689
	c0.313,2.928,0.63,5.875,0.943,8.794c-0.752,1.315-2.104,2.937-2.65,4.794c-1.121,3.82-1.964,7.744-2.585,11.679
	c-0.187,1.179,0.743,2.534,1.161,3.809c1.335-0.471,3.29-0.553,3.878-1.491c1.287-2.054,2.138-4.48,2.704-6.865
	c1.307-5.499,2.677-11.02,3.381-16.612c0.642-5.09,2.924-7.368,8.778-6.536c-1.51,7.336-3.026,14.732-4.558,22.125
	c-0.371,1.791-1.018,3.56-1.113,5.36c-0.068,1.29,0.57,2.618,0.894,3.929c1.466-0.504,3.432-0.594,4.276-1.613
	c1.203-1.45,1.764-3.535,2.271-5.436c0.771-2.888,1.228-5.857,1.873-8.779c1.353-6.115,1.438-6.154,8.231-4.681
	c-1.118,5.521-2.341,11.03-3.274,16.588c-0.206,1.229,0.608,2.631,0.953,3.952c1.295-0.812,3.374-1.363,3.745-2.481
	c1.461-4.397,2.881-8.92,3.379-13.497c0.596-5.479,3.319-6.138,8.327-4.617c-1.063,5.294-2.11,10.606-3.199,15.91
	c-1.005,4.887-1.938,9.792-3.113,14.639c-1.409,5.811-4.445,8.367-9.78,7.652c-1.914-0.257-4.576-1.891-5.12-3.498
	c-0.575-1.695,0.426-4.583,1.732-6.086c1.492-1.716,4.081-2.479,7.463-4.364c-5.54,1.615-9.873,3.066-12.242-2.411
	c-7.103,5.197-10.19,5.221-13.7,0.794c-3.426,1.068-6.554,2.486-9.802,2.862c-1.529,0.177-3.291-1.651-5.463-2.856
	c-0.378,0.29-1.304,1.558-2.404,1.733c-2.647,0.423-5.793,1.193-7.931,0.158c-1.481-0.718-2.198-4.205-2.209-6.46
	c-0.013-2.757,1.364-5.497,1.577-8.287c0.147-1.934-0.657-3.939-1.037-5.913c-1.596,1.605-3.938,2.944-4.63,4.874
	c-1.39,3.878-1.869,8.081-2.745,12.146c-0.277,1.288-0.621,2.563-0.972,3.992c-4.868,0.283-9.706,0.866-14.514,0.686
	c-1.769-0.066-3.47-1.937-5.575-3.209c-0.422,0.36-1.176,1.511-2.147,1.739c-2.466,0.58-5.441,1.669-7.421,0.784
	c-1.55-0.693-2.541-4.006-2.653-6.212c-0.149-2.916,0.801-5.89,1.314-9.054c-2.852-0.832-4.107-0.058-4.804,2.962
	c-0.694,3.007-2.02,5.99-3.639,8.634c-3.432,5.603-13.724,6.397-16.159,0.826c-5.31,1.445-10.367,3.603-15.566,4.028
	c-5.837,0.478-8.936-3.418-9.256-9.382c-0.446-8.314,0.471-16.312,5.251-23.428c4.054-6.035,9.511-8.281,16.426-6.698
	c3.941,0.902,5.406,3.77,4.863,7.509C70.158,165.786,68.209,166.838,66.604,166.118z M75.005,184.725
	c1.19,1.94,2.128,3.469,3.067,4.998c1.508-1.085,3.657-1.855,4.377-3.325c1.175-2.398,1.53-5.233,2.007-7.923
	c0.242-1.361,0.04-2.812-0.046-4.217c-0.07-1.146-0.267-2.285-0.407-3.428c-1.282,0.462-3.281,0.565-3.721,1.447
	C78.322,176.201,76.808,180.349,75.005,184.725z M185.35,196.927c-0.645-0.489-1.29-0.979-1.935-1.467
	c-1.458,1.772-2.956,3.517-4.264,5.395c-0.073,0.104,1.436,1.31,2.208,2.003C182.689,200.881,184.02,198.903,185.35,196.927z"/>
<path fill-rule="evenodd" clip-rule="evenodd" fill="#2FA732" d="M164.633,93.192c-0.001,7.498,0.075,14.997-0.02,22.493
	c-0.129,10.28-6.653,16.854-16.938,16.921c-15.161,0.1-30.324,0.11-45.486-0.004c-10.233-0.077-16.74-6.714-16.799-17.052
	c-0.086-14.995-0.081-29.991-0.002-44.986c0.055-10.576,6.607-17.123,17.188-17.178c14.995-0.077,29.991-0.087,44.986,0.004
	c10.514,0.063,16.973,6.682,17.061,17.309C164.683,78.197,164.633,85.695,164.633,93.192z M124.999,119.481
	c9.33,0,18.662-0.13,27.988,0.054c4.771,0.094,6.49-1.914,6.436-6.584c-0.162-13.993-0.185-27.991,0.012-41.983
	c0.067-4.744-1.914-6.765-6.442-6.764c-18.66,0.004-37.319,0.004-55.979,0c-4.525-0.001-6.509,2.008-6.44,6.76
	c0.202,13.992,0.179,27.99,0.012,41.983c-0.056,4.672,1.65,6.682,6.425,6.588C106.336,119.353,115.668,119.481,124.999,119.481z
	 M125.277,56.89c0,0.021-0.001,0.043-0.001,0.065c-2.311,0-4.637-0.147-6.921,0.096c-0.633,0.067-1.388,1.228-1.599,2.017
	c-0.096,0.358,0.982,1.48,1.55,1.497c4.441,0.135,8.891,0.162,13.33,0.001c0.601-0.022,1.157-1.278,1.734-1.964
	c-0.716-0.57-1.384-1.54-2.157-1.634C129.261,56.731,127.26,56.89,125.277,56.89z M131.189,125.132
	c-2.962-1.951-4.869-4.175-6.358-3.923c-1.59,0.268-3.899,2.919-3.837,4.444c0.063,1.498,2.644,3.923,4.244,4.027
	C126.747,129.778,128.417,127.383,131.189,125.132z"/>
<path fill-rule="evenodd" clip-rule="evenodd" fill="#FFFFFF" d="M75.005,184.725c1.803-4.376,3.317-8.523,5.277-12.447
	c0.44-0.882,2.439-0.985,3.721-1.447c0.141,1.143,0.337,2.281,0.407,3.428c0.086,1.405,0.288,2.855,0.046,4.217
	c-0.478,2.689-0.832,5.524-2.007,7.923c-0.72,1.47-2.87,2.24-4.377,3.325C77.133,188.193,76.195,186.665,75.005,184.725z"/>
<path fill-rule="evenodd" clip-rule="evenodd" fill="#FFFFFF" d="M185.35,196.927c-1.33,1.977-2.66,3.954-3.99,5.931
	c-0.772-0.693-2.281-1.898-2.208-2.003c1.308-1.878,2.806-3.622,4.264-5.395C184.06,195.948,184.705,196.438,185.35,196.927z"/>
<path fill-rule="evenodd" clip-rule="evenodd" fill="#FFFFFF" d="M124.999,119.481c-9.331,0-18.663-0.129-27.989,0.054
	c-4.774,0.094-6.48-1.916-6.425-6.588c0.167-13.993,0.19-27.991-0.012-41.983c-0.068-4.752,1.915-6.761,6.44-6.76
	c18.66,0.004,37.319,0.004,55.979,0c4.528-0.001,6.51,2.02,6.442,6.764c-0.196,13.992-0.174,27.99-0.012,41.983
	c0.055,4.67-1.664,6.678-6.436,6.584C143.661,119.352,134.329,119.481,124.999,119.481z M104,87.754
	c0.005,0.059,0.178,0.577,0.079,1.038c-0.875,4.069,2.604,9.375-3.377,12.001c0.579,1.082,1.071,3.03,1.753,3.1
	c3.283,0.331,6.621,0.247,9.93,0.092c0.752-0.035,1.906-0.822,2.076-1.473c0.188-0.719-0.502-1.695-0.878-2.528
	c-0.784-1.736-2.201-3.414-2.312-5.182c-0.317-5.068-0.112-10.169-0.112-17.065c-4.922,2.314-8.542,4.017-12.162,5.718
	c-0.052,0.596-0.104,1.191-0.157,1.787C100.361,85.982,101.882,86.723,104,87.754z M141.175,78.003
	c-0.236-0.46-0.474-0.92-0.71-1.38c3.385-2.928,6.77-5.855,10.864-9.397c-10.606-1.241-19.283,6.52-17.706,14.424
	c6.031,0,12.064,0,18.109,0c0-2.324,0-4.262,0-7.219C147.838,75.748,144.507,76.875,141.175,78.003z M156.217,92.406
	c-0.005-0.461-0.009-0.923-0.013-1.384c-9.971,0-19.94,0-30.605,0c0-8.542,0-16.472,0-24.4c-0.277,0.017-0.554,0.032-0.83,0.049
	c0,16.892,0,33.784,0,50.677c0.372,0,0.743-0.001,1.115-0.002c0-8.067,0-16.135,0-24.939
	C136.326,92.406,146.271,92.406,156.217,92.406z M134.537,104.975c1.692,0.391,3.391,0.759,5.076,1.179
	c1.739,0.432,3.467,0.914,5.199,1.374c-1.154,1.196-2.456,2.286-3.413,3.624c-0.708,0.991-0.967,2.304-1.426,3.473
	c3.494,0.954,6.987,1.908,9.548,2.607c0.473-3.588,1.328-5.923,0.916-8.007c-0.524-2.656-1.387-6.1-3.325-7.446
	C143.075,98.974,138.611,99.951,134.537,104.975z"/>
<path fill-rule="evenodd" clip-rule="evenodd" fill="#FFFFFF" d="M125.277,56.89c1.982,0,3.983-0.158,5.937,0.078
	c0.773,0.094,1.441,1.063,2.157,1.634c-0.577,0.686-1.134,1.941-1.734,1.964c-4.439,0.161-8.889,0.134-13.33-0.001
	c-0.568-0.017-1.646-1.139-1.55-1.497c0.211-0.789,0.966-1.949,1.599-2.017c2.284-0.243,4.61-0.096,6.921-0.096
	C125.276,56.933,125.277,56.911,125.277,56.89z"/>
<path fill-rule="evenodd" clip-rule="evenodd" fill="#FFFFFF" d="M131.189,125.132c-2.772,2.251-4.442,4.646-5.951,4.549
	c-1.601-0.104-4.182-2.529-4.244-4.027c-0.063-1.525,2.247-4.177,3.837-4.444C126.32,120.957,128.228,123.181,131.189,125.132z"/>
<path fill-rule="evenodd" clip-rule="evenodd" d="M104,87.754c-2.118-1.031-3.639-1.771-5.16-2.513
	c0.052-0.596,0.104-1.191,0.157-1.787c3.62-1.701,7.239-3.403,12.162-5.718c0,6.896-0.205,11.997,0.112,17.065
	c0.11,1.768,1.528,3.445,2.312,5.182c0.376,0.833,1.067,1.81,0.878,2.528c-0.17,0.65-1.323,1.438-2.076,1.473
	c-3.309,0.155-6.647,0.239-9.93-0.092c-0.682-0.069-1.174-2.018-1.753-3.1c5.98-2.626,2.502-7.932,3.377-12.001
	C104.178,88.331,104.005,87.813,104,87.754z"/>
<path fill-rule="evenodd" clip-rule="evenodd" d="M141.175,78.003c3.332-1.128,6.663-2.255,10.558-3.572c0,2.957,0,4.895,0,7.219
	c-6.045,0-12.078,0-18.109,0c-1.577-7.904,7.1-15.665,17.706-14.424c-4.095,3.542-7.479,6.47-10.864,9.397
	C140.701,77.083,140.938,77.543,141.175,78.003z"/>
<path fill-rule="evenodd" clip-rule="evenodd" d="M156.217,92.406c-9.945,0-19.891,0-30.333,0c0,8.805,0,16.872,0,24.939
	c-0.372,0.001-0.743,0.002-1.115,0.002c0-16.893,0-33.785,0-50.677c0.276-0.017,0.553-0.032,0.83-0.049c0,7.929,0,15.858,0,24.4
	c10.665,0,20.635,0,30.605,0C156.208,91.483,156.212,91.945,156.217,92.406z"/>
<path fill-rule="evenodd" clip-rule="evenodd" d="M134.537,104.975c4.074-5.023,8.538-6.001,12.575-3.196
	c1.938,1.347,2.801,4.79,3.325,7.446c0.412,2.084-0.443,4.419-0.916,8.007c-2.561-0.699-6.054-1.653-9.548-2.607
	c0.459-1.169,0.718-2.481,1.426-3.473c0.957-1.338,2.259-2.428,3.413-3.624c-1.732-0.46-3.46-0.942-5.199-1.374
	C137.928,105.733,136.229,105.365,134.537,104.975z"/>
</svg>
