<?xml version="1.0" encoding="utf-8"?>
<!-- Generator: Adobe Illustrator 16.0.0, SVG Export Plug-In . SVG Version: 6.00 Build 0)  -->
<!DOCTYPE svg PUBLIC "-//W3C//DTD SVG 1.1//EN" "http://www.w3.org/Graphics/SVG/1.1/DTD/svg11.dtd">
<svg version="1.1" id="图层_1" xmlns="http://www.w3.org/2000/svg" xmlns:xlink="http://www.w3.org/1999/xlink" x="0px" y="0px"
	 width="240px" height="240px" viewBox="0 0 240 240" enable-background="new 0 0 240 240" xml:space="preserve">
<path fill-rule="evenodd" clip-rule="evenodd" fill="#0B1822" d="M221,241c-66.667,0-133.333,0-200,0
	c-1.005-0.483-1.982-1.038-3.019-1.44C8.247,235.786,2.1,227.352,2.09,216.926c-0.065-63.95-0.065-127.901,0-191.852
	C2.1,14.644,8.237,6.229,17.987,2.447C19.022,2.046,19.997,1.486,21,1c66.667,0,133.333,0,200,0
	c0.368,0.302,0.689,0.729,1.111,0.886c12.59,4.689,17.822,12.203,17.834,25.688c0.009,9.325,0.002,18.65,0.002,27.977
	c0,53.289-0.029,106.577,0.028,159.866c0.01,8.576-2.904,15.691-9.858,20.766C227.369,238.187,224.056,239.417,221,241z"/>
<g>
	<path fill-rule="evenodd" clip-rule="evenodd" fill="#0075FF" d="M187.655,160.768L120,121.707l68.864-39.759
		c0.507,0.947,0.842,1.953,0.851,2.813c0.237,23.963,0.11,47.929,0.234,71.893"/>
</g>
<g>
	<path fill-rule="evenodd" clip-rule="evenodd" fill="#0061FF" d="M187.655,160.768L120,121.707v79.518
		c1.073-0.034,2.112-0.248,2.861-0.67c20.871-11.775,41.563-23.869,62.379-35.743"/>
</g>
<g>
	<path fill-rule="evenodd" clip-rule="evenodd" fill="#0091FF" d="M52.345,160.768L120,121.707L51.136,81.948
		c-0.507,0.947-0.842,1.953-0.851,2.813c-0.238,23.963-0.11,47.929-0.235,71.893"/>
</g>
<g>
	<path fill-rule="evenodd" clip-rule="evenodd" fill="#0081FF" d="M52.345,160.768L120,121.707v79.518
		c-1.074-0.034-2.112-0.248-2.861-0.67c-20.872-11.775-41.563-23.869-62.379-35.743"/>
</g>
<g>
	<path fill-rule="evenodd" clip-rule="evenodd" fill="#1C89FF" d="M187.655,82.646L120,121.707V42.189
		c1.073,0.034,2.112,0.248,2.861,0.67c20.871,11.775,41.563,23.869,62.379,35.743"/>
</g>
<g>
	<path fill-rule="evenodd" clip-rule="evenodd" fill="#26A1FF" d="M52.345,82.646L120,121.707V42.189
		c-1.074,0.034-2.112,0.248-2.861,0.67C96.267,54.635,75.576,66.729,54.76,78.603"/>
</g>
<path fill-rule="evenodd" clip-rule="evenodd" fill="#FFFFFF" d="M143.305,114.497c0.029-0.054,0.057-0.109,0.087-0.163H141H99.275
	h-0.608c-4.05,0-7.333-3.283-7.333-7.334c0-4.05,3.283-7.333,7.333-7.333H153c0.113,0,0.223,0.012,0.334,0.017V89.678
	c-0.111-0.003-0.222-0.011-0.334-0.011H99c-9.941,0-18,8.059-18,18s8.059,18,18,18h43.594c-0.074-0.19-0.133-0.389-0.2-0.583
	c3.546,0.516,6.273,3.56,6.273,7.249c0,4.051-3.283,7.334-7.333,7.334H87c-0.34,0-0.672-0.031-1-0.076v10.691
	c0.333,0.019,0.662,0.051,1,0.051h54c9.941,0,18-8.059,18-18C159,123.175,152.154,115.631,143.305,114.497z"/>
</svg>
