<?xml version="1.0" encoding="utf-8"?>
<!-- Generator: Adobe Illustrator 16.0.0, SVG Export Plug-In . SVG Version: 6.00 Build 0)  -->
<!DOCTYPE svg PUBLIC "-//W3C//DTD SVG 1.1//EN" "http://www.w3.org/Graphics/SVG/1.1/DTD/svg11.dtd">
<svg version="1.1" id="图层_1" xmlns="http://www.w3.org/2000/svg" xmlns:xlink="http://www.w3.org/1999/xlink" x="0px" y="0px"
	 width="240px" height="240px" viewBox="0 0 240 240" enable-background="new 0 0 240 240" xml:space="preserve">
<g>
	<path fill="#FFFFFF" d="M26,238c-12.131,0-22-9.869-22-22V24C4,11.869,13.869,2,26,2h188c12.131,0,22,9.869,22,22v192
		c0,12.131-9.869,22-22,22H26z"/>
	<path fill="#F8B62C" d="M214,4c11.028,0,20,8.972,20,20v192c0,11.028-8.972,20-20,20H26c-11.028,0-20-8.972-20-20V24
		C6,12.972,14.972,4,26,4H214 M214,0H26C12.745,0,2,10.745,2,24v192c0,13.255,10.745,24,24,24h188c13.255,0,24-10.745,24-24V24
		C238,10.745,227.255,0,214,0L214,0z"/>
</g>
<g>
	<g>
		<path fill="#0B58AD" d="M49.569,122.744H38.945l-5.312,25.202c0,0,0.581,2.595,2.347,2.595c1.742,0,24.955,3.1,29.401-13.342
			C69.545,121.807,49.569,122.744,49.569,122.744z M58.587,134.604c-1.791,10.104-4.892,12.068-8.524,13.218
			c-4.25,1.348-9.512,0.617-9.512,0.617l5.188-23.842c0.371,0.05,5.819,0.1,7.018,0.259
			C56.091,125.314,59.859,127.414,58.587,134.604z"/>
		<path fill="#0B58AD" d="M72.67,123.608c0,0-5.151,23.72-5.312,24.584c-0.161,0.865,0.457,2.349,1.482,2.349
			c0.926,0,4.447,0,4.447,0l5.93-26.933H72.67L72.67,123.608z"/>
		<path fill="#0B58AD" d="M106.89,124.104l-0.742,2.223c0,0-11.785-3.508-15.071,0.989c-2.347,3.211,4.287,6.374,5.188,6.793
			c1.693,0.779,10.587,3.052,9.018,8.771c-1.495,5.485-7.943,7.622-14.7,7.66c-6.758,0.036-13.959,0-13.959,0l0.37-1.854
			c0,0,8.487,0.334,13.713,0c5.225-0.334,6.609-1.902,7.042-4.201c0.395-2.136-0.198-3.952-7.536-6.795
			c-4.867-1.889-7.042-4.978-6.547-8.152c0.358-2.261,3.36-5.448,9.142-6.423C100.379,121.843,106.89,124.104,106.89,124.104z"/>
		<path fill="#0B58AD" d="M129.743,146.957l-0.493,2.347c0,0-2.063,0.755-5.437,1.113c-2.755,0.296-6.547,0.11-10.624-1.729
			c-6.016-2.719-7.227-9.858-4.768-15.048c2.161-4.558,4.138-6.472,8.228-8.548c4.188-2.124,7.88-2.322,8.77-2.348
			c2.854-0.063,14.615,0,15.566,0s2.187,0.582,1.976,1.978c-0.21,1.396-2.692,15.688-3.087,18.283
			c-0.408,2.717,2.013,4.163,5.188,4.2s7.115-0.582,8.647-6.424c1.223-4.671,3.335-15.936,3.335-15.936h6.672
			c0,0-4.287,24.126-4.325,24.458c-0.036,0.335-0.456,0.865-0.987,0.865c-0.618,0-5.694,0-5.694,0l0.876-3.952
			c0,0-1.975,4.373-10.252,4.324c-8.276-0.052-10.958-3.596-10.502-8.772c0.47-5.311,3.213-16.923,3.213-16.923
			s-10.155-1.014-15.442,1.853c-4.188,2.272-6.782,7.744-6.177,11.858c1.285,8.686,7.388,10.057,11.366,9.636
			C127.669,147.995,129.743,146.957,129.743,146.957z"/>
		<path fill="#0B58AD" d="M167.916,124.846l-0.371,2.471l15.318-0.124c0,0-16.343,16.06-17.913,17.542
			c-1.569,1.482-1.729,5.807-1.729,5.807h24.336l0.124-2.102h-17.542c0,0-0.493-0.617,1.112-1.729
			c1.606-1.11,16.355-14.983,16.554-15.193c1.087-1.161,1.618-2.583,1.73-3.831c0.16-1.853,0-2.84,0-2.84H167.916L167.916,124.846z"
			/>
		<path fill="#0B58AD" d="M197.936,120.397l0.865,21.495l3.211,0.494l4.447-21.001L197.936,120.397z"/>
		<path fill="#0B58AD" d="M198.182,146.465c-0.037,0.122,0,3.58,0,3.58l3.706,0.248l0.247-3.828
			C202.135,146.465,198.219,146.341,198.182,146.465z"/>
		<path fill="#0B58AD" d="M124.037,98.347c0.062-0.346,0.023-0.569-0.101-0.692c-0.186-0.062-0.456-0.086-0.827-0.086h-1.198
			c-0.247-0.803-0.469-1.729-0.654-2.768h-2.595l0.556,2.768h-2.779l-0.285,1.902h4.72c0.247,0,0.333,0.086,0.284,0.259
			c-0.248,0.52-0.618,1.124-1.112,1.816c-0.556,0.692-1.272,1.409-2.125,2.162c-0.927,0.803-1.853,1.47-2.78,1.989l-0.741,2.508
			c0.988-0.41,2.039-1.014,3.15-1.816l-1.21,8.202h2.595l1.568-10.624c1.483-1.433,2.495-2.792,3.052-4.064
			C123.875,99.334,124.037,98.816,124.037,98.347L124.037,98.347z M122.641,104.573h-2.125l0.84,4.063h2.495
			C123.356,107.192,122.948,105.833,122.641,104.573L122.641,104.573z M134.636,100.953h-4.176l0.864-6.25h-2.433l-0.864,6.25
			h-3.904l-0.347,2.087h3.903l-1.396,9.29h-4.78l-0.345,2.088h12.241l0.348-2.088h-4.931l1.297-9.29h4.263L134.636,100.953z"/>
		<path fill="#0B58AD" d="M139.169,114.418h17.679l0.246-1.926h-15.256l2.099-14.937h14.701l0.322-2.013h-17.05L139.169,114.418z
			 M153.759,98.668l-3.645,4.299c-0.853-1.384-1.717-2.816-2.57-4.299h-3.001l3.644,6.375l-5.78,5.992h4.175l3.213-3.509
			l2.457,3.509h3.646l-4.286-5.733l5.458-6.634H153.759z"/>
		<path fill="#0B58AD" d="M179.639,99.211c0.234-1.619,0.434-3.188,0.606-4.694h-2.435c-0.173,1.507-0.383,3.076-0.604,4.694h-3.126
			l0.519,1.915h2.349c-0.348,1.914-0.841,3.817-1.483,5.732c-0.643,1.964-1.421,3.818-2.349,5.559
			c-0.469-1.853-0.864-3.73-1.209-5.646h-2.261c0.234,1.445,0.519,3.014,0.865,4.694h-4.077c1.334-2.717,2.481-5.386,3.471-7.993
			h3.99l0.346-2.001h-9.55l-0.345,2.001h2.953c-1.161,3.249-2.608,6.573-4.349,9.994h6.954l0.778-1.396l0.259,1.396h1.657
			l-0.692,1.038h2.779c2.262-4.052,3.792-8.511,4.608-13.378h1.828c0.172,0,0.284,0.024,0.346,0.086c0,0.111,0,0.198,0,0.259
			c-0.346,3.299-0.902,6.979-1.655,11.031h-2.865l0.517,2.002l4.521,0.086c0.816-5.213,1.446-9.845,1.916-13.897
			c0.062-0.581,0-0.989-0.173-1.211c-0.173-0.172-0.52-0.259-1.037-0.259L179.639,99.211L179.639,99.211L179.639,99.211z
			 M166.186,95.74l-0.258,2.001h8.251l0.26-2.001H166.186z"/>
		<path fill="#0B58AD" d="M200.022,98.434l0.346-3.818h-2.692c0,0.989-0.112,2.261-0.347,3.818h-6.683l0.519,2.087h5.819
			c-0.989,5.151-4.114,9.821-9.378,13.984h3.817c2.199-1.854,4.027-4.028,5.473-6.509c1.397-2.435,2.311-4.918,2.779-7.475h5.386
			c0.236,0,0.348,0.148,0.348,0.432l-1.657,11.377h-5.213l0.606,2.174h6.955l2-14.59c0.063-0.457,0-0.84-0.172-1.124
			c-0.173-0.234-0.433-0.346-0.778-0.346L200.022,98.434L200.022,98.434z"/>
	</g>
	<g>
		<path fill="#F4A62F" d="M59.575,64.684c2.99,0,5.88,0.432,8.598,1.272c2.595,0.803,4.929,1.952,6.918,3.409
			c3.94,2.891,6.103,6.659,6.103,10.637c0,4.459-2.767,8.696-7.585,11.625l-1.63,1.001l0.939,1.667
			c0.494,0.877,0.741,1.803,0.741,2.754c0,1.829-0.939,3.57-2.631,4.917c-1.829,1.445-4.299,2.249-6.942,2.249
			c-2.644,0-5.103-0.803-6.943-2.249c-1.692-1.347-2.631-3.088-2.631-4.917c0-0.124,0-0.259,0.012-0.383l0.124-1.692l-1.655-0.383
			c-4.349-0.989-8.24-3.002-10.945-5.658c-2.681-2.619-4.089-5.72-4.089-8.932c0-3.978,2.162-7.746,6.103-10.637
			c1.989-1.458,4.312-2.606,6.918-3.409C53.695,65.116,56.586,64.684,59.575,64.684 M59.575,62.707
			c-13.033,0-23.595,7.746-23.595,17.295c0,7.757,6.967,14.33,16.579,16.517c-0.012,0.173-0.025,0.358-0.025,0.531
			c0,5.052,5.176,9.142,11.551,9.142c6.374,0,11.55-4.089,11.55-9.142c0-1.334-0.358-2.594-1.001-3.731
			c5.213-3.175,8.536-7.956,8.536-13.316C83.17,70.453,72.608,62.707,59.575,62.707L59.575,62.707z"/>
		<path fill="#F4A62F" d="M77.364,109.773c2.483,0,4.571,1.47,4.571,3.212c0,1.742-2.087,3.211-4.571,3.211
			c-2.483,0-4.571-1.47-4.571-3.211C72.793,111.243,74.881,109.773,77.364,109.773 M77.364,107.796
			c-3.619,0-6.547,2.323-6.547,5.189s2.928,5.189,6.547,5.189c3.62,0,6.548-2.322,6.548-5.189S80.984,107.796,77.364,107.796
			L77.364,107.796z"/>
	</g>
</g>
</svg>
