<?xml version="1.0" encoding="utf-8"?>
<!-- Generator: Adobe Illustrator 16.0.0, SVG Export Plug-In . SVG Version: 6.00 Build 0)  -->
<!DOCTYPE svg PUBLIC "-//W3C//DTD SVG 1.1//EN" "http://www.w3.org/Graphics/SVG/1.1/DTD/svg11.dtd">
<svg version="1.1" id="图层_1" xmlns="http://www.w3.org/2000/svg" xmlns:xlink="http://www.w3.org/1999/xlink" x="0px" y="0px"
	 width="240px" height="240px" viewBox="0 0 240 240" enable-background="new 0 0 240 240" xml:space="preserve">
<path fill-rule="evenodd" clip-rule="evenodd" fill="#F0F5FD" d="M238,216c0,13.255-10.745,24-24,24H26c-13.255,0-24-10.745-24-24
	V24C2,10.745,12.745,0,26,0h188c13.255,0,24,10.745,24,24V216z"/>
<path fill-rule="evenodd" clip-rule="evenodd" fill="#FFFFFF" d="M161.455,160.984c11.268-10.855,18.812-23.477,22.149-38.509
	c6.653-29.96-9.893-57.158-38.756-63.146c-19.697-4.086-37.822,0.779-53.98,12.152c-21.563,15.178-34.225,35.609-33.763,62.734
	c0.157,9.185,2.751,17.822,8.233,25.705c7.52-6.08,14.604-11.808,20.993-16.973c-1.215-5.624-2.983-10.422-3.176-15.282
	c-0.876-22.066,19.234-43.007,41.484-43.654c21.138-0.614,35.523,15.531,31.304,36.291c-1.57,7.724-5.811,14.904-9.176,23.178
	C150.97,148.489,156.091,154.592,161.455,160.984z"/>
<path fill-rule="evenodd" clip-rule="evenodd" fill="#FFFFFF" d="M136.037,151.471c-14.088,7.61-27.563,9.998-41.3,1.162
	c-0.723-0.465-2.398-0.373-3.078,0.161c-6.618,5.198-13.119,10.547-20.491,16.534c5.015,3.234,8.948,6.351,13.35,8.509
	c16.787,8.23,33.854,7.123,50.754,0.383c3.84-1.532,7.194-1.778,11.009-0.458c4.218,1.46,8.572,2.521,12.867,3.755
	c0.278-0.445,0.557-0.89,0.835-1.335C152.052,170.673,144.121,161.163,136.037,151.471z"/>
<path fill-rule="evenodd" clip-rule="evenodd" fill="#FFFFFF" d="M138.78,118.157c0.056-7.884-4.096-13.268-11.705-15.183
	c-11.586-2.917-25.3,7.785-25.83,20.159c-0.376,8.773,4.581,15.269,12.602,16.513C126.039,141.536,138.692,130.63,138.78,118.157z"
	/>
<path fill-rule="evenodd" clip-rule="evenodd" d="M161.455,160.984c-5.364-6.393-10.485-12.495-14.688-17.503
	c3.365-8.273,7.605-15.454,9.176-23.178c4.22-20.76-10.166-36.905-31.304-36.291c-22.25,0.647-42.36,21.588-41.484,43.654
	c0.193,4.86,1.961,9.658,3.176,15.282c-6.388,5.165-13.473,10.893-20.993,16.973c-5.482-7.883-8.077-16.521-8.233-25.705
	c-0.462-27.125,12.2-47.557,33.763-62.734c16.158-11.373,34.283-16.238,53.98-12.152c28.863,5.987,45.409,33.186,38.756,63.146
	C180.267,137.508,172.723,150.129,161.455,160.984z"/>
<path fill-rule="evenodd" clip-rule="evenodd" fill="#0030FF" d="M136.037,151.471c8.084,9.692,16.015,19.202,23.945,28.711
	c-0.278,0.445-0.557,0.89-0.835,1.335c-4.295-1.234-8.649-2.295-12.867-3.755c-3.814-1.32-7.169-1.074-11.009,0.458
	c-16.9,6.74-33.968,7.848-50.754-0.383c-4.402-2.158-8.335-5.274-13.35-8.509c7.373-5.987,13.873-11.336,20.491-16.534
	c0.68-0.534,2.355-0.626,3.078-0.161C108.475,161.469,121.949,159.081,136.037,151.471z"/>
<path fill-rule="evenodd" clip-rule="evenodd" fill="#0030FF" d="M138.78,118.157c-0.088,12.473-12.741,23.379-24.933,21.489
	c-8.021-1.244-12.979-7.739-12.602-16.513c0.53-12.374,14.244-23.076,25.83-20.159C134.685,104.89,138.836,110.273,138.78,118.157z"
	/>
</svg>
