<?xml version="1.0" encoding="utf-8"?>
<!-- Generator: Adobe Illustrator 16.0.0, SVG Export Plug-In . SVG Version: 6.00 Build 0)  -->
<!DOCTYPE svg PUBLIC "-//W3C//DTD SVG 1.1//EN" "http://www.w3.org/Graphics/SVG/1.1/DTD/svg11.dtd">
<svg version="1.1" id="图层_1" xmlns="http://www.w3.org/2000/svg" xmlns:xlink="http://www.w3.org/1999/xlink" x="0px" y="0px"
	 width="240px" height="240px" viewBox="0 0 240 240" enable-background="new 0 0 240 240" xml:space="preserve">
<g>
	<path fill-rule="evenodd" clip-rule="evenodd" fill="#FFFFFF" d="M26,238c-12.131,0-22-9.869-22-22V24C4,11.869,13.869,2,26,2h188
		c12.131,0,22,9.869,22,22v192c0,12.131-9.869,22-22,22H26z"/>
	<g>
		<path fill="#0BB1EB" d="M214,4c11.028,0,20,8.972,20,20v192c0,11.028-8.972,20-20,20H26c-11.028,0-20-8.972-20-20V24
			C6,12.972,14.972,4,26,4H214 M214,0H26C12.745,0,2,10.745,2,24v192c0,13.255,10.745,24,24,24h188c13.255,0,24-10.745,24-24V24
			C238,10.745,227.255,0,214,0L214,0z"/>
	</g>
</g>
<path fill-rule="evenodd" clip-rule="evenodd" d="M52.79,147.508c0-10.327-0.001-20.653,0.001-30.979
	c0.007-37.206,25.457-66.735,61.97-73.756c34.71-6.674,74.312,18.993,82.027,58.389c7.105,36.283-17.329,78.514-59.829,85.07
	c-5.726,0.884-11.566,1.351-17.359,1.397c-20.485,0.165-40.973-0.031-61.457,0.146c-4.061,0.035-5.544-1.02-5.445-5.293
	C52.966,170.829,52.79,159.166,52.79,147.508z M80.068,159.986c8.507-0.867,16.06-1.856,23.645-2.304
	c3.141-0.185,6.648,0.111,9.482,1.35c24.94,10.897,53.604-2.2,60.794-28.125c3.931-14.174,1.206-27.095-7.903-38.588
	c-0.131,0.823,0.156,1.53,0.485,2.218c7.41,15.486,6.3,30.557-3.391,44.504c-9.72,13.989-23.72,20.264-40.627,18.589
	c-9.256-0.917-18.272-5.355-27.866-1.239c5.483-2.022,11.305-4.35,16.585-3.461c18.239,3.07,33.547-1.497,45.222-15.762
	c11.739-14.344,13.447-30.566,5.528-47.264c-1.921-4.051-5.687-7.985-9.605-10.198c-15.661-8.84-35.202-6.621-49.149,4.796
	c-14.097,11.539-19.575,29.656-14.729,47.276c0.75,2.729,0.294,6.163-0.651,8.911C85.699,147.055,82.867,153.2,80.068,159.986z"/>
<path fill-rule="evenodd" clip-rule="evenodd" fill="#00B2FE" d="M80.068,159.986c8.507-0.867,16.06-1.856,23.645-2.304
	c3.141-0.185,6.648,0.111,9.482,1.35c24.94,10.897,53.604-2.2,60.794-28.125c3.931-14.174,1.206-27.095-7.903-38.588
	c-0.131,0.823,0.156,1.53,0.485,2.218c7.41,15.486,6.3,30.557-3.391,44.504c-9.72,13.989-23.72,20.264-40.627,18.589
	C108.25,152.25,89.663,155.87,80.068,159.986L80.068,159.986z"/>
</svg>
