<?xml version="1.0" encoding="utf-8"?>
<!-- Generator: Adobe Illustrator 16.0.0, SVG Export Plug-In . SVG Version: 6.00 Build 0)  -->
<!DOCTYPE svg PUBLIC "-//W3C//DTD SVG 1.1//EN" "http://www.w3.org/Graphics/SVG/1.1/DTD/svg11.dtd">
<svg version="1.1" id="图层_1" xmlns="http://www.w3.org/2000/svg" xmlns:xlink="http://www.w3.org/1999/xlink" x="0px" y="0px"
	 width="240px" height="240px" viewBox="0 0 240 240" enable-background="new 0 0 240 240" xml:space="preserve">
<path fill-rule="evenodd" clip-rule="evenodd" fill="#FFFFFF" d="M180.271,106.472c-1.982,2.899-3.521,4.914-4.782,7.09
	c-0.66,1.139-1.147,2.555-1.173,3.856c-0.134,6.816,0.29,13.663-0.2,20.447c-0.925,12.816-16.796,20.958-27.795,14.042
	c-1.838-1.155-1.6-5.614-2.443-9.047c16.492,3.259,19.067,2.491,20.422-5.918c-1.136,0.105-2.17,0.173-3.195,0.302
	c-8.338,1.041-14.446-2.406-16.621-9.393c-2.522-8.107,0.695-16.337,8.029-19.952C161.042,103.695,169.93,104.577,180.271,106.472z
	 M164.453,113.381c-9.274-0.747-12.191,7.186-9.188,12.233c1.105,1.858,4.548,2.326,6.924,3.429
	c0.755-1.692,1.986-3.336,2.162-5.086C164.697,120.529,164.453,117.043,164.453,113.381z"/>
<path fill-rule="evenodd" clip-rule="evenodd" fill="#FFFFFF" d="M50.567,104.951c0-5.095,0-9.539,0-14.332c3.38,0,6.434,0,10.194,0
	c0,5.743,0,11.325,0,16.908c0,8.31-0.104,16.621,0.056,24.929c0.056,2.898-0.865,4.422-3.82,4.493
	c-4.635,0.111-9.32,0.703-13.895,0.229c-9.397-0.973-14.274-6.812-14.142-16.055c0.127-8.916,6.101-15.362,15.066-16.146
	C45.972,104.807,47.944,104.951,50.567,104.951z M49.966,130.615c0-6.812,0-11.97,0-18.827c-3.651,1.77-7.643,2.429-8.854,4.623
	c-1.421,2.574-1.514,7.065-0.141,9.634C42.134,128.222,46.204,128.845,49.966,130.615z"/>
<path fill-rule="evenodd" clip-rule="evenodd" fill="#FFFFFF" d="M195.133,104.787c10.018,0.016,16.222,6.491,16.104,16.807
	c-0.113,9.948-6.813,16.551-16.703,16.462c-9.878-0.088-16.02-6.33-16.098-16.362C178.355,111.407,184.909,104.771,195.133,104.787z
	 M200.796,121.261c-0.068-5.225-2.236-8.257-5.899-8.249c-3.852,0.01-6.019,3.201-5.908,8.701c0.104,5.124,2.449,8.218,6.103,8.048
	C198.652,129.596,200.86,126.305,200.796,121.261z"/>
<path fill-rule="evenodd" clip-rule="evenodd" fill="#FFFFFF" d="M140.953,136.973c-3.47,0-6.41,0-10.238,0
	c0-5.84,0.137-11.758-0.081-17.663c-0.067-1.837-0.58-4.324-1.83-5.267c-1.306-0.985-3.888-0.938-5.628-0.409
	c-0.854,0.26-1.459,2.624-1.495,4.053c-0.158,6.295-0.068,12.596-0.068,19.227c-3.562,0-6.63,0-10.332,0
	c0-9.393-0.068-18.671,0.114-27.945c0.017-0.849,1.566-2.295,2.515-2.395c5.919-0.62,11.917-1.593,17.797-1.171
	c6.146,0.44,9.025,4.244,9.201,10.47C141.104,122.811,140.953,129.759,140.953,136.973z"/>
<path fill-rule="evenodd" clip-rule="evenodd" fill="#FFFFFF" d="M82.473,114.767c-0.645-7.359-0.673-7.481,5.949-9.004
	c2.719-0.625,5.598-0.892,8.388-0.802c7.225,0.232,9.824,2.917,9.989,10.157c0.136,5.986-0.07,11.981,0.107,17.966
	c0.082,2.763-0.888,3.988-3.643,4.003c-5.138,0.026-10.297,0.472-15.407,0.131c-4.224-0.281-7.026-2.917-7.615-7.312
	c-0.62-4.625,0.998-8.332,5.414-10.148c2.887-1.188,6.09-1.585,9.066-2.59c0.966-0.326,1.663-1.453,2.482-2.214
	c-0.929-0.729-1.925-2.15-2.774-2.067C90.517,113.268,86.646,114.068,82.473,114.767z M97.65,122.921
	c-3.266,1.596-5.69,2.682-7.963,4.023c-0.267,0.158,0.15,2.453,0.503,2.525c2.409,0.495,4.885,0.661,7.459,0.945
	C97.65,127.776,97.65,126.155,97.65,122.921z"/>
<path fill-rule="evenodd" clip-rule="evenodd" fill="#FFFFFF" d="M56.694,146.154c7.926-3.146,9.448-9.215,9.426-16.124
	c-0.025-7.951-0.006-15.902-0.006-24.152c3.725,0,6.799,0,9.787,0c0,11.044,0.021,21.821-0.035,32.599
	c-0.005,0.962-0.451,1.941-0.79,2.877C71.842,150.271,66.528,151.858,56.694,146.154z"/>
<path fill-rule="evenodd" clip-rule="evenodd" fill="#FFFFFF" d="M66.519,90.594c3.352,0,6.281,0,9.624,0c0,3.282,0,6.457,0,9.944
	c-3.208,0-6.25,0-9.624,0C66.519,97.246,66.519,94.192,66.519,90.594z"/>
<path fill-rule="evenodd" clip-rule="evenodd" fill="#0C4B33" d="M219,241c-65.333,0-130.667,0-196,0
	c-16.38-6.91-19.862-12.226-19.862-30.323c0-60.783-0.005-121.567,0.019-182.351c0.001-2.486,0.018-5.02,0.464-7.451
	C5.625,9.962,12.976,4.151,23,1c65.333,0,130.667,0,196,0c16.394,6.932,19.862,12.227,19.862,30.323
	c0,60.783,0.005,121.566-0.019,182.351c-0.001,2.486-0.014,5.021-0.462,7.452C236.369,232.031,229.045,237.869,219,241z
	 M180.271,106.472c-10.342-1.895-19.229-2.776-27.759,1.428c-7.334,3.615-10.552,11.845-8.029,19.952
	c2.175,6.986,8.283,10.434,16.621,9.393c1.025-0.129,2.06-0.196,3.195-0.302c-1.354,8.409-3.93,9.177-20.422,5.918
	c0.844,3.433,0.605,7.892,2.443,9.047c10.999,6.916,26.87-1.226,27.795-14.042c0.49-6.784,0.066-13.631,0.2-20.447
	c0.025-1.302,0.513-2.718,1.173-3.856C176.75,111.386,178.289,109.371,180.271,106.472z M50.567,104.951
	c-2.624,0-4.596-0.145-6.54,0.025c-8.966,0.784-14.939,7.23-15.066,16.146c-0.132,9.243,4.745,15.082,14.142,16.055
	c4.574,0.475,9.259-0.117,13.895-0.229c2.955-0.071,3.876-1.595,3.82-4.493c-0.16-8.308-0.056-16.619-0.056-24.929
	c0-5.583,0-11.165,0-16.908c-3.761,0-6.814,0-10.194,0C50.567,95.412,50.567,99.856,50.567,104.951z M195.133,104.787
	c-10.224-0.017-16.777,6.62-16.697,16.906c0.078,10.032,6.22,16.274,16.098,16.362c9.891,0.089,16.59-6.514,16.703-16.462
	C211.354,111.278,205.15,104.803,195.133,104.787z M140.953,136.973c0-7.214,0.15-14.162-0.045-21.101
	c-0.176-6.226-3.056-10.029-9.201-10.47c-5.881-0.422-11.878,0.551-17.797,1.171c-0.949,0.1-2.499,1.546-2.515,2.395
	c-0.182,9.274-0.114,18.553-0.114,27.945c3.702,0,6.77,0,10.332,0c0-6.631-0.09-12.932,0.068-19.227
	c0.036-1.429,0.642-3.793,1.495-4.053c1.74-0.529,4.322-0.576,5.628,0.409c1.25,0.942,1.763,3.43,1.83,5.267
	c0.218,5.905,0.081,11.823,0.081,17.663C134.543,136.973,137.483,136.973,140.953,136.973z M82.473,114.767
	c4.173-0.698,8.044-1.499,11.957-1.88c0.849-0.083,1.845,1.339,2.774,2.067c-0.82,0.761-1.516,1.888-2.482,2.214
	c-2.976,1.005-6.179,1.402-9.066,2.59c-4.417,1.816-6.034,5.523-5.414,10.148c0.589,4.395,3.392,7.03,7.615,7.312
	c5.11,0.341,10.269-0.104,15.407-0.131c2.755-0.015,3.725-1.24,3.643-4.003c-0.177-5.984,0.029-11.979-0.107-17.966
	c-0.165-7.24-2.764-9.925-9.989-10.157c-2.79-0.09-5.669,0.177-8.388,0.802C81.8,107.285,81.828,107.407,82.473,114.767z
	 M56.694,146.154c9.834,5.704,15.147,4.117,18.382-4.801c0.339-0.936,0.785-1.915,0.79-2.877
	c0.056-10.777,0.035-21.555,0.035-32.599c-2.988,0-6.063,0-9.787,0c0,8.25-0.02,16.201,0.006,24.152
	C66.143,136.939,64.62,143.008,56.694,146.154z M66.519,90.594c0,3.599,0,6.652,0,9.944c3.374,0,6.416,0,9.624,0
	c0-3.487,0-6.662,0-9.944C72.799,90.594,69.87,90.594,66.519,90.594z M155.266,125.614c1.105,1.858,4.548,2.326,6.924,3.429
	c0.755-1.692,1.986-3.336,2.162-5.086c0.346-3.428,0.102-6.914,0.102-10.576C155.179,112.634,152.262,120.566,155.266,125.614z
	 M49.966,111.788c-3.651,1.77-7.643,2.429-8.854,4.623c-1.421,2.574-1.514,7.065-0.141,9.634c1.163,2.177,5.233,2.8,8.995,4.57
	C49.966,123.804,49.966,118.646,49.966,111.788z M194.896,113.012c-3.852,0.01-6.019,3.201-5.908,8.701
	c0.104,5.124,2.449,8.218,6.103,8.048c3.562-0.165,5.77-3.456,5.705-8.5C200.728,116.036,198.56,113.004,194.896,113.012z
	 M89.688,126.944c-0.267,0.158,0.15,2.453,0.503,2.525c2.409,0.495,4.885,0.661,7.459,0.945c0-2.639,0-4.26,0-7.494
	C94.385,124.517,91.96,125.603,89.688,126.944z"/>
</svg>
