<?xml version="1.0" encoding="utf-8"?>
<!-- Generator: Adobe Illustrator 16.0.0, SVG Export Plug-In . SVG Version: 6.00 Build 0)  -->
<!DOCTYPE svg PUBLIC "-//W3C//DTD SVG 1.1//EN" "http://www.w3.org/Graphics/SVG/1.1/DTD/svg11.dtd">
<svg version="1.1" id="图层_1" xmlns="http://www.w3.org/2000/svg" xmlns:xlink="http://www.w3.org/1999/xlink" x="0px" y="0px"
	 width="240px" height="240px" viewBox="0 0 240 240" enable-background="new 0 0 240 240" xml:space="preserve">
<path fill-rule="evenodd" clip-rule="evenodd" fill="#2E2EA3" d="M22,1c65.667,0,131.333,0,197,0
	c0.587,0.302,1.144,0.711,1.766,0.89c12.693,3.644,18.956,11.922,18.997,25.197c0.022,7.16,0.004,14.32,0.004,21.479
	c0,55.448-0.02,110.896,0.019,166.344c0.007,9.11-3.021,16.716-10.823,21.742c-3.006,1.938-6.623,2.927-9.962,4.348
	c-65.667,0-131.333,0-197,0c-0.372-0.312-0.693-0.768-1.122-0.915c-13.226-4.551-18.636-12.063-18.643-25.997
	c-0.01-21.463-0.003-42.926-0.003-64.388c0-40.929,0.004-81.857-0.002-122.786C2.229,16.105,6.706,8.032,16.625,3.289
	C18.381,2.449,20.207,1.759,22,1z M236.232,121.526c0-31.485,0.009-62.971-0.004-94.457c-0.005-14.206-8.064-22.295-22.24-22.298
	c-61.972-0.011-123.943-0.01-185.915,0C13.887,4.773,5.774,12.866,5.771,27.017c-0.01,62.639-0.01,125.276,0,187.915
	c0.002,14.179,8.099,22.295,22.249,22.297c61.972,0.01,123.943,0.01,185.915,0c14.194-0.002,22.288-8.083,22.293-22.244
	C236.241,183.832,236.232,152.679,236.232,121.526z"/>
<path fill-rule="evenodd" clip-rule="evenodd" fill="#FFFFFF" d="M236.232,121.526c0,31.152,0.009,62.306-0.004,93.458
	c-0.005,14.161-8.099,22.242-22.293,22.244c-61.972,0.01-123.943,0.01-185.915,0c-14.15-0.002-22.247-8.118-22.249-22.297
	c-0.01-62.639-0.01-125.276,0-187.915c0.002-14.15,8.115-22.243,22.302-22.245c61.972-0.01,123.943-0.011,185.915,0
	c14.176,0.003,22.235,8.092,22.24,22.298C236.241,58.556,236.232,90.041,236.232,121.526z M182.476,115.824
	c-0.18-14.76-8.227-23.907-20.622-23.346c-3.367,0.152-4.573-1.073-5.945-3.678c-10.743-20.387-31.896-29.684-54.885-24.394
	c-18.881,4.346-33.525,21.351-35.634,40.601c-0.239,2.185,0.211,6.076,1.378,6.533c11.792,4.624,20.513,13.487,30.273,20.938
	c10.22,7.801,21.847,10.86,34.708,9.614c9.236-0.896,17.239-4.576,24.837-9.616c7.461-4.948,15.378-8.634,24.723-7.787
	c8.357,0.758,15.768,7.716,16.836,15.949c1.154,8.896-3.507,16.812-11.69,19.85c-7.126,2.646-16.729,0.532-19.535-3.736
	c4.582,0.322,9.648,1.148,14.66,0.898c5.087-0.254,9.206-4.711,10.146-9.636c1.049-5.5-0.999-10.393-5.402-12.9
	c-4.637-2.642-10.346-2.153-14.337,1.647c-2.392,2.277-4.749,4.798-6.374,7.637c-5.802,10.132-10.604,20.949-21.121,27.66
	c11.722,0.437,23.055,0.92,34.332,0.328c18.954-0.994,31.41-18.952,25.81-36.784C201.25,124.843,193.429,118.615,182.476,115.824z
	 M108.917,176.703c-4.758-5.504-9.375-10.296-13.353-15.571c-6.499-8.619-12.629-17.52-18.822-26.366
	c-5.042-7.203-11.258-12.645-20.24-14.144c-4.488-0.749-8.695-0.125-11.9,3.406c-8.307,9.153-10.587,19.845-6.833,31.476
	c3.792,11.747,12.219,19.845,24.326,20.879C77.549,177.703,93.201,176.703,108.917,176.703z M50.807,83.818
	c4.108,0.135,7.543-3.179,7.702-7.428c0.151-4.063-3.245-7.877-7.187-8.07c-3.923-0.193-7.43,3.314-7.552,7.555
	C43.643,80.309,46.631,83.683,50.807,83.818z M41.911,98.931c3.745-0.35,5.865-2.324,5.848-6.083
	c-0.017-3.462-1.838-5.703-5.418-5.851c-3.799-0.157-5.93,1.938-6.057,5.695C36.156,96.446,38.21,98.487,41.911,98.931z
	 M50.195,99.229c-1.976,3.013-4.087,4.816-3.902,6.342c0.19,1.576,2.686,4.073,4.04,3.991c1.55-0.095,3.978-2.486,4.131-4.063
	C54.611,103.973,52.354,102.212,50.195,99.229z"/>
<path fill-rule="evenodd" clip-rule="evenodd" fill="#2E2EA3" d="M182.476,115.824c10.953,2.791,18.774,9.019,22.154,19.778
	c5.601,17.832-6.855,35.79-25.81,36.784c-11.277,0.592-22.61,0.108-34.332-0.328c10.517-6.711,15.319-17.528,21.121-27.66
	c1.625-2.839,3.982-5.359,6.374-7.637c3.991-3.801,9.7-4.289,14.337-1.647c4.403,2.508,6.451,7.4,5.402,12.9
	c-0.939,4.925-5.059,9.382-10.146,9.636c-5.012,0.25-10.078-0.576-14.66-0.898c2.807,4.269,12.409,6.382,19.535,3.736
	c8.184-3.038,12.845-10.953,11.69-19.85c-1.068-8.233-8.479-15.191-16.836-15.949c-9.345-0.847-17.262,2.839-24.723,7.787
	c-7.598,5.04-15.601,8.721-24.837,9.616c-12.861,1.246-24.487-1.813-34.708-9.614c-9.76-7.45-18.481-16.313-30.273-20.938
	c-1.167-0.457-1.617-4.349-1.378-6.533c2.109-19.25,16.753-36.255,35.634-40.601c22.99-5.29,44.142,4.007,54.885,24.394
	c1.372,2.604,2.578,3.83,5.945,3.678C174.249,91.917,182.296,101.064,182.476,115.824z M100.055,125.647
	c14.196,9.774,39.609,9.439,52.309-0.146c-7.822-2.92-14.836-5.538-21.47-8.015c-1.016-4.708-2.09-9.688-3.165-14.669
	c-0.909-0.02-1.818-0.039-2.728-0.059c-1.119,4.912-2.238,9.824-3.351,14.706C115.193,119.912,108.083,122.606,100.055,125.647z"/>
<path fill-rule="evenodd" clip-rule="evenodd" fill="#2E2EA3" d="M108.917,176.703c-15.716,0-31.368,1-46.821-0.32
	c-12.107-1.034-20.534-9.132-24.326-20.879c-3.754-11.631-1.475-22.322,6.833-31.476c3.205-3.531,7.412-4.155,11.9-3.406
	c8.982,1.499,15.199,6.94,20.24,14.144c6.193,8.847,12.323,17.747,18.822,26.366C99.542,166.407,104.16,171.199,108.917,176.703z"/>
<path fill-rule="evenodd" clip-rule="evenodd" fill="#2E2EA3" d="M50.807,83.818c-4.176-0.136-7.165-3.51-7.037-7.943
	c0.123-4.24,3.629-7.748,7.552-7.555c3.942,0.193,7.338,4.007,7.187,8.07C58.35,80.64,54.915,83.953,50.807,83.818z"/>
<path fill-rule="evenodd" clip-rule="evenodd" fill="#2E2EA3" d="M41.911,98.931c-3.7-0.443-5.755-2.484-5.628-6.238
	c0.127-3.757,2.258-5.853,6.057-5.695c3.581,0.147,5.402,2.389,5.418,5.851C47.776,96.606,45.656,98.581,41.911,98.931z"/>
<path fill-rule="evenodd" clip-rule="evenodd" fill="#2E2EA3" d="M50.195,99.229c2.16,2.982,4.417,4.743,4.268,6.27
	c-0.153,1.577-2.581,3.969-4.131,4.063c-1.354,0.082-3.849-2.415-4.04-3.991C46.108,104.046,48.219,102.242,50.195,99.229z"/>
<path fill-rule="evenodd" clip-rule="evenodd" fill="#FFFFFF" d="M100.055,125.647c8.028-3.041,15.139-5.735,21.596-8.182
	c1.112-4.882,2.231-9.794,3.351-14.706c0.909,0.02,1.818,0.039,2.728,0.059c1.075,4.98,2.149,9.961,3.165,14.669
	c6.634,2.477,13.647,5.095,21.47,8.015C139.664,135.087,114.25,135.422,100.055,125.647z"/>
</svg>
