<?xml version="1.0" encoding="utf-8"?>
<!-- Generator: Adobe Illustrator 16.0.0, SVG Export Plug-In . SVG Version: 6.00 Build 0)  -->
<!DOCTYPE svg PUBLIC "-//W3C//DTD SVG 1.1//EN" "http://www.w3.org/Graphics/SVG/1.1/DTD/svg11.dtd">
<svg version="1.1" id="图层_1" xmlns="http://www.w3.org/2000/svg" xmlns:xlink="http://www.w3.org/1999/xlink" x="0px" y="0px"
	 width="240px" height="240px" viewBox="0 0 240 240" enable-background="new 0 0 240 240" xml:space="preserve">
<path fill-rule="evenodd" clip-rule="evenodd" fill="#0678BE" d="M217,241c-64,0-128,0-192,0c-0.716-0.396-1.388-0.959-2.155-1.163
	c-12.766-3.395-19.381-11.674-19.392-24.853c-0.049-62.657-0.049-125.315,0-187.973C3.464,13.832,10.11,5.52,22.853,2.166
	C23.618,1.964,24.286,1.397,25,1c64,0,128,0,192,0c0.714,0.397,1.383,0.964,2.147,1.166c12.744,3.354,19.389,11.664,19.399,24.845
	c0.049,62.656,0.055,125.313-0.006,187.97c-0.013,13.225-6.628,21.471-19.386,24.857C218.388,240.041,217.716,240.604,217,241z"/>
<path fill-rule="evenodd" clip-rule="evenodd" fill="#FFFFFF" d="M96.557,89.932c0.095,1.372,0.232,2.53,0.243,3.688
	c0.023,2.526-1.077,6.25,0.168,7.35c3.428,3.028,7.816,4.977,11.862,7.285c0.323,0.185,1.017-0.021,1.411-0.257
	c5.647-3.387,11.402-4.218,17.572-1.282c0.796,0.379,2.456-0.488,3.432-1.18c1.896-1.343,3.484-3.122,5.392-4.445
	c3.31-2.298,4.516-4.575,3.184-9.036c-2.881-9.646,2.684-19.656,12.068-23.469c9.465-3.844,19.88-0.422,25.195,8.28
	c5.3,8.677,3.986,20.007-4.298,26.033c-4.918,3.578-4.054,7.068-2.982,11.48c0.994,4.1,1.003,8.139,6.66,9.666
	c6.457,1.743,10.443,8.994,9.838,15.226c-0.646,6.642-5.894,12.393-12.616,13.827c-6.033,1.286-12.789-2.026-15.956-7.823
	c-3.408-6.239-2.736-12.888,2.601-17.783c2.9-2.659,3.826-5.086,2.427-8.672c-0.595-1.524-0.947-3.221-1.02-4.856
	c-0.177-3.978-2.114-6.036-6.067-6.385c-1.138-0.101-2.279-0.479-3.354-0.895c-2.27-0.878-5.286-3.273-6.591-2.542
	c-3.847,2.158-7.11,5.431-10.352,8.527c-0.651,0.623-0.431,2.438-0.223,3.635c1.088,6.235-0.406,11.675-5.256,15.779
	c-2.188,1.852-2.503,3.606-1.601,6.061c0.513,1.394,0.862,2.878,1.058,4.352c0.656,4.952,2.368,7.948,8.207,9.174
	c10.152,2.131,16.26,12.42,14.713,22.402c-1.553,10.019-10.004,17.296-20.135,17.339c-10.496,0.044-18.754-7.094-20.637-17.379
	c-0.297-1.626-2.083-3.311-3.615-4.284c-1.46-0.928-3.527-0.845-5.26-1.41c-4.404-1.436-7.939-1.998-11.747,2.456
	c-4.205,4.918-11.875,4.751-17.501,1.227c-5.5-3.444-8.246-10.654-6.498-17.056c1.629-5.963,7.625-10.742,13.974-11.139
	c6.202-0.386,13.282,4.007,14.833,10.409c0.998,4.115,3.138,5.399,6.683,5.928c1.31,0.195,2.665,0.439,3.863,0.969
	c4.394,1.94,7.905,1.563,10.03-3.313c0.25-0.575,0.857-1.015,1.351-1.46c1.934-1.74,5.594-3.545,5.511-5.168
	c-0.229-4.537-1.869-9.04-3.275-13.452c-0.313-0.982-1.848-1.84-3-2.247c-9.149-3.237-12.277-7.649-12.458-16.881
	c-0.035-1.762-1.597-3.581-2.714-5.192c-0.518-0.747-1.72-0.981-2.511-1.582c-4.478-3.398-8.257-4.579-13.956-0.816
	c-8.431,5.567-19.41,2.177-25.56-6.258c-5.961-8.177-5.036-19.212,2.219-26.454c6.858-6.847,18.438-8.058,26.063-2.088
	c2.927,2.291,4.854,1.865,7.391,0.146c1.651-1.119,3.37-2.16,5.14-3.079c3.244-1.685,5.225-3.352,4.697-7.937
	c-0.718-6.233,5.044-12.771,11.079-14.409c6.353-1.724,13.537,1.122,16.941,6.709c3.573,5.866,2.955,13.076-1.549,18.054
	c-4.709,5.203-11.641,6.977-17.622,3.582c-3.681-2.09-6.393-1.832-9.467,0.573c-1.301,1.018-2.772,1.886-4.286,2.55
	C96.742,83.951,94.814,86.144,96.557,89.932z M119.358,170.952c-0.024,7.131,5.442,12.684,12.476,12.675
	c7.116-0.009,12.7-5.482,12.762-12.51c0.061-6.969-5.605-12.696-12.585-12.721C124.934,158.372,119.382,163.88,119.358,170.952z
	 M88.725,92.874c0.006-7.183-5.37-12.554-12.521-12.511c-7.075,0.043-12.809,5.699-12.757,12.584
	c0.051,6.731,6.12,12.712,12.838,12.647C83.332,105.528,88.719,100.02,88.725,92.874z M147.171,87.591
	c0.025,7.406,5.181,12.444,12.652,12.362c6.916-0.075,12.401-5.424,12.548-12.235c0.148-6.948-5.496-12.549-12.687-12.586
	C152.181,75.093,147.145,80.106,147.171,87.591z M81.5,166.588c3.955,0.002,7.18-3.294,7.184-7.343
	c0.004-4.39-2.771-7.163-7.178-7.172c-4.393-0.009-7.193,2.78-7.188,7.161C74.322,163.277,77.554,166.586,81.5,166.588z
	 M178.551,138.068c0.037-3.555-3.728-7.42-7.354-7.552c-3.489-0.125-7.526,3.653-7.718,7.225c-0.197,3.685,3.895,7.861,7.629,7.787
	C174.71,145.458,178.514,141.646,178.551,138.068z M127.616,65.528c-0.09-4.036-3.373-7.211-7.388-7.141
	c-4.208,0.074-7.083,3.084-7.04,7.372c0.044,4.389,2.812,7.055,7.267,7.002C124.661,72.712,127.706,69.635,127.616,65.528z
	 M119.999,113.387c-4.196,0.006-6.835,2.666-6.814,6.868c0.02,3.887,3.101,7.236,6.719,7.304c3.56,0.066,6.755-3.319,6.775-7.182
	C126.701,116.107,124.097,113.382,119.999,113.387z"/>
</svg>
