<?xml version="1.0" encoding="utf-8"?>
<!-- Generator: Adobe Illustrator 16.0.0, SVG Export Plug-In . SVG Version: 6.00 Build 0)  -->
<!DOCTYPE svg PUBLIC "-//W3C//DTD SVG 1.1//EN" "http://www.w3.org/Graphics/SVG/1.1/DTD/svg11.dtd">
<svg version="1.1" id="图层_1" xmlns="http://www.w3.org/2000/svg" xmlns:xlink="http://www.w3.org/1999/xlink" x="0px" y="0px"
	 width="240px" height="240px" viewBox="0 0 240 240" enable-background="new 0 0 240 240" xml:space="preserve">
<path fill-rule="evenodd" clip-rule="evenodd" d="M220,241c-66,0-132,0-198,0c-14.346-4.936-19.27-15.209-19.171-30.021
	C3.238,149.996,2.993,89.01,3.023,28.024c0.001-2.65,0.052-5.358,0.571-7.941C5.65,9.856,12.757,4.367,22,1c66,0,132,0,198,0
	c14.34,4.94,19.271,15.208,19.172,30.023c-0.41,60.982-0.165,121.969-0.194,182.953c-0.002,2.651-0.045,5.361-0.568,7.942
	C236.338,232.132,229.28,237.67,220,241z M124.903,129.024c13.323,0,26.646,0.029,39.97-0.028c2.311-0.01,4.683-0.121,6.92-0.643
	c18.696-4.362,29.276-19.598,28.335-40.632c-0.726-16.213-16.202-32.341-32.375-32.605c-25.806-0.421-51.625-0.108-77.438-0.166
	c-3.469-0.008-5.418,1.523-5.565,4.932c-0.148,3.435,1.853,5.22,5.153,5.491c2.153,0.177,4.325,0.113,6.489,0.144
	c3.471,0.048,6.014,1.516,6.012,5.195c-0.001,3.579-2.304,5.328-5.887,5.312c-1.333-0.007-2.665,0.007-3.997,0.008
	c-8.993,0.002-17.986,0.015-26.979-0.002c-3.691-0.007-6.378,1.53-6.383,5.399c-0.005,3.896,2.757,5.381,6.401,5.4
	c1.332,0.008,2.665,0.007,3.997,0.007c12.657,0.002,25.314,0.018,37.971-0.004c3.564-0.007,6.459,0.977,6.525,5.113
	c0.065,4.088-2.677,5.332-6.307,5.349c-3.995,0.017-8.12-0.485-11.929,0.379c-1.902,0.432-4.502,3.443-4.451,5.22
	c0.051,1.749,2.978,3.504,4.815,5.052c0.492,0.414,1.615,0.119,2.446,0.084c3.8-0.16,6.943,1.1,7.015,5.269
	c0.072,4.204-3.109,5.468-6.865,5.47c-5.329,0.002-10.659,0.065-15.987-0.013c-3.629-0.054-6.513,1.104-6.62,5.075
	c-0.118,4.384,2.913,5.276,6.767,5.245C96.925,128.958,110.915,129.028,124.903,129.024z M100.828,190.557c2.278,0,3.838,0,5.947,0
	c0-9.439-0.152-18.563,0.064-27.678c0.107-4.538-1.607-5.564-6.031-3.96c0,3.96,0,7.885,0,11.847c-5.031,0-9.568,0-14.664,0
	c0-4.297,0-8.216,0-12.015c-4.145-1.288-5.694-0.247-5.592,3.76c0.204,7.987,0.207,15.986,0,23.973
	c-0.113,4.354,1.634,5.191,5.945,3.663c0-4.535,0-9.102,0-13.678c5.072,0,9.497,0,14.33,0
	C100.828,181.194,100.828,185.636,100.828,190.557z M195.314,190.366c-3.476-10.095-6.714-19.838-10.284-29.459
	c-0.466-1.256-2.569-2.452-4.037-2.623c-1.265-0.146-3.547,0.897-3.934,1.947c-3.66,9.923-7.01,19.96-10.506,30.131
	c3.851,1.007,6.657,1.019,7.345-3.14c0.824-4.991,4.685-3.098,7.481-3.271c2.626-0.163,5.917-1.098,6.533,3.168
	C188.522,191.335,191.291,191.376,195.314,190.366z M140.525,185.879c-3.991,0-7.797-0.092-11.596,0.027
	c-3.645,0.114-5.213-1.501-4.914-5.115c0.118-1.435,0.02-2.888,0.02-4.858c5.228,0,9.971,0,14.582,0
	c1.127-3.809-0.053-5.068-3.474-4.866c-3.597,0.213-7.216,0.048-10.757,0.048c-0.66-7.544-0.348-7.915,6.212-7.944
	c3.269-0.014,6.538-0.002,9.628-0.002c1.015-3.546,0.408-5.191-2.992-5.055c-3.653,0.147-7.326-0.113-10.972,0.107
	c-5.058,0.305-7.693,2.789-7.935,7.831c-0.271,5.642-0.251,11.313-0.021,16.956c0.211,5.188,2.652,7.535,7.821,7.822
	c3.648,0.203,7.324-0.095,10.971,0.115C140.547,191.143,141.679,189.797,140.525,185.879z M56.304,163.044
	c0,9.608,0,18.517,0,27.543c2.174,0,3.742,0,5.851,0c0-9.203,0-18.116,0-27.227c3.462-0.177,6.393-0.326,9.272-0.474
	c1.226-3.559,0.106-4.818-3.332-4.734c-6.329,0.156-12.664,0.046-18.997,0.09c-0.618,0.004-1.234,0.306-1.836,0.466
	c0,1.441,0,2.705,0,4.336C50.113,163.044,52.726,163.044,56.304,163.044z M63.021,54.987c-3.323,0-6.646,0.031-9.969-0.009
	c-3.224-0.038-5.005,1.516-5.209,4.712c-0.198,3.096,1.163,5.445,4.359,5.551c7.13,0.235,14.278,0.227,21.41,0.017
	c3.168-0.094,4.641-2.325,4.482-5.456c-0.161-3.178-1.859-4.833-5.104-4.817C69.667,55,66.344,54.987,63.021,54.987z
	 M55.473,129.024c2.988,0,5.98-0.097,8.963,0.025c3.345,0.137,5.085-1.668,5.248-4.671c0.174-3.219-1.47-5.487-4.981-5.541
	c-6.14-0.094-12.284-0.087-18.424,0.007c-3.349,0.052-4.545,2.11-4.515,5.27c0.032,3.228,1.318,5.004,4.746,4.923
	C49.495,128.966,52.485,129.022,55.473,129.024z M73.366,107.983c0,0.006,0,0.012,0,0.018c2.147,0,4.573,0.626,6.368-0.17
	c1.925-0.854,4.391-2.952,4.532-4.679c0.143-1.745-2.036-5.032-3.61-5.31c-4.315-0.76-8.927-0.782-13.25-0.063
	c-1.617,0.27-3.885,3.451-3.799,5.204c0.084,1.732,2.511,3.796,4.394,4.848C69.384,108.605,71.548,107.983,73.366,107.983z
	 M156.978,158.734c-4.081-1.315-5.618-0.197-5.529,3.77c0.18,7.973,0.182,15.956,0,23.929c-0.096,4.208,1.483,5.359,5.529,3.856
	C156.978,179.825,156.978,169.411,156.978,158.734z"/>
<path fill-rule="evenodd" clip-rule="evenodd" fill="#FFFFFF" d="M124.903,129.026c-13.989,0.002-27.979-0.068-41.967,0.048
	c-3.854,0.031-6.884-0.861-6.767-5.245c0.107-3.971,2.991-5.129,6.62-5.075c5.328,0.078,10.658,0.015,15.987,0.013
	c3.756-0.002,6.937-1.266,6.865-5.47c-0.071-4.169-3.214-5.429-7.015-5.269c-0.831,0.035-1.954,0.33-2.446-0.084
	c-1.837-1.548-4.765-3.303-4.815-5.052c-0.051-1.776,2.549-4.788,4.451-5.22c3.809-0.864,7.934-0.362,11.929-0.379
	c3.63-0.017,6.372-1.261,6.307-5.349c-0.066-4.137-2.961-5.12-6.525-5.113c-12.657,0.021-25.314,0.006-37.971,0.004
	c-1.332,0-2.665,0.001-3.997-0.007c-3.644-0.02-6.406-1.505-6.401-5.4c0.005-3.869,2.692-5.406,6.383-5.399
	c8.993,0.017,17.986,0.004,26.979,0.002c1.333-0.001,2.665-0.015,3.997-0.008c3.583,0.017,5.885-1.732,5.887-5.312
	c0.001-3.68-2.541-5.147-6.012-5.195c-2.164-0.03-4.336,0.033-6.489-0.144c-3.301-0.271-5.301-2.057-5.153-5.491
	c0.146-3.408,2.096-4.939,5.565-4.932c25.813,0.058,51.632-0.255,77.438,0.166c16.173,0.265,31.649,16.393,32.375,32.605
	c0.941,21.034-9.639,36.27-28.335,40.632c-2.237,0.521-4.609,0.633-6.92,0.643C151.55,129.054,138.227,129.024,124.903,129.026z
	 M178.059,91.777c0-1.332,0.028-2.665-0.005-3.996c-0.287-11.601-9.443-20.731-20.691-20.648c-11.096,0.081-20.066,9-20.421,20.388
	c-0.104,3.326-0.138,6.667,0.043,9.988c0.694,12.763,12.938,21.775,25.29,18.696C172.991,113.533,178.072,105.676,178.059,91.777z"
	/>
<path fill-rule="evenodd" clip-rule="evenodd" fill="#FFFFFF" d="M100.828,190.557c0-4.921,0-9.362,0-14.088
	c-4.833,0-9.258,0-14.33,0c0,4.576,0,9.143,0,13.678c-4.311,1.528-6.058,0.691-5.945-3.663c0.207-7.986,0.203-15.985,0-23.973
	c-0.103-4.007,1.447-5.048,5.592-3.76c0,3.799,0,7.718,0,12.015c5.096,0,9.633,0,14.664,0c0-3.962,0-7.887,0-11.847
	c4.424-1.604,6.139-0.578,6.031,3.96c-0.216,9.115-0.064,18.238-0.064,27.678C104.667,190.557,103.106,190.557,100.828,190.557z"/>
<path fill-rule="evenodd" clip-rule="evenodd" fill="#FFFFFF" d="M195.314,190.366c-4.023,1.01-6.792,0.969-7.401-3.247
	c-0.616-4.266-3.907-3.331-6.533-3.168c-2.797,0.174-6.657-1.72-7.481,3.271c-0.688,4.158-3.494,4.146-7.345,3.14
	c3.496-10.171,6.846-20.208,10.506-30.131c0.387-1.05,2.669-2.094,3.934-1.947c1.468,0.171,3.571,1.367,4.037,2.623
	C188.601,170.528,191.839,180.271,195.314,190.366z M181.245,165.859c-0.312,0.037-0.622,0.075-0.934,0.112
	c-1.212,4.144-2.423,8.287-3.724,12.734c3.239,0,5.682,0,8.613,0C183.812,174.194,182.528,170.026,181.245,165.859z"/>
<path fill-rule="evenodd" clip-rule="evenodd" fill="#FFFFFF" d="M140.525,185.879c1.153,3.918,0.021,5.264-3.428,5.066
	c-3.646-0.21-7.322,0.088-10.971-0.115c-5.169-0.287-7.609-2.635-7.821-7.822c-0.229-5.644-0.25-11.314,0.021-16.956
	c0.242-5.042,2.877-7.526,7.935-7.831c3.646-0.221,7.318,0.04,10.972-0.107c3.4-0.137,4.007,1.509,2.992,5.055
	c-3.09,0-6.359-0.012-9.628,0.002c-6.56,0.029-6.872,0.4-6.212,7.944c3.541,0,7.16,0.165,10.757-0.048
	c3.421-0.202,4.601,1.058,3.474,4.866c-4.611,0-9.354,0-14.582,0c0,1.971,0.099,3.424-0.02,4.858
	c-0.299,3.614,1.27,5.229,4.914,5.115C132.729,185.787,136.534,185.879,140.525,185.879z"/>
<path fill-rule="evenodd" clip-rule="evenodd" fill="#FFFFFF" d="M56.304,163.044c-3.578,0-6.19,0-9.042,0c0-1.631,0-2.895,0-4.336
	c0.603-0.16,1.219-0.462,1.836-0.466c6.333-0.044,12.668,0.066,18.997-0.09c3.438-0.084,4.558,1.176,3.332,4.734
	c-2.88,0.147-5.81,0.297-9.272,0.474c0,9.11,0,18.023,0,27.227c-2.109,0-3.677,0-5.851,0
	C56.304,181.561,56.304,172.652,56.304,163.044z"/>
<path fill-rule="evenodd" clip-rule="evenodd" fill="#FFFFFF" d="M63.021,54.987c3.323,0,6.646,0.013,9.969-0.003
	c3.245-0.016,4.942,1.64,5.104,4.817c0.159,3.131-1.313,5.362-4.482,5.456c-7.132,0.21-14.279,0.219-21.41-0.017
	c-3.196-0.105-4.558-2.455-4.359-5.551c0.204-3.196,1.986-4.75,5.209-4.712C56.375,55.019,59.698,54.987,63.021,54.987z"/>
<path fill-rule="evenodd" clip-rule="evenodd" fill="#FFFFFF" d="M55.473,129.023c-2.988-0.001-5.978-0.058-8.964,0.014
	c-3.427,0.081-4.714-1.695-4.746-4.923c-0.03-3.159,1.167-5.218,4.515-5.27c6.14-0.094,12.284-0.101,18.424-0.007
	c3.511,0.054,5.155,2.322,4.981,5.541c-0.162,3.003-1.903,4.808-5.248,4.671C61.453,128.928,58.461,129.024,55.473,129.023z"/>
<path fill-rule="evenodd" clip-rule="evenodd" fill="#FFFFFF" d="M73.366,107.983c-1.817,0-3.982,0.622-5.366-0.151
	c-1.883-1.052-4.309-3.115-4.394-4.848c-0.086-1.753,2.182-4.935,3.799-5.204c4.323-0.72,8.935-0.697,13.25,0.063
	c1.574,0.277,3.753,3.564,3.61,5.31c-0.141,1.727-2.606,3.825-4.532,4.679c-1.795,0.796-4.22,0.17-6.368,0.17
	C73.366,107.995,73.366,107.989,73.366,107.983z"/>
<path fill-rule="evenodd" clip-rule="evenodd" fill="#FFFFFF" d="M156.978,158.734c0,10.677,0,21.091,0,31.555
	c-4.046,1.503-5.625,0.352-5.529-3.856c0.182-7.973,0.18-15.956,0-23.929C151.359,158.537,152.896,157.419,156.978,158.734z"/>
<path fill-rule="evenodd" clip-rule="evenodd" d="M178.063,91.777c0.009,13.898-5.072,21.756-15.789,24.428
	c-12.353,3.079-24.596-5.934-25.29-18.696c-0.181-3.321-0.146-6.662-0.043-9.988c0.354-11.388,9.325-20.307,20.421-20.388
	c11.248-0.083,20.404,9.048,20.691,20.648C178.087,89.112,178.059,90.445,178.063,91.777z M156.675,97.325c0-0.007,0-0.015,0-0.022
	c2.663,0,5.331,0.112,7.985-0.028c3.218-0.17,4.845-2.17,4.815-5.242c-0.03-3.052-1.637-5.101-4.88-5.169
	c-5.157-0.107-10.318-0.102-15.477-0.017c-3.174,0.053-4.956,1.88-5.055,5.006c-0.106,3.388,1.727,5.293,5.123,5.45
	C151.679,97.418,154.179,97.325,156.675,97.325z"/>
<path fill-rule="evenodd" clip-rule="evenodd" d="M181.245,165.859c1.283,4.167,2.566,8.335,3.956,12.847c-2.932,0-5.374,0-8.613,0
	c1.301-4.447,2.512-8.591,3.724-12.734C180.623,165.935,180.934,165.896,181.245,165.859z"/>
<path fill-rule="evenodd" clip-rule="evenodd" fill="#FFFFFF" d="M156.675,97.325c-2.496,0-4.996,0.093-7.487-0.022
	c-3.396-0.157-5.229-2.063-5.123-5.45c0.099-3.126,1.881-4.953,5.055-5.006c5.158-0.085,10.319-0.091,15.477,0.017
	c3.243,0.068,4.85,2.117,4.88,5.169c0.029,3.072-1.598,5.072-4.815,5.242c-2.654,0.141-5.322,0.028-7.985,0.028
	C156.675,97.311,156.675,97.318,156.675,97.325z"/>
</svg>
