<?xml version="1.0" encoding="utf-8"?>
<!-- Generator: Adobe Illustrator 16.0.0, SVG Export Plug-In . SVG Version: 6.00 Build 0)  -->
<!DOCTYPE svg PUBLIC "-//W3C//DTD SVG 1.1//EN" "http://www.w3.org/Graphics/SVG/1.1/DTD/svg11.dtd">
<svg version="1.1" id="图层_1" xmlns="http://www.w3.org/2000/svg" xmlns:xlink="http://www.w3.org/1999/xlink" x="0px" y="0px"
	 width="240px" height="240px" viewBox="0 0 240 240" enable-background="new 0 0 240 240" xml:space="preserve">
<g>
	<path fill-rule="evenodd" clip-rule="evenodd" fill="#FFFFFF" d="M26,238c-12.131,0-22-9.869-22-22V24C4,11.869,13.869,2,26,2h188
		c12.131,0,22,9.869,22,22v192c0,12.131-9.869,22-22,22H26z"/>
	<path fill="#FDB940" d="M214,4c11.028,0,20,8.972,20,20v192c0,11.028-8.972,20-20,20H26c-11.028,0-20-8.972-20-20V24
		C6,12.972,14.972,4,26,4H214 M214,0H26C12.745,0,2,10.745,2,24v192c0,13.255,10.745,24,24,24h188c13.255,0,24-10.745,24-24V24
		C238,10.745,227.255,0,214,0L214,0z"/>
</g>
<path fill-rule="evenodd" clip-rule="evenodd" d="M170.574,179.475c-7.192-6.624-12.021-7.5-16.126-2.924
	c-3.899,4.347-4.097,13.41,0.463,16.804c2.418,1.8,6.721,2.818,9.457,1.946c2.716-0.866,4.533-4.547,6.744-6.995
	c-0.066,5.917-3.81,9.586-9.82,9.623c-6.831,0.043-11.627-5.112-11.862-12.753c-0.228-7.383,4.261-12.824,10.769-13.058
	C167.063,171.873,170.278,174.152,170.574,179.475z"/>
<path fill-rule="evenodd" clip-rule="evenodd" d="M39.941,184.983c0,4.004,0,6.96,0,10.645c4.815,0,9.509,0,14.203,0
	c0.003,0.423,0.007,0.845,0.011,1.268c-5.347,0-10.694,0-16.405,0c0-8.041,0-16.075,0-24.335c5.749,0,11.255,0,16.762,0
	c0.017,0.381,0.034,0.763,0.051,1.144c-4.722,0-9.444,0-14.491,0c0,3.53,0,6.274,0,9.777c4.369,0,8.734,0,13.099,0
	c0.015,0.501,0.029,1.002,0.043,1.502C48.979,184.983,44.745,184.983,39.941,184.983z"/>
<path fill-rule="evenodd" clip-rule="evenodd" d="M87.042,180.3c1.818,0,3.197,0.411,4.094-0.071
	c3.847-2.072,7.347-1.949,10.366,1.294c3.18,3.417,3.167,10.423-0.029,13.802c-3.041,3.215-6.578,3.511-10.32,1.128
	c-0.523-0.334-1.048-0.664-2.196-1.392c0,2.023,0.047,3.438-0.014,4.85c-0.054,1.251-0.228,2.496-0.349,3.744
	c-0.517,0.009-1.034,0.019-1.552,0.027c0-3.904,0-7.81,0-11.715C87.042,187.996,87.042,184.026,87.042,180.3z M88.972,188.213
	c-0.022,4.771,2.457,7.922,6.323,8.035c3.932,0.115,6.622-3.003,6.643-7.7c0.02-4.653-2.635-8.01-6.375-8.058
	C91.556,180.438,88.994,183.441,88.972,188.213z"/>
<path fill-rule="evenodd" clip-rule="evenodd" d="M193.565,190.561c1.771,1.841,3.404,5.002,5.347,5.205
	c2.709,0.284,5.65-1.643,8.864-2.752c-1.063,3.227-3.508,4.978-7.451,4.913c-4.768-0.078-7.858-3.488-8.102-8.878
	c-0.253-5.592,2.761-9.692,7.405-10.076c5.107-0.424,7.938,2.551,8.704,9.714c-4.564,0-9.092,0-13.62,0
	C194.33,189.311,193.947,189.936,193.565,190.561z M206.168,186.941c-0.191-3.931-1.971-6.299-5.615-6.367
	c-3.854-0.072-5.707,2.421-6.134,6.367C198.413,186.941,202.131,186.941,206.168,186.941z"/>
<path fill-rule="evenodd" clip-rule="evenodd" d="M138.313,188.945c-4.77,0-9.188,0-13.607,0c-0.336,0.427-0.673,0.854-1.009,1.28
	c1.649,1.923,3.144,5.239,4.985,5.445c2.844,0.318,5.925-1.491,9.172-2.479c-1.021,3.053-3.53,4.825-7.519,4.729
	c-4.921-0.12-8.038-3.854-7.979-9.459c0.06-5.715,3.141-9.401,7.954-9.515C135.271,178.829,137.729,181.668,138.313,188.945z
	 M136.359,186.952c-0.312-3.819-1.872-6.328-5.618-6.378c-3.882-0.052-5.867,2.249-6.016,6.378
	C128.631,186.952,132.338,186.952,136.359,186.952z"/>
<path fill-rule="evenodd" clip-rule="evenodd" d="M176.443,172.832c0,2.536,0,5.072,0,8.314c1.771-0.842,2.805-1.479,3.928-1.844
	c5.02-1.631,8.615,0.755,8.865,6.031c0.183,3.868,0.035,7.752,0.035,11.629c-0.628,0.015-1.256,0.029-1.884,0.045
	c0-3.215-0.01-6.43,0.002-9.645c0.012-3.301-0.07-6.717-4.537-6.806c-4.385-0.086-6.106,2.725-6.171,6.772
	c-0.049,3.086-0.01,6.173-0.01,9.26c-0.424,0.004-0.848,0.009-1.272,0.013c0-7.916,0-15.832,0-23.747
	C175.748,172.848,176.096,172.84,176.443,172.832z"/>
<path fill-rule="evenodd" clip-rule="evenodd" d="M106.708,193.555c2.976,0.808,5.932,1.868,8.974,2.256
	c0.777,0.099,2.319-1.827,2.575-3.023c0.167-0.78-1.154-2.355-2.156-2.812c-2.095-0.953-4.611-1.062-6.583-2.174
	c-1.361-0.768-2.77-2.572-2.912-4.035c-0.119-1.221,1.282-3.067,2.511-3.855c4.155-2.664,8.866-0.691,10.103,3.799
	c-2.097-1.04-4.213-2.623-6.534-3.021c-1.208-0.207-2.774,1.678-4.179,2.617c1.008,1.146,1.811,2.69,3.075,3.345
	c1.729,0.896,4.032,0.749,5.669,1.742c1.382,0.838,2.929,2.626,2.999,4.061c0.069,1.434-1.265,3.465-2.58,4.338
	C113.018,199.882,107.317,197.472,106.708,193.555z"/>
<path fill-rule="evenodd" clip-rule="evenodd" d="M72.133,191.674c-0.533,4.422-3.283,6.41-7.61,6.212
	c-4.603-0.212-7.667-4.033-7.715-9.315c-0.047-5.189,2.554-8.916,6.916-9.489c4.104-0.539,7.506,0.376,8.703,5.832
	c-2.362-1.685-4.123-3.903-6.034-4.041c-2.051-0.147-4.84,1.133-6.247,2.727c-2.691,3.049-1.708,8.872,1.251,11.292
	C64.609,197.517,67.388,196.586,72.133,191.674z"/>
<path fill-rule="evenodd" clip-rule="evenodd" d="M76.816,172.853c0,8.046,0,16.093,0,24.14c-0.323-0.003-0.646-0.006-0.968-0.009
	c0-8.023,0-16.047,0-24.07C76.171,172.893,76.494,172.872,76.816,172.853z"/>
<path fill-rule="evenodd" clip-rule="evenodd" d="M82.591,179.863c0,5.615,0,11.23,0,16.845c-0.302-0.002-0.604-0.004-0.907-0.006
	c0-5.615,0-11.229,0-16.845C81.986,179.859,82.289,179.861,82.591,179.863z"/>
<path fill-rule="evenodd" clip-rule="evenodd" d="M82.591,172.096c0,1.037,0,2.076,0,3.113c-0.302,0-0.604-0.001-0.907-0.001
	c0-1.038,0-2.076,0-3.113C81.986,172.095,82.289,172.096,82.591,172.096z"/>
<path fill-rule="evenodd" clip-rule="evenodd" fill="#FFFFFF" d="M88.972,188.213c0.022-4.771,2.584-7.774,6.59-7.723
	c3.74,0.048,6.396,3.404,6.375,8.058c-0.021,4.697-2.71,7.815-6.643,7.7C91.429,196.135,88.949,192.984,88.972,188.213z"/>
<path fill-rule="evenodd" clip-rule="evenodd" fill="#FFFFFF" d="M206.168,186.941c-4.037,0-7.755,0-11.749,0
	c0.427-3.946,2.28-6.439,6.134-6.367C204.197,180.643,205.977,183.011,206.168,186.941z"/>
<path fill-rule="evenodd" clip-rule="evenodd" fill="#FFFFFF" d="M136.359,186.952c-4.021,0-7.729,0-11.634,0
	c0.148-4.129,2.134-6.43,6.016-6.378C134.487,180.624,136.048,183.133,136.359,186.952z"/>
<polygon fill-rule="evenodd" clip-rule="evenodd" fill="#FDB940" points="72.226,98.5 125.226,67.5 143.226,79 173.226,61 
	122.726,32 72.226,62 "/>
<path fill-rule="evenodd" clip-rule="evenodd" fill="#525C86" d="M73.353,89.053c11.482,6.577,21.992,12.601,32.505,18.619
	c4.186,2.396,8.519,4.567,12.524,7.233c3.47,2.31,6.286,2.256,9.95,0.102c13.477-7.921,27.17-15.473,40.791-23.147
	c1.251-0.705,2.565-1.299,4.525-2.283c0,11.269,0.094,21.855-0.124,32.437c-0.025,1.246-1.504,2.889-2.738,3.619
	c-14.748,8.717-29.528,17.383-44.456,25.785c-1.607,0.904-4.621,0.826-6.266-0.087c-14.681-8.155-29.22-16.566-43.731-25.021
	c-1.249-0.728-2.828-2.295-2.852-3.5C73.261,111.871,73.353,100.928,73.353,89.053z"/>
</svg>
