<?xml version="1.0" encoding="utf-8"?>
<!-- Generator: Adobe Illustrator 16.0.0, SVG Export Plug-In . SVG Version: 6.00 Build 0)  -->
<!DOCTYPE svg PUBLIC "-//W3C//DTD SVG 1.1//EN" "http://www.w3.org/Graphics/SVG/1.1/DTD/svg11.dtd">
<svg version="1.1" id="图层_1" xmlns="http://www.w3.org/2000/svg" xmlns:xlink="http://www.w3.org/1999/xlink" x="0px" y="0px"
	 width="240px" height="240px" viewBox="0 0 240 240" enable-background="new 0 0 240 240" xml:space="preserve">
<path fill="#5E64FF" d="M238,216c0,13.255-10.745,24-24,24H26c-13.255,0-24-10.745-24-24V24C2,10.745,12.745,0,26,0h188
	c13.255,0,24,10.745,24,24V216z"/>
<path fill="#BFC1FF" d="M28.564,88.771c-0.67-6.038-6.108-10.389-12.146-9.719L2,80.652v22.135l16.845-1.87
	C24.883,100.247,29.235,94.809,28.564,88.771z"/>
<path fill="#FFFFFF" d="M134.621,126.267c-1.469-1.573-3.33-3.019-5.586-4.334c4.534-0.657,7.94-2.25,10.22-4.775
	c2.278-2.525,3.418-5.726,3.418-9.602c0-3.054-0.752-5.767-2.256-8.14c-1.503-2.373-3.506-4.022-6.008-4.951
	c-2.502-0.928-6.514-1.392-12.033-1.392h-21.954v51.659h10.431v-21.565h2.114c2.396,0,4.146,0.193,5.25,0.581
	c1.104,0.388,2.149,1.104,3.136,2.149c0.987,1.046,2.819,3.577,5.497,7.594l7.541,11.241h12.475l-6.308-10.078
	C138.068,130.637,136.089,127.841,134.621,126.267z M118.57,114.92h-7.717v-13.108h8.14c4.229,0,6.766,0.059,7.612,0.176
	c1.691,0.282,3,0.958,3.929,2.026c0.928,1.069,1.392,2.473,1.392,4.211c0,1.55-0.353,2.843-1.057,3.876
	c-0.705,1.034-1.68,1.762-2.925,2.185S123.574,114.92,118.57,114.92z"/>
<path fill="#BFC1FF" d="M38.807,184.36c-0.701-6.313-6.386-10.861-12.699-10.161L2,176.876v23.142l26.646-2.958
	C34.958,196.358,39.507,190.673,38.807,184.36z"/>
<polygon fill="#FFFFFF" points="62.682,121.968 88.618,121.968 88.618,113.264 62.682,113.264 62.682,101.812 90.556,101.812 
	90.556,93.073 52.252,93.073 52.252,144.731 91.542,144.731 91.542,136.027 62.682,136.027 "/>
<path fill="#FFFFFF" d="M181.646,93.848c-1.927-0.516-6.062-0.775-12.404-0.775h-16.738v51.659h10.431v-19.486h6.801
	c4.723,0,8.328-0.247,10.818-0.74c1.832-0.399,3.635-1.216,5.409-2.449c1.773-1.233,3.235-2.93,4.387-5.092
	c1.151-2.161,1.727-4.828,1.727-7.999c0-4.111-0.998-7.464-2.995-10.061C187.083,96.309,184.605,94.623,181.646,93.848z
	 M180.147,113.123c-0.787,1.151-1.874,1.997-3.26,2.537c-1.386,0.541-4.135,0.811-8.245,0.811h-5.709v-14.659h5.039
	c3.759,0,6.261,0.118,7.506,0.353c1.691,0.306,3.089,1.069,4.193,2.291c1.104,1.222,1.656,2.772,1.656,4.651
	C181.328,110.633,180.935,111.972,180.147,113.123z"/>
<path fill="#BFC1FF" d="M222.17,115.252c0.609,5.488,5.554,9.444,11.043,8.835l4.787-0.531v-20.123l-6.994,0.776
	C225.518,104.818,221.561,109.763,222.17,115.252z"/>
<path fill="#BFC1FF" d="M212.381,163.902c0.701,6.313,6.387,10.861,12.698,10.16L238,172.628v-23.141l-15.459,1.716
	C216.229,151.904,211.68,157.589,212.381,163.902z"/>
<path fill="#BFC1FF" d="M15.768,136.8c-0.609-5.489-5.553-9.445-11.042-8.836L2,128.267v20.123l4.932-0.548
	C12.421,147.232,16.377,142.288,15.768,136.8z"/>
<path fill="#BFC1FF" d="M202.205,68.526c0.67,6.038,6.109,10.389,12.146,9.719L238,75.62V53.485l-26.076,2.895
	C205.887,57.05,201.535,62.488,202.205,68.526z"/>
</svg>
