<?xml version="1.0" encoding="utf-8"?>
<!-- Generator: Adobe Illustrator 16.0.0, SVG Export Plug-In . SVG Version: 6.00 Build 0)  -->
<!DOCTYPE svg PUBLIC "-//W3C//DTD SVG 1.1//EN" "http://www.w3.org/Graphics/SVG/1.1/DTD/svg11.dtd">
<svg version="1.1" id="图层_1" xmlns="http://www.w3.org/2000/svg" xmlns:xlink="http://www.w3.org/1999/xlink" x="0px" y="0px"
	 width="240px" height="240px" viewBox="0 0 240 240" enable-background="new 0 0 240 240" xml:space="preserve">
<g>
	<path fill-rule="evenodd" clip-rule="evenodd" fill="#FFFFFF" d="M26,238c-12.131,0-22-9.869-22-22V24C4,11.869,13.869,2,26,2h188
		c12.131,0,22,9.869,22,22v192c0,12.131-9.869,22-22,22H26z"/>
	<g>
		<path fill="#FBBC00" d="M214,4c11.028,0,20,8.972,20,20v192c0,11.028-8.972,20-20,20H26c-11.028,0-20-8.972-20-20V24
			C6,12.972,14.972,4,26,4H214 M214,0H26C12.745,0,2,10.745,2,24v192c0,13.255,10.745,24,24,24h188c13.255,0,24-10.745,24-24V24
			C238,10.745,227.255,0,214,0L214,0z"/>
	</g>
</g>
<path fill-rule="evenodd" clip-rule="evenodd" fill="#6A3506" d="M28.768,113.65c6.046,0,11.758,0,17.47,0
	c0.32,0.593,0.64,1.186,0.959,1.778c-1.201,0.942-2.352,2.613-3.61,2.699c-4.761,0.321-9.557,0.129-14.36,0.129
	c0.311,6.065,0.311,6.065,16.881,7.07c1.399,2.98,0.75,4.496-2.91,4.363c-3.154-0.115-6.319,0.069-9.473-0.053
	c-7.977-0.308-12.349-4.948-12.511-13.143c-0.162-8.213,4.464-13.602,12.252-14.053c3.313-0.192,6.661-0.219,9.963,0.048
	c1.093,0.089,2.092,1.332,3.134,2.048c-1.097,0.816-2.123,2.185-3.307,2.339c-2.78,0.364-5.65-0.019-8.458,0.21
	C31.288,107.372,29.102,109.201,28.768,113.65z"/>
<path fill-rule="evenodd" clip-rule="evenodd" fill="#6A3506" d="M77.984,129.882c-0.157,2.504-0.279,4.461-0.425,6.802
	c-1.493,0.125-2.88,0.24-4.694,0.392c0-9.215,0-18.07,0-27.608c3.51,0,6.954-0.151,10.381,0.032
	c6.528,0.35,9.851,3.961,9.639,10.198c-0.214,6.306-3.644,9.724-9.996,9.969C81.415,129.724,79.941,129.795,77.984,129.882z
	 M78.173,112.233c0,5.742,0,9.451,0,14.938c3.587-1.835,6.681-2.644,8.475-4.627c1.069-1.183,0.969-5.073-0.157-6.216
	C84.615,114.427,81.493,113.755,78.173,112.233z"/>
<path fill-rule="evenodd" clip-rule="evenodd" fill="#6A3506" d="M106.965,130.046c-7.312-0.042-11.358-3.68-11.425-10.271
	c-0.061-6.049,4.686-10.241,11.674-10.311c7.068-0.069,11.675,3.947,11.672,10.178C118.883,126.206,114.435,130.089,106.965,130.046
	z M113.058,119.938c-0.013-3.727-1.768-6.045-5.535-6.401c-3.416-0.324-6.23,2.673-6.209,6.331c0.021,3.662,2.766,6.574,6.204,6.396
	C111.458,126.061,112.948,123.577,113.058,119.938z"/>
<path fill-rule="evenodd" clip-rule="evenodd" fill="#6A3506" d="M57.577,129.735c-1.497,0-3.034,0.207-4.478-0.068
	c-1.065-0.203-2.01-1.037-3.008-1.59c0.937-0.611,1.828-1.646,2.818-1.751c2.468-0.261,5.014,0.137,7.462-0.207
	c1.209-0.171,2.27-1.396,3.398-2.143c-1.145-0.941-2.159-2.338-3.466-2.711c-1.697-0.484-3.635-0.053-5.454-0.199
	c-3.35-0.268-5.158-2.277-5.246-5.532c-0.093-3.453,1.563-5.816,5.23-6.008c3.483-0.182,6.989-0.169,10.471,0.019
	c0.837,0.046,1.619,1.124,2.427,1.727c-0.781,0.584-1.506,1.548-2.355,1.673c-1.792,0.263-3.718-0.22-5.458,0.177
	c-1.805,0.412-3.456,1.501-5.174,2.294c1.639,0.728,3.225,1.639,4.933,2.119c1.241,0.349,2.652,0.033,3.969,0.18
	c3.522,0.392,5.433,2.416,5.36,5.964c-0.072,3.472-1.945,5.617-5.446,5.978c-1.975,0.203-3.987,0.037-5.983,0.037
	C57.577,129.707,57.577,129.721,57.577,129.735z"/>
<path fill-rule="evenodd" clip-rule="evenodd" fill="#6A3506" d="M152.277,103.016c0.846,2.573,0.407,4.196-2.82,3.891
	c-0.33-0.031-0.663-0.032-0.995-0.031c-11.1,0.016-13.288,2.598-11.736,13.806c0.084,0.606,0.011,1.235,0.011,1.884
	c-4.517-0.471-6.983-4.239-6.289-9.183C131.793,103.792,138.427,100.621,152.277,103.016z"/>
<path fill-rule="evenodd" clip-rule="evenodd" fill="#6A3506" d="M181.299,109.232c-6.612-0.96-12.221-1.773-17.945-2.604
	c-0.796,4.366,0.874,9.362-5.706,8.67c0-4.084,0-8.161,0-12.188C169.666,100.516,177.912,102.228,181.299,109.232z"/>
<path fill-rule="evenodd" clip-rule="evenodd" fill="#6A3506" d="M184.013,102.127c2.905,0.163,5.499,0.308,8.092,0.452
	c0.085,0.521,0.169,1.041,0.254,1.562c-2.658,1.032-5.316,2.064-8.346,3.241C184.013,105.3,184.013,103.915,184.013,102.127z"/>
<path fill-rule="evenodd" clip-rule="evenodd" fill="#FFFFFF" d="M78.173,112.233c3.32,1.521,6.442,2.193,8.318,4.095
	c1.126,1.143,1.226,5.033,0.157,6.216c-1.794,1.983-4.888,2.792-8.475,4.627C78.173,121.685,78.173,117.976,78.173,112.233z"/>
<path fill-rule="evenodd" clip-rule="evenodd" fill="#FFFFFF" d="M113.058,119.938c-0.11,3.639-1.599,6.122-5.541,6.326
	c-3.438,0.178-6.182-2.734-6.204-6.396c-0.021-3.658,2.793-6.655,6.209-6.331C111.29,113.894,113.044,116.212,113.058,119.938z"/>
<path fill-rule="evenodd" clip-rule="evenodd" fill="#FBBC00" d="M120,104.754l14.5,21.518l96-35.772l-20,11.463h4.5l0.5,27.735h-6
	l-1.5-19.599l-5.5,19.599H197l-4.5-19.599l-1.5,19.599h-8l-10.5-10.095l-9,2.961l1.5,7.134h-17l-16,7.377L120,104.754z
	 M177.5,115.996l7,7.245v-10.833L177.5,115.996z M196,107.382L200,120l7-17.706L196,107.382z"/>
</svg>
