<?xml version="1.0" encoding="utf-8"?>
<!-- Generator: Adobe Illustrator 16.0.0, SVG Export Plug-In . SVG Version: 6.00 Build 0)  -->
<!DOCTYPE svg PUBLIC "-//W3C//DTD SVG 1.1//EN" "http://www.w3.org/Graphics/SVG/1.1/DTD/svg11.dtd">
<svg version="1.1" id="图层_1" xmlns="http://www.w3.org/2000/svg" xmlns:xlink="http://www.w3.org/1999/xlink" x="0px" y="0px"
	 width="240px" height="240px" viewBox="0 0 240 240" enable-background="new 0 0 240 240" xml:space="preserve">
<path fill-rule="evenodd" clip-rule="evenodd" fill="#343433" d="M220,241c-66,0-132,0-198,0c-0.382-0.303-0.718-0.73-1.152-0.891
	C8.389,235.494,3.131,228.055,3.13,214.92C3.124,152.308,3.118,89.695,3.158,27.083c0.002-2.639,0.165-5.344,0.756-7.901
	C6.166,9.437,13.217,4.324,22,1c66,0,132,0,198,0c0.381,0.304,0.715,0.733,1.148,0.894c12.468,4.623,17.721,12.054,17.722,25.187
	c0.006,62.613,0.012,125.226-0.028,187.839c-0.002,2.638-0.167,5.342-0.753,7.902C235.855,232.586,228.771,237.664,220,241z
	 M235.127,121.239c0-31.159,0.005-62.318-0.002-93.478c-0.004-14.996-7.809-22.885-22.659-22.886
	c-60.985-0.007-121.971-0.007-182.956,0C14.668,4.877,6.876,12.769,6.875,27.786c-0.005,62.152-0.005,124.304,0,186.456
	c0.001,14.992,7.81,22.881,22.659,22.882c60.986,0.007,121.971,0.007,182.957,0c14.845-0.001,22.632-7.888,22.635-22.907
	C235.132,183.225,235.127,152.232,235.127,121.239z"/>
<path fill-rule="evenodd" clip-rule="evenodd" fill="#FFFFFF" d="M235.127,121.239c0,30.993,0.005,61.985-0.002,92.978
	c-0.003,15.02-7.79,22.906-22.635,22.907c-60.985,0.007-121.971,0.007-182.957,0c-14.849-0.001-22.657-7.89-22.659-22.882
	C6.87,152.09,6.87,89.938,6.875,27.786C6.876,12.769,14.668,4.877,29.51,4.876c60.985-0.007,121.971-0.007,182.956,0
	c14.851,0.001,22.655,7.89,22.659,22.886C235.132,58.921,235.127,90.08,235.127,121.239z M130.009,80.181
	c0.045-0.317,0.09-0.635,0.136-0.952c3.418-0.672,6.853-1.275,10.248-2.046c1.563-0.354,4.004-0.642,4.416-1.635
	c2.539-6.127,4.613-12.445,6.842-18.701c-0.565-0.566-1.132-1.133-1.697-1.699c-12.288,3.412-24.617,6.683-36.829,10.348
	c-2.644,0.793-4.324,0.914-6.675-0.829c-7.576-5.62-16.138-7.991-25.917-6.885c4.658,7.348,5.697,14.27,2.063,22.04
	c-4.526,9.678-4.404,19.736,0.055,29.512c1.577,3.457,5.035,6.518,5.336,9.96c0.287,3.27-2.43,6.802-4.135,10.979
	c3.116-2.636,5.589-4.729,8.117-6.866c0.773,0.596,1.292,0.98,1.796,1.386c22.154,17.841,52.055,10.693,63.771-15.109
	c0.845-1.861,2.84-3.527,4.704-4.541c8.123-4.417,12.407-10.957,12.513-19.921c-4.335,2.295-8.479,4.571-12.7,6.692
	c-2.62,1.316-5.359,2.397-8.481,3.777c-0.739-3.875-4.345-2.472-7.614-2.554c-3.481-0.088-6.947-0.766-11.226-1.284
	c2.52-3.652,4.247-6.156,6.181-8.961C136.941,81.904,133.476,81.042,130.009,80.181z M130.33,155.772
	c0.588-0.08,1.176-0.159,1.763-0.239c4.307,8.044,8.535,16.132,12.993,24.091c0.784,1.399,2.53,2.261,4.878,4.263
	c0-12.203,0.051-22.501-0.069-32.798c-0.014-1.157-0.995-2.304-1.528-3.455c-0.464,1.219-1.31,2.431-1.329,3.656
	c-0.123,7.719-0.063,15.44-0.063,23.161c-1.44-0.67-2.078-1.518-2.574-2.442c-3.852-7.177-7.585-14.42-11.584-21.512
	c-0.797-1.413-2.58-2.27-4.44-3.827c0,12.927,0,24.398,0,36.025c1.006-0.192,1.895-0.28,1.895-0.374
	C130.334,173.472,130.33,164.622,130.33,155.772z M155.847,181.942c0.623,0.378,1.245,0.756,1.867,1.134
	c1.024-2.188,1.923-4.445,3.111-6.538c0.952-1.677,2.025-4.235,3.443-4.539c8.102-1.733,9.844-0.491,12.517,7.143
	c0.496,1.417,1.655,2.602,2.509,3.894c0.518-0.309,1.035-0.617,1.553-0.926c-3.384-10.868-6.731-21.749-10.224-32.582
	c-0.271-0.837-1.578-1.87-2.381-1.852c-0.771,0.019-1.92,1.154-2.202,2.026C162.567,160.425,159.224,171.189,155.847,181.942z
	 M204.795,150.105c0.013-0.832,0.025-1.663,0.038-2.494c-4.124,0-8.259-0.19-12.368,0.053c-4.216,0.248-6.769,2.798-7.222,6.952
	c-0.474,4.339,1.454,7.437,5.781,8.699c1.912,0.559,3.898,0.861,5.839,1.331c4.794,1.159,7.447,4.249,7.093,8.209
	c-0.37,4.137-3.851,7.017-8.764,7.14c-3.009,0.076-6.021,0.015-9.033,0.015c0.022,0.835,0.046,1.67,0.068,2.505
	c3.977,0,7.983,0.308,11.923-0.077c4.932-0.483,8.426-4.562,8.744-9.443c0.322-4.93-2.575-9.237-7.311-10.646
	c-1.908-0.566-3.894-0.89-5.856-1.255c-3.334-0.62-5.817-2.369-5.483-5.938c0.354-3.791,3.188-5.133,6.81-5.064
	C198.3,150.154,201.548,150.105,204.795,150.105z M83.801,173.15c1.763-0.49,3.179-0.904,4.606-1.275
	c1.607-0.417,3.255-0.7,4.832-1.209c4.663-1.502,6.605-6.024,4.264-9.772c-2.792-4.468-14.858-4.543-15.867,0.341
	c-1.139,5.516-0.881,11.931,0.879,17.257c1.691,5.114,12.102,5.966,14.71,2.137C84.607,177.998,84.607,177.998,83.801,173.15z
	 M107.308,173.157c3.529-0.893,6.745-1.592,9.888-2.532c3.416-1.021,5.37-3.383,4.993-7.041c-0.38-3.69-2.741-5.394-6.387-5.678
	c-9.32-0.728-11.513,1.265-11.509,10.684c0.001,1.825-0.132,3.67,0.087,5.47c0.906,7.439,10.442,11.603,16.716,7.329
	c0.112-0.076-0.086-0.61-0.163-1.081C116.071,179.143,108.992,182.319,107.308,173.157z M53.995,162.307
	c-0.024-0.754-0.049-1.507-0.073-2.26c-4.112,0-8.223,0-12.257,0c0-3.774,0-6.663,0-10.313c5.319,0,10.266,0,15.212,0
	c-0.011-0.493-0.022-0.986-0.034-1.479c-6.125,0-12.25,0-18.581,0c0,10.402-0.044,20.689,0.06,30.976
	c0.012,1.202,0.842,2.396,1.292,3.594c0.577-0.108,1.153-0.217,1.729-0.325c0-6.505,0-13.01,0-19.604
	C46.075,162.674,50.035,162.49,53.995,162.307z M75.057,159.398c-0.109-0.553-0.218-1.105-0.328-1.659
	c-2.824,0.469-5.657,0.888-8.467,1.426c-1.505,0.288-4.205-2.069-4.267,1.589c-0.121,7.231-0.036,14.466-0.036,21.699
	c0.501,0.139,1.002,0.276,1.502,0.414c0.522-0.989,1.436-1.956,1.494-2.973c0.191-3.305,0.066-6.628,0.069-9.944
	c0.006-7.449,0.878-8.454,8.173-9.641C73.85,160.203,74.438,159.711,75.057,159.398z"/>
<path fill-rule="evenodd" clip-rule="evenodd" fill="#343433" d="M130.009,80.181c3.467,0.861,6.933,1.724,10.903,2.71
	c-1.934,2.805-3.661,5.309-6.181,8.961c4.278,0.519,7.744,1.196,11.226,1.284c3.27,0.082,6.875-1.321,7.614,2.554
	c3.122-1.38,5.861-2.461,8.481-3.777c4.222-2.121,8.365-4.397,12.7-6.692c-0.105,8.964-4.39,15.504-12.513,19.921
	c-1.864,1.014-3.859,2.68-4.704,4.541c-11.716,25.803-41.617,32.95-63.771,15.109c-0.503-0.405-1.023-0.79-1.796-1.386
	c-2.528,2.138-5.001,4.23-8.117,6.866c1.706-4.177,4.422-7.709,4.135-10.979c-0.302-3.442-3.76-6.503-5.336-9.96
	c-4.459-9.775-4.581-19.834-0.055-29.512c3.634-7.771,2.595-14.692-2.063-22.04c9.779-1.106,18.341,1.265,25.917,6.885
	c2.351,1.743,4.031,1.622,6.675,0.829c12.211-3.665,24.541-6.936,36.829-10.348c0.565,0.566,1.132,1.133,1.697,1.699
	c-2.229,6.256-4.303,12.574-6.842,18.701c-0.412,0.993-2.854,1.28-4.416,1.635c-3.396,0.771-6.83,1.374-10.248,2.046
	C130.099,79.546,130.054,79.863,130.009,80.181z M148.812,108.669c-6.854-3.921-13.003-7.439-19.491-11.15
	c-2.786,4.398-6.833,9.187-3.602,15.699c1.984,3.999,7.773,6.403,12.428,5.644C143.956,117.914,147.69,114.041,148.812,108.669z"/>
<path fill-rule="evenodd" clip-rule="evenodd" fill="#343433" d="M130.33,155.772c0,8.85,0.004,17.699-0.06,26.549
	c0,0.094-0.889,0.182-1.895,0.374c0-11.627,0-23.099,0-36.025c1.86,1.558,3.644,2.414,4.44,3.827
	c3.999,7.092,7.732,14.335,11.584,21.512c0.496,0.925,1.134,1.772,2.574,2.442c0-7.721-0.061-15.442,0.063-23.161
	c0.02-1.226,0.865-2.438,1.329-3.656c0.533,1.151,1.515,2.298,1.528,3.455c0.12,10.297,0.069,20.595,0.069,32.798
	c-2.348-2.002-4.094-2.863-4.878-4.263c-4.458-7.959-8.687-16.047-12.993-24.091C131.506,155.613,130.918,155.692,130.33,155.772z"
	/>
<path fill-rule="evenodd" clip-rule="evenodd" fill="#343433" d="M155.847,181.942c3.377-10.753,6.721-21.518,10.193-32.24
	c0.282-0.872,1.432-2.008,2.202-2.026c0.803-0.019,2.11,1.015,2.381,1.852c3.492,10.833,6.84,21.714,10.224,32.582
	c-0.518,0.309-1.035,0.617-1.553,0.926c-0.854-1.292-2.013-2.477-2.509-3.894c-2.673-7.634-4.415-8.876-12.517-7.143
	c-1.418,0.304-2.491,2.862-3.443,4.539c-1.188,2.093-2.087,4.351-3.111,6.538C157.092,182.698,156.47,182.32,155.847,181.942z
	 M168.847,153.609c-0.344,0.031-0.687,0.062-1.03,0.093c-1.528,4.955-3.057,9.91-4.703,15.251c3.627,0,6.69,0,10.339,0
	C171.84,163.582,170.343,158.596,168.847,153.609z"/>
<path fill-rule="evenodd" clip-rule="evenodd" fill="#343433" d="M204.795,150.105c-3.247,0-6.495,0.049-9.741-0.014
	c-3.622-0.068-6.455,1.273-6.81,5.064c-0.334,3.568,2.149,5.317,5.483,5.938c1.963,0.365,3.948,0.688,5.856,1.255
	c4.735,1.408,7.633,5.716,7.311,10.646c-0.318,4.882-3.813,8.96-8.744,9.443c-3.939,0.385-7.946,0.077-11.923,0.077
	c-0.022-0.835-0.046-1.67-0.068-2.505c3.012,0,6.024,0.062,9.033-0.015c4.913-0.123,8.394-3.003,8.764-7.14
	c0.354-3.96-2.299-7.05-7.093-8.209c-1.94-0.47-3.927-0.772-5.839-1.331c-4.327-1.263-6.255-4.36-5.781-8.699
	c0.453-4.154,3.006-6.704,7.222-6.952c4.109-0.243,8.244-0.053,12.368-0.053C204.82,148.442,204.808,149.273,204.795,150.105z"/>
<path fill-rule="evenodd" clip-rule="evenodd" fill="#343433" d="M83.801,173.15c0.806,4.848,0.806,4.848,13.424,7.478
	c-2.608,3.829-13.019,2.978-14.71-2.137c-1.76-5.326-2.018-11.741-0.879-17.257c1.009-4.884,13.076-4.809,15.867-0.341
	c2.341,3.748,0.398,8.271-4.264,9.772c-1.577,0.509-3.224,0.792-4.832,1.209C86.98,172.246,85.564,172.66,83.801,173.15z
	 M84.278,170.024c2.717-0.676,5.562-1.012,8.039-2.149c1.319-0.605,2.871-2.694,2.732-3.937c-0.143-1.276-2.047-3.027-3.473-3.375
	C85.035,158.966,82.837,161.771,84.278,170.024z"/>
<path fill-rule="evenodd" clip-rule="evenodd" fill="#343433" d="M107.308,173.157c1.685,9.162,8.763,5.985,13.625,7.15
	c0.077,0.471,0.275,1.005,0.163,1.081c-6.274,4.273-15.811,0.11-16.716-7.329c-0.219-1.8-0.086-3.645-0.087-5.47
	c-0.004-9.419,2.189-11.411,11.509-10.684c3.646,0.284,6.007,1.987,6.387,5.678c0.377,3.658-1.577,6.02-4.993,7.041
	C114.053,171.565,110.837,172.265,107.308,173.157z M107.805,170.083c3.05-0.749,5.905-1.082,8.398-2.212
	c1.318-0.598,2.875-2.675,2.742-3.914c-0.138-1.276-2.026-3.025-3.448-3.387C109.083,158.941,106.837,161.627,107.805,170.083z"/>
<path fill-rule="evenodd" clip-rule="evenodd" fill="#343433" d="M53.995,162.307c-3.96,0.184-7.92,0.367-12.651,0.587
	c0,6.595,0,13.1,0,19.604c-0.576,0.108-1.153,0.217-1.729,0.325c-0.451-1.197-1.281-2.392-1.292-3.594
	c-0.104-10.286-0.06-20.573-0.06-30.976c6.331,0,12.456,0,18.581,0c0.011,0.493,0.022,0.986,0.034,1.479c-4.947,0-9.894,0-15.212,0
	c0,3.65,0,6.539,0,10.313c4.034,0,8.146,0,12.257,0C53.946,160.8,53.97,161.553,53.995,162.307z"/>
<path fill-rule="evenodd" clip-rule="evenodd" fill="#343433" d="M75.057,159.398c-0.618,0.313-1.207,0.805-1.858,0.911
	c-7.295,1.187-8.167,2.191-8.173,9.641c-0.002,3.316,0.123,6.64-0.069,9.944c-0.059,1.017-0.972,1.983-1.494,2.973
	c-0.5-0.138-1.001-0.275-1.502-0.414c0-7.233-0.085-14.468,0.036-21.699c0.062-3.658,2.762-1.301,4.267-1.589
	c2.811-0.538,5.644-0.957,8.467-1.426C74.838,158.293,74.947,158.846,75.057,159.398z"/>
<path fill-rule="evenodd" clip-rule="evenodd" fill="#FFFFFF" d="M148.812,108.669c-1.121,5.372-4.855,9.245-10.665,10.192
	c-4.654,0.76-10.443-1.645-12.428-5.644c-3.231-6.513,0.815-11.301,3.602-15.699C135.809,101.229,141.958,104.748,148.812,108.669z"
	/>
<path fill-rule="evenodd" clip-rule="evenodd" fill="#FFFFFF" d="M168.847,153.609c1.496,4.986,2.993,9.973,4.605,15.344
	c-3.648,0-6.712,0-10.339,0c1.646-5.341,3.175-10.296,4.703-15.251C168.16,153.671,168.503,153.641,168.847,153.609z"/>
<path fill-rule="evenodd" clip-rule="evenodd" fill="#FFFFFF" d="M84.278,170.024c-1.441-8.253,0.756-11.059,7.298-9.461
	c1.426,0.348,3.331,2.099,3.473,3.375c0.139,1.242-1.413,3.331-2.732,3.937C89.84,169.013,86.995,169.349,84.278,170.024z"/>
<path fill-rule="evenodd" clip-rule="evenodd" fill="#FFFFFF" d="M107.805,170.083c-0.968-8.456,1.277-11.142,7.692-9.513
	c1.422,0.361,3.311,2.11,3.448,3.387c0.134,1.239-1.423,3.316-2.742,3.914C113.71,169.001,110.855,169.334,107.805,170.083z"/>
</svg>
