<?xml version="1.0" encoding="utf-8"?>
<!-- Generator: Adobe Illustrator 16.0.0, SVG Export Plug-In . SVG Version: 6.00 Build 0)  -->
<!DOCTYPE svg PUBLIC "-//W3C//DTD SVG 1.1//EN" "http://www.w3.org/Graphics/SVG/1.1/DTD/svg11.dtd">
<svg version="1.1" id="图层_1" xmlns="http://www.w3.org/2000/svg" xmlns:xlink="http://www.w3.org/1999/xlink" x="0px" y="0px"
	 width="240px" height="240px" viewBox="0 0 240 240" enable-background="new 0 0 240 240" xml:space="preserve">
<path fill-rule="evenodd" clip-rule="evenodd" fill="#141F28" d="M220,241c-66,0-132,0-198,0c-0.854-0.422-1.679-0.925-2.567-1.254
	C9.395,236.03,3.12,227.57,3.108,216.924C3.043,152.976,3.056,89.027,3.105,25.079c0.006-8.194,3.479-14.87,10.171-19.59
	C15.923,3.623,19.077,2.475,22,1c66,0,132,0,198,0c0.366,0.306,0.684,0.742,1.104,0.897c12.387,4.559,17.796,12.167,17.813,25.182
	c0.018,13.156,0.001,26.313,0.002,39.469c0.004,49.793-0.005,99.587,0.024,149.38c0.005,7.982-2.716,14.771-9.047,19.654
	C226.956,237.852,223.32,239.222,220,241z M120.952,110.178c-14.496,0-28.992-0.008-43.488,0.002
	c-15.745,0.012-14.278-1.51-14.283,14.119c-0.002,6.801,0.702,7.518,7.383,7.52c31.325,0.011,62.649,0.012,93.974,0.003
	c15.946-0.005,14.243,1.514,14.273-14.618c0.012-6.115-0.872-7.009-6.874-7.018C154.942,110.161,137.947,110.177,120.952,110.178z
	 M97.443,84.824c9.33,0,18.662-0.134,27.987,0.056c4.772,0.098,6.709-1.892,6.43-6.571c-0.188-3.154-0.101-6.33-0.023-9.494
	c0.088-3.669-1.449-5.645-5.283-5.641c-19.326,0.021-38.652,0.027-57.977-0.002c-3.779-0.006-5.478,1.797-5.407,5.522
	c0.063,3.33,0.138,6.67-0.021,9.994c-0.217,4.54,1.876,6.253,6.307,6.179C78.782,84.713,88.114,84.82,97.443,84.824z
	 M86.861,157.177c-2.832,0-5.663-0.011-8.495,0.002c-17.542,0.078-15.03-2.169-15.167,16.705c-0.024,3.258,1.693,4.922,4.948,4.924
	c12.325,0.007,24.655,0.167,36.969-0.214c1.606-0.05,4.132-2.729,4.474-4.523c0.704-3.698,0.173-7.622,0.236-11.452
	c0.062-3.767-1.738-5.483-5.477-5.446C98.52,157.229,92.69,157.188,86.861,157.177z M155.114,178.814
	c6.163,0,12.327-0.015,18.491,0.006c3.498,0.012,5.233-1.672,5.214-5.188c-0.022-3.832,0.005-7.663-0.011-11.495
	c-0.014-3.261-1.683-4.938-4.935-4.942c-12.328-0.015-24.661-0.174-36.978,0.205c-1.611,0.05-4.149,2.718-4.492,4.51
	c-0.706,3.698-0.177,7.624-0.238,11.454c-0.06,3.747,1.697,5.51,5.456,5.473C143.452,178.778,149.283,178.821,155.114,178.814z
	 M168.227,84.823c10.596,0,10.596,0,10.596-10.797c0-10.849,0-10.849-11.048-10.85c-10.598-0.001-10.598-0.001-10.598,10.801
	C157.177,84.824,157.177,84.824,168.227,84.823z"/>
<path fill-rule="evenodd" clip-rule="evenodd" fill="#FFFFFF" d="M120.952,110.178c16.995-0.001,33.99-0.017,50.986,0.008
	c6.002,0.009,6.886,0.902,6.874,7.018c-0.03,16.132,1.673,14.613-14.273,14.618c-31.325,0.009-62.649,0.008-93.974-0.003
	c-6.682-0.002-7.385-0.719-7.383-7.52c0.004-15.629-1.462-14.107,14.283-14.119C91.96,110.17,106.456,110.178,120.952,110.178z"/>
<path fill-rule="evenodd" clip-rule="evenodd" fill="#FFFFFF" d="M97.443,84.822c-9.33-0.002-18.661-0.109-27.988,0.045
	c-4.431,0.074-6.524-1.639-6.307-6.179c0.159-3.324,0.085-6.664,0.021-9.994c-0.071-3.726,1.628-5.528,5.407-5.522
	c19.325,0.029,38.651,0.022,57.977,0.002c3.834-0.004,5.371,1.972,5.283,5.641c-0.077,3.164-0.165,6.34,0.023,9.494
	c0.279,4.68-1.657,6.669-6.43,6.571C116.105,84.69,106.773,84.824,97.443,84.822z"/>
<path fill-rule="evenodd" clip-rule="evenodd" fill="#FFFFFF" d="M86.861,157.182c5.829,0.006,11.659,0.048,17.488-0.01
	c3.739-0.037,5.539,1.68,5.477,5.446c-0.063,3.83,0.468,7.754-0.236,11.452c-0.342,1.795-2.868,4.474-4.474,4.523
	c-12.313,0.381-24.644,0.221-36.969,0.214c-3.255-0.002-4.972-1.666-4.948-4.924c0.137-18.874-2.375-16.627,15.167-16.705
	C81.198,157.166,84.029,157.177,86.861,157.182z"/>
<path fill-rule="evenodd" clip-rule="evenodd" fill="#FFFFFF" d="M155.114,178.818c-5.831,0.003-11.662-0.04-17.492,0.019
	c-3.759,0.037-5.516-1.726-5.456-5.473c0.062-3.83-0.468-7.756,0.238-11.454c0.343-1.792,2.881-4.46,4.492-4.51
	c12.316-0.379,24.649-0.22,36.978-0.205c3.252,0.004,4.921,1.682,4.935,4.942c0.016,3.832-0.012,7.663,0.011,11.495
	c0.02,3.516-1.716,5.199-5.214,5.188C167.441,178.8,161.277,178.814,155.114,178.818z"/>
<path fill-rule="evenodd" clip-rule="evenodd" fill="#FFFFFF" d="M168.227,84.823c-11.05,0.001-11.05,0.001-11.05-10.846
	c0-10.802,0-10.802,10.598-10.801c11.048,0.001,11.048,0.001,11.048,10.85C178.822,84.823,178.822,84.823,168.227,84.823z"/>
</svg>
