<?xml version="1.0" encoding="utf-8"?>
<!-- Generator: Adobe Illustrator 16.0.0, SVG Export Plug-In . SVG Version: 6.00 Build 0)  -->
<!DOCTYPE svg PUBLIC "-//W3C//DTD SVG 1.1//EN" "http://www.w3.org/Graphics/SVG/1.1/DTD/svg11.dtd">
<svg version="1.1" id="图层_1" xmlns="http://www.w3.org/2000/svg" xmlns:xlink="http://www.w3.org/1999/xlink" x="0px" y="0px"
	 width="240px" height="240px" viewBox="0 0 240 240" enable-background="new 0 0 240 240" xml:space="preserve">
<path fill-rule="evenodd" clip-rule="evenodd" fill="#291C4A" d="M218,241c-65.333,0-130.667,0-196,0
	c-16.079-6.531-19.895-12.247-19.895-29.802c0-60.964-0.005-121.929,0.018-182.893c0.001-2.488-0.005-5.026,0.451-7.455
	C4.617,9.956,11.905,4.077,22,1c65.333,0,130.667,0,196,0c16.091,6.548,19.895,12.245,19.895,29.803
	c0,60.965,0.005,121.93-0.018,182.894c-0.001,2.488,0.009,5.027-0.449,7.456C235.373,232.035,228.118,237.946,218,241z"/>
<g>
	<path fill-rule="evenodd" clip-rule="evenodd" fill="#FC6D26" d="M133.031,129.308c7.563-2.544,15.147-5.097,22.495-8.189
		c7.998-3.365,12.379-9.777,13.525-18.405c0.416-3.129-0.023-5.56-2.682-7.939c-7.56-6.769-7.802-17.491-0.971-24.417
		c6.728-6.82,17.401-6.81,24.178,0.024c6.935,6.995,6.471,17.377-0.766,24.531c-1.572,1.554-2.851,4.07-3.044,6.252
		c-1.586,17.867-10.442,30.185-27.252,36.615c-4.814,1.842-9.799,3.257-14.555,5.231c-5.287,2.196-10.4,4.809-15.84,7.357
		c0-4.096,0.275-8.939-0.084-13.735C127.732,132.58,129.313,130.558,133.031,129.308z M177.842,91.282
		c4.964-0.132,8.766-3.999,8.813-8.965c0.048-4.999-4.199-9.394-9.083-9.402c-4.854-0.008-9.05,4.386-8.993,9.414
		C168.638,87.523,172.669,91.419,177.842,91.282z"/>
	<path fill-rule="evenodd" clip-rule="evenodd" fill="#FCA326" d="M106.969,129.308c-7.563-2.544-15.148-5.097-22.496-8.189
		c-7.998-3.365-12.379-9.777-13.525-18.405c-0.416-3.129,0.023-5.56,2.682-7.939c7.56-6.769,7.801-17.491,0.97-24.417
		c-6.727-6.82-17.401-6.81-24.177,0.024c-6.935,6.995-6.471,17.377,0.765,24.531c1.573,1.554,2.851,4.07,3.044,6.252
		c1.586,17.867,10.443,30.185,27.252,36.615c4.814,1.842,9.799,3.257,14.554,5.231c5.287,2.196,10.401,4.809,15.841,7.357
		c0-4.096-0.276-8.939,0.084-13.735C112.268,132.58,110.687,130.558,106.969,129.308z M62.158,91.282
		c-4.964-0.132-8.766-3.999-8.813-8.965c-0.047-4.999,4.199-9.394,9.083-9.402c4.853-0.008,9.05,4.386,8.993,9.414
		C71.362,87.523,67.331,91.419,62.158,91.282z"/>
	<path fill-rule="evenodd" clip-rule="evenodd" fill="#E24329" d="M128.932,159.045V85.622c5.421-3.102,9.082-8.929,9.082-15.622
		c0-9.941-8.059-18-18-18c-9.94,0-18,8.059-18,18c0,6.693,3.661,12.521,9.082,15.622v73.423c-5.421,3.102-9.082,8.93-9.082,15.622
		c0,9.94,8.059,18,18,18c9.941,0,18-8.06,18-18C138.014,167.975,134.353,162.146,128.932,159.045z M120.014,61c4.971,0,9,4.029,9,9
		s-4.029,9-9,9c-4.97,0-9-4.029-9-9S115.043,61,120.014,61z M120.014,183.667c-4.97,0-9-4.029-9-9s4.029-9,9-9c4.971,0,9,4.029,9,9
		S124.984,183.667,120.014,183.667z"/>
</g>
</svg>
