<?xml version="1.0" encoding="utf-8"?>
<!-- Generator: Adobe Illustrator 16.0.0, SVG Export Plug-In . SVG Version: 6.00 Build 0)  -->
<!DOCTYPE svg PUBLIC "-//W3C//DTD SVG 1.1//EN" "http://www.w3.org/Graphics/SVG/1.1/DTD/svg11.dtd">
<svg version="1.1" id="图层_1" xmlns="http://www.w3.org/2000/svg" xmlns:xlink="http://www.w3.org/1999/xlink" x="0px" y="0px"
	 width="240px" height="240px" viewBox="0 0 240 240" enable-background="new 0 0 240 240" xml:space="preserve">
<path fill-rule="evenodd" clip-rule="evenodd" fill="#E26A5F" d="M216,241c-63.333,0-126.667,0-190,0
	c-0.716-0.401-1.405-1.086-2.154-1.16c-11.443-1.143-20.314-10.714-20.329-25.597c-0.059-62.162-0.058-124.324,0-186.486
	c0.014-14.74,8.745-24.401,20.332-25.592C24.598,2.088,25.285,1.402,26,1c63.333,0,126.667,0,190,0
	c0.716,0.402,1.401,1.088,2.151,1.165c11.611,1.2,20.316,10.868,20.331,25.592c0.059,62.161,0.065,124.323-0.006,186.485
	c-0.017,14.887-8.813,24.417-20.322,25.598C217.404,239.916,216.717,240.599,216,241z M235.491,121.237
	c0-31.656-0.429-63.321,0.218-94.964c0.247-12.11-10.034-22.063-21.757-21.978C151.978,4.749,89.995,4.751,28.02,4.301
	C15.888,4.212,6.236,14.668,6.309,25.8c0.413,63.476,0.196,126.955,0.204,190.434c0.001,13.176,7.991,21.252,21.034,21.254
	c62.312,0.009,124.624,0.009,186.937,0c13.024-0.003,21-8.091,21.004-21.282C235.498,184.549,235.491,152.893,235.491,121.237z"/>
<path fill-rule="evenodd" clip-rule="evenodd" fill="#FFFFFF" d="M235.491,121.237c0,31.655,0.007,63.312-0.004,94.968
	c-0.004,13.191-7.979,21.279-21.004,21.282c-62.313,0.009-124.625,0.009-186.937,0c-13.043-0.002-21.033-8.078-21.034-21.254
	C6.504,152.755,6.722,89.275,6.309,25.8C6.236,14.668,15.888,4.212,28.02,4.301c61.975,0.45,123.958,0.448,185.933-0.005
	c11.723-0.086,22.004,9.867,21.757,21.978C235.063,57.916,235.491,89.581,235.491,121.237z M195.492,97.757
	c-4.722-8.229-8.942-15.202-12.75-22.394c-1.767-3.338-3.771-4.229-7.099-2.613c-7.494,3.638-14.466,3.584-20.57-2.915
	c-0.766-0.815-1.906-1.494-2.989-1.762c-9.313-2.308-13.424-8.674-14.021-17.783c-0.206-3.147-2.007-3.646-4.726-3.588
	c-6.663,0.145-13.346,0.313-19.993-0.043c-4.044-0.217-5.849,1.313-6.154,5.106c-0.635,7.908-3.695,13.875-12.2,15.735
	c-1.237,0.271-2.538,1.063-3.428,1.984c-6.66,6.877-14.193,7.318-22.399,3.255c-2.673-1.323-4.206-0.359-5.572,2.14
	c-3.432,6.279-6.885,12.567-10.754,18.578c-1.994,3.099-1.625,5.05,1.18,7.054c6.768,4.835,11.251,10.653,8.158,19.619
	c-0.155,0.448-0.147,1.025-0.02,1.488c2.729,9.85-0.573,17.234-8.868,22.917c-0.949,0.65-1.313,3.656-0.662,4.893
	c3.486,6.62,7.548,12.937,11.057,19.546c1.52,2.862,3.133,3.321,5.917,2.15c7.69-3.233,15.174-4.437,21.547,2.818
	c0.522,0.595,1.355,1.067,2.129,1.268c9.522,2.459,14.06,8.797,14.835,18.386c0.09,1.115,1.873,2.968,2.912,2.996
	c8.794,0.241,17.598,0.138,26.49,0.138c1.145-4.473,2.404-8.45,3.126-12.523c0.533-3.008,2.071-4.303,4.77-5.596
	c5.369-2.574,10.584-5.604,15.456-9.022c2.479-1.74,4.432-2.277,7.231-1.308c4.032,1.396,8.189,2.431,12.404,3.652
	c4.119-7.113,7.771-14.042,12.044-20.563c2.537-3.871,2.301-6.441-1.437-9.043c-6.301-4.387-7.785-9.893-7.861-18.005
	C183.141,112.918,183.579,103.318,195.492,97.757z"/>
<path fill-rule="evenodd" clip-rule="evenodd" fill="#E1665A" d="M195.492,97.757c-11.913,5.562-12.352,15.161-12.245,26.566
	c0.076,8.112,1.561,13.618,7.861,18.005c3.737,2.602,3.974,5.172,1.437,9.043c-4.273,6.521-7.925,13.449-12.044,20.563
	c-4.215-1.222-8.372-2.257-12.404-3.652c-2.8-0.97-4.753-0.433-7.231,1.308c-4.872,3.419-10.087,6.448-15.456,9.022
	c-2.698,1.293-4.236,2.588-4.77,5.596c-0.722,4.073-1.981,8.051-3.126,12.523c-8.892,0-17.695,0.104-26.49-0.138
	c-1.039-0.028-2.821-1.881-2.912-2.996c-0.775-9.589-5.313-15.927-14.835-18.386c-0.774-0.2-1.607-0.673-2.129-1.268
	c-6.374-7.255-13.857-6.052-21.547-2.818c-2.785,1.171-4.397,0.712-5.917-2.15c-3.509-6.609-7.571-12.926-11.057-19.546
	c-0.651-1.236-0.287-4.242,0.662-4.893c8.294-5.683,11.597-13.067,8.868-22.917c-0.128-0.463-0.135-1.04,0.02-1.488
	c3.094-8.966-1.39-14.784-8.158-19.619c-2.805-2.004-3.174-3.955-1.18-7.054c3.87-6.011,7.323-12.299,10.754-18.578
	c1.366-2.499,2.898-3.463,5.572-2.14c8.206,4.063,15.739,3.622,22.399-3.255c0.891-0.921,2.191-1.714,3.428-1.984
	c8.505-1.86,11.565-7.827,12.2-15.735c0.305-3.794,2.109-5.323,6.154-5.106c6.647,0.356,13.33,0.188,19.993,0.043
	c2.719-0.059,4.52,0.44,4.726,3.588c0.597,9.109,4.707,15.476,14.021,17.783c1.083,0.268,2.224,0.946,2.989,1.762
	c6.104,6.499,13.076,6.553,20.57,2.915c3.327-1.615,5.332-0.725,7.099,2.613C186.55,82.555,190.771,89.527,195.492,97.757z"/>
<path fill-rule="evenodd" clip-rule="evenodd" fill="#FFFFFF" d="M148.498,141.729c-5.756-3.343-11-6.528-16.408-9.406
	c-1.014-0.539-2.78-0.121-4.032,0.324c-7.418,2.64-14.879-0.716-16.906-7.731c-1.789-6.19,2.653-13.4,9.209-14.95
	c7.166-1.693,13.651,3.151,15.116,10.819c0.336,1.759,1.935,3.75,3.515,4.718c7.795,4.773,15.779,9.238,24.093,14.041
	c-7.319,14.522-18.627,23.222-34.381,25.407c-25.375,3.52-48.257-15.661-49.689-41.19c-1.384-24.664,20.134-46.596,45.208-45.714
	c4.744,0.167,9.504,1.545,14.131,2.821c3.025,0.835,5.729,2.882,4.472,6.575c-1.264,3.71-4.229,4.471-8.099,3.785
	c-5.509-0.976-11.228-2.319-16.68-1.765c-13.666,1.391-24.933,12.99-26.916,26.464c-2.186,14.848,5.023,28.831,18.17,35.245
	c12.589,6.142,28.063,3.186,37.573-7.192C147.312,143.503,147.64,142.928,148.498,141.729z"/>
</svg>
