<?xml version="1.0" encoding="utf-8"?>
<!-- Generator: Adobe Illustrator 16.0.0, SVG Export Plug-In . SVG Version: 6.00 Build 0)  -->
<!DOCTYPE svg PUBLIC "-//W3C//DTD SVG 1.1//EN" "http://www.w3.org/Graphics/SVG/1.1/DTD/svg11.dtd">
<svg version="1.1" id="图层_1" xmlns="http://www.w3.org/2000/svg" xmlns:xlink="http://www.w3.org/1999/xlink" x="0px" y="0px"
	 width="240px" height="240px" viewBox="0 0 240 240" enable-background="new 0 0 240 240" xml:space="preserve">
<path fill-rule="evenodd" clip-rule="evenodd" fill="#484848" d="M219,241c-65.333,0-130.667,0-196,0
	c-0.881-0.4-1.733-0.892-2.648-1.188c-10.505-3.401-17.105-12.025-17.118-23.184c-0.07-63.753-0.062-127.505,0-191.258
	C3.242,17.026,6.667,10.13,13.675,5.449C16.509,3.557,19.875,2.459,23,1c65.333,0,130.667,0,196,0
	c0.393,0.292,0.743,0.71,1.185,0.857c12.979,4.332,18.603,11.999,18.614,25.51c0.017,18.977,0.005,37.952,0.005,56.928
	c-0.001,43.612,0.016,87.224-0.011,130.835c-0.008,12.848-6.02,21.007-18.12,24.889C220.072,240.211,219.556,240.667,219,241z"/>
<path fill-rule="evenodd" clip-rule="evenodd" fill="#F9B60F" d="M175.884,154.433C165.557,171.551,146.783,183,125.333,183
	c-32.584,0-59-26.415-59-59c0-32.584,26.416-59,59-59c2.938,0,5.822,0.222,8.646,0.637l2.164-9.788
	C132.62,55.294,129.012,55,125.333,55c-38.107,0-69,30.893-69,69s30.893,69,69,69c25.415,0,47.604-13.75,59.577-34.208
	L175.884,154.433z"/>
<path fill-rule="evenodd" clip-rule="evenodd" fill="#F16326" d="M148.413,54.761L125.333,124l1.355,0.89l68.064,21.688
	c2.315-7.11,3.58-14.694,3.58-22.578C198.333,91.754,177.413,64.421,148.413,54.761z"/>
</svg>
