<?xml version="1.0" encoding="utf-8"?>
<!-- Generator: Adobe Illustrator 16.0.0, SVG Export Plug-In . SVG Version: 6.00 Build 0)  -->
<!DOCTYPE svg PUBLIC "-//W3C//DTD SVG 1.1//EN" "http://www.w3.org/Graphics/SVG/1.1/DTD/svg11.dtd">
<svg version="1.1" id="图层_1" xmlns="http://www.w3.org/2000/svg" xmlns:xlink="http://www.w3.org/1999/xlink" x="0px" y="0px"
	 width="240px" height="240px" viewBox="0 0 240 240" enable-background="new 0 0 240 240" xml:space="preserve">
<path fill-rule="evenodd" clip-rule="evenodd" d="M220,241c-66,0-132,0-198,0c-14.346-4.936-19.27-15.209-19.171-30.021
	C3.238,149.996,2.993,89.01,3.023,28.024c0.001-2.65,0.052-5.358,0.571-7.941C5.65,9.856,12.757,4.367,22,1c66,0,132,0,198,0
	c14.34,4.94,19.271,15.208,19.172,30.023c-0.41,60.982-0.165,121.969-0.194,182.953c-0.002,2.651-0.045,5.361-0.568,7.942
	C236.338,232.132,229.28,237.67,220,241z M113.288,86.93c6.845,5.563,13.347,10.758,19.742,16.08
	c3.522,2.932,6.843,2.966,10.274-0.041c1.752-1.535,3.574-2.99,5.361-4.486c6.564-5.497,13.127-10.995,20.427-17.11
	c0,3.085-0.073,5.047,0.016,7.002c0.186,4.086,2.216,6.741,6.44,6.705c4.229-0.036,6.273-2.735,6.319-6.818
	c0.083-7.327,0.129-14.657-0.012-21.981c-0.09-4.72-2.447-7.087-7.134-7.176c-7.324-0.138-14.654-0.1-21.981-0.011
	c-4.108,0.05-6.765,2.19-6.726,6.393c0.038,3.942,2.637,5.943,6.48,6.161c2.372,0.135,4.758,0.025,8.469,0.025
	c-8.522,7.05-15.868,13.126-23.205,19.194c-6.518-5.271-12.585-10.208-18.688-15.101c-5.003-4.01-6.841-4.063-11.861-0.224
	c-13.883,10.62-27.737,21.28-41.599,31.929c-0.791,0.607-2.041,1.129-2.239,1.905c-0.639,2.507-2.081,6.04-0.986,7.45
	c1.397,1.801,4.935,2.41,7.606,2.566c1.454,0.085,3.084-1.752,4.533-2.855C87.36,106.76,100.173,96.953,113.288,86.93z"/>
<path fill-rule="evenodd" clip-rule="evenodd" fill="#FFFFFF" d="M113.288,86.93c-13.115,10.023-25.927,19.83-38.763,29.607
	c-1.449,1.104-3.079,2.94-4.533,2.855c-2.672-0.156-6.209-0.766-7.606-2.566c-1.095-1.41,0.347-4.943,0.986-7.45
	c0.198-0.776,1.448-1.298,2.239-1.905c13.862-10.648,27.716-21.309,41.599-31.929c5.02-3.84,6.858-3.786,11.861,0.224
	c6.104,4.893,12.171,9.83,18.688,15.101c7.337-6.068,14.683-12.145,23.205-19.194c-3.711,0-6.097,0.109-8.469-0.025
	c-3.844-0.218-6.442-2.219-6.48-6.161c-0.039-4.202,2.617-6.343,6.726-6.393c7.327-0.089,14.657-0.127,21.981,0.011
	c4.687,0.089,7.044,2.456,7.134,7.176c0.141,7.324,0.095,14.654,0.012,21.981c-0.046,4.083-2.09,6.782-6.319,6.818
	c-4.225,0.036-6.255-2.619-6.44-6.705c-0.089-1.955-0.016-3.917-0.016-7.002c-7.3,6.115-13.862,11.613-20.427,17.11
	c-1.787,1.496-3.609,2.951-5.361,4.486c-3.432,3.007-6.752,2.973-10.274,0.041C126.635,97.688,120.133,92.493,113.288,86.93z"/>
<path fill-rule="evenodd" clip-rule="evenodd" fill="#EF3C38" d="M85.5,175.5c0,3.037-2.462,5.5-5.5,5.5l0,0
	c-3.038,0-5.5-2.463-5.5-5.5v-34c0-3.037,2.462-5.5,5.5-5.5l0,0c3.038,0,5.5,2.463,5.5,5.5V175.5z"/>
<path fill-rule="evenodd" clip-rule="evenodd" fill="#EF3C38" d="M115.5,173.545c0,4.116-2.462,7.455-5.5,7.455l0,0
	c-3.038,0-5.5-3.339-5.5-7.455v-46.09c0-4.116,2.462-7.455,5.5-7.455l0,0c3.038,0,5.5,3.339,5.5,7.455V173.545z"/>
<path fill-rule="evenodd" clip-rule="evenodd" fill="#EF3C38" d="M147.5,176.783c0,2.328-2.463,4.217-5.5,4.217l0,0
	c-3.037,0-5.5-1.889-5.5-4.217v-26.066c0-2.328,2.463-4.217,5.5-4.217l0,0c3.037,0,5.5,1.889,5.5,4.217V176.783z"/>
<path fill-rule="evenodd" clip-rule="evenodd" fill="#EF3C38" d="M178,174.399c0,3.645-2.463,6.601-5.5,6.601l0,0
	c-3.037,0-5.5-2.956-5.5-6.601v-40.799c0-3.645,2.463-6.601,5.5-6.601l0,0c3.037,0,5.5,2.956,5.5,6.601V174.399z"/>
</svg>
