<?xml version="1.0" encoding="utf-8"?>
<!-- Generator: Adobe Illustrator 16.0.0, SVG Export Plug-In . SVG Version: 6.00 Build 0)  -->
<!DOCTYPE svg PUBLIC "-//W3C//DTD SVG 1.1//EN" "http://www.w3.org/Graphics/SVG/1.1/DTD/svg11.dtd">
<svg version="1.1" id="图层_1" xmlns="http://www.w3.org/2000/svg" xmlns:xlink="http://www.w3.org/1999/xlink" x="0px" y="0px"
	 width="240px" height="240px" viewBox="0 0 240 240" enable-background="new 0 0 240 240" xml:space="preserve">
<path fill="#1B99D3" d="M238,216c0,13.255-10.745,24-24,24H26c-13.255,0-24-10.745-24-24V24C2,10.745,12.745,0,26,0h188
	c13.255,0,24,10.745,24,24V216z"/>
<polygon fill="#FFFFFF" points="149.333,134 149.333,184 70.667,184 70.667,134 62.667,134 62.667,194 158.667,194 158.667,134 "/>
<rect x="81.333" y="164" fill="#FFFFFF" width="56.667" height="8.667"/>
<polygon fill="#FFFFFF" points="81.333,140.667 81.333,152 138,158.667 138,147.333 "/>
<polygon fill="#FFFFFF" points="87.333,115.333 84.667,127.333 141.333,140.667 143.271,131.46 "/>
<polygon fill="#FFFFFF" points="102.667,86.667 96,96 145.125,126.375 151.5,116.875 "/>
<polygon fill="#FFFFFF" points="120.75,66.375 153.875,114 163.625,106.521 131.25,59.25 "/>
<path fill="#FFFFFF" d="M156,49.125l10.125,56.625c0,0,4.25-1.75,11.5-1.75l-9.375-56.625L156,49.125z"/>
</svg>
