<?xml version="1.0" encoding="utf-8"?>
<!-- Generator: Adobe Illustrator 16.0.0, SVG Export Plug-In . SVG Version: 6.00 Build 0)  -->
<!DOCTYPE svg PUBLIC "-//W3C//DTD SVG 1.1//EN" "http://www.w3.org/Graphics/SVG/1.1/DTD/svg11.dtd">
<svg version="1.1" id="图层_1" xmlns="http://www.w3.org/2000/svg" xmlns:xlink="http://www.w3.org/1999/xlink" x="0px" y="0px"
	 width="240px" height="240px" viewBox="0 0 240 240" enable-background="new 0 0 240 240" xml:space="preserve">
<g>
	<path fill-rule="evenodd" clip-rule="evenodd" fill="#FFFFFF" d="M26,238c-12.131,0-22-9.869-22-22V24C4,11.869,13.869,2,26,2h188
		c12.131,0,22,9.869,22,22v192c0,12.131-9.869,22-22,22H26z"/>
	<g>
		<path fill="#D2A41F" d="M214,4c11.028,0,20,8.972,20,20v192c0,11.028-8.972,20-20,20H26c-11.028,0-20-8.972-20-20V24
			C6,12.972,14.972,4,26,4H214 M214,0H26C12.745,0,2,10.745,2,24v192c0,13.255,10.745,24,24,24h188c13.255,0,24-10.745,24-24V24
			C238,10.745,227.255,0,214,0L214,0z"/>
	</g>
</g>
<path fill-rule="evenodd" clip-rule="evenodd" fill="#F8DC75" d="M133.472,111.065c-2.592,1.185-3.959,1.81-5.732,2.619
	c2.198,2.73,3.414,5.349,3.445,8.654c0.024,2.507,1.864,4.069,4.826,3.714c0.966-0.115,2.023,0.54,3.039,0.843
	c-0.071,0.353-0.143,0.705-0.215,1.059c-1.404,0.407-2.81,0.814-5.313,1.541c2.601,0.928,4.028,1.438,4.504,1.607
	c0.438,2.323,0.189,4.409,1.1,5.269c4.682,4.419,9.567,8.641,14.622,12.627c0.908,0.716,3.438,0.617,4.373-0.145
	c5.457-4.441,10.661-9.193,16.548-14.364c-2.308-1.078-3.295-1.54-4.282-2.001c0.271-0.396,0.541-0.79,0.812-1.186
	c1.727-0.45,3.453-0.9,5.179-1.352c-0.032-0.268-0.064-0.534-0.097-0.802c-1.73-0.456-3.461-0.913-5.62-1.483
	c2.521-3.369,11.713,1.133,7.792-7.76c3.06-1.76,5.714-3.711,1.014-6.706c4.934-3.478,6.541-19.372,3.101-28.769
	c-4.612,10.088-5.376,10.647-12.825,9.406c-9.414-1.569-9.413-1.569-12.855,7.246c-0.059,0.15-0.192,0.271-0.65,0.895
	c-0.737-1.157-1.236-1.802-1.591-2.518c-3.468-6.999-3.461-7.002-11.086-5.729c-0.821,0.137-1.646,0.257-2.46,0.422
	c-6.275,1.27-9.118-0.085-12.029-5.733c-0.621-1.205-1.269-2.397-1.904-3.596c-0.491,0.071-0.982,0.143-1.474,0.214
	c0,3.749-0.181,7.509,0.041,11.244C126.073,102.021,124.314,108.757,133.472,111.065z"/>
<path fill-rule="evenodd" clip-rule="evenodd" d="M157.871,129.772c2.126,1.689,3.619,2.875,5.111,4.062
	c-0.215,0.371-0.43,0.742-0.645,1.113c-2.297-1.158-4.594-2.317-6.931-3.496c-2.047,1.1-4.128,2.218-6.21,3.335
	c-0.276-0.37-0.553-0.741-0.829-1.111c1.345-1.186,2.688-2.371,4.513-3.979c-4.597-3.493-12.76-5.703-5.627-14.021
	c-2.876-0.433-4.95-0.745-8.367-1.259c4.008-1.502,7.329-1.795,8.794-3.597c1.179-1.449,0.55-4.843-0.079-7.156
	c-0.647-2.382-1.332-2.198-9.033,2.374c0.875-4.075,4.374-7.253,7.692-6.228c6.581,2.034,4.038,7.688,4.147,12.945
	c3.854,0,7.621,0.253,11.319-0.141c1.248-0.133,2.49-1.769,3.442-2.952c2.758-3.428,6.101-4.931,10.511-3.72
	c-3.122,1.63-6.244,3.261-9.366,4.891c0.149,0.477,0.299,0.953,0.448,1.43c1.966,0.354,3.931,0.709,5.896,1.063
	c0.044,0.4,0.088,0.8,0.132,1.2c-2.358,0.363-4.717,0.727-7.923,1.222C168.989,123.396,163.248,126.586,157.871,129.772z
	 M147.447,121.827c5.421,0,10.527,0,15.901,0c-0.349-2.229-0.665-4.255-0.968-6.187C150.182,114.035,149.56,114.274,147.447,121.827
	z M150.859,124.667c4.506,4.374,5.004,4.362,8.837,0C156.777,124.667,153.978,124.667,150.859,124.667z"/>
<g>
	<path fill="#DF2929" d="M34.688,27.305h3.396v13.706c0,0.61-0.044,1.134-0.132,1.573c-0.088,0.439-0.22,0.825-0.395,1.157
		c-0.231,0.443-0.522,0.82-0.873,1.129s-0.749,0.563-1.192,0.762s-0.919,0.342-1.427,0.43c-0.508,0.088-1.035,0.132-1.58,0.132
		c-0.563,0-1.111-0.046-1.642-0.139c-0.531-0.093-0.977-0.212-1.337-0.36v-2.896c0.406,0.167,0.841,0.296,1.303,0.388
		s0.919,0.138,1.372,0.138c0.877,0,1.515-0.203,1.913-0.609c0.397-0.407,0.596-1.007,0.596-1.802V27.305z"/>
	<path fill="#DF2929" d="M49.933,44.42h-0.055c-0.185,0.194-0.407,0.393-0.666,0.596c-0.258,0.204-0.554,0.395-0.887,0.575
		s-0.702,0.326-1.109,0.437c-0.406,0.111-0.845,0.167-1.316,0.167c-0.637,0-1.233-0.1-1.788-0.298
		c-0.554-0.198-1.03-0.485-1.427-0.859c-0.397-0.375-0.709-0.827-0.936-1.358c-0.227-0.531-0.34-1.125-0.34-1.781
		c0-0.721,0.132-1.367,0.395-1.94c0.264-0.573,0.631-1.058,1.102-1.455c0.471-0.397,1.035-0.7,1.69-0.908
		c0.656-0.208,1.381-0.312,2.176-0.312c0.582,0,1.118,0.037,1.608,0.111c0.489,0.074,0.919,0.162,1.289,0.263v-0.541
		c0-0.314-0.053-0.617-0.159-0.908c-0.106-0.291-0.277-0.549-0.513-0.776c-0.236-0.226-0.543-0.406-0.922-0.541
		c-0.379-0.134-0.841-0.201-1.386-0.201c-0.665,0-1.331,0.074-1.996,0.222s-1.386,0.37-2.162,0.665v-2.564
		c0.674-0.295,1.391-0.521,2.148-0.679c0.757-0.157,1.552-0.24,2.383-0.25c0.979,0,1.836,0.12,2.571,0.36s1.349,0.57,1.843,0.991
		c0.494,0.42,0.864,0.917,1.108,1.49c0.245,0.573,0.368,1.197,0.368,1.871v5.058c0,0.887,0.009,1.649,0.027,2.287
		s0.037,1.206,0.056,1.705h-2.966L49.933,44.42z M49.669,40.124c-0.314-0.074-0.674-0.141-1.081-0.201s-0.817-0.09-1.233-0.09
		c-0.804,0-1.439,0.16-1.905,0.478c-0.467,0.319-0.7,0.806-0.7,1.462c0,0.305,0.053,0.57,0.159,0.797
		c0.106,0.227,0.25,0.414,0.43,0.561c0.18,0.148,0.39,0.259,0.63,0.333c0.24,0.074,0.494,0.111,0.762,0.111
		c0.333,0,0.646-0.043,0.942-0.131c0.295-0.088,0.568-0.199,0.818-0.333c0.249-0.134,0.473-0.284,0.672-0.451
		c0.199-0.166,0.367-0.328,0.506-0.485V40.124z"/>
	<path fill="#DF2929" d="M68.641,32.419l-5.197,13.429h-3.257l-5.21-13.429h3.464l1.871,5.127c0.536,1.441,1.025,2.883,1.469,4.324
		h0.056c0.388-1.247,0.868-2.661,1.441-4.24l1.871-5.211H68.641z"/>
	<path fill="#DF2929" d="M78.48,44.42h-0.055c-0.185,0.194-0.407,0.393-0.666,0.596c-0.258,0.204-0.554,0.395-0.887,0.575
		s-0.702,0.326-1.109,0.437c-0.406,0.111-0.845,0.167-1.316,0.167c-0.637,0-1.233-0.1-1.788-0.298
		c-0.554-0.198-1.03-0.485-1.427-0.859c-0.397-0.375-0.709-0.827-0.936-1.358c-0.227-0.531-0.34-1.125-0.34-1.781
		c0-0.721,0.132-1.367,0.395-1.94c0.264-0.573,0.631-1.058,1.102-1.455c0.471-0.397,1.035-0.7,1.69-0.908
		c0.656-0.208,1.381-0.312,2.176-0.312c0.582,0,1.118,0.037,1.608,0.111c0.489,0.074,0.919,0.162,1.289,0.263v-0.541
		c0-0.314-0.053-0.617-0.159-0.908c-0.106-0.291-0.277-0.549-0.513-0.776c-0.236-0.226-0.543-0.406-0.922-0.541
		c-0.379-0.134-0.841-0.201-1.386-0.201c-0.665,0-1.331,0.074-1.996,0.222s-1.386,0.37-2.162,0.665v-2.564
		c0.674-0.295,1.391-0.521,2.148-0.679c0.757-0.157,1.552-0.24,2.383-0.25c0.979,0,1.836,0.12,2.571,0.36s1.349,0.57,1.843,0.991
		c0.494,0.42,0.864,0.917,1.108,1.49c0.245,0.573,0.368,1.197,0.368,1.871v5.058c0,0.887,0.009,1.649,0.027,2.287
		s0.037,1.206,0.056,1.705h-2.966L78.48,44.42z M78.217,40.124c-0.314-0.074-0.674-0.141-1.081-0.201s-0.817-0.09-1.233-0.09
		c-0.804,0-1.439,0.16-1.905,0.478c-0.467,0.319-0.7,0.806-0.7,1.462c0,0.305,0.053,0.57,0.159,0.797
		c0.106,0.227,0.25,0.414,0.43,0.561c0.18,0.148,0.39,0.259,0.63,0.333c0.24,0.074,0.494,0.111,0.762,0.111
		c0.333,0,0.646-0.043,0.942-0.131c0.295-0.088,0.568-0.199,0.818-0.333c0.249-0.134,0.473-0.284,0.672-0.451
		c0.199-0.166,0.367-0.328,0.506-0.485V40.124z"/>
</g>
<g>
	<path fill-rule="evenodd" clip-rule="evenodd" fill="#D2A41F" d="M48.408,179.887c8.019,1.388,7.689,1.292,9.527-5.031
		c1.081-3.719,2.844-7.553,5.319-10.472c3.024-3.568,7.115-6.232,11.147-9.627c-0.951-0.998-2.114-2.218-4.063-4.264
		C62.848,160.532,55.792,169.989,48.408,179.887z"/>
</g>
<g>
	<path fill-rule="evenodd" clip-rule="evenodd" fill="#D2A41F" d="M176.401,173.103c-3.614-4.68-7.479-8.359-14.01-5.544
		c-0.114,0.05-0.437-0.383-1.43-1.301c1.873-1.054,3.712-2.089,5.066-2.852c-2.396-6.751-6.271-0.563-9.001-2.805
		c0.764-1.829,1.541-3.69,1.986-4.757c-3.482-1.544-6.979-2.286-9.377-4.323c-5.166-4.391-9.654-9.569-14.662-14.161
		c-1.659-1.521-4.017-2.332-6.137-3.282c-1.9-0.852-3.915-1.45-5.879-2.16c1.744-0.905,3.487-1.811,4.612-2.395
		c-1.062-0.476-2.841-1.273-4.62-2.07c1.236-1.131,2.472-2.261,3.989-3.648c-0.183-0.544-0.414-1.509-0.826-2.388
		c-0.479-1.021-1.115-1.969-1.692-2.965c-1.67,0.451-3.125,0.772-4.534,1.236c-6.097,2.005-6.31,2.517-4.202,8.454
		c0.663,1.867,1.099,3.815,1.814,6.351c-6.286-1.378-9.254-8.08-16.101-7.039c1.295,2.712,2.249,4.71,3.64,7.624
		c-4.519-1.308-7.81-3.229-10.888-2.934c-5.203,0.499-2.089,5.825-3.404,8.711c-6.985-2.461-10.926-0.677-15.792,6.901
		c3.834,6.174,3.959,6.232,11.133,6.014c1.33-0.04,2.679-0.108,3.991,0.06c3.271,0.417,4.987-0.534,4.924-4.232
		c-0.039-2.279,0.543-4.649,1.292-6.825c0.311-0.904,1.783-1.409,2.727-2.096c0.629,1.004,1.732,1.985,1.781,3.016
		c0.084,1.785-0.379,3.625-0.803,5.397c-0.945,3.955,1.001,5.27,4.594,5.776c24.705,3.489,47.398,12.878,69.287,24.325
		c6.274,3.281,12.529,4.516,20.585,3.774c-2.833-1.497-4.752-3.404-6.537-3.287C182.412,180.042,179.282,176.834,176.401,173.103z"
		/>
</g>
<path fill-rule="evenodd" clip-rule="evenodd" d="M198.733,186.694c-9.9,0.979-18.746-0.008-27.679-4.787
	c-19.842-10.618-40.641-19.125-63.09-22.755c-2.897-0.468-5.831-0.715-9.886-1.2c1.143,3.548,1.573,6.382,2.956,8.631
	c0.871,1.418,3.079,2.483,4.843,2.783c3.396,0.575,6.534,0.958,6.972,5.961c-6.353,0.199-12.309,1.664-17.549-3.301
	c-4.218-3.997-9.092-7.3-13.344-11.266c-2.345-2.188-4.332-2.468-7.081-1.112c-9.848,4.856-14.663,12.648-13.988,24.131
	c-5.545,0-10.92,0-17.209,0c5.813-14.128,15.83-24.959,25.2-36.671c-1.075-1.746-2.549-3.425-3.23-5.38
	c-2.159-6.196-5.284-12.406-5.738-18.774c-0.955-13.385,9.6-22.723,23.135-22.141c2.781,0.12,5.599-1.129,8.417-1.223
	c2.413-0.08,5.124,0.032,7.216,1.054c3.634,1.775,6.892,4.318,10.665,6.772c-7.666,4.944-15.681,3.728-21.244-2.36
	c-0.67-0.733-2.002-1.014-3.08-1.201c-12.782-2.221-23.684,7.515-22.733,20.48c0.563,7.68,3.912,14.277,8.636,20.324
	c5.499-4.284,10.298-9.104,16.018-12.253c11.309-6.227,23.017-11.775,34.807-17.052c3.228-1.444,2.474-2.948,2.355-5.316
	c-0.42-8.434-0.726-16.883-0.673-25.323c0.016-2.499,1.354-4.99,2.086-7.484c0.55-0.295,1.1-0.589,1.65-0.884
	c4.085,3.906,8.115,7.872,12.289,11.681c1.169,1.067,2.747,2.357,4.155,2.378c7.475,0.109,14.963,0.007,22.426-0.405
	c1.765-0.098,3.677-1.4,5.127-2.619c4.101-3.446,7.996-7.137,12.687-10.29c4.877,16.645,4.21,32.492-2.175,48.376
	c1.671,0.49,3.125,0.916,4.58,1.343c0.039,0.271,0.078,0.544,0.117,0.815c-2.266,0.466-4.53,0.931-6.796,1.396
	c0.015,0.457,0.029,0.914,0.044,1.371c2.239,0.334,4.479,0.668,7.045,1.051c-0.536,0.702-0.872,1.407-1.076,1.371
	c-6.389-1.134-9.896,2.43-13.24,7.243c-3.011,4.334-6.948,8.024-10.831,12.396c6.398,6.904,13.396,14.652,20.685,22.115
	c1.181,1.209,3.628,1.304,5.538,1.653C194.415,177.448,198.206,180.907,198.733,186.694z M105.039,135.078
	c-4.519-1.308-7.81-3.229-10.888-2.934c-5.203,0.499-2.089,5.825-3.404,8.711c-6.985-2.461-10.926-0.677-15.792,6.901
	c3.834,6.174,3.959,6.232,11.133,6.014c1.33-0.04,2.679-0.108,3.991,0.06c3.271,0.417,4.987-0.534,4.924-4.232
	c-0.039-2.279,0.543-4.649,1.292-6.825c0.311-0.904,1.783-1.409,2.727-2.096c0.629,1.004,1.732,1.985,1.781,3.016
	c0.084,1.785-0.379,3.625-0.803,5.397c-0.945,3.955,1.001,5.27,4.594,5.776c24.705,3.489,47.398,12.878,69.287,24.325
	c6.274,3.281,12.529,4.516,20.585,3.774c-2.833-1.497-4.752-3.404-6.537-3.287c-5.517,0.363-8.646-2.845-11.527-6.576
	c-3.614-4.68-7.479-8.359-14.01-5.544c-0.114,0.05-0.437-0.383-1.43-1.301c1.873-1.054,3.712-2.089,5.066-2.852
	c-2.396-6.751-6.271-0.563-9.001-2.805c0.764-1.829,1.541-3.69,1.986-4.757c-3.482-1.544-6.979-2.286-9.377-4.323
	c-5.166-4.391-9.654-9.569-14.662-14.161c-1.659-1.521-4.017-2.332-6.137-3.282c-1.9-0.852-3.915-1.45-5.879-2.16
	c1.744-0.905,3.487-1.811,4.612-2.395c-1.062-0.476-2.841-1.273-4.62-2.07c1.236-1.131,2.472-2.261,3.989-3.648
	c-0.183-0.544-0.414-1.509-0.826-2.388c-0.479-1.021-1.115-1.969-1.692-2.965c-1.67,0.451-3.125,0.772-4.534,1.236
	c-6.097,2.005-6.31,2.517-4.202,8.454c0.663,1.867,1.099,3.815,1.814,6.351c-6.286-1.378-9.254-8.08-16.101-7.039
	C102.694,130.166,103.647,132.164,105.039,135.078z M156.235,101.979c-0.737-1.157-1.236-1.802-1.591-2.518
	c-3.468-6.999-3.461-7.002-11.086-5.729c-0.821,0.137-1.646,0.257-2.46,0.422c-6.275,1.27-9.118-0.085-12.029-5.733
	c-0.621-1.205-1.269-2.397-1.904-3.596c-0.491,0.071-0.982,0.143-1.474,0.214c0,3.749-0.181,7.509,0.041,11.244
	c0.341,5.738-1.418,12.474,7.739,14.782c-2.592,1.185-3.959,1.81-5.732,2.619c2.198,2.73,3.414,5.349,3.445,8.654
	c0.024,2.507,1.864,4.069,4.826,3.714c0.966-0.115,2.023,0.54,3.039,0.843c-0.071,0.353-0.143,0.705-0.215,1.059
	c-1.404,0.407-2.81,0.814-5.313,1.541c2.601,0.928,4.028,1.438,4.504,1.607c0.438,2.323,0.189,4.409,1.1,5.269
	c4.682,4.419,9.567,8.641,14.622,12.627c0.908,0.716,3.438,0.617,4.373-0.145c5.457-4.441,10.661-9.193,16.548-14.364
	c-2.308-1.078-3.295-1.54-4.282-2.001c0.271-0.396,0.541-0.79,0.812-1.186c1.727-0.45,3.453-0.9,5.179-1.352
	c-0.032-0.268-0.064-0.534-0.097-0.802c-1.73-0.456-3.461-0.913-5.62-1.483c2.521-3.369,11.713,1.133,7.792-7.76
	c3.06-1.76,5.714-3.711,1.014-6.706c4.934-3.478,6.541-19.372,3.101-28.769c-4.612,10.088-5.376,10.647-12.825,9.406
	c-9.414-1.569-9.413-1.569-12.855,7.246C156.827,101.234,156.693,101.354,156.235,101.979z M48.408,179.887
	c8.019,1.388,7.689,1.292,9.527-5.031c1.081-3.719,2.844-7.553,5.319-10.472c3.024-3.568,7.115-6.232,11.147-9.627
	c-0.951-0.998-2.114-2.218-4.063-4.264C62.848,160.532,55.792,169.989,48.408,179.887z"/>
</svg>
