<?xml version="1.0" encoding="utf-8"?>
<!-- Generator: Adobe Illustrator 16.0.0, SVG Export Plug-In . SVG Version: 6.00 Build 0)  -->
<!DOCTYPE svg PUBLIC "-//W3C//DTD SVG 1.1//EN" "http://www.w3.org/Graphics/SVG/1.1/DTD/svg11.dtd">
<svg version="1.1" id="图层_1" xmlns="http://www.w3.org/2000/svg" xmlns:xlink="http://www.w3.org/1999/xlink" x="0px" y="0px"
	 width="240px" height="240px" viewBox="0 0 240 240" enable-background="new 0 0 240 240" xml:space="preserve">
<path fill-rule="evenodd" clip-rule="evenodd" fill="#335061" d="M219,241c-65.333,0-130.667,0-196,0
	c-0.383-0.302-0.72-0.738-1.155-0.887c-13.212-4.484-18.609-11.994-18.617-26.001c-0.009-16.975-0.002-33.949-0.002-50.925
	c0-45.599-0.015-91.198,0.013-136.798C3.245,16.435,7.314,8.711,16.254,3.919C18.406,2.766,20.746,1.964,23,1
	c65.333,0,130.667,0,196,0c0.232,0.23,0.423,0.572,0.702,0.675c14.341,5.269,19.07,12.004,19.071,27.21
	c0.003,20.803,0.001,41.605,0.001,62.408c0,41.272-0.012,82.545,0.007,123.817c0.005,9.934-3.745,17.779-12.586,22.747
	C223.925,239.134,221.405,239.965,219,241z"/>
<g>
	<path fill-rule="evenodd" clip-rule="evenodd" fill="#FFFFFF" d="M171.659,76.812c2.499-1.533,5.007-3.071,8.166-5.009
		c-18.512-20.717-41.358-29.006-67.977-25.544c-22.304,2.902-39.619,14.625-52.401,33.549c3.427,1.552,6.104,2.765,8.749,3.963
		C91.313,50.66,140.246,43.902,171.659,76.812z"/>
	<path fill-rule="evenodd" clip-rule="evenodd" fill="#FFFFFF" d="M195.367,104.605c-2.742,1.104-5.484,2.209-8.107,3.266
		c3.537,40.779-14.229,66.671-53.408,77.799c0,3.014,0,6.05,0,9.114C175.713,190.026,209.644,140.112,195.367,104.605z"/>
	<path fill-rule="evenodd" clip-rule="evenodd" fill="#FFFFFF" d="M56.933,116.421c-3.086-0.772-5.804-1.453-8.835-2.213
		c-5.041,31.763,19.25,69.55,49.883,76.758c0.285-1.454,0.553-2.911,0.857-4.36c0.298-1.42,0.633-2.833,0.971-4.335
		C71.046,169.543,56.946,147.404,56.933,116.421z"/>
	<path fill-rule="evenodd" clip-rule="evenodd" fill="#FFFFFF" d="M171.964,89.82c0.064,6.827,6.009,12.517,12.995,12.438
		c6.727-0.075,12.302-5.813,12.22-12.576c-0.084-6.869-6.196-12.827-12.914-12.587C177.634,77.332,171.902,83.262,171.964,89.82z"/>
	<path fill-rule="evenodd" clip-rule="evenodd" fill="#FFFFFF" d="M56.582,111.336c7.118,0.12,12.698-5.335,12.73-12.445
		c0.031-6.919-5.808-12.763-12.684-12.693c-6.831,0.069-11.852,5.404-11.854,12.595C44.773,106.104,49.587,111.218,56.582,111.336z"
		/>
	<path fill-rule="evenodd" clip-rule="evenodd" fill="#FFFFFF" d="M116.419,177.755c-7.021-0.098-12.663,5.557-12.618,12.644
		c0.044,6.93,4.959,11.806,11.921,11.826c7.544,0.023,12.722-4.998,12.634-12.254C128.273,183.227,123.016,177.846,116.419,177.755z
		"/>
</g>
<path fill-rule="evenodd" clip-rule="evenodd" fill="#FFFFFF" d="M79.512,139.415c0-14.193-0.104-14.465,13.226-19.555
	c5.409-2.065,7.791-4.652,7.261-10.705c-0.514-5.872-1.656-13.13,1.118-17.434c2.649-4.112,10.091-5.002,15.231-7.683
	c4.368-2.277,8.335-2.298,12.696,0.012c5.25,2.781,12.71,3.8,15.547,8.036c2.703,4.038,1.233,11.294,0.601,17.024
	c-0.67,6.066,1.82,8.51,7.167,10.702c16.267,6.672,13.27,1.948,13.257,19.605c-0.013,17.797,2.823,12.399-13.011,19.971
	c-6.911,3.305-13.022,4.111-19.554-0.101c-7.073-4.561-14.24-4.652-21.319-0.042c-6.416,4.18-12.447,3.105-19.129,0.046
	C79.659,153.367,79.512,153.687,79.512,139.415z M105.148,156.777c4.8-2.02,8.964-3.631,12.972-5.566
	c0.879-0.425,1.671-1.989,1.703-3.052c0.167-5.642,0.078-11.291,0.078-16.994c-13.049,2.287-14.754,4.244-14.753,16.611
	C105.148,150.434,105.148,153.092,105.148,156.777z M145.652,156.853c4.689-1.939,8.571-3.39,12.289-5.179
	c1.116-0.537,2.481-1.988,2.529-3.074c0.251-5.724,0.117-11.464,0.117-18.06c-4.972,2.102-9.11,3.711-13.093,5.643
	c-0.895,0.435-1.729,1.979-1.762,3.038C145.561,144.85,145.652,150.485,145.652,156.853z M85.02,130.562
	c0,6.649-0.052,12.398,0.06,18.145c0.016,0.808,0.636,2.023,1.305,2.33c4.269,1.951,8.629,3.701,13.422,5.711
	c0-6.303,0.104-11.769-0.08-17.226c-0.041-1.224-0.776-3.047-1.722-3.51C94.05,134.078,89.893,132.557,85.02,130.562z
	 M119.901,122.773c0-6.389,0.062-11.876-0.054-17.359c-0.022-1.026-0.476-2.612-1.2-2.96c-4.225-2.025-8.59-3.759-13.491-5.838
	c0,6.604-0.119,12.095,0.094,17.572c0.046,1.18,1.022,2.877,2.037,3.365C111.148,119.412,115.2,120.873,119.901,122.773z
	 M140.106,96.53c-4.935,2.069-8.808,3.521-12.496,5.349c-1.046,0.518-2.156,2.102-2.202,3.238
	c-0.225,5.611-0.103,11.237-0.103,17.55c4.631-1.868,8.798-3.408,12.813-5.275c0.93-0.432,1.865-1.963,1.9-3.019
	C140.205,108.755,140.106,103.127,140.106,96.53z M140.113,156.812c0-6.59,0.066-12.07-0.06-17.546
	c-0.022-1.004-0.559-2.537-1.304-2.894c-4.229-2.019-8.592-3.754-13.444-5.813c0,6.621-0.088,12.111,0.076,17.596
	c0.031,1.078,0.769,2.682,1.634,3.098C131.024,153.176,135.193,154.766,140.113,156.812z M129.812,126.563
	c10.699,6.71,17.278,6.669,26.073-0.163C142.855,120.055,142.647,120.056,129.812,126.563z M109.964,92.646
	c8.433,6.626,17.074,6.298,25.517-0.074C126.98,86.318,118.337,85.951,109.964,92.646z M89.886,126.752
	c10.665,6.429,16.183,6.372,24.925-0.117C106.589,120.119,98.147,120.483,89.886,126.752z"/>
</svg>
