<?xml version="1.0" encoding="utf-8"?>
<!-- Generator: Adobe Illustrator 16.0.0, SVG Export Plug-In . SVG Version: 6.00 Build 0)  -->
<!DOCTYPE svg PUBLIC "-//W3C//DTD SVG 1.1//EN" "http://www.w3.org/Graphics/SVG/1.1/DTD/svg11.dtd">
<svg version="1.1" id="图层_1" xmlns="http://www.w3.org/2000/svg" xmlns:xlink="http://www.w3.org/1999/xlink" x="0px" y="0px"
	 width="240px" height="240px" viewBox="0 0 240 240" enable-background="new 0 0 240 240" xml:space="preserve">
<path fill-rule="evenodd" clip-rule="evenodd" fill="#185286" d="M218,241c-64.667,0-129.333,0-194,0
	c-0.913-0.376-1.798-0.85-2.742-1.113C10.572,236.896,3.78,228.466,3.29,217.409c-0.133-2.991-0.035-5.993-0.035-8.99
	C3.254,147.976,3.268,87.531,3.242,27.088C3.238,16.501,7.416,8.408,17.026,3.544C19.218,2.435,21.668,1.834,24,1
	c64.667,0,129.333,0,194,0c0.428,0.254,0.826,0.605,1.289,0.748c13.784,4.238,19.445,11.886,19.455,26.338
	c0.008,9.991,0.002,19.981,0.002,29.972c-0.001,52.285-0.018,104.57,0.015,156.854c0.006,9.513-3.328,17.286-11.617,22.322
	C224.36,238.925,221.063,239.769,218,241z M69.824,114.476c0,13.152-0.04,26.306,0.013,39.458
	c0.04,10.034,6.159,16.388,16.024,16.431c20.311,0.089,40.623,0.084,60.935,0.001c9.434-0.038,15.985-6.031,16.063-15.429
	c0.222-26.803,0.14-53.608,0.026-80.412c-0.032-7.716-6.335-15.218-15.83-14.952c-20.296,0.566-40.619,0.172-60.93,0.174
	c-10.568,0.002-16.257,5.645-16.292,16.271C69.792,88.836,69.824,101.656,69.824,114.476z M88.727,177.505
	c2.736,6.676,7.541,10.334,14.168,10.42c20.817,0.268,41.64,0.244,62.458,0.023c8.02-0.085,14.797-6.351,14.829-13.448
	c0.128-28.314,0.115-56.631,0-84.946c-0.023-5.823-4.939-10.871-10.575-11.242c0,1.996,0,3.977,0,5.956
	c0,25.151,0.013,50.302-0.006,75.453c-0.009,11.998-5.703,17.735-17.788,17.769C131.019,177.546,110.224,177.505,88.727,177.505z"/>
<path fill-rule="evenodd" clip-rule="evenodd" fill="#FFFFFF" d="M69.824,114.476c0-12.819-0.032-25.64,0.01-38.459
	c0.035-10.626,5.724-16.269,16.292-16.271c20.312-0.002,40.634,0.393,60.93-0.174c9.495-0.266,15.798,7.236,15.83,14.952
	c0.113,26.804,0.195,53.609-0.026,80.412c-0.078,9.397-6.63,15.391-16.063,15.429c-20.312,0.083-40.624,0.088-60.935-0.001
	c-9.865-0.043-15.984-6.396-16.024-16.431C69.784,140.781,69.824,127.628,69.824,114.476z M151.867,115.333
	c0-10.333,0.045-20.666-0.015-30.998c-0.045-7.795-4.273-12.153-11.983-12.192c-15.831-0.079-31.664-0.073-47.496-0.002
	c-7.718,0.034-12.154,4.422-12.176,12.046c-0.059,20.665-0.061,41.33,0.001,61.995c0.022,7.438,4.255,11.848,11.763,11.919
	c15.998,0.152,31.999,0.15,47.996,0.007c7.869-0.071,11.847-4.334,11.895-12.277C151.913,135.665,151.867,125.498,151.867,115.333z"
	/>
<path fill-rule="evenodd" clip-rule="evenodd" fill="#FFFFFF" d="M88.727,177.505c21.498,0,42.292,0.041,63.087-0.016
	c12.085-0.033,17.779-5.771,17.788-17.769c0.019-25.151,0.006-50.302,0.006-75.453c0-1.979,0-3.96,0-5.956
	c5.636,0.371,10.552,5.419,10.575,11.242c0.115,28.315,0.128,56.632,0,84.946c-0.032,7.098-6.81,13.363-14.829,13.448
	c-20.818,0.221-41.642,0.244-62.458-0.023C96.267,187.839,91.462,184.181,88.727,177.505z"/>
<path fill-rule="evenodd" clip-rule="evenodd" fill="#185286" d="M151.867,115.333c0,10.165,0.046,20.332-0.016,30.497
	c-0.048,7.943-4.025,12.206-11.895,12.277c-15.997,0.144-31.998,0.146-47.996-0.007c-7.508-0.071-11.741-4.48-11.763-11.919
	c-0.062-20.665-0.06-41.33-0.001-61.995c0.021-7.624,4.458-12.012,12.176-12.046c15.832-0.071,31.665-0.077,47.496,0.002
	c7.71,0.039,11.938,4.397,11.983,12.192C151.912,94.667,151.867,105,151.867,115.333z M116.523,97.828
	c-7.646,0-15.299-0.171-22.934,0.135c-1.646,0.065-3.224,1.846-4.833,2.836c1.643,0.975,3.274,2.771,4.931,2.794
	c15.123,0.22,30.252,0.225,45.375-0.001c1.652-0.024,3.277-1.895,4.915-2.908c-1.671-0.952-3.313-2.658-5.02-2.728
	C131.49,97.654,124.003,97.826,116.523,97.828z M116.261,118.141c7.483,0,14.975,0.199,22.443-0.144
	c1.798-0.083,3.514-1.961,5.267-3.014c-1.711-0.947-3.41-2.693-5.135-2.719c-14.963-0.218-29.932-0.23-44.894,0.016
	c-1.746,0.028-3.46,2-5.189,3.07c1.687,0.931,3.344,2.595,5.064,2.663C101.289,118.31,108.778,118.141,116.261,118.141z
	 M116.256,147.042c7.486,0,14.982,0.203,22.452-0.146c1.796-0.084,3.506-2.003,5.255-3.078c-1.706-0.947-3.401-2.692-5.121-2.717
	c-14.97-0.218-29.945-0.231-44.915,0.015c-1.74,0.028-3.447,2.006-5.17,3.079c1.68,0.949,3.329,2.648,5.044,2.718
	C101.276,147.214,108.77,147.042,116.256,147.042z M116.388,132.392c7.636,0,15.277,0.146,22.904-0.12
	c1.582-0.055,3.11-1.639,4.664-2.519c-1.596-0.996-3.179-2.835-4.788-2.858c-15.27-0.22-30.544-0.206-45.813-0.016
	c-1.54,0.019-3.06,1.64-4.59,2.517c1.572,0.999,3.111,2.795,4.72,2.859C101.108,132.56,108.751,132.391,116.388,132.392z
	 M124.561,89.197c5.144,0,10.3,0.197,15.422-0.131c1.38-0.088,2.657-1.772,3.981-2.724c-1.338-0.935-2.657-2.646-4.017-2.678
	c-9.949-0.23-19.909-0.232-29.859,0c-1.35,0.032-2.66,1.768-3.988,2.714c1.342,0.939,2.633,2.591,4.035,2.689
	C114.923,89.406,119.749,89.198,124.561,89.197z"/>
<path fill-rule="evenodd" clip-rule="evenodd" fill="#FFFFFF" d="M116.523,97.827c7.479-0.001,14.967-0.173,22.435,0.129
	c1.707,0.069,3.349,1.775,5.02,2.728c-1.638,1.014-3.263,2.884-4.915,2.908c-15.123,0.226-30.252,0.221-45.375,0.001
	c-1.657-0.023-3.288-1.819-4.931-2.794c1.609-0.99,3.187-2.771,4.833-2.836C101.224,97.657,108.877,97.828,116.523,97.827z"/>
<path fill-rule="evenodd" clip-rule="evenodd" fill="#FFFFFF" d="M116.261,118.141c-7.483,0-14.973,0.169-22.444-0.127
	c-1.72-0.068-3.377-1.732-5.064-2.663c1.729-1.07,3.443-3.042,5.189-3.07c14.962-0.246,29.931-0.233,44.894-0.016
	c1.725,0.025,3.424,1.771,5.135,2.719c-1.753,1.053-3.469,2.931-5.267,3.014C131.236,118.34,123.744,118.141,116.261,118.141z"/>
<path fill-rule="evenodd" clip-rule="evenodd" fill="#FFFFFF" d="M116.256,147.042c-7.486,0-14.979,0.172-22.454-0.13
	c-1.715-0.069-3.365-1.769-5.044-2.718c1.723-1.073,3.43-3.051,5.17-3.079c14.969-0.246,29.945-0.232,44.915-0.015
	c1.72,0.024,3.415,1.77,5.121,2.717c-1.749,1.075-3.459,2.994-5.255,3.078C131.238,147.245,123.742,147.042,116.256,147.042z"/>
<path fill-rule="evenodd" clip-rule="evenodd" fill="#FFFFFF" d="M116.388,132.392c-7.636-0.001-15.279,0.168-22.903-0.137
	c-1.608-0.064-3.148-1.86-4.72-2.859c1.53-0.877,3.05-2.498,4.59-2.517c15.27-0.19,30.544-0.204,45.813,0.016
	c1.609,0.023,3.192,1.862,4.788,2.858c-1.554,0.88-3.082,2.464-4.664,2.519C131.665,132.538,124.023,132.392,116.388,132.392z"/>
<path fill-rule="evenodd" clip-rule="evenodd" fill="#FFFFFF" d="M124.561,89.197c-4.812,0.001-9.638,0.209-14.425-0.129
	c-1.401-0.099-2.693-1.75-4.035-2.689c1.328-0.946,2.638-2.682,3.988-2.714c9.95-0.232,19.91-0.23,29.859,0
	c1.359,0.032,2.679,1.743,4.017,2.678c-1.324,0.951-2.602,2.636-3.981,2.724C134.86,89.395,129.704,89.197,124.561,89.197z"/>
</svg>
