<?xml version="1.0" encoding="utf-8"?>
<!-- Generator: Adobe Illustrator 16.0.0, SVG Export Plug-In . SVG Version: 6.00 Build 0)  -->
<!DOCTYPE svg PUBLIC "-//W3C//DTD SVG 1.1//EN" "http://www.w3.org/Graphics/SVG/1.1/DTD/svg11.dtd">
<svg version="1.1" id="图层_1" xmlns="http://www.w3.org/2000/svg" xmlns:xlink="http://www.w3.org/1999/xlink" x="0px" y="0px"
	 width="240px" height="240px" viewBox="0 0 240 240" enable-background="new 0 0 240 240" xml:space="preserve">
<path fill-rule="evenodd" clip-rule="evenodd" fill="#333333" d="M220,241c-66,0-132,0-198,0c-0.568-0.332-1.1-0.763-1.708-0.98
	C8.8,235.916,3.128,228.008,3.127,215.977C3.123,152.66,3.116,89.343,3.16,26.025c0.002-2.463,0.245-4.99,0.831-7.376
	C6.335,9.098,13.342,4.178,22,1c66,0,132,0,198,0c0.406,0.286,0.773,0.678,1.224,0.843c12.477,4.572,17.65,11.935,17.65,25.181
	c0.002,62.817,0.008,125.635-0.026,188.452c-0.001,2.473-0.106,5.015-0.671,7.404C235.875,232.62,228.874,237.781,220,241z
	 M145.645,89.79c3.567-0.362,6.16-1.294,8.376-0.734c8.859,2.237,17.706-1.368,22.046-9.475c4.27-7.977,2.403-17.517-4.601-23.513
	c-6.795-5.817-16.422-6.273-23.505-0.758c-6.27,4.883-9.012,11.317-7.446,19.366c0.802,4.123-3.428,8.022-6.991,6.359
	c-11.178-5.216-22.225-4.687-33.348,0.136c-1.12,0.485-3.329,0.636-3.832-0.003c-2.469-3.138-5.758-5.641-5.469-10.644
	c0.363-6.274-5.112-11.334-11.333-11.695c-6.144-0.356-11.533,3.725-12.763,9.665c-1.292,6.235,2.006,13.166,8.125,14.036
	c6.591,0.938,8.75,5.706,12.07,9.854c-7.252,10.575-9.445,21.778-5.495,33.89c1.994,6.112-0.274,9.178-6.659,8.699
	c-8.906-0.668-16.417,5.541-16.9,13.97c-0.479,8.356,6.101,15.722,14.362,16.076c8.379,0.359,15.784-6.615,15.524-15.411
	c-0.122-4.104,1.636-6.006,4.745-7.663c12.279,9.513,25.599,11.628,39.846,6.262c6.482,7.443,6.479,7.443,4.741,16.247
	c-0.128,0.65-0.172,1.319-0.231,1.982c-1.195,13.394,9.394,25.006,23.116,25.353c13.382,0.338,24.641-11.219,24.008-24.643
	c-0.603-12.813-13.107-23.249-26.307-21.374c-4.057,0.576-6.635-0.145-8.694-3.529c-0.843-1.385-1.983-2.587-2.929-3.795
	C157.66,120.849,157.801,108.832,145.645,89.79z"/>
<path fill-rule="evenodd" clip-rule="evenodd" fill="#FFFFFF" d="M145.645,89.79c12.156,19.042,12.016,31.059,0.458,48.658
	c0.945,1.208,2.086,2.41,2.929,3.795c2.06,3.385,4.638,4.105,8.694,3.529c13.199-1.875,25.704,8.562,26.307,21.374
	c0.633,13.424-10.626,24.98-24.008,24.643c-13.723-0.347-24.312-11.959-23.116-25.353c0.06-0.663,0.104-1.332,0.231-1.982
	c1.737-8.804,1.741-8.804-4.741-16.247c-14.247,5.366-27.567,3.251-39.846-6.262c-3.109,1.657-4.867,3.56-4.745,7.663
	c0.26,8.796-7.146,15.771-15.524,15.411c-8.262-0.354-14.842-7.72-14.362-16.076c0.483-8.429,7.994-14.638,16.9-13.97
	c6.385,0.479,8.653-2.587,6.659-8.699c-3.95-12.111-1.757-23.314,5.495-33.89c-3.321-4.147-5.479-8.916-12.07-9.854
	c-6.119-0.87-9.417-7.801-8.125-14.036c1.23-5.94,6.62-10.021,12.763-9.665c6.221,0.361,11.696,5.421,11.333,11.695
	c-0.29,5.003,3,7.506,5.469,10.644c0.502,0.639,2.712,0.488,3.832,0.003c11.123-4.822,22.17-5.352,33.348-0.136
	c3.563,1.663,7.793-2.236,6.991-6.359c-1.565-8.049,1.177-14.483,7.446-19.366c7.083-5.516,16.71-5.06,23.505,0.758
	c7.004,5.996,8.87,15.536,4.601,23.513c-4.34,8.106-13.187,11.712-22.046,9.475C151.805,88.496,149.212,89.428,145.645,89.79z
	 M117.066,85.267c-16.155,0.039-29.454,13.071-29.582,28.987c-0.127,15.955,13.563,29.482,29.747,29.391
	c16.156-0.092,29.465-13.169,29.556-29.04C146.88,98.528,133.403,85.227,117.066,85.267z"/>
<path fill-rule="evenodd" clip-rule="evenodd" fill="#333333" d="M117.066,85.267c16.337-0.04,29.814,13.262,29.721,29.338
	c-0.091,15.871-13.4,28.948-29.556,29.04c-16.183,0.092-29.874-13.436-29.747-29.391C87.612,98.338,100.911,85.306,117.066,85.267z"
	/>
<path fill-rule="evenodd" clip-rule="evenodd" d="M103.422,107.757c-0.748-0.008-1.495-0.017-2.242-0.024
	c-1.483,2.021-3.809,3.873-4.255,6.102c-0.696,3.479,1.873,5.703,5.283,5.774c3.498,0.073,5.951-2.327,5.424-5.678
	C107.281,111.707,104.896,109.803,103.422,107.757z"/>
<path fill-rule="evenodd" clip-rule="evenodd" d="M117.952,107.88c-0.766-0.011-1.531-0.021-2.296-0.031
	c-1.524,2.006-4.003,3.86-4.351,6.053c-0.538,3.385,1.979,5.643,5.512,5.569c3.259-0.066,5.693-2.203,5.163-5.401
	C121.61,111.845,119.361,109.933,117.952,107.88z"/>
<path fill-rule="evenodd" clip-rule="evenodd" d="M133.04,107.881c-0.786-0.02-1.573-0.039-2.359-0.059
	c-1.554,2.102-4.358,4.245-4.29,6.293c0.062,1.868,2.998,4.734,5.095,5.188c3.232,0.701,5.927-1.847,5.445-5.271
	C136.622,111.844,134.402,109.923,133.04,107.881z"/>
<path fill-rule="evenodd" clip-rule="evenodd" fill="#FFFFFF" d="M103.422,107.757c1.474,2.046,3.859,3.95,4.209,6.174
	c0.527,3.351-1.926,5.751-5.424,5.678c-3.41-0.071-5.979-2.296-5.283-5.774c0.446-2.229,2.772-4.08,4.255-6.102
	C101.927,107.74,102.674,107.749,103.422,107.757z"/>
<path fill-rule="evenodd" clip-rule="evenodd" fill="#FFFFFF" d="M117.952,107.88c1.409,2.053,3.659,3.965,4.028,6.189
	c0.53,3.198-1.904,5.335-5.163,5.401c-3.532,0.073-6.049-2.185-5.512-5.569c0.348-2.192,2.827-4.047,4.351-6.053
	C116.42,107.859,117.186,107.869,117.952,107.88z"/>
<path fill-rule="evenodd" clip-rule="evenodd" fill="#FFFFFF" d="M133.04,107.881c1.362,2.042,3.582,3.963,3.891,6.152
	c0.481,3.424-2.213,5.972-5.445,5.271c-2.097-0.454-5.033-3.32-5.095-5.188c-0.068-2.048,2.736-4.191,4.29-6.293
	C131.467,107.842,132.254,107.861,133.04,107.881z"/>
</svg>
