<?xml version="1.0" encoding="utf-8"?>
<!-- Generator: Adobe Illustrator 16.0.0, SVG Export Plug-In . SVG Version: 6.00 Build 0)  -->
<!DOCTYPE svg PUBLIC "-//W3C//DTD SVG 1.1//EN" "http://www.w3.org/Graphics/SVG/1.1/DTD/svg11.dtd">
<svg version="1.1" id="图层_1" xmlns="http://www.w3.org/2000/svg" xmlns:xlink="http://www.w3.org/1999/xlink" x="0px" y="0px"
	 width="240px" height="240px" viewBox="0 0 240 240" enable-background="new 0 0 240 240" xml:space="preserve">
<path fill-rule="evenodd" clip-rule="evenodd" fill="#042D57" d="M23,1c65.333,0,130.667,0,196,0
	c16.283,6.74,19.88,12.224,19.88,30.313c0,60.791,0.005,121.582-0.018,182.373c-0.001,2.488,0.001,5.025-0.454,7.454
	c-2.04,10.89-9.316,16.778-19.408,19.86c-65.333,0-130.667,0-196,0c-16.275-6.721-19.88-12.217-19.88-30.312
	c0-60.791-0.005-121.582,0.018-182.373c0.001-2.487,0.005-5.023,0.456-7.453C5.617,9.957,12.944,4.118,23,1z M115.685,162.396
	c0.4-0.931,0.64-1.229,0.64-1.526c0.04-24.792,0.125-49.585-0.075-74.375c-0.012-1.499-1.999-3.671-3.577-4.361
	c-13.85-6.06-27.812-11.864-41.756-17.707c-1.109-0.464-2.338-0.643-3.854-1.045c0,27.99-0.044,55.434,0.136,82.876
	c0.009,1.325,1.763,3.443,3.098,3.83c11.006,3.188,22.106,6.05,33.177,9.016C107.579,160.203,111.681,161.316,115.685,162.396z
	 M125.467,162.648c14.849-4.143,28.744-8.121,42.709-11.842c3.322-0.885,4.354-2.343,4.33-5.824
	c-0.17-25.661-0.088-51.323-0.103-76.985c-0.001-1.437-0.159-2.873-0.267-4.688c-1.662,0.603-2.914,0.976-4.102,1.5
	c-12.784,5.645-25.495,11.462-38.378,16.872c-3.392,1.425-4.297,3.267-4.262,6.712c0.161,15.828,0.071,31.66,0.071,47.49
	C125.467,144.508,125.467,153.132,125.467,162.648z"/>
<path fill-rule="evenodd" clip-rule="evenodd" fill="#FFFFFF" d="M115.685,162.396c-4.004-1.08-8.106-2.193-12.211-3.293
	c-11.071-2.966-22.171-5.828-33.177-9.016c-1.335-0.387-3.089-2.505-3.098-3.83c-0.18-27.442-0.136-54.886-0.136-82.876
	c1.516,0.402,2.745,0.581,3.854,1.045c13.944,5.843,27.906,11.647,41.756,17.707c1.579,0.69,3.565,2.862,3.577,4.361
	c0.2,24.79,0.115,49.583,0.075,74.375C116.325,161.168,116.085,161.466,115.685,162.396z"/>
<path fill-rule="evenodd" clip-rule="evenodd" fill="#FFFFFF" d="M125.467,162.648c0-9.517,0-18.141,0-26.765
	c0-15.83,0.09-31.662-0.071-47.49c-0.035-3.445,0.87-5.287,4.262-6.712c12.883-5.41,25.594-11.228,38.378-16.872
	c1.188-0.524,2.439-0.897,4.102-1.5c0.107,1.814,0.266,3.251,0.267,4.688c0.015,25.662-0.067,51.324,0.103,76.985
	c0.023,3.481-1.008,4.939-4.33,5.824C154.211,154.527,140.315,158.506,125.467,162.648z"/>
<polygon fill-rule="evenodd" clip-rule="evenodd" fill="#E1075A" points="181.25,68.5 181.25,157.304 120,171.5 58.75,157.304 
	58.75,68.5 49.75,68.5 49.75,165.5 120,180.5 190.25,165.5 190.25,68.5 "/>
</svg>
