<?xml version="1.0" encoding="utf-8"?>
<!-- Generator: Adobe Illustrator 16.0.0, SVG Export Plug-In . SVG Version: 6.00 Build 0)  -->
<!DOCTYPE svg PUBLIC "-//W3C//DTD SVG 1.1//EN" "http://www.w3.org/Graphics/SVG/1.1/DTD/svg11.dtd">
<svg version="1.1" id="图层_1" xmlns="http://www.w3.org/2000/svg" xmlns:xlink="http://www.w3.org/1999/xlink" x="0px" y="0px"
	 width="240px" height="240px" viewBox="0 0 240 240" enable-background="new 0 0 240 240" xml:space="preserve">
<path fill="#355CFF" d="M238,216c0,13.255-10.745,24-24,24H26c-13.255,0-24-10.745-24-24V24C2,10.745,12.745,0,26,0h188
	c13.255,0,24,10.745,24,24V216z"/>
<path fill="#FFFFFF" d="M67.324,122.375L67.324,122.375l18.136-18.137c2.571-2.571,2.639-6.674,0.148-9.164
	s-6.593-2.423-9.164,0.148L42.75,128.918V99.625c0-3.521-2.854-6.375-6.375-6.375S30,96.104,30,99.625v45.5
	c0,3.521,2.854,6.375,6.375,6.375c4.625,0,7.873-6.049,8.547-6.723l13.387-13.387l0,0l18.136,18.137
	c2.571,2.57,6.674,2.639,9.164,0.148s2.423-6.594-0.148-9.164L67.324,122.375z"/>
<path fill="#FFFFFF" d="M118.985,93.5c-15.878,0-28.75,12.872-28.75,28.75c0,15.878,12.872,28.75,28.75,28.75
	c15.878,0,28.75-12.872,28.75-28.75C147.735,106.372,134.863,93.5,118.985,93.5z M118.985,138.25c-8.836,0-16-7.163-16-16
	s7.164-16,16-16s16,7.163,16,16S127.821,138.25,118.985,138.25z"/>
<path fill="#FFFFFF" d="M204.375,81c-3.521,0-6.375,2.948-6.375,6.585v10.777c-4.574-3.07-10.077-4.862-16-4.862
	c-15.879,0-28.75,12.872-28.75,28.75c0,15.878,12.871,28.75,28.75,28.75c5.967,0,11.51-1.818,16.104-4.932
	c0.529,3.086,3.132,5.432,6.271,5.432c3.521,0,6.375-2.948,6.375-6.585v-57.33C210.75,83.948,207.896,81,204.375,81z M182,138.25
	c-8.837,0-16-7.163-16-16s7.163-16,16-16c8.836,0,16,7.163,16,16S190.836,138.25,182,138.25z"/>
</svg>
