<?xml version="1.0" encoding="utf-8"?>
<!-- Generator: Adobe Illustrator 16.0.0, SVG Export Plug-In . SVG Version: 6.00 Build 0)  -->
<!DOCTYPE svg PUBLIC "-//W3C//DTD SVG 1.1//EN" "http://www.w3.org/Graphics/SVG/1.1/DTD/svg11.dtd">
<svg version="1.1" id="图层_1" xmlns="http://www.w3.org/2000/svg" xmlns:xlink="http://www.w3.org/1999/xlink" x="0px" y="0px"
	 width="240px" height="240px" viewBox="0 0 240 240" enable-background="new 0 0 240 240" xml:space="preserve">
<path fill-rule="evenodd" clip-rule="evenodd" fill="#00A971" d="M217,241c-64,0-128,0-192,0c-0.715-0.396-1.385-0.962-2.152-1.165
	c-12.765-3.395-19.384-11.679-19.394-24.852c-0.048-62.656-0.049-125.313,0-187.97c0.01-13.175,6.648-21.478,19.4-24.845
	C23.619,1.967,24.287,1.398,25,1c64,0,128,0,192,0c0.713,0.398,1.381,0.967,2.146,1.169c12.753,3.367,19.39,11.668,19.4,24.844
	c0.048,62.655,0.054,125.312-0.006,187.967c-0.013,13.224-6.634,21.474-19.389,24.855C218.386,240.038,217.715,240.604,217,241z
	 M235.432,121.372c0-31.664,0.008-63.328-0.004-94.992c-0.004-13.729-7.985-21.806-21.564-21.808
	c-61.995-0.009-123.99-0.01-185.985,0.001C14.804,4.576,6.579,12.696,6.576,25.64C6.56,89.134,6.562,152.629,6.574,216.124
	c0.002,13.271,8.142,21.302,21.564,21.304c61.828,0.009,123.658-0.228,185.483,0.203c12.097,0.084,22.261-9.77,22.015-22.271
	C235.02,184.041,235.432,152.702,235.432,121.372z"/>
<path fill-rule="evenodd" clip-rule="evenodd" fill="#FFFFFF" d="M235.432,121.372c0,31.33-0.412,62.669,0.204,93.988
	c0.246,12.501-9.918,22.354-22.015,22.271c-61.825-0.431-123.655-0.194-185.483-0.203c-13.422-0.002-21.562-8.032-21.564-21.304
	C6.562,152.629,6.56,89.134,6.576,25.64C6.579,12.696,14.804,4.576,27.878,4.573c61.995-0.011,123.99-0.01,185.985-0.001
	c13.579,0.002,21.561,8.079,21.564,21.808C235.439,58.044,235.432,89.708,235.432,121.372z M117.309,214.516
	c0.35-1.545,0.671-2.305,0.672-3.065c0.026-21.327,0.123-42.656-0.155-63.979c-0.025-1.903-2.105-4.435-3.921-5.552
	c-9.925-6.102-20.076-11.836-30.124-17.741c-1.465-0.86-2.792-1.957-4.755-3.351c2.337-1.467,3.838-2.465,5.392-3.373
	c9.627-5.635,19.183-11.398,28.944-16.791c3.559-1.967,4.773-4.393,4.74-8.364c-0.164-19.827-0.065-39.655-0.092-59.483
	c-0.002-1.546-0.254-3.091-0.428-5.066c-1.578,0.695-2.514,1.004-3.347,1.488C89.917,43.387,65.572,57.49,41.384,71.858
	c-1.637,0.973-2.927,3.961-2.941,6.021c-0.19,28.657-0.081,57.316-0.193,85.975c-0.014,3.408,1.036,5.364,4.079,7.111
	c21.802,12.514,43.48,25.242,65.201,37.898C110.636,210.675,113.756,212.464,117.309,214.516z M120.213,121.003
	c27.653,15.69,54.087,30.689,80.97,45.942c0-31.145,0-61.113,0-91.914C174.144,90.383,147.865,105.303,120.213,121.003z
	 M181.009,62.033c-13.928-8.06-26.91-15.572-40.32-23.332c0,15.874,0,30.931,0,46.692C154.276,77.521,167.165,70.054,181.009,62.033
	z M140.77,156.661c0,15.914,0,30.944,0,46.637c13.661-7.939,26.576-15.443,40.202-23.362
	C167.094,171.9,154.213,164.444,140.77,156.661z"/>
<path fill-rule="evenodd" clip-rule="evenodd" fill="#00A971" d="M117.309,214.516c-3.552-2.052-6.672-3.841-9.779-5.651
	c-21.72-12.656-43.398-25.385-65.201-37.898c-3.043-1.747-4.093-3.703-4.079-7.111c0.113-28.658,0.003-57.317,0.193-85.975
	c0.014-2.061,1.304-5.049,2.941-6.021c24.188-14.368,48.533-28.472,72.851-42.621c0.833-0.484,1.769-0.793,3.347-1.488
	c0.173,1.976,0.425,3.521,0.428,5.066c0.026,19.828-0.072,39.656,0.092,59.483c0.033,3.972-1.182,6.397-4.74,8.364
	c-9.761,5.393-19.317,11.156-28.944,16.791c-1.553,0.908-3.054,1.906-5.392,3.373c1.963,1.394,3.29,2.49,4.755,3.351
	c10.047,5.905,20.198,11.64,30.124,17.741c1.816,1.117,3.896,3.648,3.921,5.552c0.278,21.323,0.182,42.652,0.155,63.979
	C117.979,212.211,117.658,212.971,117.309,214.516z"/>
<path fill-rule="evenodd" clip-rule="evenodd" fill="#00A971" d="M120.213,121.003c27.652-15.7,53.931-30.62,80.97-45.972
	c0,30.801,0,60.77,0,91.914C174.3,151.692,147.866,136.693,120.213,121.003z"/>
<path fill-rule="evenodd" clip-rule="evenodd" fill="#00A971" d="M181.009,62.033c-13.844,8.021-26.732,15.487-40.32,23.36
	c0-15.762,0-30.818,0-46.692C154.099,46.461,167.081,53.974,181.009,62.033z"/>
<path fill-rule="evenodd" clip-rule="evenodd" fill="#00A971" d="M140.77,156.661c13.443,7.783,26.324,15.239,40.202,23.274
	c-13.626,7.919-26.541,15.423-40.202,23.362C140.77,187.605,140.77,172.575,140.77,156.661z"/>
</svg>
