<?xml version="1.0" encoding="utf-8"?>
<!-- Generator: Adobe Illustrator 16.0.0, SVG Export Plug-In . SVG Version: 6.00 Build 0)  -->
<!DOCTYPE svg PUBLIC "-//W3C//DTD SVG 1.1//EN" "http://www.w3.org/Graphics/SVG/1.1/DTD/svg11.dtd">
<svg version="1.1" id="图层_1" xmlns="http://www.w3.org/2000/svg" xmlns:xlink="http://www.w3.org/1999/xlink" x="0px" y="0px"
	 width="240px" height="240px" viewBox="0 0 240 240" enable-background="new 0 0 240 240" xml:space="preserve">
<path fill-rule="evenodd" clip-rule="evenodd" fill="#F35045" d="M218,241c-64.667,0-129.333,0-194,0
	c-0.375-0.317-0.698-0.787-1.13-0.93c-14.205-4.665-19.492-11.914-19.494-26.825c-0.005-33.142-0.002-66.283-0.001-99.425
	c0-28.979-0.037-57.957,0.017-86.936c0.025-13.118,6.707-21.544,19.38-24.822C23.554,1.86,24.259,1.361,25,1c64,0,128,0,192,0
	c0.423,0.264,0.813,0.636,1.273,0.776c15.089,4.607,20.352,11.73,20.352,27.605c0.002,60.121,0.001,120.242,0.001,180.362
	c0,18.874-3.154,23.666-20.309,30.876C218.182,240.677,218.104,240.87,218,241z"/>
<path fill-rule="evenodd" clip-rule="evenodd" fill="#F35045" d="M150.254,108.851c-10.381-6.958-19.685-13.322-29.186-19.379
	c-1.045-0.666-3.513-0.032-4.815,0.795c-6.59,4.185-13.025,8.614-19.488,12.998c-2.518,1.707-4.963,3.521-8.071,5.735
	c10.142,6.799,19.473,13.099,28.882,19.277c0.775,0.509,2.391,0.665,3.105,0.2C130.248,122.246,139.724,115.875,150.254,108.851z"/>
<path fill-rule="evenodd" clip-rule="evenodd" fill="#F35045" d="M116.34,169.939c0.526-1.107,0.894-1.522,0.896-1.939
	c0.054-10.996,0.197-21.995-0.049-32.985c-0.035-1.576-1.674-3.506-3.091-4.595c-6.073-4.667-12.323-9.105-18.548-13.57
	c-2.067-1.482-4.255-2.794-7.633-4.995c0,6.646,0.718,12.021-0.138,17.132c-2.351,14.039,2.692,23.847,15.033,30.688
	C107.633,162.348,111.709,166.368,116.34,169.939z"/>
<path fill-rule="evenodd" clip-rule="evenodd" fill="#F35045" d="M121.544,170.729c10.021-7.932,18.775-14.746,27.339-21.795
	c1.022-0.841,1.376-2.949,1.396-4.479c0.124-9.317,0.082-18.639,0.034-27.957c-0.006-1.191-0.369-2.38-0.709-4.424
	c-9.403,6.872-18.12,13.206-26.765,19.635c-0.685,0.509-1.235,1.68-1.241,2.547C121.518,145.868,121.544,157.48,121.544,170.729z"/>
<path fill-rule="evenodd" clip-rule="evenodd" fill="#FFFFFF" d="M156.486,107.824c-1.853-1.041-3.426-1.818-4.891-2.765
	c-9.367-6.048-18.801-12.001-28.012-18.28c-3.046-2.077-5.219-2.252-8.363-0.104c-9.203,6.286-18.667,12.193-28.044,18.225
	c-1.483,0.954-3.044,1.788-5.551,3.251c0-5.396,0-9.805,0-14.212c0-7.994,0.113-15.989-0.059-23.979
	c-0.062-2.873,0.833-4.54,3.471-5.826c10.158-4.953,20.129-10.301,30.377-15.054c2.188-1.015,5.652-1.027,7.835-0.012
	c10.253,4.769,20.316,9.958,30.308,15.261c1.596,0.847,3.495,3.008,3.532,4.602c0.285,12.149,0.15,24.309,0.111,36.465
	C157.199,105.989,156.863,106.582,156.486,107.824z M150.745,97.063c0-9.146,0.174-16.953-0.154-24.739
	c-0.063-1.469-1.832-3.396-3.31-4.186c-8.195-4.382-16.484-8.606-24.893-12.564c-1.658-0.78-4.295-0.842-5.938-0.072
	c-8.721,4.085-17.303,8.478-25.842,12.938c-1.29,0.673-2.96,2.229-3,3.426c-0.265,8.063-0.138,16.137-0.138,25.097
	c2.282-1.326,3.695-2.077,5.037-2.939c7.269-4.672,14.669-9.16,21.715-14.149c3.678-2.605,6.402-2.68,10.15-0.046
	C132.622,85.621,141.235,90.897,150.745,97.063z"/>
<path fill-rule="evenodd" clip-rule="evenodd" fill="#FFFFFF" d="M150.254,108.851c-10.53,7.024-20.006,13.396-29.572,19.627
	c-0.714,0.465-2.33,0.309-3.105-0.2c-9.41-6.179-18.74-12.479-28.882-19.277c3.108-2.215,5.554-4.028,8.071-5.735
	c6.462-4.384,12.898-8.813,19.488-12.998c1.302-0.827,3.77-1.461,4.815-0.795C130.569,95.528,139.873,101.893,150.254,108.851z"/>
<path fill-rule="evenodd" clip-rule="evenodd" fill="#FFFFFF" d="M123.917,173.465c7.345-5.588,13.403-11.145,20.331-15.225
	c8.519-5.018,11.509-11.574,10.487-21.241c-0.83-7.863-0.169-15.885-0.169-24.477c1.848,0.679,3.102,0.97,4.187,1.564
	c10.926,5.992,21.791,12.093,32.752,18.019c2.672,1.444,3.778,3.275,3.734,6.33c-0.142,9.811,0.149,19.633-0.204,29.433
	c-0.081,2.246-1.518,5.159-3.288,6.505c-7.936,6.031-16.158,11.693-24.429,17.265c-1.434,0.965-4.03,1.737-5.355,1.091
	C149.591,186.7,137.38,180.343,123.917,173.465z M160.373,122.096c0,9.863,0.219,18.65-0.15,27.413
	c-0.094,2.242-1.503,5.061-3.235,6.492c-6.758,5.587-13.889,10.724-21.414,16.432c9.173,4.678,17.703,9.118,26.353,13.316
	c1,0.485,2.925,0.021,3.962-0.682c6.892-4.669,13.741-9.412,20.396-14.409c1.354-1.017,2.524-3.191,2.579-4.872
	c0.265-8.155,0.233-16.325,0.021-24.483c-0.04-1.554-0.951-3.781-2.167-4.495C178.409,131.927,169.912,127.368,160.373,122.096z"/>
<path fill-rule="evenodd" clip-rule="evenodd" fill="#FFFFFF" d="M84.269,112.47c0,2.447,0,4.516,0,6.585
	c0,6.158,0.665,12.406-0.151,18.454c-1.32,9.789,2.234,16.157,10.64,21.12c6.649,3.925,12.489,9.219,19.422,14.461
	c-3.204,1.978-5.627,3.563-8.132,5.002c-7.928,4.558-15.942,8.968-23.807,13.632c-2.938,1.742-5.234,1.861-8.126-0.282
	c-7.75-5.741-15.875-10.984-23.534-16.84c-1.897-1.45-3.569-4.434-3.666-6.782c-0.405-9.804-0.295-19.636-0.059-29.45
	c0.045-1.863,1.005-4.495,2.423-5.408c10.622-6.846,21.459-13.357,32.251-19.936C82.038,112.716,82.761,112.761,84.269,112.47z
	 M77.763,122.595c-8.233,5.066-15.616,9.479-22.812,14.179c-1.091,0.712-1.819,2.748-1.849,4.188
	c-0.172,8.31-0.2,16.628,0.021,24.936c0.042,1.556,1.037,3.607,2.267,4.525c6.79,5.067,13.758,9.899,20.753,14.682
	c0.928,0.635,2.682,1.127,3.51,0.68c7.668-4.144,15.217-8.507,23.494-13.199c-7.614-5.774-14.368-11.12-21.375-16.108
	c-3.064-2.182-4.196-4.643-4.085-8.352C77.931,139.998,77.763,131.859,77.763,122.595z"/>
<path fill-rule="evenodd" clip-rule="evenodd" fill="#FFFFFF" d="M116.34,169.939c-4.63-3.571-8.707-7.592-13.53-10.266
	c-12.341-6.841-17.384-16.648-15.033-30.688c0.856-5.111,0.138-10.485,0.138-17.132c3.378,2.201,5.566,3.513,7.633,4.995
	c6.226,4.465,12.475,8.903,18.548,13.57c1.417,1.089,3.056,3.019,3.091,4.595c0.246,10.99,0.103,21.989,0.049,32.985
	C117.233,168.417,116.866,168.832,116.34,169.939z"/>
<path fill-rule="evenodd" clip-rule="evenodd" fill="#FFFFFF" d="M121.544,170.729c0-13.249-0.026-24.861,0.055-36.473
	c0.006-0.867,0.557-2.038,1.241-2.547c8.645-6.429,17.361-12.763,26.765-19.635c0.34,2.044,0.703,3.232,0.709,4.424
	c0.048,9.318,0.09,18.64-0.034,27.957c-0.021,1.529-0.374,3.638-1.396,4.479C140.319,155.983,131.564,162.798,121.544,170.729z"/>
</svg>
