<?xml version="1.0" encoding="utf-8"?>
<!-- Generator: Adobe Illustrator 16.0.0, SVG Export Plug-In . SVG Version: 6.00 Build 0)  -->
<!DOCTYPE svg PUBLIC "-//W3C//DTD SVG 1.1//EN" "http://www.w3.org/Graphics/SVG/1.1/DTD/svg11.dtd">
<svg version="1.1" id="图层_1" xmlns="http://www.w3.org/2000/svg" xmlns:xlink="http://www.w3.org/1999/xlink" x="0px" y="0px"
	 width="240px" height="240px" viewBox="0 0 240 240" enable-background="new 0 0 240 240" xml:space="preserve">
<path fill="#FFD133" d="M238,216c0,13.255-10.745,24-24,24H26c-13.255,0-24-10.745-24-24V24C2,10.745,12.745,0,26,0h188
	c13.255,0,24,10.745,24,24V216z"/>
<g>
	<path fill="#333333" d="M40.373,61.47h27.332c5.953,0,10.411,1.416,13.375,4.247c2.964,2.832,4.446,6.86,4.446,12.087
		c0,5.372-1.615,9.57-4.846,12.595s-8.161,4.537-14.791,4.537h-9.002v19.746H40.373V61.47z M56.888,84.156h4.029
		c3.169,0,5.396-0.55,6.679-1.652c1.282-1.101,1.923-2.51,1.923-4.229c0-1.669-0.557-3.085-1.669-4.247
		c-1.113-1.162-3.207-1.743-6.279-1.743h-4.683V84.156z"/>
	<path fill="#333333" d="M94.202,61.47h16.443V80.09h17.967V61.47h16.516v53.212h-16.516V93.157h-17.967v21.524H94.202V61.47z"/>
	<path fill="#333333" d="M155.98,61.47h27.332c5.952,0,10.411,1.416,13.375,4.247c2.964,2.832,4.446,6.86,4.446,12.087
		c0,5.372-1.614,9.57-4.845,12.595s-8.162,4.537-14.792,4.537h-9.001v19.746H155.98V61.47z M172.496,84.156h4.028
		c3.17,0,5.396-0.55,6.679-1.652c1.282-1.101,1.924-2.51,1.924-4.229c0-1.669-0.557-3.085-1.67-4.247
		c-1.113-1.162-3.206-1.743-6.279-1.743h-4.682V84.156z"/>
</g>
<g>
	<path fill="#333333" d="M44.415,192.542V161.46h13.781c2.771,0,4.876,0.279,6.318,0.838c1.441,0.559,2.593,1.544,3.456,2.958
		c0.862,1.413,1.293,2.976,1.293,4.686c0,2.205-0.714,4.063-2.141,5.575c-1.428,1.513-3.633,2.474-6.615,2.884
		c1.088,0.523,1.915,1.039,2.481,1.548c1.201,1.103,2.339,2.48,3.413,4.135l5.407,8.459h-5.173l-4.113-6.467
		c-1.202-1.865-2.191-3.293-2.968-4.282s-1.473-1.682-2.088-2.078c-0.615-0.396-1.24-0.671-1.876-0.827
		c-0.467-0.099-1.23-0.148-2.29-0.148h-4.771v13.803H44.415z M48.528,175.178h8.841c1.879,0,3.35-0.194,4.41-0.583
		c1.06-0.389,1.866-1.011,2.417-1.865c0.551-0.855,0.827-1.784,0.827-2.788c0-1.471-0.534-2.679-1.601-3.626
		c-1.067-0.946-2.753-1.42-5.057-1.42h-9.838V175.178z"/>
	<path fill="#333333" d="M89.978,192.542v-3.308c-1.753,2.544-4.134,3.816-7.145,3.816c-1.329,0-2.569-0.254-3.721-0.764
		c-1.152-0.509-2.007-1.147-2.565-1.918c-0.559-0.771-0.951-1.714-1.177-2.831c-0.156-0.749-0.233-1.936-0.233-3.562v-13.951h3.816
		v12.488c0,1.993,0.078,3.336,0.233,4.028c0.24,1.004,0.749,1.791,1.526,2.364c0.777,0.572,1.738,0.858,2.883,0.858
		s2.219-0.293,3.223-0.88c1.003-0.586,1.714-1.385,2.131-2.396c0.417-1.011,0.625-2.478,0.625-4.399v-12.064h3.816v22.517H89.978z"
		/>
	<path fill="#333333" d="M99.37,192.542v-22.517h3.435v3.202c1.654-2.474,4.042-3.711,7.166-3.711c1.357,0,2.604,0.244,3.742,0.731
		c1.138,0.488,1.989,1.128,2.555,1.919c0.565,0.792,0.961,1.731,1.188,2.82c0.141,0.707,0.212,1.943,0.212,3.71v13.845h-3.816
		v-13.696c0-1.555-0.148-2.717-0.445-3.487c-0.296-0.771-0.823-1.386-1.579-1.845c-0.756-0.459-1.643-0.689-2.661-0.689
		c-1.625,0-3.028,0.517-4.208,1.548c-1.18,1.032-1.77,2.989-1.77,5.873v12.297H99.37z"/>
	<path fill="#333333" d="M131.851,189.129l0.552,3.371c-1.075,0.226-2.036,0.339-2.884,0.339c-1.386,0-2.459-0.22-3.223-0.657
		c-0.764-0.438-1.301-1.014-1.611-1.728c-0.312-0.714-0.467-2.216-0.467-4.506v-12.954h-2.798v-2.969h2.798v-5.575l3.796-2.29v7.865
		h3.837v2.969h-3.837v13.166c0,1.089,0.066,1.788,0.201,2.099c0.134,0.312,0.353,0.559,0.657,0.742
		c0.304,0.185,0.738,0.276,1.304,0.276C130.6,189.277,131.158,189.228,131.851,189.129z"/>
	<path fill="#333333" d="M135.604,165.85v-4.39h3.816v4.39H135.604z M135.604,192.542v-22.517h3.816v22.517H135.604z"/>
	<path fill="#333333" d="M145.229,192.542v-22.517h3.413v3.159c0.707-1.103,1.646-1.989,2.82-2.66
		c1.173-0.672,2.509-1.008,4.007-1.008c1.668,0,3.035,0.347,4.103,1.039c1.067,0.693,1.819,1.661,2.258,2.905
		c1.781-2.63,4.099-3.944,6.954-3.944c2.233,0,3.951,0.619,5.152,1.855c1.201,1.237,1.802,3.142,1.802,5.714v15.456h-3.795v-14.184
		c0-1.526-0.124-2.626-0.371-3.297c-0.247-0.672-0.696-1.212-1.346-1.622c-0.65-0.41-1.414-0.615-2.29-0.615
		c-1.583,0-2.897,0.527-3.943,1.58c-1.047,1.053-1.569,2.738-1.569,5.057v13.081h-3.816v-14.629c0-1.696-0.311-2.969-0.933-3.816
		c-0.622-0.849-1.64-1.272-3.053-1.272c-1.074,0-2.067,0.283-2.979,0.849c-0.911,0.565-1.572,1.392-1.982,2.48
		s-0.614,2.657-0.614,4.707v11.682H145.229z"/>
	<path fill="#333333" d="M196.812,185.291l3.944,0.487c-0.623,2.305-1.774,4.092-3.456,5.364c-1.683,1.272-3.831,1.908-6.445,1.908
		c-3.294,0-5.905-1.014-7.834-3.042c-1.93-2.028-2.895-4.873-2.895-8.534c0-3.788,0.976-6.728,2.926-8.819
		c1.951-2.092,4.48-3.139,7.591-3.139c3.011,0,5.47,1.025,7.378,3.074c1.908,2.05,2.862,4.934,2.862,8.65
		c0,0.227-0.008,0.565-0.021,1.018h-16.792c0.142,2.474,0.841,4.368,2.1,5.683c1.258,1.314,2.826,1.972,4.706,1.972
		c1.399,0,2.594-0.367,3.584-1.103C195.447,188.076,196.232,186.902,196.812,185.291z M184.282,179.121h12.572
		c-0.17-1.894-0.65-3.314-1.441-4.262c-1.216-1.47-2.792-2.204-4.729-2.204c-1.753,0-3.227,0.586-4.421,1.76
		C185.069,175.588,184.409,177.157,184.282,179.121z"/>
</g>
<rect x="35.001" y="143" fill="#333333" width="168.999" height="7"/>
</svg>
