<?xml version="1.0" encoding="utf-8"?>
<!-- Generator: Adobe Illustrator 16.0.0, SVG Export Plug-In . SVG Version: 6.00 Build 0)  -->
<!DOCTYPE svg PUBLIC "-//W3C//DTD SVG 1.1//EN" "http://www.w3.org/Graphics/SVG/1.1/DTD/svg11.dtd">
<svg version="1.1" id="图层_1" xmlns="http://www.w3.org/2000/svg" xmlns:xlink="http://www.w3.org/1999/xlink" x="0px" y="0px"
	 width="240px" height="240px" viewBox="0 0 240 240" enable-background="new 0 0 240 240" xml:space="preserve">
<g>
	<path fill-rule="evenodd" clip-rule="evenodd" fill="#FFFFFF" d="M26,238c-12.131,0-22-9.869-22-22V24C4,11.869,13.869,2,26,2h188
		c12.131,0,22,9.869,22,22v192c0,12.131-9.869,22-22,22H26z"/>
	<path fill="#5CAF91" d="M214,4c11.028,0,20,8.972,20,20v192c0,11.028-8.972,20-20,20H26c-11.028,0-20-8.972-20-20V24
		C6,12.972,14.972,4,26,4H214 M214,0H26C12.745,0,2,10.745,2,24v192c0,13.255,10.745,24,24,24h188c13.255,0,24-10.745,24-24V24
		C238,10.745,227.255,0,214,0L214,0z"/>
</g>
<path fill-rule="evenodd" clip-rule="evenodd" fill="#00923F" d="M113.94,71.056c-1.905-0.788-3.993-1.298-5.685-2.411
	c-9.146-6.019-18.01-12.487-27.34-18.198c-6.176-3.78-12.133-3.385-14.806-0.258c-2.595,3.037-1.734,8.008,2.461,14.142
	c0.081,0.117,0.267,0.162,0.842,0.493c-0.656-1.541-1.244-2.684-1.637-3.891c-1.106-3.403-3.382-7.028-0.286-10.282
	c3.19-3.353,7.125-1.484,10.783-0.528c0.634,0.166,1.28,0.437,1.815,0.81c9.772,6.808,19.527,13.638,29.286,20.463
	c0.11,0.619,0.22,1.239,0.329,1.858c-1.304,0.537-2.608,1.075-3.912,1.612c1.455,0.586,2.319,0.342,3.067,0.538
	c1.426,0.375,2.786,1.002,4.173,1.523c0.799,1.809,1.618,3.609,2.394,5.427c2.212,5.178,1.05,6.891-4.694,6.942
	c-1.332,0.012-2.664,0.001-5.033,0.001c3.532,2.709,6.636,4.322,8.604,6.825c1.818,2.313,3.74,5.433,0.749,9.373
	c-8.017-5.299-15.987-10.637-24.048-15.834c-1.521-0.981-3.4-1.407-5.114-2.09c-0.154,0.479-0.308,0.959-0.461,1.438
	c11.712,7.686,23.425,15.371,35.287,23.154c-0.374-4.348-0.739-8.603-1.089-12.673c2.138-0.922,3.755-1.62,5.676-2.448
	c1.455,4.255,2.834,8.293,4.574,13.384c8.885-13.21,17.084-25.404,25.549-37.991c-2.014-2.935-3.632-0.325-5.124,1.942
	c-4.838,7.349-9.576,14.762-14.413,22.111c-1.117,1.7-2.472,3.245-4.084,5.335c-2.438-5.23-3.843-9.316,1.334-12.834
	c1.399-0.951,2.363-2.799,3.087-4.432c1.579-3.56,0.004-6.515-2.479-8.984c-2.311-2.296-4.965-3.385-7.963-1.022
	c9.094-24.86,27.025-36.664,53.361-36.451c-3.959-0.435-7.928-0.778-11.821-0.374c-15.853,1.646-27.535,10.469-36.433,22.913
	c-4.316,6.039-8.105,11.485-16.555,10.128C114.221,70.749,114.072,70.954,113.94,71.056z"/>
<path fill-rule="evenodd" clip-rule="evenodd" fill="#034C31" d="M48.859,174.618c0-5.184-0.032-10.143,0.008-15.102
	c0.053-6.613,1.726-9.465,5.528-9.579c3.782-0.113,5.496,2.737,5.568,9.463c0.054,5.096,0.011,10.191,0.011,15.498
	c2.407-0.106,4.012-0.177,6.115-0.269c0-2.272-0.077-4.235,0.015-6.191c0.225-4.809,0.185-9.673,0.991-14.388
	c0.267-1.564,2.63-3.495,4.333-3.859c1.35-0.287,3.656,1.207,4.618,2.563c0.94,1.325,0.927,3.472,0.963,5.266
	c0.109,5.459,0.04,10.922,0.04,16.604c2.262,0,4.032,0,5.995,0c0-7.374,0.502-14.69-0.139-21.906
	c-0.667-7.5-8.483-10.839-14.943-6.932c-1.224,0.74-2.326,1.681-3.416,2.479c-5.944-4.865-6.834-4.965-13.564-1.976
	c-0.576,0.256-1.381,0.188-2.032,0.05c-2.01-0.429-3.999-0.966-6.248-1.523c0,10.55,0,20.134,0,29.803
	C44.803,174.618,46.573,174.618,48.859,174.618z"/>
<path fill-rule="evenodd" clip-rule="evenodd" fill="#034C31" d="M118.559,175.559c0-10.854,0-20.443,0-31.022
	c-2.818,0.798-5.12,1.45-8.417,2.384c-6.688-4.045-13-3.595-17.877,2.143c-4.845,5.699-4.859,16.029-0.029,21.785
	c4.8,5.72,11.071,6.249,18.136,2.243C113.417,174.008,115.629,174.675,118.559,175.559z"/>
<path fill-rule="evenodd" clip-rule="evenodd" fill="#034C31" d="M150.76,174.728c0-7.223,0.41-14.048-0.104-20.803
	c-0.63-8.246-7.707-11.899-15.232-8.427c-1.054,0.486-2.308,1.087-3.358,0.923c-2.061-0.322-4.043-1.146-6.48-1.891
	c0,10.66,0,20.368,0,30.094c2.156,0,3.937,0,6.28,0c0-5.675-0.337-11.16,0.148-16.571c0.228-2.532,1.402-5.732,3.271-7.207
	c3.797-2.996,8.566-0.406,8.792,4.584c0.289,6.389,0.07,12.801,0.07,19.298C146.821,174.728,148.471,174.728,150.76,174.728z"/>
<path fill-rule="evenodd" clip-rule="evenodd" fill="#034C31" d="M200.939,151.164c0.092-0.656,0.183-1.313,0.273-1.971
	c-2.171-3.885-5.426-5.669-9.9-4.721c-4.297,0.911-6.632,3.904-6.959,8.061c-0.35,4.442,2.592,6.889,6.374,8.518
	c1.367,0.589,3.122,1.023,3.881,2.104c1.065,1.519,1.367,3.573,1.995,5.398c-2.07,0.15-5.094,1.237-6.036,0.279
	c-3.024-3.076-5.036-1.659-7.574,0.34c0.79,1.191,1.289,2.292,2.089,3.091c3.354,3.346,7.309,4.329,11.861,2.794
	c4.081-1.375,6.285-4.354,6.719-8.448c0.498-4.706-2.504-7.248-6.381-9.055c-1.799-0.84-3.766-1.528-5.241-2.775
	c-0.838-0.708-0.835-2.409-1.21-3.663c1.182-0.234,2.372-0.697,3.544-0.654C196.568,150.541,198.751,150.913,200.939,151.164z"/>
<path fill-rule="evenodd" clip-rule="evenodd" fill="#00923F" d="M155.456,79.432c-0.426-0.228-0.852-0.456-1.276-0.684
	c-1.635,5.425-3.269,10.851-4.99,16.569c-2.088-0.952-3.502-1.597-5.02-2.29c-6.416,9.625-7.677,20.306-8.658,31.747
	c8.181-8.501,15.889-16.608,20.477-27.676c-4.534,0.52-4.882-1.38-3.823-4.736C153.501,88.127,154.38,83.749,155.456,79.432z"/>
<path fill-rule="evenodd" clip-rule="evenodd" fill="#034C31" d="M169.334,145.546c-2.051-0.386-3.593-0.676-5.514-1.037
	c0-3.556,0-6.81,0-10.123c-2.179,0-3.899,0-5.675,0c-1.083,4.294,1.262,9.153-3.164,12.396c-0.496,0.363,0.27,2.698,0.713,4.031
	c0.557,1.674,1.935,3.236,1.999,4.885c0.242,6.246,0.098,12.507,0.098,18.815c2.382,0,4.094,0,6.306,0c0-7.896,0-15.47,0-23.104
	c2.036-0.349,3.594-0.614,5.237-0.896C169.334,148.735,169.334,147.287,169.334,145.546z"/>
<path fill-rule="evenodd" clip-rule="evenodd" fill="#00923F" d="M102.614,101.949c-1.706,1.45-2.791,2.372-4.319,3.671
	c-3.165-3.709-6.16-7.221-9.155-10.732c0.797,3.108,2.352,5.605,4.191,7.87c1.996,2.46,4.917,4.579-0.059,8.715
	c9.538,5.271,18.207,10.06,26.875,14.851c0.374-0.497,0.748-0.995,1.123-1.492c-2.863-3.203-7.346-6.016-8.229-9.694
	C111.504,108.733,106.132,106.652,102.614,101.949z"/>
<path fill-rule="evenodd" clip-rule="evenodd" fill="#034C31" d="M177.656,174.654c0-10.14,0-19.695,0-29.543
	c-2.085,0.099-3.805,0.181-5.452,0.258c0,10.094,0,19.639,0,29.285C174.203,174.654,175.806,174.654,177.656,174.654z"/>
<path fill-rule="evenodd" clip-rule="evenodd" fill="#034C31" d="M174.856,138.204c2.007-2.819,4.064-4.445,3.922-5.851
	c-0.154-1.527-2.354-2.848-3.66-4.258c-1.38,1.333-3.655,2.533-3.88,4.04C171.027,133.542,172.995,135.273,174.856,138.204z"/>
<path fill-rule="evenodd" clip-rule="evenodd" fill="#00923F" d="M109.67,79.75c-0.946,0.162-1.892,0.323-2.838,0.485
	c0.365,2.137,0.664,4.29,1.202,6.382c0.05,0.194,1.618-0.002,2.48-0.017C110.232,84.318,109.952,82.035,109.67,79.75z"/>
<path fill-rule="evenodd" clip-rule="evenodd" fill="#034C31" d="M48.859,174.618c-2.286,0-4.057,0-6.157,0
	c0-9.669,0-19.253,0-29.803c2.25,0.558,4.238,1.095,6.248,1.523c0.651,0.139,1.456,0.206,2.032-0.05
	c6.73-2.989,7.621-2.89,13.564,1.976c1.09-0.798,2.192-1.738,3.416-2.479c6.459-3.907,14.276-0.568,14.943,6.932
	c0.641,7.216,0.139,14.532,0.139,21.906c-1.963,0-3.733,0-5.995,0c0-5.682,0.07-11.145-0.04-16.604
	c-0.036-1.794-0.023-3.94-0.963-5.266c-0.962-1.356-3.268-2.851-4.618-2.563c-1.704,0.364-4.066,2.295-4.333,3.859
	c-0.807,4.715-0.766,9.579-0.991,14.388c-0.091,1.956-0.015,3.919-0.015,6.191c-2.104,0.092-3.708,0.162-6.115,0.269
	c0-5.307,0.043-10.402-0.011-15.498c-0.072-6.726-1.786-9.576-5.568-9.463c-3.802,0.114-5.475,2.966-5.528,9.579
	C48.828,164.476,48.859,169.435,48.859,174.618z"/>
<path fill-rule="evenodd" clip-rule="evenodd" fill="#00923F" d="M125.782,74.551c2.998-2.363,5.652-1.274,7.963,1.022
	c2.482,2.47,4.058,5.424,2.479,8.984c-0.724,1.633-1.688,3.481-3.087,4.432c-5.177,3.518-3.772,7.604-1.334,12.834
	c1.612-2.091,2.967-3.635,4.084-5.335c4.837-7.35,9.575-14.763,14.413-22.111c1.492-2.268,3.11-4.877,5.124-1.942
	c-8.465,12.587-16.664,24.781-25.549,37.991c-1.74-5.091-3.119-9.128-4.574-13.384c-1.921,0.828-3.538,1.526-5.676,2.448
	c0.35,4.071,0.715,8.325,1.089,12.673c-11.862-7.783-23.575-15.469-35.287-23.154c0.154-0.479,0.308-0.958,0.461-1.438
	c1.714,0.683,3.593,1.108,5.114,2.09c8.061,5.197,16.031,10.535,24.048,15.834c2.991-3.94,1.069-7.06-0.749-9.373
	c-1.968-2.503-5.072-4.116-8.604-6.825c2.37,0,3.702,0.011,5.033-0.001c5.745-0.052,6.906-1.765,4.694-6.942
	c-0.776-1.818-1.595-3.619-2.394-5.427l-0.128,0.099c5.241,3.742,6.898,3.667,10.857-0.446c0.559-0.581,1.209-1.075,1.817-1.609
	C125.709,74.705,125.777,74.565,125.782,74.551z M124.474,89.103c6.779,0.122,10.748-3.195,10.616-7.501
	c-0.111-3.676-2.199-5.94-5.838-6.259c-3.358-0.294-8.373,5.675-7.959,10.105C121.446,87.097,123.938,88.529,124.474,89.103z"/>
<path fill-rule="evenodd" clip-rule="evenodd" fill="#034C31" d="M118.559,175.559c-2.93-0.884-5.142-1.551-8.187-2.468
	c-7.064,4.006-13.336,3.477-18.136-2.243c-4.83-5.756-4.816-16.086,0.029-21.785c4.878-5.737,11.19-6.188,17.877-2.143
	c3.296-0.934,5.598-1.586,8.417-2.384C118.559,155.115,118.559,164.704,118.559,175.559z M95.08,159.727
	c-0.093,5.762,3.533,10.162,8.505,10.325c5.362,0.175,9.299-4.085,9.296-10.059c-0.003-5.787-3.666-9.986-8.78-10.065
	C99,149.849,95.172,154.007,95.08,159.727z"/>
<path fill-rule="evenodd" clip-rule="evenodd" fill="#034C31" d="M150.76,174.728c-2.289,0-3.938,0-6.614,0
	c0-6.497,0.219-12.909-0.07-19.298c-0.226-4.99-4.995-7.58-8.792-4.584c-1.868,1.475-3.043,4.675-3.271,7.207
	c-0.485,5.411-0.148,10.896-0.148,16.571c-2.344,0-4.124,0-6.28,0c0-9.726,0-19.434,0-30.094c2.438,0.745,4.42,1.568,6.48,1.891
	c1.051,0.164,2.305-0.437,3.358-0.923c7.525-3.473,14.603,0.181,15.232,8.427C151.17,160.68,150.76,167.505,150.76,174.728z"/>
<path fill-rule="evenodd" clip-rule="evenodd" fill="#034C31" d="M200.939,151.164c-2.188-0.251-4.371-0.623-6.565-0.703
	c-1.172-0.043-2.362,0.42-3.544,0.654c0.375,1.254,0.372,2.955,1.21,3.663c1.476,1.247,3.442,1.936,5.241,2.775
	c3.877,1.807,6.879,4.349,6.381,9.055c-0.434,4.095-2.638,7.073-6.719,8.448c-4.553,1.535-8.508,0.552-11.861-2.794
	c-0.8-0.799-1.299-1.899-2.089-3.091c2.538-1.999,4.55-3.416,7.574-0.34c0.942,0.958,3.966-0.129,6.036-0.279
	c-0.628-1.825-0.93-3.88-1.995-5.398c-0.759-1.08-2.514-1.515-3.881-2.104c-3.782-1.629-6.724-4.075-6.374-8.518
	c0.327-4.156,2.662-7.149,6.959-8.061c4.475-0.948,7.729,0.836,9.9,4.721C201.122,149.851,201.031,150.508,200.939,151.164z"/>
<path fill-rule="evenodd" clip-rule="evenodd" fill="#00923F" d="M155.456,79.432c-1.076,4.317-1.955,8.695-3.291,12.93
	c-1.059,3.356-0.711,5.255,3.823,4.736c-4.588,11.068-12.296,19.175-20.477,27.676c0.981-11.441,2.242-22.123,8.658-31.747
	c1.518,0.692,2.932,1.338,5.02,2.29c1.722-5.718,3.355-11.144,4.99-16.569C154.604,78.977,155.03,79.204,155.456,79.432z"/>
<path fill-rule="evenodd" clip-rule="evenodd" fill="#034C31" d="M169.334,145.546c0,1.741,0,3.189,0,4.966
	c-1.644,0.282-3.201,0.548-5.237,0.896c0,7.635,0,15.209,0,23.104c-2.212,0-3.924,0-6.306,0c0-6.309,0.145-12.569-0.098-18.815
	c-0.064-1.648-1.442-3.211-1.999-4.885c-0.443-1.333-1.209-3.668-0.713-4.031c4.426-3.242,2.081-8.102,3.164-12.396
	c1.775,0,3.496,0,5.675,0c0,3.313,0,6.567,0,10.123C165.741,144.87,167.283,145.16,169.334,145.546z"/>
<path fill-rule="evenodd" clip-rule="evenodd" fill="#00923F" d="M102.614,101.949c3.518,4.703,8.89,6.784,10.428,13.188
	c0.883,3.678,5.366,6.491,8.229,9.694c-0.375,0.497-0.749,0.995-1.123,1.492c-8.668-4.791-17.337-9.58-26.875-14.851
	c4.977-4.136,2.055-6.255,0.059-8.715c-1.839-2.265-3.394-4.762-4.191-7.87c2.995,3.512,5.99,7.023,9.155,10.732
	C99.823,104.321,100.909,103.399,102.614,101.949z"/>
<path fill-rule="evenodd" clip-rule="evenodd" fill="#034C31" d="M177.656,174.654c-1.851,0-3.453,0-5.452,0
	c0-9.646,0-19.191,0-29.285c1.647-0.077,3.367-0.159,5.452-0.258C177.656,154.959,177.656,164.515,177.656,174.654z"/>
<path fill-rule="evenodd" clip-rule="evenodd" fill="#00923F" d="M113.031,76.927c-1.388-0.521-2.748-1.148-4.173-1.523
	c-0.748-0.196-1.612,0.049-3.067-0.538c1.304-0.537,2.608-1.075,3.912-1.612c-0.109-0.619-0.219-1.239-0.329-1.858
	C99.615,64.57,89.859,57.74,80.087,50.932c-0.535-0.373-1.181-0.644-1.815-0.81c-3.658-0.956-7.593-2.825-10.783,0.528
	c-3.096,3.253-0.82,6.879,0.286,10.282c0.393,1.207,0.981,2.351,1.637,3.891c-0.575-0.331-0.761-0.376-0.842-0.493
	c-4.195-6.134-5.057-11.105-2.461-14.142c2.672-3.127,8.629-3.522,14.806,0.258c9.33,5.711,18.194,12.179,27.34,18.198
	c1.691,1.113,3.779,1.623,5.685,2.411c0,0-0.048-0.137-0.048-0.137c1.765,2.375,0.772,4.303-0.989,6.106L113.031,76.927z"/>
<path fill-rule="evenodd" clip-rule="evenodd" fill="#00923F" d="M125.782,74.551c-0.005,0.014-0.073,0.153-0.205,0.419
	c-3.713-1.879-6.803-5.551-11.685-4.051c0,0,0.048,0.137,0.048,0.137c0.132-0.102,0.281-0.307,0.395-0.288
	c8.449,1.357,12.238-4.089,16.555-10.128c8.897-12.444,20.58-21.267,36.433-22.913c3.894-0.404,7.862-0.061,11.821,0.374
	C152.808,37.888,134.876,49.691,125.782,74.551z"/>
<path fill-rule="evenodd" clip-rule="evenodd" fill="#034C31" d="M174.856,138.204c-1.861-2.931-3.829-4.662-3.618-6.068
	c0.225-1.507,2.5-2.707,3.88-4.04c1.307,1.41,3.506,2.73,3.66,4.258C178.921,133.759,176.863,135.385,174.856,138.204z"/>
<path fill-rule="evenodd" clip-rule="evenodd" d="M109.67,79.75c0.281,2.284,0.562,4.568,0.843,6.851
	c-0.862,0.015-2.43,0.211-2.48,0.017c-0.538-2.093-0.837-4.246-1.202-6.382C107.778,80.074,108.725,79.913,109.67,79.75z"/>
<path fill-rule="evenodd" clip-rule="evenodd" fill="#FFFFFF" d="M124.474,89.103c-0.535-0.574-3.027-2.006-3.181-3.655
	c-0.414-4.43,4.601-10.399,7.959-10.105c3.639,0.319,5.727,2.583,5.838,6.259C135.222,85.908,131.253,89.225,124.474,89.103z
	 M130.448,79.963c-0.831-0.133-1.661-0.265-2.492-0.397c-0.337,2.286-0.674,4.572-1.012,6.858c0.847,0.072,2.416,0.294,2.438,0.193
	C129.841,84.42,130.128,82.188,130.448,79.963z"/>
<path fill-rule="evenodd" clip-rule="evenodd" fill="#00923F" d="M113.892,70.919c4.882-1.5,7.972,2.172,11.685,4.051
	c-0.608,0.534-1.259,1.028-1.817,1.609c-3.959,4.113-5.616,4.188-10.857,0.446C114.665,75.222,115.657,73.293,113.892,70.919z"/>
<path fill-rule="evenodd" clip-rule="evenodd" fill="#FFFFFF" d="M95.08,159.727c0.093-5.72,3.92-9.878,9.021-9.799
	c5.114,0.079,8.777,4.278,8.78,10.065c0.003,5.974-3.934,10.233-9.296,10.059C98.612,169.889,94.986,165.488,95.08,159.727z"/>
<path fill-rule="evenodd" clip-rule="evenodd" d="M130.448,79.963c-0.32,2.225-0.607,4.457-1.066,6.654
	c-0.021,0.101-1.591-0.121-2.438-0.193c0.338-2.286,0.675-4.572,1.012-6.858C128.787,79.699,129.617,79.831,130.448,79.963z"/>
<g>
	<path fill="#5B5857" d="M42.348,192.878v-11.531h4.198c1.287,0,2.275,0.236,2.967,0.708c0.691,0.472,1.037,1.136,1.037,1.994
		c0,0.622-0.21,1.166-0.631,1.632c-0.421,0.467-0.958,0.791-1.612,0.974v0.032c0.82,0.102,1.476,0.404,1.966,0.908
		c0.49,0.504,0.736,1.118,0.736,1.842c0,1.056-0.378,1.894-1.134,2.513s-1.788,0.929-3.096,0.929H42.348z M44.945,183.261v2.733
		h1.142c0.536,0,0.958-0.13,1.267-0.39c0.308-0.26,0.462-0.618,0.462-1.073c0-0.848-0.633-1.271-1.898-1.271H44.945z
		 M44.945,187.925v3.039h1.407c0.601,0,1.071-0.139,1.412-0.418c0.34-0.278,0.51-0.659,0.51-1.142c0-0.461-0.167-0.823-0.502-1.086
		s-0.803-0.394-1.403-0.394H44.945z"/>
	<path fill="#5B5857" d="M66.424,187.884c0,3.464-1.614,5.195-4.841,5.195c-3.131,0-4.696-1.691-4.696-5.074v-6.658h2.605v6.69
		c0,1.865,0.729,2.798,2.187,2.798c1.432,0,2.147-0.9,2.147-2.701v-6.787h2.598V187.884z"/>
	<path fill="#5B5857" d="M82.515,192.106c-1.126,0.648-2.525,0.973-4.198,0.973c-1.855,0-3.317-0.514-4.387-1.54
		c-1.069-1.026-1.604-2.44-1.604-4.242c0-1.812,0.584-3.289,1.753-4.431c1.168-1.142,2.723-1.713,4.664-1.713
		c1.222,0,2.3,0.169,3.232,0.507v2.437c-0.89-0.515-1.978-0.771-3.265-0.771c-1.078,0-1.956,0.35-2.634,1.049
		c-0.678,0.7-1.017,1.634-1.017,2.803c0,1.185,0.304,2.102,0.913,2.75s1.43,0.973,2.465,0.973c0.622,0,1.115-0.088,1.479-0.265
		v-2.252H77.61v-2.074h4.905V192.106z"/>
	<path fill="#5B5857" d="M114.294,183.462h-3.289v9.416H108.4v-9.416h-3.272v-2.115h9.167V183.462z"/>
	<path fill="#5B5857" d="M129.638,192.878h-2.983l-1.794-2.967c-0.134-0.226-0.263-0.427-0.386-0.604s-0.248-0.328-0.374-0.454
		s-0.257-0.223-0.394-0.29c-0.137-0.066-0.286-0.101-0.446-0.101h-0.7v4.415h-2.597v-11.531h4.118c2.798,0,4.197,1.045,4.197,3.136
		c0,0.402-0.062,0.773-0.185,1.114c-0.124,0.34-0.298,0.647-0.523,0.921c-0.225,0.273-0.497,0.509-0.815,0.707
		c-0.319,0.198-0.675,0.354-1.065,0.467v0.032c0.171,0.054,0.337,0.141,0.498,0.261c0.161,0.121,0.316,0.262,0.467,0.423
		c0.149,0.16,0.293,0.333,0.43,0.519c0.137,0.185,0.262,0.365,0.374,0.543L129.638,192.878z M122.561,183.293v3.208h1.126
		c0.558,0,1.005-0.161,1.343-0.482c0.344-0.327,0.515-0.731,0.515-1.214c0-1.008-0.603-1.512-1.809-1.512H122.561z"/>
	<path fill="#5B5857" d="M144.973,192.878h-2.831l-0.82-2.565h-4.101l-0.813,2.565h-2.814l4.197-11.531h3.08L144.973,192.878z
		 M140.727,188.318l-1.238-3.876c-0.092-0.289-0.155-0.635-0.193-1.037h-0.064c-0.026,0.338-0.094,0.673-0.2,1.005l-1.255,3.908
		H140.727z"/>
	<path fill="#5B5857" d="M158.796,192.468c-0.842,0.407-1.941,0.611-3.297,0.611c-1.77,0-3.161-0.521-4.174-1.561
		c-1.014-1.04-1.52-2.426-1.52-4.157c0-1.844,0.569-3.34,1.708-4.487c1.14-1.146,2.618-1.721,4.436-1.721
		c1.125,0,2.074,0.143,2.847,0.427v2.501c-0.772-0.461-1.651-0.692-2.638-0.692c-1.083,0-1.957,0.341-2.622,1.021
		c-0.664,0.681-0.997,1.604-0.997,2.767c0,1.115,0.313,2.004,0.941,2.666c0.627,0.662,1.472,0.992,2.533,0.992
		c1.013,0,1.94-0.246,2.782-0.739V192.468z"/>
	<path fill="#5B5857" d="M174.509,192.878h-3.281l-3.361-5.01c-0.064-0.097-0.166-0.309-0.306-0.636h-0.04v5.646h-2.598v-11.531
		h2.598v5.452h0.04c0.064-0.15,0.172-0.364,0.321-0.644l3.185-4.809h3.096l-4.021,5.5L174.509,192.878z"/>
	<path fill="#5B5857" d="M186.643,192.878h-6.915v-11.531h6.65v2.115h-4.054v2.564h3.771v2.107h-3.771v2.638h4.318V192.878z"/>
	<path fill="#5B5857" d="M202.283,192.878H199.3l-1.793-2.967c-0.134-0.226-0.263-0.427-0.386-0.604
		c-0.124-0.177-0.248-0.328-0.374-0.454s-0.258-0.223-0.395-0.29c-0.137-0.066-0.285-0.101-0.446-0.101h-0.699v4.415h-2.598v-11.531
		h4.117c2.799,0,4.198,1.045,4.198,3.136c0,0.402-0.063,0.773-0.186,1.114c-0.123,0.34-0.298,0.647-0.522,0.921
		c-0.226,0.273-0.497,0.509-0.816,0.707s-0.674,0.354-1.065,0.467v0.032c0.172,0.054,0.338,0.141,0.499,0.261
		c0.16,0.121,0.315,0.262,0.466,0.423c0.15,0.16,0.294,0.333,0.431,0.519c0.137,0.185,0.261,0.365,0.374,0.543L202.283,192.878z
		 M195.207,183.293v3.208h1.126c0.558,0,1.005-0.161,1.343-0.482c0.343-0.327,0.515-0.731,0.515-1.214
		c0-1.008-0.604-1.512-1.81-1.512H195.207z"/>
</g>
</svg>
