<?xml version="1.0" encoding="utf-8"?>
<!-- Generator: Adobe Illustrator 16.0.0, SVG Export Plug-In . SVG Version: 6.00 Build 0)  -->
<!DOCTYPE svg PUBLIC "-//W3C//DTD SVG 1.1//EN" "http://www.w3.org/Graphics/SVG/1.1/DTD/svg11.dtd">
<svg version="1.1" id="图层_1" xmlns="http://www.w3.org/2000/svg" xmlns:xlink="http://www.w3.org/1999/xlink" x="0px" y="0px"
	 width="240px" height="240px" viewBox="0 0 240 240" enable-background="new 0 0 240 240" xml:space="preserve">
<path fill="#339DA7" d="M238,216c0,13.255-10.745,24-24,24H26c-13.255,0-24-10.745-24-24V24C2,10.745,12.745,0,26,0h188
	c13.255,0,24,10.745,24,24V216z"/>
<polygon fill="#FFFFFF" points="117.939,81.23 145.053,65.923 120,51.333 93.517,66.577 "/>
<polygon fill="#FFFFFF" points="124.398,85.106 149.274,100.032 176.667,84.333 151.3,69.561 "/>
<polygon fill="#FFFFFF" points="112.433,84.339 87.313,70.147 62.667,84.333 87.369,98.49 "/>
<polygon fill="#FFFFFF" points="119.154,88.137 94.333,102.481 119.667,117 144.773,102.612 "/>
<polygon fill="#FFFFFF" points="85.849,141.549 59.035,125.722 58.927,154.713 85.369,170.025 "/>
<polygon fill="#FFFFFF" points="85.975,134.018 86.463,105.011 59.172,89.137 59.063,118.492 "/>
<polygon fill="#FFFFFF" points="91.294,144.764 91.563,173.613 116.172,187.865 116.082,159.393 "/>
<polygon fill="#FFFFFF" points="91.223,137.043 116.055,151.367 115.962,122.168 90.948,107.619 "/>
<polygon fill="#FFFFFF" points="152.233,141.549 179.048,125.722 179.156,154.713 152.713,170.025 "/>
<polygon fill="#FFFFFF" points="152.107,134.018 151.619,105.011 178.91,89.137 179.02,118.492 "/>
<polygon fill="#FFFFFF" points="146.788,144.764 146.52,173.613 121.91,187.865 122.001,159.393 "/>
<polygon fill="#FFFFFF" points="146.859,137.043 122.027,151.367 122.12,122.168 147.135,107.619 "/>
</svg>
