<?xml version="1.0" encoding="utf-8"?>
<!-- Generator: Adobe Illustrator 16.0.0, SVG Export Plug-In . SVG Version: 6.00 Build 0)  -->
<!DOCTYPE svg PUBLIC "-//W3C//DTD SVG 1.1//EN" "http://www.w3.org/Graphics/SVG/1.1/DTD/svg11.dtd">
<svg version="1.1" id="图层_1" xmlns="http://www.w3.org/2000/svg" xmlns:xlink="http://www.w3.org/1999/xlink" x="0px" y="0px"
	 width="240px" height="240px" viewBox="0 0 240 240" enable-background="new 0 0 240 240" xml:space="preserve">
<g>
	<path fill="#FFFFFF" d="M26,238c-12.131,0-22-9.869-22-22V24C4,11.869,13.869,2,26,2h188c12.131,0,22,9.869,22,22v192
		c0,12.131-9.869,22-22,22H26z"/>
	<path fill="#509EE3" d="M214,4c11.028,0,20,8.972,20,20v192c0,11.028-8.972,20-20,20H26c-11.028,0-20-8.972-20-20V24
		C6,12.972,14.972,4,26,4H214 M214,0H26C12.745,0,2,10.745,2,24v192c0,13.255,10.745,24,24,24h188c13.255,0,24-10.745,24-24V24
		C238,10.745,227.255,0,214,0L214,0z"/>
</g>
<circle fill="#DCECF9" cx="120" cy="52" r="9"/>
<circle fill="#DCECF9" cx="120" cy="82" r="9"/>
<circle fill="#DCECF9" cx="120" cy="108.75" r="9"/>
<circle fill="#509EE3" cx="120" cy="135.25" r="9"/>
<circle fill="#DCECF9" cx="120" cy="160.75" r="9"/>
<circle fill="#DCECF9" cx="146" cy="82" r="9"/>
<circle fill="#509EE3" cx="146" cy="108.75" r="9"/>
<circle fill="#DCECF9" cx="146" cy="135.25" r="9"/>
<circle fill="#DCECF9" cx="146" cy="160.75" r="9"/>
<circle fill="#509EE3" cx="172" cy="82" r="9"/>
<circle fill="#509EE3" cx="172" cy="108.75" r="9"/>
<circle fill="#509EE3" cx="172" cy="135.25" r="9"/>
<circle fill="#509EE3" cx="172" cy="160.75" r="9"/>
<circle fill="#DCECF9" cx="120" cy="187.25" r="9"/>
<circle fill="#DCECF9" cx="95" cy="82" r="9"/>
<circle fill="#509EE3" cx="95" cy="108.75" r="9"/>
<circle fill="#DCECF9" cx="95" cy="135.25" r="9"/>
<circle fill="#DCECF9" cx="95" cy="160.75" r="9"/>
<circle fill="#509EE3" cx="69" cy="82" r="9"/>
<circle fill="#509EE3" cx="69" cy="108.75" r="9"/>
<circle fill="#509EE3" cx="69" cy="135.25" r="9"/>
<circle fill="#509EE3" cx="69" cy="160.75" r="9"/>
</svg>
