<?xml version="1.0" encoding="utf-8"?>
<!-- Generator: Adobe Illustrator 16.0.0, SVG Export Plug-In . SVG Version: 6.00 Build 0)  -->
<!DOCTYPE svg PUBLIC "-//W3C//DTD SVG 1.1//EN" "http://www.w3.org/Graphics/SVG/1.1/DTD/svg11.dtd">
<svg version="1.1" id="图层_1" xmlns="http://www.w3.org/2000/svg" xmlns:xlink="http://www.w3.org/1999/xlink" x="0px" y="0px"
	 width="240px" height="240px" viewBox="0 0 240 240" enable-background="new 0 0 240 240" xml:space="preserve">
<path fill-rule="evenodd" clip-rule="evenodd" fill="#404546" d="M219,241c-65.333,0-130.667,0-196,0
	c-0.878-0.402-1.727-0.897-2.64-1.193c-10.506-3.399-17.108-12.021-17.12-23.18c-0.071-63.75-0.063-127.501,0-191.251
	c0.008-8.342,3.433-15.241,10.439-19.923C16.513,3.56,19.877,2.461,23,1c65.333,0,130.667,0,196,0
	c0.392,0.294,0.739,0.715,1.18,0.862c12.979,4.349,18.603,12.014,18.614,25.51c0.017,18.643,0.005,37.285,0.005,55.927
	c-0.001,43.943,0.015,87.886-0.011,131.829c-0.008,12.845-6.014,20.995-18.123,24.884C220.065,240.204,219.553,240.664,219,241z
	 M235.201,121.502c0-31.665,0.017-63.331-0.008-94.996c-0.011-13.551-8.207-21.697-21.822-21.701
	C151.874,4.79,90.377,4.792,28.88,4.804C14.959,4.806,6.808,12.904,6.805,26.757c-0.014,62.83-0.014,125.66,0,188.491
	c0.003,13.855,8.15,21.946,22.076,21.948c61.331,0.012,122.661,0.01,183.991,0.002c14.308-0.002,22.317-7.966,22.324-22.201
	C235.212,183.832,235.201,152.667,235.201,121.502z"/>
<path fill-rule="evenodd" clip-rule="evenodd" fill="#FFFFFF" d="M235.201,121.502c0,31.165,0.011,62.33-0.005,93.495
	c-0.007,14.235-8.017,22.199-22.324,22.201c-61.33,0.008-122.661,0.01-183.991-0.002c-13.926-0.002-22.073-8.093-22.076-21.948
	c-0.014-62.831-0.014-125.661,0-188.491C6.808,12.904,14.959,4.806,28.88,4.804C90.377,4.792,151.874,4.79,213.371,4.805
	c13.615,0.004,21.812,8.15,21.822,21.701C235.218,58.171,235.201,89.837,235.201,121.502z"/>
<path fill="#95C748" d="M185.256,106.021c5.636,8.417,3.15,19.965-5.553,25.792l0,0c-8.703,5.828-20.326,3.728-25.963-4.689
	l-25.279-37.755c-5.637-8.417-3.15-19.964,5.552-25.792l0,0c8.703-5.828,20.327-3.728,25.964,4.689L185.256,106.021z"/>
<path fill-rule="evenodd" clip-rule="evenodd" fill="#3152A0" d="M164.352,75.549c4.478,8.785-21.73,43.812-23.801,46.201
	c-1.297,1.496-2.194,3.332-3.325,4.979c-8.053,11.716-22.976,12.255-31.672,1.021c-5.294-6.841-10.173-14.004-15.51-20.81
	c-8.115-10.348-17.125-12.061-29.592-5.133c4.79-7.396,8.967-13.852,13.149-20.303c2.536-3.912,4.974-7.893,7.645-11.71
	c8.03-11.476,23.331-11.619,31.777-0.438c5.502,7.284,10.995,14.586,16.764,21.657c5.774,7.078,13.406,9.444,21.938,6.193
	c8.278-3.155,12.521-9.58,12.152-18.694C163.852,77.88,164.071,77.238,164.352,75.549z"/>
<circle fill="#35BFC0" cx="73.155" cy="116.094" r="19.427"/>
<circle fill="#F38334" cx="145.154" cy="79.039" r="19.428"/>
<path fill="#404546" d="M71.567,176.661c0-5.336-4.533-9.661-10.125-9.661c-2.779,0-5.295,1.07-7.125,2.8
	c-1.83-1.729-4.346-2.8-7.125-2.8c-5.592,0-10.125,4.325-10.125,9.661v11.597c0,0.932,0.623,1.688,1.392,1.688h2.217
	c0.769,0,1.392-0.756,1.392-1.688c0-0.088-0.011-0.173-0.021-0.258h0.021v-11.25c0-2.555,2.071-4.625,4.625-4.625
	s4.625,2.07,4.625,4.625V188h0.019c-0.007,0.063-0.019,0.123-0.019,0.188c0,0.932,0.755,1.688,1.688,1.688h2.688
	c0.932,0,1.688-0.756,1.688-1.688c0-0.15-0.026-0.293-0.063-0.431V176.75c0-2.555,2.071-4.625,4.625-4.625s4.625,2.07,4.625,4.625
	V188h0.021c-0.011,0.085-0.021,0.17-0.021,0.258c0,0.932,0.623,1.688,1.392,1.688h2.217c0.769,0,1.392-0.756,1.392-1.688
	c0-0.021-0.004-0.04-0.005-0.062c0.001,0.001,0.003,0.001,0.005,0.001V176.661z"/>
<path fill="#404546" d="M187.816,176.661c0-5.336-4.533-9.661-10.125-9.661c-2.779,0-5.295,1.07-7.125,2.8
	c-1.829-1.729-4.346-2.8-7.125-2.8c-5.592,0-10.125,4.325-10.125,9.661v11.597c0,0.932,0.623,1.688,1.393,1.688h2.217
	c0.768,0,1.391-0.756,1.391-1.688c0-0.088-0.01-0.173-0.021-0.258h0.021v-11.25c0-2.555,2.071-4.625,4.625-4.625
	c2.555,0,4.625,2.07,4.625,4.625V188h0.02c-0.008,0.063-0.02,0.123-0.02,0.188c0,0.932,0.756,1.688,1.688,1.688h2.688
	c0.933,0,1.688-0.756,1.688-1.688c0-0.15-0.025-0.293-0.063-0.431V176.75c0-2.555,2.071-4.625,4.625-4.625
	c2.555,0,4.625,2.07,4.625,4.625V188h0.021c-0.01,0.085-0.021,0.17-0.021,0.258c0,0.932,0.623,1.688,1.393,1.688h2.217
	c0.768,0,1.391-0.756,1.391-1.688c0-0.021-0.004-0.04-0.004-0.062c0.001,0.001,0.003,0.001,0.004,0.001V176.661z"/>
<path fill="#404546" d="M202.066,166.723c-6.488,0-11.75,5.261-11.75,11.75s5.262,11.75,11.75,11.75c6.49,0,11.75-5.261,11.75-11.75
	S208.557,166.723,202.066,166.723z M202.066,184.624c-3.396,0-6.15-2.754-6.15-6.151s2.754-6.151,6.15-6.151
	c3.398,0,6.152,2.754,6.152,6.151S205.465,184.624,202.066,184.624z"/>
<path fill="#404546" d="M139.066,166.723c-6.488,0-11.75,5.261-11.75,11.75s5.262,11.75,11.75,11.75c6.49,0,11.75-5.261,11.75-11.75
	S145.557,166.723,139.066,166.723z M139.066,184.624c-3.396,0-6.15-2.754-6.15-6.151s2.754-6.151,6.15-6.151
	c3.398,0,6.152,2.754,6.152,6.151S142.465,184.624,139.066,184.624z"/>
<path fill="#404546" d="M94.817,166.723c-1.221,0-2.244,0.801-2.603,1.902c-1.841-1.199-4.036-1.902-6.397-1.902
	c-6.489,0-11.75,5.261-11.75,11.75s5.261,11.75,11.75,11.75c2.315,0,4.467-0.679,6.286-1.835c0.178,1.347,1.318,2.391,2.714,2.391
	c1.519,0,2.75-1.231,2.75-2.75v-18.556C97.567,167.954,96.335,166.723,94.817,166.723z M85.817,184.624
	c-3.397,0-6.151-2.754-6.151-6.151s2.754-6.151,6.151-6.151s6.151,2.754,6.151,6.151S89.214,184.624,85.817,184.624z"/>
<path fill="#404546" d="M124.433,180.241v-0.375c0-1.583-1.283-2.866-2.866-2.866c-1.582,0-2.865,1.283-2.865,2.866v0.75
	c0,0.091,0.019,0.177,0.027,0.266c-0.311,2.027-2.046,3.585-4.161,3.585c-2.334,0-4.226-1.892-4.226-4.226h-0.024v-7.366h6.674
	c1.699,0,3.076-1.377,3.076-3.076s-1.377-3.076-3.076-3.076h-6.674v-2.107c0-1.582-1.283-2.865-2.866-2.865
	s-2.866,1.283-2.866,2.865v2.107h-1.692c-1.699,0-3.076,1.377-3.076,3.076s1.377,3.076,3.076,3.076h1.692v8.26
	c0,0.342,0.07,0.666,0.18,0.971c0.874,4.62,4.927,8.117,9.801,8.117c5.512,0,9.982-4.469,9.982-9.981H124.433z"/>
</svg>
