<?xml version="1.0" encoding="utf-8"?>
<!-- Generator: Adobe Illustrator 16.0.0, SVG Export Plug-In . SVG Version: 6.00 Build 0)  -->
<!DOCTYPE svg PUBLIC "-//W3C//DTD SVG 1.1//EN" "http://www.w3.org/Graphics/SVG/1.1/DTD/svg11.dtd">
<svg version="1.1" id="图层_1" xmlns="http://www.w3.org/2000/svg" xmlns:xlink="http://www.w3.org/1999/xlink" x="0px" y="0px"
	 width="240px" height="240px" viewBox="0 0 240 240" enable-background="new 0 0 240 240" xml:space="preserve">
<path fill-rule="evenodd" clip-rule="evenodd" fill="#0058CC" d="M24,1c64.667,0,129.333,0,194,0
	c0.384,0.307,0.721,0.758,1.158,0.897c14.089,4.498,19.488,11.891,19.49,26.776c0.004,36.265,0.001,72.529,0.001,108.794
	c0,25.785,0.025,51.569-0.012,77.354c-0.019,13.244-6.224,21.365-18.996,25.143c-0.598,0.176-1.097,0.683-1.642,1.036
	c-64.667,0-129.333,0-194,0c-0.386-0.305-0.725-0.754-1.163-0.895c-14.09-4.515-19.483-11.903-19.485-26.779
	c-0.004-32.605-0.001-65.211-0.001-97.815c0-29.445-0.021-58.89,0.01-88.334C3.374,13.953,9.591,5.813,22.364,2.039
	C22.959,1.863,23.457,1.354,24,1z M6.657,120.749c0,31.661-0.014,63.322,0.006,94.983c0.008,13.294,8.207,21.601,21.351,21.604
	c61.989,0.017,123.979,0.017,185.968,0c13.147-0.003,21.353-8.307,21.355-21.597c0.015-63.156,0.015-126.313,0-189.468
	c-0.003-13.509-8.203-21.608-21.849-21.61C151.832,4.65,90.176,4.65,28.52,4.661C14.704,4.663,6.666,12.799,6.66,26.765
	C6.648,58.093,6.656,89.421,6.657,120.749z"/>
<path fill-rule="evenodd" clip-rule="evenodd" fill="#FFFFFF" d="M6.656,120.749c0-31.328-0.008-62.656,0.004-93.984
	C6.666,12.799,14.704,4.663,28.52,4.661c61.656-0.011,123.313-0.011,184.969,0c13.646,0.002,21.846,8.102,21.849,21.61
	c0.015,63.155,0.015,126.312,0,189.468c-0.003,13.29-8.208,21.594-21.355,21.597c-61.989,0.017-123.979,0.017-185.968,0
	c-13.144-0.003-21.342-8.31-21.351-21.604C6.643,184.071,6.657,152.41,6.656,120.749z M164.557,157.274
	c-8.507,10.033-19.517,17.041-33.161,19.355c-13.658,2.317-26.425-0.253-38.065-7.181c-3.381,3.761-6.53,7.264-9.681,10.769
	c30.582,22.741,75.025,12.021,92.362-17.434C172.461,161.076,168.911,159.369,164.557,157.274z M135.613,65.003
	c-0.456-9.813-9.323-18.146-18.735-17.605c-9.656,0.555-17.719,9.016-17.495,18.358c0.233,9.733,8.992,18.191,18.495,17.857
	C127.646,83.271,136.053,74.449,135.613,65.003z M180.467,122.374c-9.644,0.029-18.234,8.717-18.088,18.291
	c0.146,9.507,8.388,17.77,17.91,17.955c9.562,0.187,18.258-8.363,18.339-18.028C198.707,131.004,190.075,122.345,180.467,122.374z
	 M69.52,179.628c9.637-0.019,18.229-8.687,18.106-18.268c-0.122-9.491-8.362-17.771-17.893-17.979
	c-9.554-0.208-18.267,8.343-18.357,18.016C51.287,170.99,59.901,179.646,69.52,179.628z M68.957,137.08
	c-0.147-1.4-0.225-2.727-0.434-4.032c-3.521-22.019,3.368-40.151,21.088-53.584c4.755-3.604,7.193-6.638,4.492-12.274
	c-30.111,10.881-45.182,50.294-36.051,74.568C61.53,140.266,65.012,138.772,68.957,137.08z M139.727,63.708
	c-1.027,4.567-0.608,7.521,4.716,9.891c16.884,7.514,27.173,20.758,30.965,38.938c0.359,1.724,0.893,3.411,1.335,5.075
	c3.633,0,6.704,0,9.783,0C185.427,94.226,161.354,66.524,139.727,63.708z"/>
<path fill-rule="evenodd" clip-rule="evenodd" fill="#0058CC" d="M164.557,157.274c4.354,2.095,7.904,3.802,11.455,5.51
	c-17.337,29.455-61.781,40.175-92.362,17.434c3.15-3.505,6.3-7.008,9.681-10.769c11.641,6.928,24.408,9.498,38.065,7.181
	C145.04,174.315,156.05,167.308,164.557,157.274z"/>
<path fill-rule="evenodd" clip-rule="evenodd" fill="#0058CC" d="M135.613,65.003c0.439,9.446-7.968,18.268-17.736,18.61
	c-9.502,0.334-18.261-8.124-18.495-17.857c-0.224-9.343,7.839-17.804,17.495-18.358C126.29,46.857,135.157,55.19,135.613,65.003z"/>
<path fill-rule="evenodd" clip-rule="evenodd" fill="#0058CC" d="M180.467,122.374c9.608-0.029,18.24,8.63,18.161,18.218
	c-0.081,9.665-8.777,18.215-18.339,18.028c-9.522-0.186-17.765-8.448-17.91-17.955C162.232,131.091,170.823,122.403,180.467,122.374
	z"/>
<path fill-rule="evenodd" clip-rule="evenodd" fill="#0058CC" d="M69.52,179.628c-9.619,0.018-18.233-8.638-18.144-18.23
	c0.09-9.673,8.803-18.224,18.357-18.016c9.531,0.208,17.771,8.487,17.893,17.979C87.749,170.941,79.157,179.609,69.52,179.628z"/>
<path fill-rule="evenodd" clip-rule="evenodd" fill="#0058CC" d="M68.957,137.08c-3.945,1.692-7.427,3.186-10.905,4.678
	c-9.131-24.274,5.939-63.688,36.051-74.568c2.701,5.637,0.263,8.67-4.492,12.274c-17.72,13.433-24.609,31.565-21.088,53.584
	C68.732,134.354,68.81,135.68,68.957,137.08z"/>
<path fill-rule="evenodd" clip-rule="evenodd" fill="#0058CC" d="M139.727,63.708c21.627,2.816,45.7,30.518,46.799,53.903
	c-3.079,0-6.15,0-9.783,0c-0.442-1.664-0.976-3.352-1.335-5.075c-3.792-18.18-14.081-31.424-30.965-38.938
	C139.118,71.229,138.699,68.275,139.727,63.708z"/>
</svg>
