<?xml version="1.0" encoding="utf-8"?>
<!-- Generator: Adobe Illustrator 16.0.0, SVG Export Plug-In . SVG Version: 6.00 Build 0)  -->
<!DOCTYPE svg PUBLIC "-//W3C//DTD SVG 1.1//EN" "http://www.w3.org/Graphics/SVG/1.1/DTD/svg11.dtd">
<svg version="1.1" id="图层_1" xmlns="http://www.w3.org/2000/svg" xmlns:xlink="http://www.w3.org/1999/xlink" x="0px" y="0px"
	 width="240px" height="240px" viewBox="0 0 240 240" enable-background="new 0 0 240 240" xml:space="preserve">
<path fill-rule="evenodd" clip-rule="evenodd" fill="#02296B" d="M219,241c-65.333,0-130.667,0-196,0
	c-16.347-6.846-19.869-12.221-19.869-30.319c0-60.786-0.005-121.572,0.018-182.358c0.001-2.486,0.012-5.021,0.46-7.452
	C5.622,9.961,12.962,4.139,23,1c65.333,0,130.667,0,196,0c16.354,6.859,19.869,12.223,19.869,30.319
	c0,60.786,0.005,121.572-0.019,182.358c-0.001,2.487-0.006,5.023-0.458,7.453C236.366,232.027,229.065,237.89,219,241z
	 M110.395,47.272c-2.064-0.112-3.523-0.259-4.982-0.261c-13.99-0.018-27.983,0.178-41.967-0.119
	c-4.513-0.096-5.527,1.32-5.512,5.646c0.155,44.8,0.094,89.601,0.096,134.4c0,6.769,0.005,6.783,7.028,6.784
	c30.145,0.006,60.289,0.003,90.434,0.003c7.494,0,14.995-0.187,22.481,0.069c4.404,0.15,6.652-1.052,6.053-5.882
	c-0.306-2.461-0.055-4.99-0.055-7.488c0-39.138-0.088-78.276,0.11-117.413c0.025-4.937-1.52-6.246-6.238-6.106
	c-10.483,0.31-20.982,0.166-31.474,0.061c-3.149-0.032-4.571,0.995-4.416,4.328c0.2,4.321,0.211,8.669-0.059,12.982
	c-0.079,1.261-1.366,3.486-2.145,3.506c-9.576,0.243-19.16,0.158-29.355,0.158C110.395,67.321,110.395,57.409,110.395,47.272z"/>
<path fill-rule="evenodd" clip-rule="evenodd" fill="#74CEFC" d="M110.395,47.272c0,10.137,0,20.049,0,30.668
	c10.195,0,19.779,0.085,29.355-0.158c0.778-0.02,2.065-2.245,2.145-3.506c0.27-4.313,0.259-8.661,0.059-12.982
	c-0.155-3.333,1.267-4.36,4.416-4.328c10.491,0.105,20.99,0.249,31.474-0.061c4.719-0.14,6.264,1.17,6.238,6.106
	c-0.198,39.137-0.11,78.275-0.11,117.413c0,2.498-0.251,5.027,0.055,7.488c0.6,4.83-1.648,6.032-6.053,5.882
	c-7.486-0.256-14.987-0.069-22.481-0.069c-30.145,0-60.289,0.003-90.434-0.003c-7.023-0.001-7.028-0.016-7.028-6.784
	c-0.001-44.8,0.059-89.601-0.096-134.4c-0.015-4.325,0.999-5.741,5.512-5.646c13.983,0.297,27.977,0.102,41.967,0.119
	C106.872,47.014,108.331,47.16,110.395,47.272z M69.063,56.947c-0.277,1.315-0.529,1.954-0.53,2.593
	c-0.029,39.954-0.019,79.909-0.089,119.863c-0.005,2.985,1.372,3.602,3.982,3.564c7.324-0.105,14.668-0.353,21.968,0.077
	c4.856,0.286,5.717-1.596,5.694-5.967c-0.165-31.297-0.088-62.595-0.088-93.893c0-7.492-0.044-14.983,0.021-22.475
	c0.02-2.305-0.378-3.824-3.208-3.797C87.676,57.003,78.537,56.947,69.063,56.947z M121.971,99.001c3.765,0,7.882,0,12,0
	c8.502-0.001,8.506-0.002,7.969-8.426c-0.031-0.483-0.227-0.957-0.538-2.209c-8.289,0-16.753,0.253-25.191-0.1
	c-4.674-0.195-5.87,1.393-5.838,5.932c0.194,27.662,0.092,55.326,0.111,82.989c0.001,1.78,0.188,3.561,0.312,5.726
	c9.793,0,19.108,0.061,28.417-0.095c0.924-0.015,2.604-1.33,2.618-2.066c0.178-9.589,0.118-19.181,0.118-29.625
	c-7.363,0-14.064,0-20.747,0c-0.097-1.859-0.058-2.868-0.214-3.846c-0.781-4.868,0.809-7.013,6.14-6.452
	c4.724,0.496,9.541,0.104,14.537,0.104c0-3.763,0-6.813,0-10.464c-4.299,0-8.267,0-12.234-0.001c-9-0.002-9.004-0.002-8.21-9.065
	c0.025-0.287,0.317-0.551,0.869-1.454c6.183,0,12.758,0,19.613,0c0-3.701,0-6.765,0-9.781c-0.738-0.248-1.204-0.533-1.676-0.544
	c-3.663-0.081-7.328-0.14-10.992-0.148c-8.866-0.022-8.876-0.018-7.85-8.973C121.219,100.205,121.473,99.934,121.971,99.001z
	 M172.836,140.971c1.668-9.563,1.558-9.839-6.5-10.467c-2.595-0.202-3.448-1.202-3.367-3.699c0.134-4.157,0.268-8.338-0.037-12.477
	c-0.275-3.757,1.08-5.373,4.775-4.776c5.103,0.823,6.52-1.656,5.829-6.218c-0.194-1.284-0.268-2.587-0.389-3.794
	c-3.479-0.57-8.204-0.037-9.455-1.872c-1.654-2.427-0.661-6.707-0.678-10.191c-0.042-8.863-0.014-8.86,8.872-9.664
	c0.31-0.028,0.604-0.241,0.902-0.372c2.261-9.179,1.591-10.073-7.545-10.074c-2.33,0-4.688,0.228-6.985-0.048
	c-4.576-0.549-5.916,1.197-5.892,5.819c0.187,34.619,0.099,69.24,0.113,103.86c0.001,1.788,0.16,3.576,0.258,5.639
	c6.988,0,13.548,0,20.318,0c0-6.976,0-13.652,0-20.717c-2.611,0-4.802,0.254-6.888-0.102c-1.134-0.192-2.955-1.387-2.988-2.19
	c-0.252-6.079-0.138-12.174-0.138-18.657C166.765,140.971,169.718,140.971,172.836,140.971z"/>
<path fill-rule="evenodd" clip-rule="evenodd" fill="#02296B" d="M69.063,56.947c9.474,0,18.612,0.056,27.75-0.033
	c2.83-0.027,3.228,1.492,3.208,3.797C99.957,68.202,100,75.693,100,83.186c0,31.298-0.076,62.596,0.088,93.893
	c0.023,4.371-0.838,6.253-5.694,5.967c-7.299-0.43-14.644-0.183-21.968-0.077c-2.61,0.037-3.987-0.579-3.982-3.564
	c0.07-39.954,0.06-79.909,0.089-119.863C68.534,58.901,68.786,58.263,69.063,56.947z M79.222,140.369
	c10.25,1.563,10.248,1.563,10.248-8.037c-0.001-19.138-0.003-38.275,0.001-57.413c0.002-8.277,0.008-8.288-8.394-7.419
	c-0.615,0.063-1.196,0.455-1.855,0.719C79.222,92.258,79.222,116.177,79.222,140.369z M89.426,172.104
	c0-6.282,0.214-11.934-0.185-17.542c-0.078-1.092-2.539-2.829-3.898-2.827c-2.099,0.004-5.933,1.097-6.013,1.997
	c-0.54,6.035-0.281,12.142-0.281,18.372C82.805,172.104,85.752,172.104,89.426,172.104z"/>
<path fill-rule="evenodd" clip-rule="evenodd" fill="#02296B" d="M121.971,99.001c-0.498,0.933-0.752,1.204-0.786,1.502
	c-1.026,8.955-1.017,8.95,7.85,8.973c3.664,0.009,7.329,0.067,10.992,0.148c0.472,0.011,0.938,0.296,1.676,0.544
	c0,3.017,0,6.08,0,9.781c-6.855,0-13.431,0-19.613,0c-0.552,0.903-0.844,1.167-0.869,1.454c-0.794,9.063-0.79,9.063,8.21,9.065
	c3.968,0.001,7.936,0.001,12.234,0.001c0,3.651,0,6.701,0,10.464c-4.996,0-9.813,0.392-14.537-0.104
	c-5.331-0.561-6.921,1.584-6.14,6.452c0.156,0.978,0.117,1.986,0.214,3.846c6.683,0,13.384,0,20.747,0
	c0,10.444,0.06,20.036-0.118,29.625c-0.014,0.736-1.694,2.052-2.618,2.066c-9.31,0.155-18.624,0.095-28.417,0.095
	c-0.123-2.165-0.311-3.945-0.312-5.726c-0.019-27.663,0.083-55.327-0.111-82.989c-0.032-4.539,1.164-6.127,5.838-5.932
	c8.438,0.353,16.902,0.1,25.191,0.1c0.312,1.252,0.507,1.726,0.538,2.209c0.537,8.424,0.533,8.425-7.969,8.426
	C129.853,99.001,125.735,99.001,121.971,99.001z"/>
<path fill-rule="evenodd" clip-rule="evenodd" fill="#02296B" d="M172.836,140.971c-3.118,0-6.071,0-9.793,0
	c0,6.483-0.114,12.578,0.138,18.657c0.033,0.804,1.854,1.998,2.988,2.19c2.086,0.355,4.276,0.102,6.888,0.102
	c0,7.064,0,13.741,0,20.717c-6.771,0-13.33,0-20.318,0c-0.098-2.063-0.257-3.851-0.258-5.639
	c-0.015-34.62,0.073-69.241-0.113-103.86c-0.024-4.622,1.315-6.368,5.892-5.819c2.297,0.275,4.655,0.048,6.985,0.048
	c9.136,0.001,9.806,0.896,7.546,10.076c-0.3,0.129-0.594,0.342-0.903,0.37c-8.886,0.804-8.914,0.801-8.872,9.664
	c0.017,3.484-0.977,7.765,0.678,10.191c1.251,1.835,5.976,1.302,9.455,1.872c0.121,1.207,0.194,2.51,0.389,3.794
	c0.69,4.562-0.727,7.041-5.829,6.218c-3.695-0.597-5.051,1.02-4.775,4.776c0.305,4.139,0.171,8.319,0.037,12.477
	c-0.081,2.497,0.772,3.497,3.367,3.699C174.394,131.132,174.504,131.407,172.836,140.971z"/>
<path fill-rule="evenodd" clip-rule="evenodd" fill="#74CEFC" d="M79.222,140.369c0-24.192,0-48.111,0-72.15
	c0.659-0.264,1.24-0.655,1.855-0.719c8.402-0.869,8.396-0.858,8.394,7.419c-0.004,19.138-0.002,38.275-0.001,57.413
	C89.47,141.932,89.472,141.932,79.222,140.369z"/>
<path fill-rule="evenodd" clip-rule="evenodd" fill="#74CEFC" d="M89.426,172.104c-3.673,0-6.621,0-10.376,0
	c0-6.23-0.259-12.337,0.281-18.372c0.081-0.9,3.914-1.993,6.013-1.997c1.359-0.002,3.82,1.735,3.898,2.827
	C89.64,160.17,89.426,165.821,89.426,172.104z"/>
</svg>
