<?xml version="1.0" encoding="utf-8"?>
<!-- Generator: Adobe Illustrator 16.0.0, SVG Export Plug-In . SVG Version: 6.00 Build 0)  -->
<!DOCTYPE svg PUBLIC "-//W3C//DTD SVG 1.1//EN" "http://www.w3.org/Graphics/SVG/1.1/DTD/svg11.dtd">
<svg version="1.1" id="图层_1" xmlns="http://www.w3.org/2000/svg" xmlns:xlink="http://www.w3.org/1999/xlink" x="0px" y="0px"
	 width="240px" height="240px" viewBox="0 0 240 240" enable-background="new 0 0 240 240" xml:space="preserve">
<path fill-rule="evenodd" clip-rule="evenodd" fill="#514745" d="M220,241c-66,0-132,0-198,0c-1.317-0.627-2.621-1.282-3.953-1.878
	c-9.403-4.204-14.766-11.418-14.785-21.729C3.14,153.132,3.147,88.87,3.255,24.609c0.017-10.11,5.221-17.241,14.339-21.53
	C19.063,2.388,20.531,1.693,22,1c66,0,132,0,198,0c1.469,0.693,2.937,1.388,4.406,2.079c9.12,4.286,14.321,11.419,14.338,21.528
	c0.108,64.262,0.116,128.523-0.007,192.784c-0.02,10.31-5.372,17.532-14.783,21.73C222.622,239.716,221.317,240.372,220,241z
	 M59.589,92.899c-7.285-0.276-12.458,3.681-13.453,9.638c-1.067,6.394,2.321,11.936,8.818,13.611
	c2.927,0.755,4.445,2.033,5.241,5.001c2.761,10.286,5.924,20.467,8.595,30.774c0.408,1.574-0.432,4.162-1.625,5.344
	c-6.075,6.022-6.643,13.741-1.01,18.828c5.26,4.751,13.283,3.581,18.533-2.48c0.835-0.965,2.774-1.88,3.86-1.579
	c11.062,3.065,22.086,6.284,33.024,9.763c1.45,0.461,2.961,2.429,3.426,4c2.184,7.379,7.75,11.235,14.523,9.646
	c7.263-1.705,10.761-7.899,9.246-15.746c-0.315-1.631,0.012-4.076,1.061-5.172c7.948-8.298,16.089-16.417,24.352-24.403
	c1.031-0.996,3.267-1.505,4.713-1.188c8.042,1.762,14.233-1.259,16.197-8.25c1.86-6.625-2.123-12.514-9.701-14.876
	c-1.416-0.441-3.116-1.951-3.531-3.318c-3.233-10.668-6.288-21.395-9.101-32.181c-0.378-1.451,0.424-3.783,1.502-4.943
	c4.855-5.224,5.307-12.047,0.762-17.066c-4.606-5.087-11.912-5.206-17.508-0.671c-1.375,1.114-3.858,1.881-5.505,1.476
	c-10.661-2.624-21.276-5.467-31.785-8.639c-1.699-0.513-3.484-2.812-4.045-4.646c-2.078-6.8-7.944-10.926-14.234-9.449
	c-6.892,1.619-11.118,8.453-8.897,15.338c0.968,3.002,0.058,4.582-1.861,6.466C84.53,74.708,77.979,81.35,71.375,87.937
	C67.898,91.403,64.968,96.31,59.589,92.899z"/>
<path fill-rule="evenodd" clip-rule="evenodd" fill="#00C1DE" d="M59.589,92.899c5.378,3.41,8.309-1.496,11.785-4.963
	c6.605-6.587,13.155-13.229,19.813-19.762c1.919-1.884,2.83-3.464,1.861-6.466c-2.221-6.885,2.005-13.719,8.897-15.338
	c6.291-1.477,12.156,2.649,14.234,9.449c0.561,1.835,2.346,4.134,4.045,4.646c10.509,3.172,21.124,6.015,31.785,8.639
	c1.646,0.405,4.13-0.361,5.505-1.476c5.596-4.535,12.901-4.416,17.508,0.671c4.545,5.02,4.094,11.843-0.762,17.066
	c-1.078,1.16-1.88,3.492-1.502,4.943c2.813,10.786,5.867,21.513,9.101,32.181c0.415,1.367,2.115,2.877,3.531,3.318
	c7.578,2.362,11.562,8.251,9.701,14.876c-1.964,6.991-8.155,10.012-16.197,8.25c-1.446-0.317-3.682,0.191-4.713,1.188
	c-8.263,7.986-16.403,16.105-24.352,24.403c-1.049,1.096-1.376,3.541-1.061,5.172c1.515,7.847-1.983,14.041-9.246,15.746
	c-6.773,1.59-12.34-2.267-14.523-9.646c-0.465-1.571-1.976-3.539-3.426-4c-10.938-3.479-21.962-6.697-33.024-9.763
	c-1.085-0.301-3.025,0.614-3.86,1.579c-5.25,6.062-13.273,7.231-18.533,2.48c-5.633-5.087-5.065-12.806,1.01-18.828
	c1.192-1.182,2.032-3.77,1.625-5.344c-2.67-10.308-5.834-20.488-8.595-30.774c-0.796-2.968-2.314-4.246-5.241-5.001
	c-6.497-1.676-9.886-7.218-8.818-13.611C47.131,96.58,52.305,92.623,59.589,92.899z M106.753,139.798
	c-6.066,6.003-12.233,12.062-18.349,18.172c-4.264,4.259-3.682,7.088,1.958,8.873c10.611,3.36,21.283,6.528,31.9,9.868
	c2.603,0.819,4.32,0.128,6.699-1.342c2.993-1.85,6.986-2.064,10.53-3.045c2.189-0.605,4.941-0.698,6.42-2.099
	c8.096-7.67,15.91-15.64,23.749-23.577c3.984-4.035,2.711-8.493-2.826-9.899c-6.772-1.721-13.592-3.253-20.379-4.918
	c-2.205-0.541-5.278-0.817-4.029-4.114c0.369-0.976,3.475-1.621,5.098-1.292c7.169,1.453,14.237,3.389,21.376,5.004
	c4.56,1.032,8.853-3.278,7.661-7.738c-2.875-10.768-5.804-21.524-8.992-32.202c-0.443-1.485-2.273-3.106-3.808-3.612
	c-4.484-1.479-7.836-4.14-8.904-8.635c-0.855-3.603-3.117-4.631-6.125-5.431c-9.647-2.563-19.268-5.231-28.903-7.841
	c-6.39-1.729-10.33,1.897-8.875,8.292c1.873,8.231,3.896,16.428,5.835,24.557c-3.779,2.299-5.504,1.108-6.315-2.546
	c-1.549-6.98-3.195-13.94-4.892-20.887c-1.496-6.123-5.924-7.417-10.327-3.04c-7.793,7.748-15.661,15.429-23.214,23.406
	c-1.403,1.482-2.094,4.248-2.022,6.385c0.138,4.128,0.271,8.139-3.081,11.068c-2.273,1.988-2.349,3.965-1.545,6.636
	c3.21,10.674,6.213,21.41,9.339,32.109c1.453,4.972,5.504,5.985,9.267,2.289c5.227-5.133,10.501-10.229,15.507-15.573
	C102.447,135.527,104.576,135.278,106.753,139.798z"/>
<path fill-rule="evenodd" clip-rule="evenodd" fill="#514745" d="M106.753,139.798c-2.177-4.52-4.306-4.271-7.246-1.132
	C94.5,144.01,89.227,149.106,84,154.239c-3.763,3.696-7.814,2.683-9.267-2.289c-3.126-10.699-6.129-21.436-9.339-32.109
	c-0.803-2.671-0.728-4.647,1.545-6.636c3.352-2.93,3.219-6.94,3.081-11.068c-0.072-2.137,0.62-4.902,2.022-6.385
	c7.553-7.978,15.421-15.658,23.214-23.406c4.403-4.377,8.832-3.083,10.327,3.04c1.697,6.946,3.343,13.906,4.892,20.887
	c0.811,3.654,2.536,4.845,6.315,2.546c-1.939-8.129-3.962-16.325-5.835-24.557c-1.455-6.395,2.485-10.021,8.875-8.292
	c9.635,2.609,19.255,5.277,28.903,7.841c3.008,0.8,5.27,1.828,6.125,5.431c1.068,4.495,4.42,7.156,8.904,8.635
	c1.534,0.506,3.364,2.127,3.808,3.612c3.188,10.678,6.117,21.435,8.992,32.202c1.191,4.46-3.102,8.771-7.661,7.738
	c-7.139-1.615-14.207-3.551-21.376-5.004c-1.623-0.329-4.729,0.316-5.098,1.292c-1.249,3.297,1.824,3.573,4.029,4.114
	c6.787,1.665,13.606,3.197,20.379,4.918c5.537,1.406,6.811,5.864,2.826,9.899c-7.839,7.938-15.653,15.907-23.749,23.577
	c-1.479,1.4-4.23,1.493-6.42,2.099c-3.544,0.98-7.537,1.195-10.53,3.045c-2.379,1.47-4.097,2.161-6.699,1.342
	c-10.618-3.34-21.29-6.508-31.9-9.868c-5.64-1.785-6.222-4.614-1.958-8.873C94.52,151.859,100.687,145.801,106.753,139.798z
	 M135.99,121.776c0.127-9.099-6.639-16.109-15.819-16.394c-8.259-0.256-15.932,7.345-16.005,15.854
	c-0.074,8.612,7,15.724,15.781,15.862C129.104,137.245,135.865,130.787,135.99,121.776z"/>
<path fill-rule="evenodd" clip-rule="evenodd" fill="#00C1DE" d="M135.99,121.776c-0.125,9.011-6.887,15.469-16.043,15.323
	c-8.78-0.139-15.855-7.25-15.781-15.862c0.073-8.51,7.746-16.11,16.005-15.854C129.352,105.667,136.117,112.678,135.99,121.776z"/>
</svg>
