<?xml version="1.0" encoding="utf-8"?>
<!-- Generator: Adobe Illustrator 16.0.0, SVG Export Plug-In . SVG Version: 6.00 Build 0)  -->
<!DOCTYPE svg PUBLIC "-//W3C//DTD SVG 1.1//EN" "http://www.w3.org/Graphics/SVG/1.1/DTD/svg11.dtd">
<svg version="1.1" id="图层_1" xmlns="http://www.w3.org/2000/svg" xmlns:xlink="http://www.w3.org/1999/xlink" x="0px" y="0px"
	 width="240px" height="240px" viewBox="0 0 240 240" enable-background="new 0 0 240 240" xml:space="preserve">
<g>
	<path fill="#FFFFFF" d="M26,238c-12.131,0-22-9.869-22-22V24C4,11.869,13.869,2,26,2h188c12.131,0,22,9.869,22,22v192
		c0,12.131-9.869,22-22,22H26z"/>
	<path fill="#509EE3" d="M214,4c11.028,0,20,8.972,20,20v192c0,11.028-8.972,20-20,20H26c-11.028,0-20-8.972-20-20V24
		C6,12.972,14.972,4,26,4H214 M214,0H26C12.745,0,2,10.745,2,24v192c0,13.255,10.745,24,24,24h188c13.255,0,24-10.745,24-24V24
		C238,10.745,227.255,0,214,0L214,0z"/>
</g>
<polygon fill="#71B9FF" points="119.176,128.186 86.138,109.112 86.138,70.963 119.176,51.888 152.215,70.963 152.215,109.112 "/>
<polygon fill="#178FFF" points="82.176,191.186 49.138,172.111 49.138,133.963 82.176,114.888 115.215,133.963 115.215,172.111 "/>
<polygon fill="#178FFF" points="156.176,191.186 123.138,172.111 123.138,133.963 156.176,114.888 189.215,133.963 189.215,172.111 
	"/>
</svg>
