<?xml version="1.0" encoding="utf-8"?>
<!-- Generator: Adobe Illustrator 16.0.0, SVG Export Plug-In . SVG Version: 6.00 Build 0)  -->
<!DOCTYPE svg PUBLIC "-//W3C//DTD SVG 1.1//EN" "http://www.w3.org/Graphics/SVG/1.1/DTD/svg11.dtd">
<svg version="1.1" id="图层_1" xmlns="http://www.w3.org/2000/svg" xmlns:xlink="http://www.w3.org/1999/xlink" x="0px" y="0px"
	 width="240px" height="240px" viewBox="0 0 240 240" enable-background="new 0 0 240 240" xml:space="preserve">
<path fill="#68B245" d="M238,216c0,13.255-10.745,24-24,24H26c-13.255,0-24-10.745-24-24V24C2,10.745,12.745,0,26,0h188
	c13.255,0,24,10.745,24,24V216z"/>
<g>
	<path fill="#FFFFFF" d="M28.528,117.458c1.826-0.047,3.314-0.539,4.465-1.477c1.15-0.937,1.915-2.224,2.295-3.86
		c0.379-1.637,0.581-4.436,0.605-8.397c0.023-3.961,0.094-6.57,0.213-7.828c0.213-1.993,0.61-3.594,1.192-4.803
		c0.581-1.21,1.299-2.176,2.152-2.9c0.854-0.723,1.945-1.275,3.273-1.655c0.901-0.237,2.372-0.355,4.412-0.355h1.993v5.586h-1.103
		c-2.467,0-4.104,0.445-4.91,1.334c-0.807,0.89-1.21,2.876-1.21,5.959c0,6.215-0.13,10.141-0.391,11.777
		c-0.427,2.539-1.156,4.496-2.188,5.871c-1.032,1.376-2.65,2.597-4.856,3.665c2.609,1.092,4.501,2.758,5.675,4.999
		c1.174,2.242,1.761,5.913,1.761,11.013c0,4.625,0.047,7.377,0.143,8.255c0.189,1.612,0.67,2.739,1.441,3.38
		c0.771,0.641,2.283,0.961,4.537,0.961h1.103v5.586h-1.993c-2.325,0-4.009-0.189-5.052-0.569c-1.519-0.546-2.775-1.429-3.771-2.65
		c-0.997-1.223-1.643-2.77-1.939-4.644c-0.297-1.874-0.457-4.945-0.48-9.216c-0.024-4.27-0.226-7.223-0.605-8.859
		c-0.38-1.637-1.145-2.929-2.295-3.878c-1.151-0.948-2.639-1.446-4.465-1.494V117.458z"/>
	<path fill="#FFFFFF" d="M214.829,117.458v5.8c-1.827,0.048-3.315,0.546-4.465,1.494c-1.151,0.949-1.916,2.236-2.295,3.86
		c-0.38,1.625-0.582,4.418-0.605,8.379c-0.023,3.962-0.095,6.57-0.213,7.828c-0.214,2.016-0.611,3.623-1.192,4.821
		c-0.582,1.197-1.299,2.158-2.152,2.882c-0.854,0.724-1.945,1.275-3.273,1.655c-0.902,0.261-2.372,0.391-4.412,0.391h-1.993v-5.586
		h1.104c2.467,0,4.104-0.445,4.91-1.334c0.806-0.89,1.21-2.889,1.21-5.996c0-5.93,0.106-9.689,0.32-11.278
		c0.379-2.634,1.138-4.738,2.276-6.316c1.139-1.577,2.752-2.805,4.84-3.683c-2.729-1.304-4.649-3.03-5.765-5.177
		c-1.115-2.146-1.672-5.77-1.672-10.87c0-4.625-0.06-7.389-0.179-8.29c-0.166-1.589-0.635-2.698-1.405-3.327
		c-0.771-0.628-2.283-0.943-4.536-0.943h-1.104v-5.586h1.993c2.324,0,4.008,0.19,5.052,0.569c1.519,0.522,2.775,1.4,3.772,2.633
		c0.996,1.234,1.642,2.788,1.938,4.661c0.297,1.874,0.457,4.946,0.48,9.215s0.226,7.217,0.605,8.842
		c0.379,1.625,1.144,2.912,2.295,3.86C211.514,116.912,213.002,117.41,214.829,117.458z"/>
</g>
<path fill="#FFFFFF" d="M66.5,88.5l44-22c0,0,7-6,18,0c12.798,6.98,45.5,22,45.5,22s4.5,3.5,0,7S129,120,129,120s-12,2.5-18,0
	S66.5,95.5,66.5,95.5S60.7,91.4,66.5,88.5z M83.195,94.554c0,0,26.478,15.13,30.604,16.85c4.126,1.719,12.378,0,12.378,0
	s27.854-14.442,30.947-16.85c3.096-2.407,0-4.813,0-4.813s-22.489-10.33-31.29-15.13c-7.565-4.126-12.379,0-12.379,0l-30.26,15.13
	C79.206,91.735,83.195,94.554,83.195,94.554z"/>
<path fill="#FFFFFF" d="M68,115c0,0-10.5,3.5,0,9.5s40,21,40,21s10.588,5.5,22,0c17.744-8.552,43.5-22,43.5-22s2.5-11-6-6
	S125,139.233,125,139.233s-6.5,2.733-12.5,0S68,115,68,115z"/>
<path fill="#FFFFFF" d="M68,142.5c0,0-10.5,3.5,0,9.5s40,21,40,21s10.588,5.5,22,0c17.744-8.552,43.5-22,43.5-22s2.5-11-6-6
	S125,166.733,125,166.733s-6.5,2.733-12.5,0S68,142.5,68,142.5z"/>
</svg>
