<?xml version="1.0" encoding="utf-8"?>
<!-- Generator: Adobe Illustrator 16.0.0, SVG Export Plug-In . SVG Version: 6.00 Build 0)  -->
<!DOCTYPE svg PUBLIC "-//W3C//DTD SVG 1.1//EN" "http://www.w3.org/Graphics/SVG/1.1/DTD/svg11.dtd">
<svg version="1.1" id="图层_1" xmlns="http://www.w3.org/2000/svg" xmlns:xlink="http://www.w3.org/1999/xlink" x="0px" y="0px"
	 width="240px" height="240px" viewBox="0 0 240 240" enable-background="new 0 0 240 240" xml:space="preserve">
<path fill="#F27E30" d="M238,216c0,13.255-10.745,24-24,24H26c-13.255,0-24-10.745-24-24V24C2,10.745,12.745,0,26,0h188
	c13.255,0,24,10.745,24,24V216z"/>
<path fill="#FFFFFF" d="M172.5,89.5c0-12.15,6.599-22,14.739-22H81.5c-12.15,0-22,9.85-22,22s9.85,22,22,22h105.739
	C179.099,111.5,172.5,101.65,172.5,89.5z"/>
<path fill="#FFFFFF" d="M68.738,149.5c0-12.15-6.599-22-14.739-22h105.739c12.15,0,22,9.85,22,22s-9.85,22-22,22H53.999
	C62.14,171.5,68.738,161.65,68.738,149.5z"/>
</svg>
