<?xml version="1.0" encoding="utf-8"?>
<!-- Generator: Adobe Illustrator 16.0.0, SVG Export Plug-In . SVG Version: 6.00 Build 0)  -->
<!DOCTYPE svg PUBLIC "-//W3C//DTD SVG 1.1//EN" "http://www.w3.org/Graphics/SVG/1.1/DTD/svg11.dtd">
<svg version="1.1" id="图层_1" xmlns="http://www.w3.org/2000/svg" xmlns:xlink="http://www.w3.org/1999/xlink" x="0px" y="0px"
	 width="240px" height="240px" viewBox="0 0 240 240" enable-background="new 0 0 240 240" xml:space="preserve">
<path fill-rule="evenodd" clip-rule="evenodd" fill="#0082C9" d="M216,241c-63.333,0-126.667,0-190,0
	c-0.722-0.392-1.4-0.954-2.172-1.15c-13.807-3.51-20.297-11.391-20.313-25.514C3.44,152.112,3.456,89.888,3.501,27.664
	c0.011-14.821,8.983-24.42,20.331-25.526C24.585,2.064,25.279,1.394,26,1c63.333,0,126.667,0,190,0
	c0.721,0.394,1.415,1.064,2.167,1.138c11.354,1.109,20.32,10.706,20.331,25.526c0.046,62.224,0.053,124.447-0.005,186.671
	c-0.015,14.964-9.047,24.435-20.323,25.53C217.417,239.938,216.722,240.608,216,241z M119.711,170.478
	c13.333,0,26.667,0.042,39.999-0.04c2.297-0.015,4.674-0.268,6.872-0.903c13.923-4.025,24.626-16.968,24.886-29.886
	c0.353-17.528-7.947-30.364-23.381-35.452c-3.861-1.273-5.873-3.012-7.068-7.137c-4.825-16.653-20.938-28.438-38.132-28.527
	c-19.303-0.1-35.452,10.513-40.232,28.143c-2.065,7.615-4.978,11.432-12.782,13.982c-14.262,4.66-22.173,20.576-19.009,35.109
	c3.383,15.54,17.676,25.486,30.854,24.846C94.354,169.997,107.044,170.479,119.711,170.478z"/>
<path fill-rule="evenodd" clip-rule="evenodd" fill="#FFFFFF" d="M119.711,170.479c-12.667,0.001-25.357-0.481-37.993,0.134
	c-13.178,0.641-27.472-9.306-30.854-24.846c-3.164-14.533,4.747-30.449,19.009-35.109c7.805-2.551,10.717-6.367,12.782-13.982
	c4.78-17.63,20.929-28.242,40.232-28.143c17.193,0.09,33.307,11.874,38.132,28.527c1.195,4.125,3.207,5.863,7.068,7.137
	c15.434,5.088,23.733,17.924,23.381,35.452c-0.26,12.918-10.963,25.86-24.886,29.886c-2.198,0.636-4.575,0.889-6.872,0.903
	C146.378,170.52,133.044,170.478,119.711,170.479z M119.963,158.51c11.499,0,23.003,0.221,34.494-0.057
	c13.896-0.336,23.529-8.998,24.067-21.116c0.516-11.624-7.678-20.18-21.159-22.094c-5.454-0.774-7.356-2.843-7.82-8.502
	c-1.097-13.391-12.241-24.505-25.348-25.278c-15.042-0.888-27.096,8.258-30.008,22.232c-0.815,3.913,0.044,5.506,3.675,7.083
	c11.5,4.996,19.313,17.318,18.609,28.359c-0.235,3.694-2.001,5.948-5.737,6.282c-3.958,0.354-6.269-1.67-7.096-5.468
	c-0.14-0.643-0.047-1.333-0.131-1.992c-1.352-10.596-10.886-18.579-20.803-17.432c-11.308,1.31-18.419,10.117-17.355,21.498
	c0.897,9.605,9.323,16.298,21.116,16.456C97.631,158.633,108.798,158.515,119.963,158.51z"/>
<path fill-rule="evenodd" clip-rule="evenodd" fill="#0082C9" d="M119.963,158.513c-11.165,0.002-22.332,0.12-33.495-0.03
	c-11.792-0.158-20.219-6.851-21.116-16.456c-1.063-11.381,6.047-20.188,17.355-21.498c9.917-1.147,19.451,6.836,20.803,17.432
	c0.084,0.659-0.009,1.35,0.131,1.992c0.827,3.798,3.137,5.822,7.096,5.468c3.736-0.334,5.501-2.588,5.737-6.282
	c0.704-11.041-7.108-23.363-18.609-28.359c-3.631-1.577-4.491-3.17-3.675-7.083c2.912-13.975,14.965-23.12,30.008-22.232
	c13.106,0.773,24.251,11.888,25.348,25.278c0.464,5.659,2.366,7.728,7.82,8.502c13.481,1.914,21.675,10.47,21.159,22.094
	c-0.538,12.118-10.172,20.78-24.067,21.116C142.966,158.73,131.462,158.51,119.963,158.513z"/>
</svg>
