<?xml version="1.0" encoding="utf-8"?>
<!-- Generator: Adobe Illustrator 16.0.0, SVG Export Plug-In . SVG Version: 6.00 Build 0)  -->
<!DOCTYPE svg PUBLIC "-//W3C//DTD SVG 1.1//EN" "http://www.w3.org/Graphics/SVG/1.1/DTD/svg11.dtd">
<svg version="1.1" id="图层_1" xmlns="http://www.w3.org/2000/svg" xmlns:xlink="http://www.w3.org/1999/xlink" x="0px" y="0px"
	 width="240px" height="240px" viewBox="0 0 240 240" enable-background="new 0 0 240 240" xml:space="preserve">
<path fill="#1D1D1D" d="M238,216c0,13.255-10.745,24-24,24H26c-13.255,0-24-10.745-24-24V24C2,10.745,12.745,0,26,0h188
	c13.255,0,24,10.745,24,24V216z"/>
<path fill="#1D72B5" d="M105,74h-3H81.5c-12.703,0-23,10.297-23,23c0,8.057,4.146,15.142,10.418,19.25
	C62.646,120.357,58.5,127.442,58.5,135.5c0,12.703,10.297,23,23,23H102h3h15V74H105z M84.206,88h17.165
	c0.212,0,0.42,0.018,0.629,0.032v19.936c-0.209,0.014-0.417,0.032-0.629,0.032H84.206c-5.318,0-9.629-4.477-9.629-10
	S78.887,88,84.206,88z M101.371,143.5H84.206c-5.318,0-9.629-4.477-9.629-10s4.311-10,9.629-10h17.165
	c0.212,0,0.42,0.019,0.629,0.032v19.936C101.791,143.481,101.583,143.5,101.371,143.5z"/>
<path fill="#1D72B5" d="M123.5,74v84.5h15h3H162c12.703,0,23-10.297,23-23c0-8.058-4.146-15.143-10.418-19.25
	C180.854,112.142,185,105.057,185,97c0-12.703-10.297-23-23-23h-20.5h-3H123.5z M168.924,98c0,5.523-4.311,10-9.629,10h-17.166
	c-0.212,0-0.42-0.018-0.629-0.032V88.032c0.209-0.014,0.417-0.032,0.629-0.032h17.166C164.613,88,168.924,92.477,168.924,98z
	 M141.5,143.468v-19.936c0.209-0.014,0.417-0.032,0.629-0.032h17.166c5.318,0,9.629,4.477,9.629,10s-4.311,10-9.629,10h-17.166
	C141.917,143.5,141.709,143.481,141.5,143.468z"/>
</svg>
