<?xml version="1.0" encoding="utf-8"?>
<!-- Generator: Adobe Illustrator 16.0.0, SVG Export Plug-In . SVG Version: 6.00 Build 0)  -->
<!DOCTYPE svg PUBLIC "-//W3C//DTD SVG 1.1//EN" "http://www.w3.org/Graphics/SVG/1.1/DTD/svg11.dtd">
<svg version="1.1" id="图层_1" xmlns="http://www.w3.org/2000/svg" xmlns:xlink="http://www.w3.org/1999/xlink" x="0px" y="0px"
	 width="240px" height="240px" viewBox="0 0 240 240" enable-background="new 0 0 240 240" xml:space="preserve">
<path fill="#333333" d="M238,216c0,13.255-10.745,24-24,24H26c-13.255,0-24-10.745-24-24V24C2,10.745,12.745,0,26,0h188
	c13.255,0,24,10.745,24,24V216z"/>
<path fill="#78B55F" d="M119.666,137.802c-0.002,3.831-0.042,7.664,0.01,11.495c0.044,3.251-1.404,4.523-4.312,2.9
	c-7.123-3.978-14.219-8.021-21.107-12.385c-1.347-0.854-2.347-3.246-2.409-4.968c-0.262-7.321-0.208-14.659-0.077-21.986
	c0.085-4.751,1.129-5.246,5.43-2.815c6.23,3.52,12.337,7.268,18.656,10.617c2.881,1.528,4.167,3.329,3.879,6.649
	C119.435,130.784,119.668,134.303,119.666,137.802z"/>
<path fill="#78B55F" d="M148.293,103.364c-9.109,5.248-16.814,9.771-24.635,14.088c-0.94,0.52-2.723,0.351-3.723-0.205
	c-7.98-4.437-15.867-9.043-24.23-13.856c1.052-1.111,1.661-2.107,2.548-2.635c6.301-3.743,12.535-7.637,19.074-10.917
	c1.975-0.99,5.296-1.059,7.229-0.06C132.188,93.727,139.512,98.266,148.293,103.364z"/>
<path fill="#78B55F" d="M124.384,153.584c0-10.902-0.016-20.141,0.04-29.377c0.004-0.563,0.428-1.37,0.901-1.648
	c7.937-4.69,15.911-9.313,24.837-14.512c0,10.347,0.053,19.438-0.075,28.521c-0.015,0.971-0.839,2.313-1.687,2.826
	C140.918,143.932,133.346,148.32,124.384,153.584z"/>
<polygon fill="none" stroke="#FFFFFF" stroke-width="4" stroke-miterlimit="10" points="195.898,79 117.899,120 42.899,79 
	116.399,28 "/>
<polygon fill="none" stroke="#FFFFFF" stroke-width="4" stroke-miterlimit="10" points="122.102,212.382 42.899,168.486 
	44.508,80.519 121.43,120.536 "/>
<polygon fill="none" stroke="#FFFFFF" stroke-width="4" stroke-miterlimit="10" points="117.899,212.382 197.102,168.486 
	195.492,80.519 118.572,120.536 "/>
</svg>
