<?xml version="1.0" encoding="utf-8"?>
<!-- Generator: Adobe Illustrator 16.0.0, SVG Export Plug-In . SVG Version: 6.00 Build 0)  -->
<!DOCTYPE svg PUBLIC "-//W3C//DTD SVG 1.1//EN" "http://www.w3.org/Graphics/SVG/1.1/DTD/svg11.dtd">
<svg version="1.1" id="图层_1" xmlns="http://www.w3.org/2000/svg" xmlns:xlink="http://www.w3.org/1999/xlink" x="0px" y="0px"
	 width="240px" height="240px" viewBox="0 0 240 240" enable-background="new 0 0 240 240" xml:space="preserve">
<path fill="#9C5789" d="M238,216c0,13.255-10.745,24-24,24H26c-13.255,0-24-10.745-24-24V24C2,10.745,12.745,0,26,0h188
	c13.255,0,24,10.745,24,24V216z"/>
<path fill="#AB709B" d="M116,45c-41.421,0-75,33.579-75,75c0,41.421,33.579,75,75,75c41.421,0,75-33.579,75-75
	C191,78.579,157.421,45,116,45z M116,178c-32.033,0-58-25.968-58-58c0-32.033,25.967-58,58-58c32.032,0,58,25.967,58,58
	C174,152.032,148.032,178,116,178z"/>
<g>
	<path fill="#FFFFFF" d="M79.217,90.533v14.06H50.823v7.903h23.892v14.06H50.823v8.546h29.681v14.06H30.79V90.533H79.217z"/>
	<path fill="#FFFFFF" d="M119.465,89.89c8.944,0.062,15.209,1.737,18.792,5.027c3.584,3.291,5.468,6.915,5.651,10.875
		c0,0.122,0,0.244,0,0.366s0,0.244,0,0.365c0,3.624-0.98,6.955-2.94,9.993c-1.961,3.04-4.135,4.683-6.524,4.926
		c4.166,1.904,6.692,4.146,7.581,6.725c0.888,2.578,1.333,5.771,1.333,9.578v3.131c0,1.966,0.106,3.455,0.321,4.467
		c0.214,1.014,0.965,1.673,2.252,1.98v1.838h-20.676c-0.368-1.898-0.598-3.706-0.689-5.422c-0.092-1.714-0.138-3.246-0.138-4.595
		c-0.062-2.449-0.262-4.425-0.598-5.927c-0.337-1.501-1.364-2.558-3.078-3.17c-0.675-0.307-1.471-0.521-2.389-0.644
		c-0.919-0.122-1.87-0.184-2.849-0.184c-0.552,0-1.103,0.016-1.654,0.046c-0.551,0.031-1.134,0.046-1.746,0.046
		c-0.062,0-0.123,0-0.184,0c-0.062,0-0.124,0-0.184,0c-0.552,0-1.088,0.016-1.608,0.046c-0.521,0.031-1.026,0.046-1.516,0.046
		v19.757H88.59V89.89H119.465z M107.979,115.068h11.486c1.776,0.062,3.139-0.454,4.09-1.545c0.949-1.091,1.424-2.292,1.424-3.601
		c0-0.06,0-0.138,0-0.229s0-0.168,0-0.229c-0.123-1.225-0.688-2.343-1.699-3.354c-1.012-1.011-2.497-1.516-4.457-1.516
		l-10.843-0.092V115.068z"/>
	<path fill="#FFFFFF" d="M183.789,89.89c8.025,0.062,14.136,2.237,18.333,6.524c4.195,4.289,6.354,9.005,6.478,14.151
		c0,0.124,0,0.229,0,0.322c0,0.092,0,0.169,0,0.229c0,5.024-2.007,9.649-6.019,13.875c-4.013,4.228-10.063,6.341-18.148,6.341
		h-10.936v17.827h-20.032V89.89H183.789z M173.497,116.263h9.649c1.837,0.062,3.23-0.474,4.181-1.608
		c0.949-1.133,1.484-2.374,1.608-3.722c0-0.061,0-0.138,0-0.23s0-0.168,0-0.229c0-0.122,0-0.26,0-0.414
		c0-0.152-0.032-0.322-0.092-0.505c-0.185-1.347-0.797-2.603-1.838-3.768c-1.043-1.163-2.543-1.746-4.503-1.746l-9.006-0.092
		V116.263z"/>
</g>
</svg>
