<?xml version="1.0" encoding="utf-8"?>
<!-- Generator: Adobe Illustrator 16.0.0, SVG Export Plug-In . SVG Version: 6.00 Build 0)  -->
<!DOCTYPE svg PUBLIC "-//W3C//DTD SVG 1.1//EN" "http://www.w3.org/Graphics/SVG/1.1/DTD/svg11.dtd">
<svg version="1.1" id="图层_1" xmlns="http://www.w3.org/2000/svg" xmlns:xlink="http://www.w3.org/1999/xlink" x="0px" y="0px"
	 width="240px" height="240px" viewBox="0 0 240 240" enable-background="new 0 0 240 240" xml:space="preserve">
<path fill-rule="evenodd" clip-rule="evenodd" fill="#333333" d="M220,240c-66,0-132,0-198,0c-0.568-0.332-1.1-0.763-1.708-0.98
	C8.8,234.916,3.128,227.008,3.127,214.977C3.123,151.66,3.116,88.343,3.16,25.025c0.002-2.463,0.245-4.99,0.831-7.376
	C6.335,8.098,13.342,3.178,22,0c66,0,132,0,198,0c0.406,0.286,0.773,0.678,1.224,0.843c12.477,4.572,17.65,11.935,17.65,25.181
	c0.002,62.817,0.008,125.635-0.026,188.452c-0.001,2.473-0.106,5.015-0.671,7.404C235.875,231.62,228.874,236.781,220,240z"/>
<g>
	<path fill-rule="evenodd" clip-rule="evenodd" d="M120.938,62.226c-3.225,0.94-6.527,1.51-9.492,2.834
		C95.344,72.251,79.3,79.574,63.312,87.016c-1.946,0.905-3.435,2.793-5.136,4.225c1.624,1.496,3.004,3.507,4.909,4.405
		c16.098,7.595,32.287,14.995,48.458,22.435c6.441,2.963,12.865,2.805,19.283-0.163c16.005-7.4,32.052-14.713,48.002-22.229
		c1.915-0.902,3.337-2.848,4.988-4.31c-1.669-1.465-3.109-3.42-5.042-4.319c-16.138-7.515-32.339-14.895-48.593-22.154
		C127.367,63.647,124.213,63.151,120.938,62.226z"/>
	<path fill-rule="evenodd" clip-rule="evenodd" d="M120.295,149.119c2.934-0.624,5.723-0.715,8.055-1.794
		c17.348-8.025,34.618-16.218,51.856-24.475c1.16-0.556,2.662-2.146,2.565-3.113c-0.11-1.11-1.65-2.404-2.872-3.021
		c-4.301-2.17-8.623-4.396-13.158-5.96c-2.234-0.771-5.273-0.896-7.399-0.005c-9.652,4.049-19.13,8.521-28.631,12.927
		c-6.441,2.987-12.82,3.038-19.26,0.063c-5.733-2.649-11.911-4.603-17.148-8.008c-10.529-6.847-20.544-6.973-30.712,0.232
		c-1.663,1.179-3.152,2.602-4.722,3.911c1.457,1.245,2.729,2.873,4.399,3.676c16.179,7.776,32.398,15.47,48.676,23.037
		C114.594,147.821,117.584,148.318,120.295,149.119z"/>
	<path fill-rule="evenodd" clip-rule="evenodd" d="M69.436,154.148c-0.064,0.323-0.129,0.647-0.193,0.971
		c0.772,0.533,1.488,1.187,2.326,1.583c13.689,6.472,27.337,13.034,41.121,19.297c5.712,2.596,11.654,2.257,17.392-0.438
		c13.104-6.151,26.217-12.28,39.309-18.457c1.185-0.56,2.238-1.399,3.354-2.108c-0.145-0.283-0.288-0.565-0.432-0.848
		C138.02,154.148,103.728,154.148,69.436,154.148z"/>
	<path fill-rule="evenodd" clip-rule="evenodd" fill="#5CBFE8" d="M120.938,62.226c3.274,0.926,6.429,1.422,9.242,2.679
		c16.254,7.26,32.455,14.64,48.593,22.154c1.933,0.899,3.373,2.854,5.042,4.319c-1.651,1.462-3.073,3.407-4.988,4.31
		c-15.95,7.517-31.997,14.829-48.002,22.229c-6.418,2.968-12.841,3.126-19.283,0.163c-16.171-7.439-32.36-14.84-48.458-22.435
		c-1.905-0.898-3.286-2.909-4.909-4.405c1.701-1.432,3.189-3.319,5.136-4.225C79.3,79.574,95.344,72.251,111.447,65.06
		C114.412,63.735,117.714,63.166,120.938,62.226z"/>
	<path fill-rule="evenodd" clip-rule="evenodd" fill="#8BBA25" d="M120.295,149.119c-2.711-0.801-5.701-1.298-8.351-2.529
		c-16.278-7.567-32.498-15.261-48.676-23.037c-1.67-0.803-2.942-2.431-4.399-3.676c1.57-1.31,3.06-2.732,4.722-3.911
		c10.168-7.205,20.183-7.079,30.712-0.232c5.237,3.405,11.415,5.358,17.148,8.008c6.44,2.976,12.819,2.925,19.26-0.063
		c9.501-4.405,18.979-8.878,28.631-12.927c2.126-0.892,5.165-0.766,7.399,0.005c4.535,1.563,8.857,3.79,13.158,5.96
		c1.222,0.616,2.762,1.91,2.872,3.021c0.097,0.967-1.405,2.558-2.565,3.113c-17.238,8.257-34.509,16.449-51.856,24.475
		C126.018,148.404,123.229,148.495,120.295,149.119z"/>
	<path fill-rule="evenodd" clip-rule="evenodd" fill="#E7764F" d="M120.295,177.68c-2.711-0.801-5.701-1.297-8.351-2.529
		c-16.278-7.566-32.498-15.26-48.676-23.037c-1.67-0.803-2.942-2.43-4.399-3.676c1.57-1.309,3.06-2.732,4.722-3.91
		c10.168-7.206,20.183-7.08,30.712-0.232c5.237,3.404,11.415,5.357,17.148,8.008c6.44,2.975,12.819,2.924,19.26-0.063
		c9.501-4.406,18.979-8.879,28.631-12.928c2.126-0.891,5.165-0.766,7.399,0.006c4.535,1.563,8.857,3.789,13.158,5.959
		c1.222,0.617,2.762,1.91,2.872,3.021c0.097,0.967-1.405,2.557-2.565,3.113c-17.238,8.256-34.509,16.449-51.856,24.475
		C126.018,176.965,123.229,177.057,120.295,177.68z"/>
</g>
</svg>
