<?xml version="1.0" encoding="utf-8"?>
<!-- Generator: Adobe Illustrator 16.0.0, SVG Export Plug-In . SVG Version: 6.00 Build 0)  -->
<!DOCTYPE svg PUBLIC "-//W3C//DTD SVG 1.1//EN" "http://www.w3.org/Graphics/SVG/1.1/DTD/svg11.dtd">
<svg version="1.1" id="图层_1" xmlns="http://www.w3.org/2000/svg" xmlns:xlink="http://www.w3.org/1999/xlink" x="0px" y="0px"
	 width="240px" height="240px" viewBox="0 0 240 240" enable-background="new 0 0 240 240" xml:space="preserve">
<path fill="#2182CE" d="M238,216c0,13.255-10.745,24-24,24H26c-13.255,0-24-10.745-24-24V24C2,10.745,12.745,0,26,0h188
	c13.255,0,24,10.745,24,24V216z"/>
<polygon fill="#FFFFFF" points="124.5,54 141.5,84.5 180,84.5 162.5,54 "/>
<polygon fill="#FFFFFF" points="120,56 103.833,86 122,116 140.167,86 121.167,55.167 "/>
<polygon fill="#FFFFFF" points="142.5,87 124.5,117.833 161.834,117.833 180,87 "/>
<polygon fill="#FFFFFF" points="65.25,86.917 82.25,117.417 120.75,117.417 103.25,86.917 "/>
<polygon fill="#FFFFFF" points="60.75,88.917 44.583,118.917 62.75,148.916 80.917,118.917 61.917,88.083 "/>
<polygon fill="#FFFFFF" points="83.25,119.916 65.25,150.75 102.584,150.75 120.75,119.916 "/>
<polygon fill="#FFFFFF" points="125.5,121 142.5,151.5 181,151.5 163.5,121 "/>
<polygon fill="#FFFFFF" points="121,123 104.833,153 123,183 141.167,153 122.167,122.168 "/>
<polygon fill="#FFFFFF" points="143.5,154 125.5,184.834 162.834,184.834 181,154 "/>
</svg>
