<?xml version="1.0" encoding="utf-8"?>
<!-- Generator: Adobe Illustrator 16.0.0, SVG Export Plug-In . SVG Version: 6.00 Build 0)  -->
<!DOCTYPE svg PUBLIC "-//W3C//DTD SVG 1.1//EN" "http://www.w3.org/Graphics/SVG/1.1/DTD/svg11.dtd">
<svg version="1.1" id="图层_1" xmlns="http://www.w3.org/2000/svg" xmlns:xlink="http://www.w3.org/1999/xlink" x="0px" y="0px"
	 width="240px" height="240px" viewBox="0 0 240 240" enable-background="new 0 0 240 240" xml:space="preserve">
<path fill-rule="evenodd" clip-rule="evenodd" fill="#004E90" d="M219,241c-65.333,0-130.667,0-196,0
	c-0.229-0.233-0.416-0.58-0.692-0.683C7.953,235.001,3.24,228.289,3.238,213.106c-0.002-18.804,0-37.607,0-56.412
	c0-43.266,0.009-86.531-0.006-129.798C3.228,16.304,7.531,8.291,17.137,3.441C19.021,2.489,21.042,1.807,23,1
	c65.333,0,130.667,0,196,0c0.228,0.234,0.412,0.583,0.688,0.686c14.35,5.316,19.071,12.04,19.073,27.208
	c0.002,22.465,0.001,44.93,0.001,67.395c-0.001,39.604-0.007,79.209,0.003,118.814c0.003,10.137-3.889,18.067-13.028,22.972
	C223.587,239.228,221.251,240.034,219,241z M175.133,124.426c-0.36,0.077-0.721,0.154-1.081,0.232
	c-3.771-5.652-7.396-11.41-11.418-16.877c-0.95-1.291-3.235-1.601-4.907-2.361c-0.627,1.479-1.752,2.944-1.795,4.44
	c-0.195,6.806-0.148,13.622-0.045,20.433c0.029,1.906-0.991,5.02,2.576,4.511c1.015-0.145,2.289-2.745,2.382-4.284
	c0.303-5.009,0.113-10.047,0.113-15.074c4.773,5.462,8.613,11.04,12.276,16.732c1.68,2.61,3.565,3.747,6.642,2.145
	c0.099-0.676,0.272-1.316,0.273-1.957c0.024-7.809,0.119-15.62-0.075-23.424c-0.029-1.195-1.421-2.356-2.183-3.533
	c-0.92,1.226-2.556,2.408-2.633,3.684C174.953,114.188,175.133,119.313,175.133,124.426z M197.113,135.312
	c8.377-0.015,15.118-6.856,15.051-15.277c-0.064-8.094-6.813-14.961-14.851-15.11c-8.118-0.15-15.296,6.938-15.356,15.167
	C181.896,128.446,188.745,135.325,197.113,135.312z M27.764,120.087c-0.015,8.832,6.325,15.294,14.923,15.21
	c8.248-0.081,14.733-6.688,14.778-15.058c0.045-8.428-6.858-15.425-15.125-15.332C34.162,105,27.778,111.648,27.764,120.087z
	 M64.146,133.775c1.688,0.574,2.755,1.064,3.875,1.297c6.029,1.256,11.528-2.641,12.27-8.636c0.812-6.559-3.29-12.146-9.329-12.338
	c-3.236-0.103-6.502,0.237-9.727,0.614c-0.697,0.081-1.816,1.168-1.826,1.806c-0.131,8.479-0.167,16.963,0.012,25.44
	c0.015,0.711,1.674,1.755,2.692,1.93c0.542,0.093,1.852-1.293,1.938-2.104C64.313,139.326,64.146,136.822,64.146,133.775z
	 M146.806,105.594c-7.841-0.623-6.385,5.451-7.979,8.715c-1.812,3.706-2.854,7.788-4.609,12.789
	c-2.369-6.919-4.413-12.673-6.296-18.479c-1.052-3.243-2.819-4.084-6.044-2.431c3.053,8.842,5.934,17.469,9.087,25.994
	c0.446,1.206,2.105,2.329,3.426,2.702c0.732,0.207,2.485-1.014,2.824-1.94C140.441,124.119,143.465,115.22,146.806,105.594z
	 M87.012,126.524c5.431,0,10.457,0,15.423,0c0.371-7.222-2.946-11.597-8.791-12.409c-4.933-0.685-10.037,2.732-11.462,7.673
	c-1.511,5.242,1.095,10.77,6.022,12.776c5.443,2.217,10.617,0.3,14.071-6.457c-2.757,0.691-4.601,0.783-6.046,1.588
	C92.353,131.854,89.69,131.244,87.012,126.524z M104.704,115.321c0,5.565-0.095,11.355,0.103,17.135
	c0.03,0.865,1.438,1.683,2.209,2.521c0.792-0.816,2.176-1.57,2.27-2.461c0.33-3.127-0.363-6.468,0.48-9.397
	c0.533-1.85,3.109-3.11,4.768-4.636c1.367,1.626,3.451,3.067,3.929,4.923c0.684,2.653-0.009,5.633,0.305,8.426
	c0.125,1.112,1.366,2.101,2.099,3.145c0.847-0.934,2.352-1.821,2.422-2.812c0.26-3.635,0.276-7.326-0.053-10.956
	c-0.395-4.354-3.97-7.41-8.127-7.137C111.812,114.289,108.537,114.847,104.704,115.321z M152.736,120.162
	c0-3.976,0.169-7.962-0.118-11.916c-0.072-1.003-1.597-1.901-2.454-2.847c-0.801,0.969-2.271,1.922-2.296,2.911
	c-0.193,7.945-0.199,15.898-0.01,23.844c0.022,0.97,1.537,1.904,2.36,2.855c0.837-0.975,2.322-1.902,2.396-2.932
	C152.898,128.123,152.729,124.137,152.736,120.162z"/>
<path fill-rule="evenodd" clip-rule="evenodd" fill="#FFFFFF" d="M175.133,124.426c0-5.113-0.18-10.238,0.126-15.334
	c0.077-1.275,1.713-2.458,2.633-3.684c0.762,1.177,2.153,2.338,2.183,3.533c0.194,7.804,0.1,15.615,0.075,23.424
	c-0.001,0.641-0.175,1.281-0.273,1.957c-3.076,1.603-4.962,0.466-6.642-2.145c-3.663-5.692-7.503-11.271-12.276-16.732
	c0,5.027,0.189,10.065-0.113,15.074c-0.093,1.539-1.367,4.14-2.382,4.284c-3.567,0.509-2.547-2.604-2.576-4.511
	c-0.104-6.811-0.15-13.627,0.045-20.433c0.043-1.496,1.168-2.962,1.795-4.44c1.672,0.761,3.957,1.07,4.907,2.361
	c4.022,5.467,7.647,11.225,11.418,16.877C174.412,124.58,174.772,124.503,175.133,124.426z"/>
<path fill-rule="evenodd" clip-rule="evenodd" fill="#FFFFFF" d="M197.113,135.312c-8.368,0.014-15.218-6.865-15.156-15.221
	c0.061-8.229,7.238-15.317,15.356-15.167c8.038,0.149,14.786,7.017,14.851,15.11C212.231,128.455,205.49,135.297,197.113,135.312z
	 M197.241,109.992c-5.711-0.077-10.012,4.133-10.136,9.922c-0.126,5.913,4.403,10.704,10.07,10.652
	c5.476-0.051,9.827-4.624,9.845-10.347C207.039,114.31,202.985,110.071,197.241,109.992z"/>
<path fill-rule="evenodd" clip-rule="evenodd" fill="#FFFFFF" d="M27.764,120.087c0.014-8.438,6.398-15.087,14.576-15.18
	c8.267-0.093,15.17,6.904,15.125,15.332c-0.044,8.369-6.53,14.977-14.778,15.058C34.089,135.381,27.749,128.919,27.764,120.087z
	 M42.315,109.977c-5.531,0.077-10.027,4.704-9.974,10.267c0.052,5.498,4.725,10.273,10.091,10.314
	c5.551,0.043,10.389-5.021,10.202-10.68C52.449,114.233,47.932,109.899,42.315,109.977z"/>
<path fill-rule="evenodd" clip-rule="evenodd" fill="#FFFFFF" d="M64.146,133.775c0,3.047,0.167,5.551-0.095,8.009
	c-0.086,0.812-1.396,2.197-1.938,2.104c-1.018-0.175-2.677-1.219-2.692-1.93c-0.179-8.478-0.144-16.961-0.012-25.44
	c0.01-0.638,1.129-1.725,1.826-1.806c3.225-0.377,6.49-0.717,9.727-0.614c6.039,0.192,10.141,5.779,9.329,12.338
	c-0.742,5.995-6.24,9.892-12.27,8.636C66.901,134.84,65.834,134.35,64.146,133.775z M64.026,125.068
	c0.362,3.576,2.359,5.854,6.088,5.633c3.691-0.219,5.717-2.761,5.492-6.378c-0.209-3.359-2.275-5.56-5.854-5.468
	C65.957,118.952,64.118,121.188,64.026,125.068z"/>
<path fill-rule="evenodd" clip-rule="evenodd" fill="#FFFFFF" d="M146.806,105.594c-3.341,9.626-6.364,18.525-9.592,27.351
	c-0.339,0.927-2.092,2.147-2.824,1.94c-1.32-0.373-2.979-1.496-3.426-2.702c-3.153-8.525-6.034-17.152-9.087-25.994
	c3.225-1.653,4.992-0.813,6.044,2.431c1.883,5.806,3.927,11.56,6.296,18.479c1.756-5.001,2.798-9.083,4.609-12.789
	C140.421,111.045,138.965,104.971,146.806,105.594z"/>
<path fill-rule="evenodd" clip-rule="evenodd" fill="#FFFFFF" d="M87.012,126.524c2.679,4.72,5.341,5.33,9.217,3.171
	c1.445-0.805,3.289-0.896,6.046-1.588c-3.454,6.757-8.628,8.674-14.071,6.457c-4.928-2.007-7.534-7.534-6.022-12.776
	c1.425-4.94,6.529-8.357,11.462-7.673c5.845,0.813,9.162,5.188,8.791,12.409C97.469,126.524,92.443,126.524,87.012,126.524z
	 M87.563,121.654c3.462,0,6.416,0,9.791,0C93.292,117.495,91.403,117.509,87.563,121.654z"/>
<path fill-rule="evenodd" clip-rule="evenodd" fill="#FFFFFF" d="M104.704,115.321c3.833-0.475,7.108-1.032,10.406-1.249
	c4.157-0.273,7.732,2.783,8.127,7.137c0.329,3.63,0.313,7.321,0.053,10.956c-0.07,0.99-1.575,1.878-2.422,2.812
	c-0.733-1.044-1.974-2.032-2.099-3.145c-0.313-2.793,0.379-5.772-0.305-8.426c-0.478-1.855-2.562-3.297-3.929-4.923
	c-1.659,1.525-4.235,2.786-4.768,4.636c-0.843,2.93-0.151,6.271-0.48,9.397c-0.094,0.891-1.478,1.645-2.27,2.461
	c-0.771-0.839-2.18-1.656-2.209-2.521C104.608,126.677,104.704,120.887,104.704,115.321z"/>
<path fill-rule="evenodd" clip-rule="evenodd" fill="#FFFFFF" d="M152.732,120.162c-0.003,3.975,0.166,7.961-0.118,11.916
	c-0.073,1.029-1.559,1.957-2.396,2.932c-0.823-0.951-2.338-1.886-2.36-2.855c-0.189-7.945-0.184-15.898,0.01-23.844
	c0.024-0.989,1.495-1.942,2.296-2.911c0.857,0.945,2.382,1.844,2.454,2.847C152.905,112.2,152.736,116.187,152.732,120.162z"/>
<path fill-rule="evenodd" clip-rule="evenodd" fill="#004E90" d="M197.241,109.992c5.744,0.079,9.798,4.317,9.779,10.228
	c-0.018,5.723-4.369,10.296-9.845,10.347c-5.667,0.052-10.196-4.739-10.07-10.652C187.229,114.125,191.53,109.915,197.241,109.992z
	 M198.96,114.075c-5.491,0.116-8.333,2.57-8.085,6.458c0.222,3.477,3.313,6.155,6.757,5.856c3.833-0.332,5.654-3.114,5.114-8.043
	C198.961,119.495,197.907,117.822,198.96,114.075z"/>
<path fill-rule="evenodd" clip-rule="evenodd" fill="#004E90" d="M42.315,109.977c5.616-0.077,10.134,4.257,10.319,9.901
	c0.187,5.658-4.651,10.723-10.202,10.68c-5.366-0.041-10.039-4.816-10.091-10.314C32.289,114.681,36.785,110.054,42.315,109.977z
	 M44.407,113.956c-5.617,0.278-8.449,2.799-8.146,6.634c0.278,3.503,3.352,6.106,6.833,5.786c3.815-0.35,5.634-3.135,5.082-8.168
	C43.788,120.082,43.898,117.219,44.407,113.956z"/>
<path fill-rule="evenodd" clip-rule="evenodd" fill="#004E90" d="M64.026,125.068c0.092-3.881,1.931-6.116,5.726-6.213
	c3.58-0.092,5.646,2.108,5.854,5.468c0.225,3.617-1.801,6.159-5.492,6.378C66.385,130.922,64.388,128.645,64.026,125.068z"/>
<path fill-rule="evenodd" clip-rule="evenodd" fill="#004E90" d="M87.563,121.654c3.84-4.146,5.729-4.159,9.791,0
	C93.978,121.654,91.024,121.654,87.563,121.654z"/>
<path fill-rule="evenodd" clip-rule="evenodd" fill="#FFFFFF" d="M198.96,114.075c-1.053,3.747,0.001,5.42,3.786,4.271
	c0.54,4.929-1.281,7.711-5.114,8.043c-3.444,0.299-6.535-2.38-6.757-5.856C190.627,116.646,193.469,114.191,198.96,114.075z"/>
<path fill-rule="evenodd" clip-rule="evenodd" fill="#FFFFFF" d="M44.407,113.956c-0.509,3.263-0.619,6.126,3.769,4.252
	c0.553,5.033-1.267,7.818-5.082,8.168c-3.48,0.32-6.555-2.283-6.833-5.786C35.958,116.755,38.79,114.234,44.407,113.956z"/>
</svg>
