<?xml version="1.0" encoding="utf-8"?>
<!-- Generator: Adobe Illustrator 16.0.0, SVG Export Plug-In . SVG Version: 6.00 Build 0)  -->
<!DOCTYPE svg PUBLIC "-//W3C//DTD SVG 1.1//EN" "http://www.w3.org/Graphics/SVG/1.1/DTD/svg11.dtd">
<svg version="1.1" id="图层_1" xmlns="http://www.w3.org/2000/svg" xmlns:xlink="http://www.w3.org/1999/xlink" x="0px" y="0px"
	 width="240px" height="240px" viewBox="0 0 240 240" enable-background="new 0 0 240 240" xml:space="preserve">
<path fill="#34C1ED" d="M238,216c0,13.255-10.745,24-24,24H26c-13.255,0-24-10.745-24-24V24C2,10.745,12.745,0,26,0h188
	c13.255,0,24,10.745,24,24V216z"/>
<path fill="#FFFFFF" d="M50,36c0,0,15.5,24.5,40,27s60,2,70.5,2.5s23.5,4.5,5,21.5S150,107.5,150,107.5s27.5-24,34.5-31.5
	s16-15.5-9-19.5s-72-1-91-5S50,36,50,36z"/>
<circle fill="#FFFFFF" cx="87" cy="126.5" r="11"/>
<circle fill="#FFFFFF" cx="134" cy="126.5" r="11"/>
<g>
	<path fill="#FFFFFF" d="M40.333,164.668c-6.443,0-11.667,6.118-11.667,13.666S33.891,192,40.333,192S52,185.882,52,178.334
		S46.776,164.668,40.333,164.668z M40.333,184.333c-2.828,0-5.121-2.686-5.121-5.999s2.293-5.999,5.121-5.999
		s5.121,2.686,5.121,5.999S43.162,184.333,40.333,184.333z"/>
	<path fill="#FFFFFF" d="M65.833,164.668c-1.923,0-3.733,0.555-5.333,1.521c-0.684-0.918-1.768-1.521-3-1.521
		c-2.071,0-3.75,1.679-3.75,3.75v28.332c0,2.071,1.679,3.75,3.75,3.75s3.75-1.679,3.75-3.75v-5.848
		c1.407,0.705,2.956,1.098,4.583,1.098c6.443,0,11.667-6.118,11.667-13.666S72.276,164.668,65.833,164.668z M65.833,184.333
		c-2.01,0-3.745-1.36-4.583-3.335v-5.328c0.838-1.975,2.573-3.335,4.583-3.335c2.828,0,5.121,2.686,5.121,5.999
		S68.662,184.333,65.833,184.333z"/>
	<path fill="#FFFFFF" d="M171.875,164.668c-1.417,0-2.632,0.821-3.228,2.007c-1.769-1.265-3.84-2.007-6.063-2.007
		c-6.443,0-11.667,6.118-11.667,13.666S156.141,192,162.584,192c2.521,0,4.849-0.946,6.756-2.538
		c0.654,0.641,1.547,1.038,2.535,1.038c2.002,0,3.625-1.623,3.625-3.625v-18.582C175.5,166.291,173.877,164.668,171.875,164.668z
		 M162.584,184.333c-2.828,0-5.121-2.686-5.121-5.999s2.293-5.999,5.121-5.999s5.121,2.686,5.121,5.999
		S165.412,184.333,162.584,184.333z"/>
	<path fill="#FFFFFF" d="M91.75,164.834c-6.766,0-12.25,6.044-12.25,13.5s5.484,13.5,12.25,13.5c5.233,0,9.688-3.623,11.442-8.713
		c-0.154-0.639-0.578-1.108-1.692-1.371c-1.103-0.259-2.626,0.378-3.845,1.051c-1.239,1.106-2.807,1.783-4.526,1.783
		c-2.938,0-5.46-1.935-6.587-4.709h9.708h3.465h4.199c0.052-0.507,0.085-1.02,0.085-1.541C104,170.878,98.516,164.834,91.75,164.834
		z M96.25,185.366l0.408,0.509H96.25V185.366z M86.542,175.375c0.923-2.822,2.991-4.791,5.399-4.791
		c2.408,0,4.476,1.969,5.399,4.791H86.542z"/>
	<path fill="#FFFFFF" d="M126.885,170.622c-0.009-0.019-0.018-0.035-0.026-0.054c-0.127-0.458-0.343-0.875-0.631-1.237
		c-3.979-7.003-10.873-4.169-13.989-2.374c-0.533-1.34-1.834-2.289-3.363-2.289c-2.002,0-3.625,1.623-3.625,3.625v18.582
		c0,2.002,1.623,3.625,3.625,3.625s3.625-1.623,3.625-3.625V174.75c6.125-9.375,7.5,0.625,7.5,0.625V187c0,1.933,1.567,3.5,3.5,3.5
		s3.5-1.567,3.5-3.5v-15.5c0-0.303-0.051-0.592-0.123-0.873L126.885,170.622z"/>
	<path fill="#FFFFFF" d="M141.75,171.5c1.09,0,2.09,0.485,2.884,1.292c0.963,0.135,2.357,0.131,4.116-0.417
		c1.811-0.564,1.77-2.344,1.299-3.951c-2.184-2.222-5.093-3.59-8.299-3.59c-6.766,0-12.25,6.044-12.25,13.5s5.484,13.5,12.25,13.5
		c1.929,0,3.746-0.505,5.369-1.38c2.165-1.76,3.865-4.973,2.006-7.22c-1.483-1.792-4.366-0.751-5.51-0.237
		c-0.159,0.09-0.321,0.17-0.488,0.236l-0.002,0.001c-0.435,0.172-0.896,0.266-1.375,0.266c-2.575,0-4.662-2.688-4.662-6
		S139.175,171.5,141.75,171.5z"/>
	<path fill="#FFFFFF" d="M189.125,164.834c-1.252-0.445-2.946,1.504-3.937,2.85c-0.291-1.711-1.771-3.016-3.563-3.016
		c-2.002,0-3.625,1.623-3.625,3.625v18.582c0,2.002,1.623,3.625,3.625,3.625s3.625-1.623,3.625-3.625v-12.58
		c2.106-4.246,6.184-2.482,6.75-3.17C196.625,165,189.125,164.834,189.125,164.834z"/>
	<path fill="#FFFFFF" d="M208.813,165.5H207v-4.375c0-2.278-1.847-4.125-4.125-4.125s-4.125,1.847-4.125,4.125v4.375h-0.438
		c-1.829,0-3.313,1.483-3.313,3.313s1.483,3.313,3.313,3.313h0.438v14.25c0,2.278,1.847,4.125,4.125,4.125s4.125-1.847,4.125-4.125
		v-14.25h1.813c1.829,0,3.313-1.483,3.313-3.313S210.642,165.5,208.813,165.5z"/>
</g>
</svg>
