<?xml version="1.0" encoding="utf-8"?>
<!-- Generator: Adobe Illustrator 16.0.0, SVG Export Plug-In . SVG Version: 6.00 Build 0)  -->
<!DOCTYPE svg PUBLIC "-//W3C//DTD SVG 1.1//EN" "http://www.w3.org/Graphics/SVG/1.1/DTD/svg11.dtd">
<svg version="1.1" id="图层_1" xmlns="http://www.w3.org/2000/svg" xmlns:xlink="http://www.w3.org/1999/xlink" x="0px" y="0px"
	 width="240px" height="240px" viewBox="0 0 240 240" enable-background="new 0 0 240 240" xml:space="preserve">
<path fill-rule="evenodd" clip-rule="evenodd" d="M220,241c-66,0-132,0-198,0c-14.346-4.936-19.27-15.209-19.171-30.021
	C3.238,149.996,2.993,89.01,3.023,28.024c0.001-2.65,0.052-5.358,0.571-7.941C5.65,9.856,12.757,4.367,22,1c66,0,132,0,198,0
	c14.34,4.94,19.271,15.208,19.172,30.023c-0.41,60.982-0.165,121.969-0.194,182.953c-0.002,2.651-0.045,5.361-0.568,7.942
	C236.338,232.132,229.28,237.67,220,241z M83.259,178.438c0.063-10.946-3.144-13.677-14.031-11.938
	c-0.821,0.132-1.817,0.074-2.414,0.524c-1.37,1.034-3.509,2.239-3.627,3.532c-0.466,5.064-0.555,10.214-0.14,15.279
	c0.12,1.461,2.155,3.446,3.73,3.997C77.46,193.567,83.196,189.494,83.259,178.438z M161.624,174.398
	c0.44-0.476,0.881-0.95,1.321-1.426c-1.458-2.021-2.62-5.456-4.422-5.832c-11.257-2.35-17.361-0.684-16.22,11.546
	c0.187,1.989,0.406,3.975,0.557,5.967c0.249,3.303,1.934,5.265,5.277,5.523c2.477,0.191,4.986,0.409,7.45,0.218
	c5.917-0.46,6.792-1.667,6.294-8.896c-1.498,0.803-3.483,1.215-3.73,2.108c-1.291,4.662-4.902,3.143-7.766,3.092
	c-3.478-0.062-3.522-2.849-3.564-5.433c-0.024-1.499-0.418-3.08-0.063-4.476c0.562-2.207,1.187-5.729,2.542-6.128
	c2.92-0.862,6.957-2.391,8.838,2.492C158.427,173.905,160.419,174,161.624,174.398z M165.223,165.934
	c-0.476,0.481-0.95,0.963-1.426,1.444c2.196,6.936,4.27,13.914,6.714,20.76c0.384,1.075,2.424,2.08,3.75,2.152
	c1.354,0.073,3.667-0.717,4.021-1.689c2.582-7.093,4.774-14.326,7.271-22.076c-6.943-0.408-5.62,5.183-7.06,8.132
	c-1.679,3.44-2.479,7.31-3.973,11.967c-2.083-6.409-3.658-11.82-5.664-17.066C168.3,168.099,166.469,167.128,165.223,165.934z
	 M86.654,174.723c0,6.549-0.058,13.638,0.083,20.723c0.015,0.769,1.183,1.516,1.816,2.272c0.636-0.744,1.716-1.432,1.82-2.244
	c0.263-2.055,0.087-4.166,0.087-6.389c8.983,3.374,12.385,0.813,11.83-8.483c-0.029-0.496-0.106-0.989-0.126-1.485
	c-0.178-4.289-2.827-5.753-6.641-5.531C92.755,173.746,90.007,174.277,86.654,174.723z M109.442,182.664c3.455,0,6.977,0,10.429,0
	c0.393-6.973-0.589-8.439-5.546-8.985c-6.058-0.666-8.577,1.038-9.188,6.216c-0.753,6.382,0.946,9.719,5.344,10.489
	c5.59,0.98,8.451-0.45,9.579-5.646c-2.543,1.156-4.488,2.547-6.598,2.876C110.601,188.06,108.625,186.754,109.442,182.664z
	 M123.978,174.707c0,3.974-0.134,8.279,0.097,12.564c0.056,1.047,1.308,2.029,2.01,3.041c0.603-1.109,1.572-2.169,1.728-3.337
	c0.28-2.117-0.439-4.478,0.23-6.397c0.561-1.608,2.507-2.732,3.84-4.07c1.094,1.286,2.838,2.438,3.138,3.89
	c0.525,2.545,0.012,5.289,0.274,7.915c0.072,0.727,1.347,1.334,2.069,1.995c0.543-0.668,1.518-1.312,1.556-2.008
	c0.172-3.14,0.147-6.295,0.064-9.442c-0.109-4.094-2.761-5.415-6.335-5.244C129.989,173.741,127.35,174.265,123.978,174.707z"/>
<path fill-rule="evenodd" clip-rule="evenodd" fill="#FFFFFF" d="M83.259,178.438c-0.063,11.056-5.799,15.129-16.482,11.396
	c-1.575-0.551-3.61-2.536-3.73-3.997c-0.416-5.065-0.327-10.215,0.14-15.279c0.119-1.293,2.257-2.498,3.627-3.532
	c0.597-0.45,1.593-0.393,2.414-0.524C80.116,164.762,83.322,167.492,83.259,178.438z M78.918,178.664c0-0.333,0.001-0.666,0-0.999
	c-0.033-7.041-0.454-7.569-6.061-7.603c-5.687-0.033-6.136,0.494-6.282,7.343c-0.018,0.831-0.092,1.663-0.084,2.494
	c0.06,6.247,1.215,7.188,7.314,6.998C79.892,186.708,78.776,182.37,78.918,178.664z"/>
<path fill-rule="evenodd" clip-rule="evenodd" fill="#FFFFFF" d="M161.624,174.398c-1.205-0.398-3.197-0.493-3.486-1.244
	c-1.881-4.883-5.918-3.354-8.838-2.492c-1.355,0.399-1.98,3.921-2.542,6.128c-0.354,1.396,0.039,2.977,0.063,4.476
	c0.042,2.584,0.087,5.371,3.564,5.433c2.863,0.051,6.475,1.57,7.766-3.092c0.247-0.894,2.232-1.306,3.73-2.108
	c0.498,7.229-0.377,8.437-6.294,8.896c-2.464,0.191-4.974-0.026-7.45-0.218c-3.344-0.259-5.028-2.221-5.277-5.523
	c-0.15-1.992-0.37-3.978-0.557-5.967c-1.142-12.229,4.963-13.896,16.22-11.546c1.802,0.376,2.964,3.812,4.422,5.832
	C162.505,173.448,162.064,173.923,161.624,174.398z"/>
<path fill-rule="evenodd" clip-rule="evenodd" fill="#FFFFFF" d="M165.223,165.934c1.246,1.194,3.077,2.165,3.634,3.623
	c2.006,5.246,3.581,10.657,5.664,17.066c1.494-4.657,2.294-8.526,3.973-11.967c1.439-2.949,0.116-8.54,7.06-8.132
	c-2.497,7.75-4.689,14.983-7.271,22.076c-0.354,0.973-2.666,1.763-4.021,1.689c-1.326-0.072-3.366-1.077-3.75-2.152
	c-2.444-6.846-4.518-13.824-6.714-20.76C164.272,166.896,164.747,166.415,165.223,165.934z"/>
<path fill-rule="evenodd" clip-rule="evenodd" fill="#FFFFFF" d="M86.654,174.723c3.353-0.445,6.101-0.977,8.87-1.138
	c3.814-0.222,6.463,1.242,6.641,5.531c0.021,0.496,0.097,0.989,0.126,1.485c0.555,9.296-2.847,11.857-11.83,8.483
	c0,2.223,0.176,4.334-0.087,6.389c-0.104,0.813-1.184,1.5-1.82,2.244c-0.633-0.757-1.801-1.504-1.816-2.272
	C86.596,188.36,86.654,181.271,86.654,174.723z M100.484,182.244c-2.659-2.634-4.052-5.209-5.895-5.586
	c-3.736-0.764-4.085,2.564-4.063,5.272c0.021,2.645,0.122,6.083,3.871,5.562C96.226,187.238,97.739,184.72,100.484,182.244z"/>
<path fill-rule="evenodd" clip-rule="evenodd" fill="#FFFFFF" d="M109.442,182.664c-0.817,4.09,1.159,5.396,4.02,4.949
	c2.11-0.329,4.054-1.72,6.598-2.876c-1.128,5.196-3.989,6.627-9.579,5.646c-4.397-0.771-6.097-4.107-5.344-10.489
	c0.612-5.178,3.131-6.882,9.188-6.216c4.957,0.546,5.938,2.013,5.546,8.985C116.419,182.664,112.897,182.664,109.442,182.664z
	 M116.251,180.041c0.202-0.649,0.404-1.298,0.607-1.947c-1.712-0.531-3.433-1.477-5.132-1.438c-0.99,0.023-1.943,1.622-3.865,3.385
	C111.737,180.041,113.994,180.041,116.251,180.041z"/>
<path fill-rule="evenodd" clip-rule="evenodd" fill="#FFFFFF" d="M123.978,174.707c3.372-0.442,6.012-0.966,8.671-1.094
	c3.574-0.171,6.226,1.15,6.335,5.244c0.083,3.147,0.107,6.303-0.064,9.442c-0.038,0.696-1.013,1.34-1.556,2.008
	c-0.723-0.661-1.997-1.269-2.069-1.995c-0.263-2.626,0.251-5.37-0.274-7.915c-0.3-1.451-2.044-2.604-3.138-3.89
	c-1.333,1.338-3.279,2.462-3.84,4.07c-0.67,1.92,0.05,4.28-0.23,6.397c-0.155,1.168-1.125,2.228-1.728,3.337
	c-0.702-1.012-1.954-1.994-2.01-3.041C123.844,182.986,123.978,178.681,123.978,174.707z"/>
<path fill-rule="evenodd" clip-rule="evenodd" d="M78.915,178.662c-0.139,3.708,0.977,8.046-5.11,8.235
	c-6.099,0.19-7.254-0.751-7.314-6.998c-0.008-0.831,0.066-1.663,0.084-2.494c0.146-6.849,0.595-7.376,6.282-7.343
	c5.606,0.033,6.028,0.562,6.061,7.603C78.919,177.998,78.918,178.331,78.915,178.662z"/>
<path fill-rule="evenodd" clip-rule="evenodd" d="M100.484,182.244c-2.745,2.476-4.259,4.994-6.087,5.248
	c-3.749,0.521-3.849-2.917-3.871-5.562c-0.022-2.708,0.327-6.036,4.063-5.272C96.432,177.035,97.825,179.61,100.484,182.244z"/>
<path fill-rule="evenodd" clip-rule="evenodd" d="M116.251,180.041c-2.257,0-4.514,0-8.39,0c1.921-1.763,2.875-3.361,3.865-3.385
	c1.699-0.039,3.42,0.906,5.132,1.438C116.655,178.743,116.453,179.392,116.251,180.041z"/>
</svg>
