<?xml version="1.0" encoding="utf-8"?>
<!-- Generator: Adobe Illustrator 16.0.0, SVG Export Plug-In . SVG Version: 6.00 Build 0)  -->
<!DOCTYPE svg PUBLIC "-//W3C//DTD SVG 1.1//EN" "http://www.w3.org/Graphics/SVG/1.1/DTD/svg11.dtd">
<svg version="1.1" id="图层_1" xmlns="http://www.w3.org/2000/svg" xmlns:xlink="http://www.w3.org/1999/xlink" x="0px" y="0px"
	 width="240px" height="240px" viewBox="0 0 240 240" enable-background="new 0 0 240 240" xml:space="preserve">
<path fill-rule="evenodd" clip-rule="evenodd" fill="#1D2D44" d="M219,241c-65.333,0-130.667,0-196,0
	c-16.274-6.707-19.882-12.207-19.882-30.311c0-60.792-0.005-121.584,0.018-182.376c0.001-2.487,0.003-5.023,0.455-7.453
	C5.617,9.956,12.938,4.111,23,1c65.333,0,130.667,0,196,0c16.281,6.726,19.882,12.215,19.882,30.311
	c0,60.792,0.005,121.585-0.018,182.377c-0.001,2.487,0.003,5.025-0.453,7.454C236.367,232.028,229.098,237.924,219,241z
	 M141.921,83.5c-1.48,0.646-3.009,1.244-4.477,1.965c-14.527,7.134-22.636,18.647-23.579,34.924
	c-0.269,4.644,2.135,7.748,5.874,7.661c4.21-0.099,6.262-2.597,6.441-6.727c0.028-0.666,0.053-1.333,0.127-1.994
	c1.539-13.667,12.195-23.915,25.805-24.824c13.316-0.891,25.677,8.246,28.181,21.78c0.869,4.698-0.074,9.886-0.953,14.71
	c-0.951,5.215-0.196,8.152,3.699,9.445c3.77,1.25,6.519-0.622,8.349-5.69c0.225-0.624,0.485-1.243,0.636-1.887
	c6.117-26.153-9.906-46.887-32.604-50.342c-3.207-0.488-4.742-1.6-6.015-4.624c-7.874-18.72-24.98-28.144-46.469-25.936
	C90.549,53.646,75.583,67.979,71.868,85.83c-0.639,3.071-1.96,4.738-4.826,6.146c-15.055,7.395-22.577,22.659-20.024,39.913
	c2.153,14.554,14.924,27.269,30.823,29.258c9.196,1.151,18.611,0.616,27.928,0.713c5.021,0.052,8.057-2.33,8.201-6.085
	c0.151-3.937-2.969-6.444-8.305-6.496c-7.997-0.077-16.004,0.192-23.988-0.145c-11.088-0.468-20.13-8.54-22.402-19.471
	c-2.197-10.567,3.101-22.689,13.468-26.261c8.261-2.845,10.655-7.348,11.548-15.504c1.409-12.87,13.961-23.129,27.076-23.949
	C125.313,63.077,137.676,70.921,141.921,83.5z M144.27,162.32c0,10.129-0.067,19.252,0.024,28.374
	c0.056,5.532,2.266,7.722,7.039,7.354c4.614-0.354,5.562-3.499,5.563-7.35c0.002-9.078,0.001-18.156,0.001-28.336
	c4.092,3.455,7.325,6.201,10.577,8.927c3.179,2.664,6.457,2.852,9.237-0.354c2.662-3.071,1.907-6.304-0.946-8.825
	c-6.856-6.062-13.821-12.002-20.815-17.905c-2.787-2.353-5.847-2.359-8.64,0.001c-6.991,5.908-13.951,11.855-20.82,17.904
	c-2.842,2.502-3.76,5.672-1.075,8.793c2.761,3.211,6.063,3.092,9.248,0.451C136.974,168.607,140.217,165.778,144.27,162.32z"/>
<path fill-rule="evenodd" clip-rule="evenodd" fill="#FFFFFF" d="M141.921,83.5c-4.245-12.579-16.608-20.423-30.556-19.55
	c-13.114,0.82-25.667,11.079-27.076,23.949c-0.893,8.156-3.287,12.659-11.548,15.504c-10.367,3.571-15.665,15.693-13.468,26.261
	c2.272,10.931,11.314,19.003,22.402,19.471c7.983,0.337,15.991,0.067,23.988,0.145c5.335,0.052,8.456,2.56,8.305,6.496
	c-0.144,3.755-3.18,6.137-8.201,6.085c-9.317-0.097-18.732,0.438-27.928-0.713c-15.898-1.989-28.67-14.704-30.823-29.258
	c-2.553-17.254,4.969-32.519,20.024-39.913c2.866-1.408,4.187-3.075,4.826-6.146c3.716-17.852,18.681-32.185,35.068-33.868
	c21.488-2.208,38.595,7.216,46.469,25.936c1.272,3.024,2.808,4.136,6.015,4.624c22.698,3.455,38.722,24.188,32.604,50.342
	c-0.15,0.644-0.411,1.263-0.636,1.887c-1.83,5.068-4.579,6.94-8.349,5.69c-3.896-1.293-4.65-4.23-3.699-9.445
	c0.879-4.824,1.822-10.012,0.953-14.71c-2.504-13.534-14.864-22.671-28.181-21.78c-13.609,0.909-24.266,11.157-25.805,24.824
	c-0.074,0.661-0.099,1.328-0.127,1.994c-0.18,4.13-2.231,6.628-6.441,6.727c-3.739,0.087-6.143-3.018-5.874-7.661
	c0.943-16.276,9.052-27.79,23.579-34.924C138.912,84.744,140.44,84.146,141.921,83.5z"/>
<path fill-rule="evenodd" clip-rule="evenodd" fill="#FFFFFF" d="M144.27,162.32c-4.053,3.458-7.296,6.287-10.607,9.033
	c-3.185,2.641-6.487,2.76-9.248-0.451c-2.685-3.121-1.767-6.291,1.075-8.793c6.869-6.049,13.829-11.996,20.82-17.904
	c2.793-2.36,5.853-2.354,8.64-0.001c6.994,5.903,13.959,11.844,20.815,17.905c2.854,2.521,3.608,5.754,0.946,8.825
	c-2.78,3.206-6.059,3.019-9.237,0.354c-3.252-2.726-6.485-5.472-10.577-8.927c0,10.18,0.001,19.258-0.001,28.336
	c-0.001,3.851-0.948,6.995-5.563,7.35c-4.773,0.368-6.983-1.821-7.039-7.354C144.202,181.572,144.27,172.449,144.27,162.32z"/>
</svg>
