<?xml version="1.0" encoding="utf-8"?>
<!-- Generator: Adobe Illustrator 16.0.0, SVG Export Plug-In . SVG Version: 6.00 Build 0)  -->
<!DOCTYPE svg PUBLIC "-//W3C//DTD SVG 1.1//EN" "http://www.w3.org/Graphics/SVG/1.1/DTD/svg11.dtd">
<svg version="1.1" id="图层_1" xmlns="http://www.w3.org/2000/svg" xmlns:xlink="http://www.w3.org/1999/xlink" x="0px" y="0px"
	 width="240px" height="240px" viewBox="0 0 240 240" enable-background="new 0 0 240 240" xml:space="preserve">
<path fill-rule="evenodd" clip-rule="evenodd" fill="#4B6087" d="M218,241c-64.667,0-129.333,0-194,0
	c-0.243-0.222-0.458-0.59-0.734-0.646c-14.088-2.822-20.235-14.483-20.049-28.018c0.402-29.275,0.124-58.562,0.124-87.843
	c0-32.442-0.018-64.885,0.009-97.328C3.361,13.935,9.588,5.778,22.349,2.025C22.948,1.85,23.452,1.35,24,1c64.667,0,129.333,0,194,0
	c0.242,0.223,0.455,0.592,0.731,0.647c14.233,2.906,20.196,14.588,20.051,28.016c-0.371,34.269-0.123,68.543-0.123,102.816
	c0,27.451,0.024,54.902-0.012,82.354c-0.017,13.252-6.243,21.402-18.993,25.146C219.055,240.154,218.55,240.652,218,241z
	 M120.849,187.287c16.252-0.416,31.076-5.361,43.106-16.646c12.022-11.277,23.559-23.089,35.011-34.954
	c7.314-7.578,7.85-18.763,0.696-26.263c-12.521-13.129-24.951-26.518-38.769-38.201C136.61,50.69,99.987,52.552,76.933,74.505
	c-11.217,10.681-22.054,21.77-32.861,32.87c-8.966,9.21-8.819,20.497,0.221,29.682c10.518,10.686,21.059,21.354,31.808,31.806
	C88.468,180.889,103.537,186.676,120.849,187.287z"/>
<path fill-rule="evenodd" clip-rule="evenodd" fill="#FFFFFF" d="M120.849,187.287c-17.312-0.611-32.38-6.398-44.748-18.425
	c-10.749-10.451-21.29-21.12-31.808-31.806c-9.04-9.185-9.188-20.472-0.221-29.682c10.807-11.101,21.644-22.189,32.861-32.87
	c23.055-21.953,59.678-23.814,83.961-3.282c13.817,11.684,26.247,25.072,38.769,38.201c7.153,7.5,6.618,18.685-0.696,26.263
	c-11.452,11.865-22.988,23.677-35.011,34.954C151.925,181.926,137.101,186.871,120.849,187.287z M120.921,172.742
	c27.82,0.045,50.685-22.666,50.75-50.408c0.064-27.97-22.968-51.095-50.785-50.989c-27.71,0.104-50.519,23.029-50.511,50.767
	C70.382,149.91,93.13,172.697,120.921,172.742z"/>
<path fill-rule="evenodd" clip-rule="evenodd" fill="#4B6087" d="M120.921,172.742c-27.791-0.045-50.539-22.832-50.546-50.631
	c-0.008-27.737,22.801-50.662,50.511-50.767c27.817-0.105,50.85,23.02,50.785,50.989
	C171.605,150.076,148.741,172.787,120.921,172.742z M144.871,139.603c5.82,0.097,5.508-0.1,7.569-3.72
	c2.226-3.908-0.245-5.719-2.508-7.94c-4.474-4.392-4.419-5.401,0.87-10.891c1.874-1.946,2.985-3.645,1.542-6.523
	c-1.358-2.708-2.508-4.674-6.099-4.713c-8.576-0.094-8.779-0.281-8.777-8.507c0-3.642-1.996-4.686-4.721-5.992
	c-2.747-1.318-4.255-0.259-6.056,1.538c-5.709,5.697-6.285,5.761-11.929,0.105c-2.339-2.345-4.297-2.758-7.449-1.457
	c-3.144,1.299-3.685,3.19-3.642,6.14c0.115,7.928,0.021,8.104-8.054,7.972c-3.408-0.056-4.929,1.215-6.239,4.266
	c-1.379,3.209-0.111,4.919,1.957,6.9c5.228,5.009,5.241,6.085,0.18,11.291c-1.959,2.015-3.332,3.748-1.808,6.9
	c1.387,2.869,2.809,4.415,6.27,4.383c8.147-0.077,8.717,0.398,8.537,8.296c-0.088,3.884,1.944,5.086,4.838,6.46
	c3.01,1.429,4.58-0.147,6.396-2.002c5.386-5.497,5.949-5.602,11.469,0.149c2.507,2.611,4.63,2.669,7.848,1.449
	c4.038-1.53,3.169-4.55,3.2-7.415C138.329,140.583,139.35,139.51,144.871,139.603z"/>
<path fill-rule="evenodd" clip-rule="evenodd" fill="#FFFFFF" d="M144.871,139.603c-5.521-0.093-6.542,0.98-6.604,6.689
	c-0.031,2.865,0.838,5.885-3.2,7.415c-3.218,1.22-5.341,1.162-7.848-1.449c-5.521-5.751-6.083-5.646-11.469-0.149
	c-1.817,1.854-3.386,3.431-6.396,2.002c-2.894-1.374-4.926-2.576-4.838-6.46c0.18-7.897-0.389-8.373-8.537-8.296
	c-3.461,0.032-4.883-1.514-6.27-4.383c-1.524-3.152-0.151-4.886,1.808-6.9c5.061-5.206,5.048-6.282-0.18-11.291
	c-2.068-1.981-3.336-3.691-1.957-6.9c1.311-3.051,2.831-4.321,6.239-4.266c8.075,0.133,8.169-0.044,8.054-7.972
	c-0.042-2.949,0.498-4.841,3.642-6.14c3.151-1.301,5.109-0.888,7.449,1.457c5.644,5.655,6.22,5.592,11.929-0.105
	c1.801-1.797,3.309-2.856,6.056-1.538c2.725,1.307,4.721,2.351,4.721,5.992c-0.002,8.226,0.201,8.413,8.777,8.507
	c3.591,0.039,4.74,2.005,6.099,4.713c1.443,2.879,0.332,4.577-1.542,6.523c-5.289,5.489-5.344,6.499-0.87,10.891
	c2.263,2.222,4.733,4.032,2.508,7.94C150.379,139.503,150.691,139.699,144.871,139.603z M120.524,112.894
	c-5.509,0.025-9.997,4.269-10.152,9.599c-0.154,5.277,4.807,10.215,10.227,10.181c5.465-0.035,10.207-4.879,10.061-10.276
	C130.515,117.003,126.104,112.867,120.524,112.894z"/>
<path fill-rule="evenodd" clip-rule="evenodd" fill="#4B6087" d="M120.524,112.894c5.579-0.026,9.99,4.109,10.136,9.503
	c0.146,5.397-4.596,10.241-10.061,10.276c-5.42,0.034-10.381-4.903-10.227-10.181C110.528,117.162,115.016,112.919,120.524,112.894z
	"/>
</svg>
