<?xml version="1.0" encoding="utf-8"?>
<!-- Generator: Adobe Illustrator 16.0.0, SVG Export Plug-In . SVG Version: 6.00 Build 0)  -->
<!DOCTYPE svg PUBLIC "-//W3C//DTD SVG 1.1//EN" "http://www.w3.org/Graphics/SVG/1.1/DTD/svg11.dtd">
<svg version="1.1" id="图层_1" xmlns="http://www.w3.org/2000/svg" xmlns:xlink="http://www.w3.org/1999/xlink" x="0px" y="0px"
	 width="240px" height="240px" viewBox="0 0 240 240" enable-background="new 0 0 240 240" xml:space="preserve">
<path fill-rule="evenodd" clip-rule="evenodd" fill="#6428B4" d="M218,241c-64.667,0-129.333,0-194,0
	c-0.413-0.274-0.79-0.664-1.244-0.805c-13.81-4.28-19.454-11.888-19.462-26.313c-0.008-15.48-0.002-30.961-0.002-46.44
	c0-46.94-0.014-93.881,0.012-140.82C3.31,16.244,7.66,8.336,17.069,3.58C19.256,2.476,21.684,1.848,24,1c64.667,0,129.333,0,194,0
	c0.412,0.274,0.788,0.666,1.242,0.807c13.808,4.275,19.458,11.889,19.464,26.313c0.009,21.473,0.002,42.945,0.002,64.418
	c0,40.781-0.009,81.563,0.006,122.344c0.004,10.56-4.159,18.684-13.779,23.545C222.748,239.53,220.317,240.154,218,241z
	 M235.291,121.263c0-31.66,0.016-63.32-0.008-94.98c-0.01-13.256-8.25-21.562-21.416-21.565
	C152.047,4.699,90.226,4.701,28.406,4.715C14.896,4.718,6.718,12.934,6.715,26.511c-0.014,62.986-0.014,125.974,0,188.96
	c0.003,13.593,8.167,21.812,21.668,21.814c61.654,0.014,123.308,0.012,184.962,0.002c13.862-0.003,21.936-8.116,21.942-22.044
	C235.302,183.916,235.291,152.59,235.291,121.263z"/>
<path fill-rule="evenodd" clip-rule="evenodd" fill="#FFFFFF" d="M235.291,121.263c0,31.327,0.011,62.653-0.004,93.98
	c-0.007,13.928-8.08,22.041-21.942,22.044c-61.654,0.01-123.308,0.012-184.962-0.002c-13.501-0.003-21.665-8.222-21.668-21.814
	c-0.014-62.986-0.014-125.974,0-188.96C6.718,12.934,14.896,4.718,28.406,4.715c61.82-0.014,123.641-0.016,185.461,0.002
	c13.166,0.004,21.406,8.31,21.416,21.565C235.307,57.942,235.291,89.603,235.291,121.263z M131.762,115.303
	c4.277-2.887,2.842-5.757-0.016-7.374c-4.085-2.311-8.56-4.87-13.061-5.303c-8.18-0.784-16.451,6.322-18.283,14.215
	c-2.059,8.865,2.207,17.981,10.181,21.763c8.132,3.854,17.854,1.536,23.262-5.596c1.565-2.065,3.01-4.223,4.735-6.656
	c1.523,1.797,2.604,3.24,3.855,4.517c3.982,4.063,10.063,5.141,15.193,2.779c4.96-2.283,7.827-7.217,7.524-12.949
	c-0.298-5.669-3.644-10.021-9.101-11.841c-5.854-1.952-11.636,0.09-15.611,5.771c-3.623,5.178-6.832,10.655-10.615,15.707
	c-4.057,5.415-11.023,6.86-17.023,4.069c-5.92-2.753-9.159-9.123-7.978-15.689c1.081-6.006,6.532-10.876,12.928-11.34
	C124.071,106.917,128.456,110.162,131.762,115.303z M66.482,116.308c0.37,0,0.801-0.135,0.981,0.021
	c1.126,0.972,2.226,1.979,3.279,3.029c6.562,6.538,6.562,6.532,13.01,0.159c1.301-1.286,2.725-2.447,4.092-3.666
	c0.419,0.211,0.839,0.422,1.258,0.633c0,6.006,0,12.012,0,18.017c0.62,0.199,1.239,0.398,1.859,0.599
	c0.865-1.771,2.366-3.503,2.476-5.319c0.331-5.47,0.317-10.983,0.002-16.454c-0.097-1.686-1.224-3.934-2.576-4.706
	c-0.897-0.512-3.318,0.812-4.554,1.89c-3.07,2.679-5.852,5.688-9.21,9.023c-3.476-3.633-6.317-6.883-9.462-9.804
	c-2.764-2.566-6.129-1.714-6.273,1.656c-0.329,7.7-0.104,15.424-0.104,23.138c0.638,0.084,1.275,0.168,1.912,0.252
	C68.954,129.771,63.663,122.032,66.482,116.308z M196.833,135.284c0.249-0.396,0.498-0.793,0.748-1.19
	c-0.351-0.719-0.591-1.521-1.068-2.143c-2.555-3.316-3.146-5.868,0.269-9.664c4.388-4.878,0.518-13.134-6.183-13.887
	c-4.923-0.553-9.97-0.367-14.925-0.009c-1.31,0.095-3.508,2.004-3.556,3.152c-0.318,7.677-0.165,15.373-0.165,23.262
	c5.645-0.536,3.917-5.006,5.191-7.8c5.728-0.415,11.597-1.961,14.496,5.577C192.166,133.947,195.042,134.407,196.833,135.284z
	 M226.284,110.138c-0.283-0.647-0.566-1.295-0.85-1.943c-2.974,0-5.946-0.001-8.92,0.001c-12.489,0.009-11.575-1.122-11.409,11.637
	c0.231,17.746-3.301,14.741,16.492,14.988c0.496,0.006,1.162,0.115,1.459-0.149c1.119-0.998,2.118-2.131,3.162-3.213
	c-0.264-0.405-0.528-0.811-0.792-1.216c-3.633,0-7.282-0.215-10.896,0.052c-5.032,0.37-5.536-2.017-4.194-6.485
	c3.064,0,6.025,0.059,8.982-0.018c2.788-0.07,6.229,0.766,6.485-4.66c-5.435,0-10.614,0-15.518,0
	c-1.475-4.874-0.156-6.774,4.287-6.389c2.476,0.216,5.042,0.33,7.463-0.099C223.553,112.374,224.875,111.011,226.284,110.138z
	 M22.276,126.728c2.193,0,4.17,0.007,6.146-0.002c2.166-0.01,4.348,0.134,6.493-0.087c5.146-0.53,8.81-4.428,8.834-9.174
	c0.023-4.521-3.558-8.794-8.269-9.131c-4.807-0.344-9.674-0.326-14.477,0.038c-1.363,0.103-3.664,1.922-3.711,3.032
	c-0.327,7.698-0.172,15.417-0.172,23.326C22.754,134.181,21.232,130.103,22.276,126.728z M50.265,134.44
	c0.423,0.223,0.846,0.445,1.27,0.668c1.06-1.152,2.995-2.272,3.038-3.461c0.277-7.684,0.142-15.383,0.142-23.076
	c-0.425-0.225-0.85-0.448-1.275-0.672c-1.058,1.152-2.99,2.273-3.033,3.463C50.129,119.047,50.265,126.746,50.265,134.44z"/>
<path fill-rule="evenodd" clip-rule="evenodd" fill="#6428B4" d="M131.762,115.303c-3.306-5.141-7.69-8.386-14.008-7.928
	c-6.396,0.464-11.848,5.334-12.928,11.34c-1.181,6.566,2.058,12.937,7.978,15.689c6,2.791,12.966,1.346,17.023-4.069
	c3.783-5.052,6.992-10.529,10.615-15.707c3.976-5.681,9.758-7.723,15.611-5.771c5.457,1.82,8.803,6.172,9.101,11.841
	c0.303,5.732-2.564,10.666-7.524,12.949c-5.13,2.361-11.211,1.284-15.193-2.779c-1.251-1.276-2.332-2.72-3.855-4.517
	c-1.726,2.434-3.17,4.591-4.735,6.656c-5.407,7.132-15.13,9.45-23.262,5.596c-7.975-3.781-12.24-12.897-10.181-21.763
	c1.832-7.893,10.103-14.999,18.283-14.215c4.501,0.433,8.976,2.992,13.061,5.303C134.604,109.546,136.039,112.416,131.762,115.303z
	 M152.12,112.818c-3.956-0.085-10.289,5.337-10.233,8.763c0.052,3.209,6.122,8.534,9.844,8.637c4.651,0.127,8.612-3.565,8.836-8.236
	C160.8,117.104,156.946,112.923,152.12,112.818z"/>
<path fill-rule="evenodd" clip-rule="evenodd" fill="#6428B4" d="M66.482,116.308c-2.819,5.725,2.471,13.464-3.31,18.468
	c-0.637-0.084-1.274-0.168-1.912-0.252c0-7.714-0.225-15.438,0.104-23.138c0.144-3.37,3.509-4.223,6.273-1.656
	c3.145,2.921,5.986,6.171,9.462,9.804c3.359-3.335,6.141-6.345,9.21-9.023c1.236-1.078,3.657-2.401,4.554-1.89
	c1.352,0.772,2.479,3.021,2.576,4.706c0.315,5.471,0.329,10.984-0.002,16.454c-0.11,1.816-1.611,3.549-2.476,5.319
	c-0.62-0.2-1.239-0.399-1.859-0.599c0-6.005,0-12.011,0-18.017c-0.419-0.211-0.839-0.422-1.258-0.633
	c-1.367,1.219-2.791,2.38-4.092,3.666c-6.449,6.373-6.449,6.379-13.01-0.159c-1.054-1.05-2.153-2.058-3.279-3.029
	C67.283,116.173,66.852,116.308,66.482,116.308z"/>
<path fill-rule="evenodd" clip-rule="evenodd" fill="#6428B4" d="M196.833,135.284c-1.791-0.877-4.667-1.337-5.192-2.701
	c-2.899-7.538-8.769-5.992-14.496-5.577c-1.274,2.794,0.453,7.264-5.191,7.8c0-7.889-0.153-15.585,0.165-23.262
	c0.048-1.148,2.246-3.058,3.556-3.152c4.955-0.358,10.002-0.544,14.925,0.009c6.7,0.753,10.57,9.009,6.183,13.887
	c-3.414,3.796-2.823,6.348-0.269,9.664c0.478,0.621,0.718,1.424,1.068,2.143C197.331,134.491,197.082,134.888,196.833,135.284z
	 M183.909,112.813c-2.099,1.264-6.958-2.772-7.421,3.579c-0.303,4.16,0.765,6.31,5.369,5.73c2.278-0.287,4.845,0.507,6.868-0.267
	c1.968-0.753,3.409-2.884,5.082-4.409c-1.656-1.545-3.133-3.397-5.04-4.516C187.662,112.282,185.863,112.813,183.909,112.813z"/>
<path fill-rule="evenodd" clip-rule="evenodd" fill="#6428B4" d="M226.284,110.138c-1.409,0.873-2.731,2.236-4.247,2.506
	c-2.421,0.429-4.987,0.314-7.463,0.099c-4.443-0.386-5.762,1.515-4.287,6.389c4.903,0,10.083,0,15.518,0
	c-0.257,5.426-3.697,4.59-6.485,4.66c-2.957,0.076-5.918,0.018-8.982,0.018c-1.342,4.469-0.838,6.855,4.194,6.485
	c3.613-0.267,7.263-0.052,10.896-0.052c0.264,0.405,0.528,0.811,0.792,1.216c-1.044,1.082-2.043,2.215-3.162,3.213
	c-0.297,0.265-0.963,0.155-1.459,0.149c-19.793-0.247-16.261,2.758-16.492-14.988c-0.166-12.759-1.08-11.628,11.409-11.637
	c2.974-0.002,5.946-0.001,8.92-0.001C225.718,108.843,226.001,109.49,226.284,110.138z"/>
<path fill-rule="evenodd" clip-rule="evenodd" fill="#6428B4" d="M22.276,126.728c-1.044,3.375,0.478,7.453-5.155,8.003
	c0-7.909-0.154-15.628,0.172-23.326c0.047-1.11,2.348-2.93,3.711-3.032c4.803-0.364,9.67-0.382,14.477-0.038
	c4.711,0.337,8.292,4.61,8.269,9.131c-0.025,4.746-3.688,8.644-8.834,9.174c-2.145,0.221-4.328,0.077-6.493,0.087
	C26.446,126.734,24.47,126.728,22.276,126.728z M29.65,112.785c-1.162,0-2.336,0.113-3.482-0.021
	c-3.52-0.414-4.479,1.146-4.553,4.563c-0.082,3.778,1.231,5.131,4.873,4.779c1.973-0.19,3.979-0.041,5.97-0.038
	c3.278,0.004,6.402-0.885,6.468-4.613c0.066-3.744-2.916-4.799-6.291-4.675C31.642,112.816,30.646,112.785,29.65,112.785z"/>
<path fill-rule="evenodd" clip-rule="evenodd" fill="#6428B4" d="M50.265,134.44c0-7.694-0.135-15.394,0.142-23.078
	c0.043-1.189,1.975-2.311,3.033-3.463c0.425,0.224,0.85,0.447,1.275,0.672c0,7.693,0.135,15.393-0.142,23.076
	c-0.043,1.188-1.978,2.309-3.038,3.461C51.111,134.886,50.688,134.663,50.265,134.44z"/>
</svg>
