<?xml version="1.0" encoding="utf-8"?>
<!-- Generator: Adobe Illustrator 16.0.0, SVG Export Plug-In . SVG Version: 6.00 Build 0)  -->
<!DOCTYPE svg PUBLIC "-//W3C//DTD SVG 1.1//EN" "http://www.w3.org/Graphics/SVG/1.1/DTD/svg11.dtd">
<svg version="1.1" id="图层_1" xmlns="http://www.w3.org/2000/svg" xmlns:xlink="http://www.w3.org/1999/xlink" x="0px" y="0px"
	 width="240px" height="240px" viewBox="0 0 240 240" enable-background="new 0 0 240 240" xml:space="preserve">
<path fill="#2496ED" d="M238,216c0,13.255-10.745,24-24,24H26c-13.255,0-24-10.745-24-24V24C2,10.745,12.745,0,26,0h188
	c13.255,0,24,10.745,24,24V216z"/>
<path fill="#FFFFFF" d="M101,49l33.667-19.667L167.334,49v70L197,136v39.667l-62,34.666L106,194l-32,16.333l-32.333-18V153L72,136
	l-0.667-35.333l30.577-17.664L101,49z M158,50.333L134.667,37l-26.333,15.333l22.333,14L158,50.333z M161.334,56.667L135,71.333
	v27.333l26.334-15.333V56.667z M161.334,118V90.667L138,105v26.667L161.334,118z M163.667,124.333L141,137.667l23.167,14l23.167-14
	L163.667,124.333z M168,156.667V184l22.667-13v-27L168,156.667z M138,202l23.334-13.667v-27.666l-23.334,14V202z M133.167,142
	l-21.833,13.333L134.667,169L158,155.333L133.167,142z M131,108l-22.667,14v26.333L131,135.166V108z M104.667,89l-23.333,13.667
	l23.667,14l23-14L104.667,89z M74,142l-22.667,13.5L74,169l23.333-13.5L74,142z M78,202l23-14v-27.333l-23,13.666V202z"/>
</svg>
