<?xml version="1.0" encoding="utf-8"?>
<!-- Generator: Adobe Illustrator 16.0.0, SVG Export Plug-In . SVG Version: 6.00 Build 0)  -->
<!DOCTYPE svg PUBLIC "-//W3C//DTD SVG 1.1//EN" "http://www.w3.org/Graphics/SVG/1.1/DTD/svg11.dtd">
<svg version="1.1" id="图层_1" xmlns="http://www.w3.org/2000/svg" xmlns:xlink="http://www.w3.org/1999/xlink" x="0px" y="0px"
	 width="240px" height="240px" viewBox="0 0 240 240" enable-background="new 0 0 240 240" xml:space="preserve">
<g>
	<path fill-rule="evenodd" clip-rule="evenodd" fill="#FFFFFF" d="M26,238c-12.131,0-22-9.869-22-22V24C4,11.869,13.869,2,26,2h188
		c12.131,0,22,9.869,22,22v192c0,12.131-9.869,22-22,22H26z"/>
	<path fill="#326690" d="M214,4c11.028,0,20,8.972,20,20v192c0,11.028-8.972,20-20,20H26c-11.028,0-20-8.972-20-20V24
		C6,12.972,14.972,4,26,4H214 M214,0H26C12.745,0,2,10.745,2,24v192c0,13.255,10.745,24,24,24h188c13.255,0,24-10.745,24-24V24
		C238,10.745,227.255,0,214,0L214,0z"/>
</g>
<path fill-rule="evenodd" clip-rule="evenodd" fill="#326690" d="M171.257,115.354c8.05-14.303,13.846-28.066,16.125-43.004
	c1.305-8.553,2.314-17.24-4.709-24.434c-9.979-10.222-22.238-13.351-36.015-12.342c-7.568,0.554-15.402-0.091-22.665,1.667
	c-12.99,3.144-25.587,0.92-38.482,0.163c-18.049-1.06-28.977,9.893-30.526,27.813c-1.132,13.091,2.06,25.554,6.037,37.677
	c3.284,10.008,7.885,19.654,12.664,29.074c2.479,4.887,7.796,7.67,13.167,5.81c4.688-1.623,8.045-0.209,12.284,0.943
	c5.405,1.469,11.356,0.931,17.461,1.28c0.452,4.948,0.686,10.739,1.558,16.434c2.235,14.595,10.546,19.935,24.341,16.153
	c9.97-2.732,14.646-9.883,16.348-19.388c1.074-5.998,1.605-12.094,2.4-18.308c1.929-0.105,3.573-0.178,5.214-0.288
	c6.81-0.459,13.126-2.295,18.375-6.874c3.049-2.66,5.282-5.811,3.336-10.036c-1.945-4.222-5.798-3.797-9.527-3.326
	C176.535,114.636,174.434,114.93,171.257,115.354z"/>
<path fill-rule="evenodd" clip-rule="evenodd" fill="#326690" d="M190.822,210.693c-3.385-1.39-5.981-2.455-8.254-3.388
	c2.633-3.515,5.226-5.945,6.52-8.937c2.091-4.836,0.402-10.915-3.058-13.699c-3.119-2.509-6.595-3.021-10.204-1.208
	c-3.776,1.896-5.343,5.209-5.563,9.311c-0.254,4.738,0.755,8.857,5.028,11.679c1.753,1.156,3.36,2.552,4.944,3.939
	C183.136,210.928,186.163,212.582,190.822,210.693z"/>
<path fill-rule="evenodd" clip-rule="evenodd" fill="#326690" d="M114.724,188.48c-3.188,0-6.149-0.391-8.962,0.091
	c-4.323,0.74-5.494,3.989-4.563,8.08c0.693,3.044,0.717,6.646-0.264,9.562c-1.182,3.511-0.352,5.465,2.869,5.704
	c3.104,0.23,6.391-0.382,9.397-1.289c1.103-0.332,2.37-2.668,2.206-3.909c-0.152-1.146-1.975-2.518-3.329-2.944
	c-1.83-0.577-3.987-0.07-5.863-0.563c-1.156-0.304-2.052-1.602-3.065-2.452c0.027-0.598,0.053-1.194,0.08-1.791
	C113.495,202.038,112.029,193.697,114.724,188.48z"/>
<path fill-rule="evenodd" clip-rule="evenodd" fill="#326690" d="M35.68,197.233c10.792-1.628,13.386-3.828,12.134-9.825
	c-0.978-4.686-7.921-6.571-15.472-4.048c0,6.369-0.074,12.828,0.08,19.281c0.023,0.978,1.104,1.93,1.696,2.893
	c0.521-1.034,1.322-2.024,1.497-3.115C35.871,200.822,35.68,199.153,35.68,197.233z"/>
<path fill-rule="evenodd" clip-rule="evenodd" fill="#326690" d="M151.771,201.613c2.187,3.583,5.739,5.132,9.214,3.46
	c2.244-1.081,5.093-3.438,5.308-5.474c0.203-1.931-2.461-4.393-4.269-6.22c-1.083-1.095-3.178-1.146-4.385-2.176
	c-1.105-0.941-2.583-3.101-2.205-3.774c0.715-1.276,2.556-2.337,4.091-2.627c1.678-0.317,3.54,0.339,5.321,0.571
	c0.089-0.407,0.178-0.814,0.268-1.222c-1.93-0.601-4.137-2.091-5.727-1.597c-2.566,0.798-5.662,2.399-6.833,4.577
	c-1.621,3.013,0.584,5.625,3.717,6.987c1.366,0.595,3.031,0.892,4.021,1.869c1.262,1.247,1.976,3.047,2.927,4.608
	c-1.727,0.905-3.396,2.385-5.193,2.559C156.151,203.338,154.156,202.261,151.771,201.613z"/>
<path fill-rule="evenodd" clip-rule="evenodd" fill="#326690" d="M52.23,196.952c-0.02,4.927,3.222,8.624,7.615,8.685
	c4.213,0.058,7.83-3.893,7.855-8.578c0.025-4.697-3.48-8.623-7.756-8.688C55.613,188.306,52.25,192.046,52.23,196.952z"/>
<path fill-rule="evenodd" clip-rule="evenodd" fill="#326690" d="M146.527,197.437c1.057-4.228,0.174-7.275-3.915-8.589
	c-3.696-1.187-6.434,0.553-8.339,3.607c-2.081,3.335-1.303,8.565,1.444,10.98c3.265,2.87,6.259,2.872,9.711,0.009
	c-7.724-0.228-8.091-0.452-8.717-5.563C139.975,197.734,143.227,197.587,146.527,197.437z"/>
<path fill-rule="evenodd" clip-rule="evenodd" fill="#326690" d="M199.672,202.999c0-6.362,0.067-12.169-0.073-17.97
	c-0.021-0.864-1.014-1.705-1.557-2.557c-0.561,0.659-1.596,1.312-1.607,1.98c-0.119,6.925-0.073,13.852-0.073,20.466
	c4.519,0,8.322,0,12.126,0c-0.01-0.423-0.02-0.845-0.029-1.268C205.756,203.45,203.053,203.25,199.672,202.999z"/>
<path fill-rule="evenodd" clip-rule="evenodd" fill="#326690" d="M72.426,202.521c-0.104,0.287-0.208,0.574-0.312,0.861
	c0.889,0.51,1.742,1.1,2.673,1.514c3.58,1.596,6.929,0.762,8.528-2.592c1.762-3.694-1.328-5.262-4.322-6.366
	c-0.622-0.229-1.393-0.375-1.786-0.828c-0.696-0.803-1.709-1.924-1.551-2.699c0.147-0.719,1.591-1.446,2.574-1.654
	c1.327-0.281,2.758-0.07,4.144-0.07c-3.564-2.995-7.268-3.265-9.383,0.636c-2.262,4.172,1.748,5.227,4.568,6.546
	c0.451,0.211,1.038,0.343,1.301,0.703c0.714,0.972,1.287,2.046,1.916,3.08c-1.113,0.555-2.203,1.502-3.346,1.571
	C75.782,203.323,74.096,202.786,72.426,202.521z"/>
<path fill-rule="evenodd" clip-rule="evenodd" fill="#326690" d="M95.362,205.283c-1.418-2.803-3.132-4.872-3.457-7.141
	c-0.476-3.319-1.548-7.481,3.337-8.187c-1.719-2.232-3.294-4.278-4.871-6.325c-1.13,1.935-2.338,4.004-3.274,5.607
	c0.672,2.046,1.521,3.874,1.837,5.79c0.348,2.115-0.08,4.368,0.342,6.458C90.061,205.378,92.537,206.327,95.362,205.283z"/>
<path fill-rule="evenodd" clip-rule="evenodd" fill="#326690" d="M120.832,205.401c0.566,0.003,1.133,0.007,1.699,0.01
	c0.154-1.549,0.408-3.096,0.443-4.648c0.095-4.225-0.275-8.632,5.695-9.362c0.422-0.052,0.648-1.71,1.398-3.866
	c-3.081,1.442-4.92,2.303-6.467,3.027c-0.893-0.853-1.598-1.527-2.77-2.647C120.832,194.271,120.832,199.836,120.832,205.401z"/>
<path fill-rule="evenodd" clip-rule="evenodd" fill="#326690" d="M171.257,115.354c3.177-0.425,5.278-0.719,7.384-0.984
	c3.729-0.471,7.582-0.896,9.527,3.326c1.946,4.226-0.287,7.376-3.336,10.036c-5.249,4.579-11.565,6.415-18.375,6.874
	c-1.641,0.11-3.285,0.183-5.214,0.288c-0.795,6.214-1.326,12.31-2.4,18.308c-1.702,9.505-6.378,16.655-16.348,19.388
	c-13.795,3.781-22.105-1.559-24.341-16.153c-0.872-5.694-1.106-11.485-1.558-16.434c-6.105-0.35-12.056,0.188-17.461-1.28
	c-4.239-1.152-7.596-2.566-12.284-0.943c-5.371,1.86-10.688-0.923-13.167-5.81c-4.779-9.42-9.38-19.066-12.664-29.074
	c-3.977-12.123-7.168-24.586-6.037-37.677c1.55-17.921,12.477-28.873,30.526-27.813c12.895,0.757,25.492,2.98,38.482-0.163
	c7.263-1.758,15.097-1.113,22.665-1.667c13.776-1.009,26.035,2.12,36.015,12.342c7.023,7.193,6.014,15.881,4.709,24.434
	C185.103,87.288,179.307,101.052,171.257,115.354z M165.697,118.291c1.414-2.567,2.007-3.707,2.656-4.813
	c7.189-12.248,12.399-25.248,15.481-39.148c3.96-17.858-0.219-28.784-21.717-34.36c-7.682-1.992-16.389-0.051-24.627,0.125
	c-2.129,0.046-4.335,0.623-6.368,0.235c-7.116-1.357-13.842-0.432-20.483,2.339c-1.697,0.707-3.856,0.862-5.693,0.573
	c-5.722-0.898-11.358-2.822-17.088-3.098c-13.418-0.646-26.396,3.857-28.896,20.412c-1.231,8.148-0.449,16.884,0.965,25.089
	c2.507,14.551,6.335,28.876,14.172,41.675c4.734,7.732,12.001,11.584,19.482,2.215c0.16-0.201,0.586-0.189,0.032-0.029
	c6.582,10.687,15.679,7.288,24.246,5.045c0.382,0.547,0.714,0.803,0.733,1.081c0.4,5.803,0.801,11.606,1.127,17.413
	c0.516,9.164,4.701,15.458,11.605,17.337c10.924,2.974,22.024-3.876,23.962-15.013c1.357-7.807,2.352-15.677,3.593-24.091
	c2.336,0,4.637,0.095,6.928-0.018c6.305-0.311,12.265-1.908,16.89-6.364c1.41-1.358,1.626-3.956,2.389-5.986
	c-1.923-0.519-3.846-1.466-5.77-1.467C175.178,117.44,171.037,117.924,165.697,118.291z"/>
<path fill-rule="evenodd" clip-rule="evenodd" fill="#326690" d="M190.822,210.693c-4.659,1.889-7.687,0.234-10.586-2.303
	c-1.584-1.388-3.191-2.783-4.944-3.939c-4.273-2.821-5.282-6.94-5.028-11.679c0.22-4.102,1.786-7.414,5.563-9.311
	c3.609-1.813,7.085-1.301,10.204,1.208c3.46,2.784,5.148,8.863,3.058,13.699c-1.294,2.991-3.887,5.422-6.52,8.937
	C184.841,208.238,187.438,209.304,190.822,210.693z M186.446,195.254c0.001-7.255-2.14-10.417-6.202-10.566
	c-4.194-0.155-6.549,2.888-6.701,8.659c-0.166,6.332,2.213,10.271,6.432,9.819c1.832-0.195,4.014-1.604,5.095-3.129
	C186.22,198.414,186.257,196.001,186.446,195.254z"/>
<path fill-rule="evenodd" clip-rule="evenodd" fill="#326690" d="M114.724,188.48c-2.695,5.217-1.229,13.558-11.495,10.488
	c-0.026,0.597-0.053,1.193-0.08,1.791c1.013,0.851,1.909,2.148,3.065,2.452c1.876,0.492,4.033-0.015,5.863,0.563
	c1.354,0.427,3.177,1.799,3.329,2.944c0.165,1.241-1.103,3.577-2.206,3.909c-3.006,0.907-6.293,1.52-9.397,1.289
	c-3.221-0.239-4.051-2.193-2.869-5.704c0.981-2.915,0.957-6.518,0.264-9.562c-0.932-4.091,0.239-7.34,4.563-8.08
	C108.575,188.09,111.537,188.48,114.724,188.48z M107.635,204.552c-1.878,1.34-3.351,2.391-4.823,3.441
	c1.588,0.777,3.192,2.192,4.762,2.156c1.605-0.036,3.178-1.495,4.765-2.332C110.969,206.867,109.6,205.916,107.635,204.552z
	 M112.221,193.79c-2.79-1.556-4.193-2.965-5.474-2.86c-1.101,0.089-3.055,2.158-2.866,2.903c0.336,1.324,1.901,3.036,3.154,3.222
	C108.164,197.223,109.564,195.563,112.221,193.79z"/>
<path fill-rule="evenodd" clip-rule="evenodd" fill="#326690" d="M35.68,197.233c0,1.92,0.191,3.589-0.066,5.186
	c-0.175,1.091-0.976,2.081-1.497,3.115c-0.592-0.963-1.673-1.915-1.696-2.893c-0.153-6.453-0.08-12.912-0.08-19.281
	c7.551-2.523,14.494-0.638,15.472,4.048C49.066,193.405,46.472,195.605,35.68,197.233z M35.976,195.648
	c3.605-1.563,6.456-2.241,8.456-3.929c0.853-0.72,0.586-4.658-0.321-5.196c-2.239-1.328-5.143-1.536-8.135-2.283
	C35.976,188.241,35.976,190.977,35.976,195.648z"/>
<path fill-rule="evenodd" clip-rule="evenodd" fill="#326690" d="M151.771,201.613c2.386,0.647,4.381,1.725,6.254,1.543
	c1.797-0.174,3.467-1.653,5.193-2.559c-0.951-1.562-1.665-3.361-2.927-4.608c-0.989-0.978-2.654-1.274-4.021-1.869
	c-3.133-1.362-5.338-3.975-3.717-6.987c1.171-2.178,4.267-3.779,6.833-4.577c1.59-0.494,3.797,0.996,5.727,1.597
	c-0.09,0.407-0.179,0.814-0.268,1.222c-1.781-0.232-3.644-0.889-5.321-0.571c-1.535,0.29-3.376,1.351-4.091,2.627
	c-0.378,0.674,1.1,2.833,2.205,3.774c1.207,1.029,3.302,1.081,4.385,2.176c1.808,1.827,4.472,4.289,4.269,6.22
	c-0.215,2.035-3.063,4.393-5.308,5.474C157.51,206.745,153.957,205.196,151.771,201.613z"/>
<path fill-rule="evenodd" clip-rule="evenodd" fill="#326690" d="M52.23,196.952c0.02-4.906,3.382-8.646,7.714-8.581
	c4.276,0.064,7.781,3.99,7.756,8.688c-0.025,4.686-3.642,8.636-7.855,8.578C55.453,205.576,52.21,201.879,52.23,196.952z
	 M65.301,198.16c-1.032-4.115-1.328-7.307-5.408-7.384c-4.136-0.079-4.665,3.38-4.645,6.302c0.021,2.935,0.729,6.697,4.761,5.973
	C62.001,202.692,63.551,199.869,65.301,198.16z"/>
<path fill-rule="evenodd" clip-rule="evenodd" fill="#326690" d="M146.527,197.437c-3.301,0.15-6.553,0.298-9.815,0.445
	c0.626,5.11,0.993,5.335,8.717,5.563c-3.452,2.863-6.446,2.861-9.711-0.009c-2.747-2.415-3.525-7.646-1.444-10.98
	c1.905-3.055,4.643-4.794,8.339-3.607C146.701,190.161,147.584,193.209,146.527,197.437z M143.967,195.099
	c0.363-0.508,0.726-1.015,1.089-1.521c-1.483-0.961-3.018-2.751-4.436-2.663c-1.603,0.099-3.102,1.885-4.646,2.937
	c0.271,0.416,0.541,0.832,0.811,1.248C139.179,195.099,141.573,195.099,143.967,195.099z"/>
<path fill-rule="evenodd" clip-rule="evenodd" fill="#326690" d="M199.672,202.999c3.381,0.251,6.084,0.451,8.786,0.652
	c0.01,0.423,0.02,0.845,0.029,1.268c-3.804,0-7.607,0-12.126,0c0-6.614-0.046-13.541,0.073-20.466
	c0.012-0.669,1.047-1.321,1.607-1.98c0.543,0.852,1.536,1.692,1.557,2.557C199.739,190.83,199.672,196.637,199.672,202.999z"/>
<path fill-rule="evenodd" clip-rule="evenodd" fill="#326690" d="M72.426,202.521c1.669,0.265,3.355,0.802,5.003,0.701
	c1.143-0.069,2.233-1.017,3.346-1.571c-0.629-1.034-1.202-2.108-1.916-3.08c-0.264-0.36-0.851-0.492-1.301-0.703
	c-2.82-1.319-6.83-2.374-4.568-6.546c2.115-3.9,5.819-3.631,9.383-0.636c-1.386,0-2.817-0.211-4.144,0.07
	c-0.982,0.208-2.427,0.936-2.574,1.654c-0.158,0.775,0.855,1.896,1.551,2.699c0.393,0.453,1.165,0.6,1.786,0.828
	c2.994,1.104,6.084,2.672,4.322,6.366c-1.599,3.354-4.948,4.188-8.528,2.592c-0.931-0.414-1.784-1.004-2.673-1.514
	C72.218,203.096,72.322,202.809,72.426,202.521z"/>
<path fill-rule="evenodd" clip-rule="evenodd" fill="#326690" d="M95.362,205.283c-2.826,1.044-5.301,0.095-6.086-3.797
	c-0.421-2.09,0.006-4.343-0.342-6.458c-0.316-1.916-1.165-3.744-1.837-5.79c0.936-1.604,2.145-3.673,3.274-5.607
	c1.577,2.047,3.152,4.093,4.871,6.325c-4.885,0.705-3.813,4.867-3.337,8.187C92.23,200.411,93.944,202.48,95.362,205.283z"/>
<path fill-rule="evenodd" clip-rule="evenodd" fill="#326690" d="M120.832,205.401c0-5.565,0-11.131,0-17.487
	c1.172,1.12,1.877,1.795,2.77,2.647c1.547-0.725,3.386-1.585,6.467-3.027c-0.75,2.156-0.977,3.814-1.398,3.866
	c-5.971,0.73-5.601,5.138-5.695,9.362c-0.035,1.553-0.289,3.1-0.443,4.648C121.965,205.408,121.398,205.404,120.832,205.401z"/>
<path fill-rule="evenodd" clip-rule="evenodd" fill="#FFFFFF" d="M165.697,118.291c5.34-0.367,9.48-0.851,13.619-0.848
	c1.924,0.001,3.847,0.948,5.77,1.467c-0.763,2.03-0.979,4.628-2.389,5.986c-4.625,4.456-10.585,6.054-16.89,6.364
	c-2.291,0.112-4.592,0.018-6.928,0.018c-1.241,8.414-2.235,16.284-3.593,24.091c-1.938,11.137-13.038,17.986-23.962,15.013
	c-6.904-1.879-11.09-8.173-11.605-17.337c-0.326-5.807-0.728-11.61-1.127-17.413c-0.019-0.278-0.351-0.534-0.733-1.081
	c-8.567,2.243-17.664,5.642-24.246-5.045c0.554-0.16,0.128-0.172-0.032,0.029c-7.481,9.369-14.748,5.518-19.482-2.215
	c-7.837-12.799-11.666-27.124-14.172-41.675c-1.414-8.205-2.196-16.94-0.965-25.089c2.501-16.555,15.479-21.058,28.896-20.412
	c5.73,0.275,11.366,2.199,17.088,3.098c1.837,0.289,3.996,0.134,5.693-0.573c6.642-2.771,13.367-3.696,20.483-2.339
	c2.033,0.388,4.239-0.189,6.368-0.235c8.238-0.176,16.945-2.117,24.627-0.125c21.498,5.576,25.677,16.502,21.717,34.36
	c-3.082,13.9-8.292,26.9-15.481,39.148C167.704,114.584,167.111,115.724,165.697,118.291z M152.152,76.822
	c-3.854,1.729-3.544,5.248-2.538,8.063c2.748,7.694,6.069,15.183,9.164,22.753c0.585-0.145,1.169-0.289,1.754-0.435
	c0-10.398,0-20.797,0-32.314c-2.853,0.704-5.702,1.408-8.552,2.111L152.152,76.822z M114.645,78.265
	c-3.806-2.925-13.023-2.079-15.895,1.571c-0.54,0.687-0.669,1.813-0.717,2.75c-0.299,5.807-0.584,11.616-0.754,17.428
	c-0.251,8.622,5.283,14.972,13.482,15.412c1.707-4.251,3.763-8.458,5.092-12.882c2.406-8.007,2.111-16.043-0.988-23.893
	L114.645,78.265z M160.326,70.729c-5.207-15.815-20.438-26.598-36.487-26.222c-7.705,0.18-14.338,2.768-18.929,9.351
	c-4.195,6.017-6.031,12.801-6.786,20.337c2.537-0.833,4.667-1.688,6.873-2.229c9.093-2.236,14.441,1.317,16.179,10.477
	c1.783,9.403,1.505,18.52-2.998,27.238c-1.028,1.989-1.606,4.211-2.377,6.289c6.951,2.925,8.127,4.975,8.262,11.998
	c0.182,9.474,0.392,18.958,1.067,28.404c0.321,4.488,2.493,8.396,7.48,9.491c8.983,1.972,16.889-3.269,18.241-12.337
	c1.324-8.882,1.972-17.867,3.434-26.722c0.617-3.743,2.557-7.268,3.684-10.317c-4.326-10.25-9.576-20.662-13.065-31.635
	c-2.516-7.908,2.708-13.502,11.055-14.109C157.274,70.646,158.605,70.729,160.326,70.729z M103.767,47.579
	c-5.002-0.901-9.32-2.092-13.701-2.398c-20.192-1.414-29.44,8.283-27.502,28.533c0.032,0.331,0.046,0.67,0.13,0.989
	c3.611,13.809,6.944,27.7,11.012,41.372c1.283,4.312,4.291,8.213,6.977,11.968c1.904,2.662,4.842,3.101,7.295,0.475
	c3.828-4.097,7.442-8.393,11.084-12.533c-6.032-7.424-6.991-10.69-6.303-19.668c0.279-3.646,0.541-7.328,0.344-10.969
	C92.374,71.868,94.392,59.176,103.767,47.579z M166.183,107.979c7.378-14.297,13.949-29.259,13.884-46.238
	c-0.01-2.351-0.723-5.077-2.046-6.979c-6.532-9.384-23.107-14.345-33.126-10.797c4.533,4.468,10.08,8.684,13.93,14.104
	c3.429,4.827,6.471,10.841,7.04,16.593C166.959,85.725,166.183,96.972,166.183,107.979z M102.611,131.617
	c5.102,1.057,10.939,1.016,15.214-4.394c0.811-1.026,0.178-3.194,0.211-4.836c-1.353,0.304-2.943,0.254-4.016,0.976
	C110.049,126.032,106.25,128.955,102.611,131.617z M177.793,124.108c-0.159-0.232-0.318-0.464-0.477-0.696
	c-4.51-0.63-9.049-1.102-13.519-1.938c-3.862-0.724-4.576,1.123-4.459,5.826C165.862,126.172,171.827,125.141,177.793,124.108z
	 M109.744,122.281c-7.398-3.71-9.574-2.732-12.271,4.917C102.098,125.345,105.921,123.813,109.744,122.281z"/>
<path fill-rule="evenodd" clip-rule="evenodd" fill="#FFFFFF" d="M186.446,195.254c-0.189,0.747-0.227,3.16-1.377,4.783
	c-1.081,1.525-3.263,2.934-5.095,3.129c-4.219,0.451-6.598-3.487-6.432-9.819c0.152-5.771,2.507-8.814,6.701-8.659
	C184.307,184.837,186.447,187.999,186.446,195.254z"/>
<path fill-rule="evenodd" clip-rule="evenodd" fill="#FFFFFF" d="M107.635,204.552c1.965,1.364,3.334,2.315,4.704,3.266
	c-1.587,0.837-3.16,2.296-4.765,2.332c-1.57,0.036-3.174-1.379-4.762-2.156C104.284,206.942,105.756,205.892,107.635,204.552z"/>
<path fill-rule="evenodd" clip-rule="evenodd" fill="#FFFFFF" d="M112.221,193.79c-2.657,1.772-4.057,3.433-5.186,3.265
	c-1.253-0.186-2.818-1.897-3.154-3.222c-0.189-0.745,1.765-2.814,2.866-2.903C108.028,190.825,109.431,192.234,112.221,193.79z"/>
<path fill-rule="evenodd" clip-rule="evenodd" fill="#FFFFFF" d="M35.976,195.648c0-4.672,0-7.407,0-11.408
	c2.992,0.747,5.896,0.955,8.135,2.283c0.907,0.538,1.174,4.477,0.321,5.196C42.432,193.407,39.581,194.085,35.976,195.648z"/>
<path fill-rule="evenodd" clip-rule="evenodd" fill="#FFFFFF" d="M65.301,198.16c-1.75,1.709-3.299,4.532-5.292,4.891
	c-4.032,0.725-4.74-3.038-4.761-5.973c-0.02-2.922,0.509-6.381,4.645-6.302C63.973,190.854,64.269,194.045,65.301,198.16z"/>
<path fill-rule="evenodd" clip-rule="evenodd" fill="#FFFFFF" d="M143.967,195.099c-2.394,0-4.788,0-7.182,0
	c-0.27-0.416-0.54-0.832-0.811-1.248c1.544-1.052,3.043-2.838,4.646-2.937c1.418-0.088,2.952,1.702,4.436,2.663
	C144.692,194.084,144.33,194.591,143.967,195.099z"/>
<path fill-rule="evenodd" clip-rule="evenodd" fill="#326690" d="M160.326,70.729c-1.721,0-3.052-0.082-4.368,0.014
	c-8.347,0.607-13.57,6.201-11.055,14.109c3.489,10.973,8.739,21.385,13.065,31.635c-1.127,3.05-3.066,6.574-3.684,10.317
	c-1.462,8.854-2.109,17.84-3.434,26.722c-1.353,9.068-9.258,14.309-18.241,12.337c-4.987-1.095-7.159-5.003-7.48-9.491
	c-0.676-9.446-0.886-18.931-1.067-28.404c-0.135-7.023-1.311-9.073-8.262-11.998c0.771-2.078,1.35-4.3,2.377-6.289
	c4.502-8.719,4.781-17.835,2.998-27.238c-1.737-9.159-7.086-12.713-16.179-10.477c-2.206,0.542-4.336,1.396-6.873,2.229
	c0.755-7.536,2.591-14.32,6.786-20.337c4.591-6.583,11.224-9.171,18.929-9.351C139.888,44.131,155.119,54.913,160.326,70.729z"/>
<path fill-rule="evenodd" clip-rule="evenodd" fill="#326690" d="M103.767,47.579c-9.375,11.597-11.393,24.289-10.664,37.769
	c0.197,3.641-0.064,7.323-0.344,10.969c-0.688,8.978,0.271,12.244,6.303,19.668c-3.642,4.141-7.256,8.437-11.084,12.533
	c-2.453,2.626-5.391,2.188-7.295-0.475c-2.686-3.755-5.693-7.656-6.977-11.968c-4.068-13.672-7.401-27.563-11.012-41.372
	c-0.083-0.319-0.098-0.658-0.13-0.989c-1.938-20.25,7.31-29.947,27.502-28.533C94.446,45.487,98.765,46.678,103.767,47.579z"/>
<path fill-rule="evenodd" clip-rule="evenodd" fill="#326690" d="M166.183,107.979c0-11.008,0.776-22.255-0.318-33.317
	c-0.569-5.752-3.611-11.766-7.04-16.593c-3.85-5.42-9.396-9.636-13.93-14.104c10.019-3.548,26.594,1.413,33.126,10.797
	c1.323,1.901,2.036,4.628,2.046,6.979C180.132,78.721,173.561,93.683,166.183,107.979z"/>
<path fill-rule="evenodd" clip-rule="evenodd" fill="#326690" d="M114.865,78.651c3.1,7.85,3.394,15.886,0.988,23.893
	c-1.329,4.424-3.385,8.631-5.092,12.882c-8.199-0.44-13.733-6.79-13.482-15.412c0.169-5.812,0.455-11.621,0.754-17.428
	c0.048-0.938,0.177-2.063,0.717-2.75c2.872-3.65,12.089-4.496,15.895-1.571c-2.523,0-5.046,0-7.569,0
	c-0.159,0.636-0.318,1.271-0.478,1.907c1.702,0.895,3.454,2.535,5.09,2.428C112.829,82.524,113.812,80.053,114.865,78.651z"/>
<path fill-rule="evenodd" clip-rule="evenodd" fill="#326690" d="M151.98,77c2.85-0.703,5.699-1.407,8.552-2.111
	c0,11.518,0,21.916,0,32.314c-0.585,0.146-1.169,0.29-1.754,0.435c-3.095-7.57-6.416-15.059-9.164-22.753
	c-1.006-2.814-1.315-6.334,2.537-8.061c0.504,1.413,1.01,2.825,1.515,4.236c1.707-0.79,3.413-1.579,5.12-2.369
	c-0.206-0.563-0.412-1.128-0.618-1.691C156.105,77,154.043,77,151.98,77z"/>
<path fill-rule="evenodd" clip-rule="evenodd" fill="#326690" d="M102.611,131.617c3.638-2.662,7.438-5.585,11.409-8.254
	c1.073-0.722,2.663-0.672,4.016-0.976c-0.033,1.642,0.6,3.81-0.211,4.836C113.55,132.633,107.713,132.674,102.611,131.617z"/>
<path fill-rule="evenodd" clip-rule="evenodd" fill="#326690" d="M177.793,124.108c-5.966,1.032-11.931,2.063-18.454,3.191
	c-0.117-4.703,0.597-6.55,4.459-5.826c4.47,0.837,9.009,1.309,13.519,1.938C177.475,123.645,177.634,123.876,177.793,124.108z"/>
<path fill-rule="evenodd" clip-rule="evenodd" fill="#326690" d="M109.744,122.281c-3.823,1.532-7.646,3.063-12.271,4.917
	C100.17,119.549,102.346,118.571,109.744,122.281z"/>
<path fill-rule="evenodd" clip-rule="evenodd" fill="#FFFFFF" d="M114.865,78.651c-1.053,1.401-2.036,3.873-3.177,3.948
	c-1.636,0.107-3.388-1.533-5.09-2.428c0.159-0.636,0.318-1.271,0.478-1.907c2.523,0,5.046,0,7.569,0L114.865,78.651z"/>
<path fill-rule="evenodd" clip-rule="evenodd" fill="#FFFFFF" d="M151.98,77c2.063,0,4.125,0,6.188,0
	c0.206,0.563,0.412,1.128,0.618,1.691c-1.707,0.79-3.413,1.579-5.12,2.369c-0.505-1.411-1.011-2.823-1.515-4.236
	C152.152,76.822,151.98,77,151.98,77z"/>
</svg>
