<?xml version="1.0" encoding="utf-8"?>
<!-- Generator: Adobe Illustrator 16.0.0, SVG Export Plug-In . SVG Version: 6.00 Build 0)  -->
<!DOCTYPE svg PUBLIC "-//W3C//DTD SVG 1.1//EN" "http://www.w3.org/Graphics/SVG/1.1/DTD/svg11.dtd">
<svg version="1.1" id="图层_1" xmlns="http://www.w3.org/2000/svg" xmlns:xlink="http://www.w3.org/1999/xlink" x="0px" y="0px"
	 width="240px" height="240px" viewBox="0 0 240 240" enable-background="new 0 0 240 240" xml:space="preserve">
<path fill-rule="evenodd" clip-rule="evenodd" fill="#8E234B" d="M219,241c-65.333,0-130.667,0-196,0
	c-0.722-0.364-1.411-0.835-2.172-1.075c-10.972-3.47-17.595-11.921-17.607-23.285C3.15,152.881,3.16,89.121,3.219,25.362
	C3.227,17.012,6.658,10.12,13.659,5.438C16.494,3.541,19.87,2.455,23,1c65.333,0,130.667,0,196,0c0.398,0.286,0.756,0.694,1.2,0.842
	c12.945,4.292,18.595,12.006,18.613,25.518c0.016,11.819,0.003,23.639,0.003,35.458c0,50.941-0.007,101.882,0.006,152.822
	c0.002,8.338-2.84,15.424-9.68,20.333C226.118,238.145,222.402,239.354,219,241z M187.47,62.877c4.805,0,9.431,0.048,14.056-0.015
	c3.651-0.05,6.396-1.766,6.32-5.564c-0.074-3.782-2.848-5.368-6.516-5.362c-5.666,0.009-11.332,0.017-16.998-0.001
	c-3.944-0.012-6.208,1.918-6.901,5.784c-0.675,3.767-1.498,7.511-2.056,11.294c-0.378,2.566-1.517,3.6-4.211,3.738
	c-18.634,0.959-37.261,2.061-55.888,3.146c-22.286,1.297-44.571,2.599-66.853,3.954c-4.9,0.298-6.959,2.882-6.108,7.534
	c2.725,14.896,5.409,29.799,8.297,44.663c2.35,12.097,8.961,17.44,21.139,17.446c27.664,0.013,55.328-0.004,82.992,0.02
	c1.889,0.002,3.777,0.242,5.888,0.387c-0.773,3.713-1.405,6.742-2.08,9.98c-3.038,0-5.69,0-8.343,0
	c-22.998,0.003-45.996-0.08-68.993,0.05c-9.269,0.053-16.483,6.758-17.672,15.859c-1.109,8.488,4.199,16.714,12.472,19.323
	c8.398,2.649,17.988-1.08,21.309-9.297c1.762-4.359,1.599-9.497,2.362-14.676c14.067,0,29.251,0,44.177,0
	c-0.192,3.342-0.844,6.371-0.444,9.254c1.167,8.408,7.686,14.522,15.966,15.523c7.473,0.903,15.416-3.842,18.469-11.032
	c3.166-7.457,1.111-15.743-5.689-21.002c-2.203-1.703-2.716-3.121-2.183-5.762c1.875-9.298,3.445-18.657,5.154-27.988
	C179.205,107.897,183.29,85.663,187.47,62.877z"/>
<path fill-rule="evenodd" clip-rule="evenodd" fill="#FFFFFF" d="M187.47,62.877c-4.18,22.786-8.265,45.021-12.336,67.257
	c-1.709,9.331-3.279,18.69-5.154,27.988c-0.533,2.641-0.021,4.059,2.183,5.762c6.801,5.259,8.855,13.545,5.689,21.002
	c-3.053,7.19-10.996,11.936-18.469,11.032c-8.28-1.001-14.799-7.115-15.966-15.523c-0.399-2.883,0.252-5.912,0.444-9.254
	c-14.926,0-30.109,0-44.177,0c-0.763,5.179-0.6,10.316-2.362,14.676c-3.321,8.217-12.91,11.946-21.309,9.297
	c-8.272-2.609-13.581-10.835-12.472-19.323c1.189-9.102,8.404-15.807,17.672-15.859c22.997-0.13,45.995-0.047,68.993-0.05
	c2.652,0,5.305,0,8.343,0c0.675-3.238,1.307-6.268,2.08-9.98c-2.11-0.145-3.999-0.385-5.888-0.387
	c-27.664-0.023-55.328-0.007-82.992-0.02c-12.178-0.006-18.789-5.35-21.139-17.446c-2.888-14.864-5.572-29.768-8.297-44.663
	c-0.851-4.652,1.208-7.236,6.108-7.534c22.282-1.355,44.567-2.657,66.853-3.954c18.627-1.085,37.254-2.187,55.888-3.146
	c2.694-0.139,3.833-1.172,4.211-3.738c0.558-3.783,1.381-7.527,2.056-11.294c0.693-3.866,2.957-5.796,6.901-5.784
	c5.666,0.018,11.332,0.01,16.998,0.001c3.668-0.006,6.441,1.58,6.516,5.362c0.075,3.799-2.669,5.515-6.32,5.564
	C196.9,62.925,192.274,62.877,187.47,62.877z M146.789,98.692c7.367,0,13.973,0.109,20.566-0.114
	c1.031-0.034,2.645-1.421,2.904-2.455c1.023-4.068,1.613-8.245,2.434-12.768c-8.563,0.528-16.437,1.015-24.587,1.518
	C147.646,89.712,147.239,93.972,146.789,98.692z M109.394,100.413c0-4.963,0-9.025,0-13.382c-8.621,0.533-16.852,1.042-25.641,1.586
	c0.555,4.426,1.037,8.275,1.479,11.796C93.625,100.413,101.387,100.413,109.394,100.413z M140.216,85.259
	c-7.771,0.471-15.303,0.928-22.715,1.376c0,4.776,0,8.977,0,13.248c3.093,0,5.742,0.03,8.388-0.005
	c13.509-0.179,13.509-0.185,14.593-13.456C140.494,86.266,140.413,86.102,140.216,85.259z M168.474,106.276
	c-4.491,0-8.606-0.069-12.718,0.014c-10.944,0.223-11.172,0.501-10.519,11.644c0.008,0.138,0.149,0.267,0.395,0.679
	c6.069,0,12.315,0.096,18.551-0.109c0.885-0.029,2.235-1.393,2.485-2.366C167.479,112.984,167.877,109.727,168.474,106.276z
	 M109.626,108.354c-7.927,0-15.481,0-23.49,0c0.504,4.009,0.948,7.537,1.371,10.903c7.609,0,14.805,0,22.119,0
	C109.626,115.417,109.626,112.115,109.626,108.354z M76.349,88.967c-7.706,0.497-14.897,0.962-22.567,1.457
	c0.811,4.123,1.505,7.656,2.119,10.777c7.487,0,14.517,0,21.847,0C77.256,96.901,76.848,93.33,76.349,88.967z M144.227,126.312
	c-0.43,4.314-0.814,8.186-1.217,12.227c6.894,0,13.135,0,19.536,0c0.794-4.136,1.538-8.019,2.346-12.227
	C158.021,126.312,151.441,126.312,144.227,126.312z M138.468,107.637c-7.165,0-14.146,0-20.994,0c0,4.173,0,7.722,0,11.116
	c6.827,0,13.226,0,19.929,0C137.783,114.784,138.126,111.205,138.468,107.637z M89.83,138.531c6.986,0,13.211,0,19.564,0
	c0-3.976,0-7.653,0-11.229c-7.099,0-13.823,0-20.898,0C88.966,131.259,89.389,134.818,89.83,138.531z M136.722,126.935
	c-6.839,0-13.06,0-19.22,0c0,4.308,0,8.009,0,11.594c6.225,0,11.998,0,17.998,0C135.924,134.502,136.319,130.746,136.722,126.935z
	 M57.28,109.088c0.822,4.22,1.447,7.425,2.07,10.623c6.937,0,13.524,0,20.714,0c-0.492-3.788-0.927-7.143-1.378-10.623
	c-5.234,0-10.033,0-14.833,0C61.888,109.088,59.922,109.088,57.28,109.088z M61.342,127.541
	c-0.014,10.428,5.575,13.208,20.797,10.647c-0.364-3.506-0.732-7.046-1.106-10.647C74.218,127.541,67.938,127.541,61.342,127.541z
	 M168.474,177.875c-0.021-3.991-3.336-7.146-7.415-7.056c-4.085,0.092-7.159,3.333-7.015,7.396c0.136,3.84,3.182,6.754,7.099,6.791
	C165.258,185.046,168.494,181.896,168.474,177.875z M88.669,178.074c0.107-3.922-3.224-7.267-7.239-7.271
	c-3.856-0.004-7.06,2.943-7.296,6.711c-0.247,3.941,2.924,7.348,6.973,7.489C85.163,185.146,88.562,182.031,88.669,178.074z"/>
<path fill-rule="evenodd" clip-rule="evenodd" fill="#8E234B" d="M146.789,98.692c0.45-4.721,0.856-8.98,1.317-13.819
	c8.15-0.503,16.023-0.989,24.587-1.518c-0.82,4.522-1.41,8.699-2.434,12.768c-0.26,1.034-1.873,2.421-2.904,2.455
	C160.762,98.802,154.156,98.692,146.789,98.692z"/>
<path fill-rule="evenodd" clip-rule="evenodd" fill="#8E234B" d="M109.394,100.413c-8.007,0-15.769,0-24.162,0
	c-0.441-3.521-0.924-7.37-1.479-11.796c8.789-0.544,17.02-1.053,25.641-1.586C109.394,91.388,109.394,95.45,109.394,100.413z"/>
<path fill-rule="evenodd" clip-rule="evenodd" fill="#8E234B" d="M140.216,85.259c0.197,0.843,0.278,1.007,0.266,1.163
	c-1.084,13.271-1.084,13.277-14.593,13.456c-2.646,0.035-5.295,0.005-8.388,0.005c0-4.271,0-8.472,0-13.248
	C124.913,86.187,132.444,85.729,140.216,85.259z"/>
<path fill-rule="evenodd" clip-rule="evenodd" fill="#8E234B" d="M168.474,106.276c-0.597,3.45-0.995,6.708-1.806,9.86
	c-0.25,0.974-1.601,2.337-2.485,2.366c-6.235,0.205-12.481,0.109-18.551,0.109c-0.245-0.412-0.387-0.541-0.395-0.679
	c-0.653-11.143-0.426-11.421,10.519-11.644C159.867,106.207,163.982,106.276,168.474,106.276z"/>
<path fill-rule="evenodd" clip-rule="evenodd" fill="#8E234B" d="M109.626,108.354c0,3.761,0,7.063,0,10.903
	c-7.314,0-14.51,0-22.119,0c-0.423-3.366-0.867-6.895-1.371-10.903C94.145,108.354,101.699,108.354,109.626,108.354z"/>
<path fill-rule="evenodd" clip-rule="evenodd" fill="#8E234B" d="M76.349,88.967c0.499,4.363,0.907,7.935,1.398,12.234
	c-7.33,0-14.359,0-21.847,0c-0.614-3.121-1.308-6.654-2.119-10.777C61.452,89.929,68.643,89.464,76.349,88.967z"/>
<path fill-rule="evenodd" clip-rule="evenodd" fill="#8E234B" d="M144.227,126.312c7.215,0,13.795,0,20.665,0
	c-0.808,4.208-1.552,8.091-2.346,12.227c-6.401,0-12.643,0-19.536,0C143.412,134.497,143.797,130.626,144.227,126.312z"/>
<path fill-rule="evenodd" clip-rule="evenodd" fill="#8E234B" d="M138.468,107.637c-0.342,3.568-0.685,7.147-1.065,11.116
	c-6.703,0-13.102,0-19.929,0c0-3.395,0-6.943,0-11.116C124.321,107.637,131.303,107.637,138.468,107.637z"/>
<path fill-rule="evenodd" clip-rule="evenodd" fill="#8E234B" d="M89.83,138.531c-0.441-3.713-0.864-7.272-1.333-11.229
	c7.075,0,13.799,0,20.898,0c0,3.576,0,7.254,0,11.229C103.041,138.531,96.816,138.531,89.83,138.531z"/>
<path fill-rule="evenodd" clip-rule="evenodd" fill="#8E234B" d="M136.722,126.935c-0.402,3.812-0.798,7.567-1.223,11.594
	c-6,0-11.772,0-17.998,0c0-3.585,0-7.286,0-11.594C123.662,126.935,129.883,126.935,136.722,126.935z"/>
<path fill-rule="evenodd" clip-rule="evenodd" fill="#8E234B" d="M57.28,109.088c2.643,0,4.608,0,6.574,0c4.799,0,9.598,0,14.833,0
	c0.451,3.48,0.886,6.835,1.378,10.623c-7.19,0-13.778,0-20.714,0C58.727,116.513,58.102,113.308,57.28,109.088z"/>
<path fill-rule="evenodd" clip-rule="evenodd" fill="#8E234B" d="M61.342,127.541c6.595,0,12.875,0,19.691,0
	c0.374,3.602,0.742,7.142,1.106,10.647C66.917,140.749,61.329,137.969,61.342,127.541z"/>
<path fill-rule="evenodd" clip-rule="evenodd" fill="#8E234B" d="M168.474,177.875c0.021,4.021-3.216,7.171-7.331,7.132
	c-3.917-0.037-6.963-2.951-7.099-6.791c-0.145-4.063,2.93-7.305,7.015-7.396C165.138,170.729,168.453,173.884,168.474,177.875z"/>
<path fill-rule="evenodd" clip-rule="evenodd" fill="#8E234B" d="M88.669,178.074c-0.107,3.957-3.506,7.071-7.563,6.93
	c-4.049-0.142-7.22-3.548-6.973-7.489c0.236-3.768,3.44-6.715,7.296-6.711C85.446,170.808,88.776,174.152,88.669,178.074z"/>
</svg>
