<?xml version="1.0" encoding="utf-8"?>
<!-- Generator: Adobe Illustrator 16.0.0, SVG Export Plug-In . SVG Version: 6.00 Build 0)  -->
<!DOCTYPE svg PUBLIC "-//W3C//DTD SVG 1.1//EN" "http://www.w3.org/Graphics/SVG/1.1/DTD/svg11.dtd">
<svg version="1.1" id="图层_1" xmlns="http://www.w3.org/2000/svg" xmlns:xlink="http://www.w3.org/1999/xlink" x="0px" y="0px"
	 width="240px" height="240px" viewBox="0 0 240 240" enable-background="new 0 0 240 240" xml:space="preserve">
<path fill-rule="evenodd" clip-rule="evenodd" fill="#FF6600" d="M218,241c-64.667,0-129.333,0-194,0
	c-0.247-0.219-0.465-0.578-0.745-0.635c-14.25-2.901-20.238-14.618-20.045-28.021c0.405-28.28,0.124-56.57,0.124-84.856
	c0-33.443-0.018-66.888,0.009-100.331C3.353,13.917,9.596,5.739,22.339,2.015C22.94,1.839,23.448,1.346,24,1
	c64.667,0,129.333,0,194,0c0.245,0.22,0.461,0.583,0.74,0.64c14.3,2.941,20.21,14.616,20.05,28.014
	c-0.382,31.942-0.123,63.892-0.123,95.838c0,29.95,0.034,59.899-0.019,89.85c-0.021,11.954-6.578,21.152-17.024,24.273
	C220.389,239.984,219.207,240.534,218,241z M91.027,130.192c6.656,12.538,16.851,19.78,30.85,20.41
	c2.557,6.638,2.094,11.461-3.604,16.477c-7.335,6.456-7.517,18.395-2.104,26.672c5.1,7.8,14.886,11.483,23.561,8.869
	c9.93-2.991,15.866-11.49,15.589-22.314c-0.243-9.462-7.083-17.985-16.414-20.193c-2.362-0.56-4.856-0.562-7.369-0.828
	c-0.498-3.336-0.953-6.385-1.386-9.28c20.725-8.3,26.813-18.261,25.93-42.109c5.101-2.015,10.39-3.949,15.54-6.201
	c2.727-1.191,4.552-1.281,6.869,1.185c4.216,4.487,9.772,5.539,15.639,3.818c7.735-2.269,12.243-9.689,11.11-17.853
	c-1.042-7.504-7.877-13.194-15.819-13.17c-8.123,0.025-14.437,5.69-15.794,13.829c-0.25,1.496-1.312,3.528-2.547,4.075
	c-5.9,2.613-11.99,4.8-18.138,7.187c-7.338-11.737-17.372-18.425-31.39-18.149c-0.73,0.015-1.679-0.317-2.172-0.829
	c-2.648-2.746-2.125-13.776,0.689-16.369c5.661-5.215,7.045-13.075,3.444-19.568c-3.532-6.37-10.897-9.618-17.872-7.883
	c-6.777,1.687-11.78,7.898-11.961,14.854c-0.202,7.724,4.231,13.783,11.538,16.214c1.625,0.541,3.895,1.708,4.25,3.022
	c1.061,3.938,1.32,8.093,1.801,11.516c-4.222,2.845-8.333,4.9-11.549,7.911c-11.646,10.901-13.57,24.179-8.568,38.856
	c-0.875-1.339-1.749-2.679-2.769-4.241c-10.603,4.154-20.972,8.154-31.283,12.296c-3.02,1.213-5.605,1.743-8.908,0.172
	c-6.034-2.869-13.228,0.813-15.143,7.137c-1.844,6.091,2.033,12.956,8.149,14.426c6.533,1.57,13.322-2.656,13.925-9.321
	c0.29-3.201,1.76-4.203,4.252-5.158c9.457-3.623,18.863-7.377,28.298-11.056C89.716,133.797,91.965,133.23,91.027,130.192z"/>
<path fill-rule="evenodd" clip-rule="evenodd" fill="#FFFFFF" d="M91.153,130.353c-5.007-14.69-3.084-27.968,8.563-38.869
	c3.216-3.011,7.328-5.066,11.549-7.911c-0.481-3.423-0.74-7.577-1.801-11.516c-0.354-1.314-2.624-2.481-4.25-3.022
	c-7.306-2.431-11.74-8.49-11.538-16.214c0.182-6.956,5.185-13.168,11.961-14.854c6.975-1.735,14.34,1.513,17.872,7.883
	c3.601,6.493,2.217,14.354-3.444,19.568c-2.814,2.593-3.337,13.623-0.689,16.369c0.494,0.512,1.442,0.844,2.172,0.829
	c14.018-0.275,24.052,6.412,31.39,18.149c6.147-2.387,12.237-4.573,18.138-7.187c1.235-0.547,2.297-2.579,2.547-4.075
	c1.357-8.139,7.671-13.804,15.794-13.829c7.942-0.024,14.777,5.666,15.819,13.17c1.133,8.163-3.375,15.584-11.11,17.853
	c-5.866,1.721-11.423,0.669-15.639-3.818c-2.317-2.466-4.143-2.376-6.869-1.185c-5.15,2.252-10.439,4.187-15.54,6.201
	c0.884,23.849-5.205,33.81-25.93,42.109c0.433,2.896,0.888,5.944,1.386,9.28c2.513,0.267,5.007,0.269,7.369,0.828
	c9.331,2.208,16.171,10.731,16.414,20.193c0.277,10.824-5.659,19.323-15.589,22.314c-8.675,2.614-18.461-1.069-23.561-8.869
	c-5.412-8.277-5.231-20.216,2.104-26.672c5.698-5.016,6.161-9.839,3.604-16.477c-13.999-0.63-24.193-7.872-30.85-20.41
	L91.153,130.353z M122.774,91.343c-13.401-0.153-25.241,11.531-25.384,25.051c-0.143,13.436,11.635,25.289,25.103,25.266
	c13.435-0.023,25.183-11.843,25.15-25.303C147.612,103.079,136.096,91.496,122.774,91.343z"/>
<path fill-rule="evenodd" clip-rule="evenodd" fill="#FFFFFF" d="M91.027,130.192c0.938,3.038-1.312,3.604-3.357,4.401
	c-9.435,3.679-18.841,7.433-28.298,11.056c-2.492,0.955-3.962,1.957-4.252,5.158c-0.604,6.665-7.392,10.892-13.925,9.321
	c-6.116-1.47-9.993-8.335-8.149-14.426c1.915-6.323,9.109-10.006,15.143-7.137c3.303,1.571,5.888,1.041,8.908-0.172
	c10.311-4.142,20.68-8.142,31.283-12.296c1.02,1.563,1.895,2.902,2.772,4.248C91.153,130.353,91.027,130.192,91.027,130.192z"/>
<path fill-rule="evenodd" clip-rule="evenodd" fill="#FF6600" d="M122.774,91.343c13.321,0.153,24.838,11.736,24.869,25.014
	c0.032,13.46-11.716,25.279-25.15,25.303c-13.468,0.023-25.246-11.83-25.103-25.266C97.534,102.874,109.374,91.189,122.774,91.343z
	 M107.695,123.1c0.804,0.013,1.608,0.026,2.413,0.04c1.394-2.022,3.584-3.896,3.993-6.102c0.595-3.207-1.703-5.237-5.032-5.28
	c-3.324-0.043-5.682,1.909-5.175,5.141C104.241,119.109,106.365,121.042,107.695,123.1z M130.141,117.997
	c-0.023-0.804-0.046-1.606-0.069-2.41c-2.081-1.291-4.055-3.382-6.271-3.684c-3.225-0.438-5.146,1.942-5.045,5.268
	c0.101,3.341,2.208,5.563,5.378,4.925C126.322,121.654,128.151,119.427,130.141,117.997z M144.168,117.926
	c-0.033-0.806-0.066-1.61-0.1-2.416c-2.1-1.266-4.1-3.329-6.323-3.608c-3.247-0.407-5.128,2.014-4.989,5.335
	c0.14,3.342,2.272,5.546,5.448,4.861C140.391,121.626,142.193,119.379,144.168,117.926z"/>
<path fill-rule="evenodd" clip-rule="evenodd" fill="#FFFFFF" d="M107.695,123.1c-1.33-2.058-3.454-3.99-3.801-6.201
	c-0.507-3.231,1.851-5.184,5.175-5.141c3.329,0.043,5.626,2.073,5.032,5.28c-0.409,2.205-2.599,4.079-3.993,6.102
	C109.303,123.126,108.499,123.112,107.695,123.1z"/>
<path fill-rule="evenodd" clip-rule="evenodd" fill="#FFFFFF" d="M130.141,117.997c-1.989,1.43-3.818,3.657-6.007,4.099
	c-3.171,0.639-5.277-1.584-5.378-4.925c-0.101-3.325,1.821-5.705,5.045-5.268c2.216,0.302,4.189,2.393,6.271,3.684
	C130.095,116.391,130.117,117.193,130.141,117.997z"/>
<path fill-rule="evenodd" clip-rule="evenodd" fill="#FFFFFF" d="M144.168,117.926c-1.975,1.453-3.777,3.7-5.964,4.172
	c-3.176,0.685-5.309-1.52-5.448-4.861c-0.139-3.321,1.742-5.742,4.989-5.335c2.224,0.279,4.224,2.343,6.323,3.608
	C144.102,116.315,144.135,117.12,144.168,117.926z"/>
</svg>
