<?xml version="1.0" encoding="utf-8"?>
<!-- Generator: Adobe Illustrator 16.0.0, SVG Export Plug-In . SVG Version: 6.00 Build 0)  -->
<!DOCTYPE svg PUBLIC "-//W3C//DTD SVG 1.1//EN" "http://www.w3.org/Graphics/SVG/1.1/DTD/svg11.dtd">
<svg version="1.1" id="图层_1" xmlns="http://www.w3.org/2000/svg" xmlns:xlink="http://www.w3.org/1999/xlink" x="0px" y="0px"
	 width="240px" height="240px" viewBox="0 0 240 240" enable-background="new 0 0 240 240" xml:space="preserve">
<path fill-rule="evenodd" clip-rule="evenodd" fill="#7F0606" d="M220,241c-66,0-132,0-198,0c-0.372-0.301-0.696-0.729-1.121-0.885
	C8.53,235.601,3.095,227.942,3.07,214.929c-0.017-8.66-0.003-17.32-0.003-25.98c0-54.125,0.026-108.249-0.027-162.374
	c-0.008-8.363,2.721-15.42,9.45-20.467C15.337,3.974,18.811,2.677,22,1c66,0,132,0,198,0c0.37,0.302,0.693,0.731,1.117,0.887
	c12.36,4.527,17.791,12.171,17.812,25.186c0.019,11.491,0.004,22.982,0.004,34.474c0,51.46-0.012,102.92,0.012,154.38
	c0.003,7.579-2.379,14.213-8.304,18.988C227.499,237.445,223.572,239.003,220,241z M121.522,64.224
	c-16.817,0-33.635-0.029-50.452,0.014c-7.27,0.019-9.813,2.662-9.845,9.995c-0.018,3.996-0.01,7.992-0.002,11.988
	c0.015,8.192,2.397,10.547,10.793,10.552c24.977,0.015,49.952,0.006,74.929,0.005c8.325,0,16.652,0.091,24.976-0.036
	c6.086-0.094,8.752-2.897,8.843-8.971c0.063-4.329,0.022-8.659,0.012-12.988c-0.021-8.196-2.408-10.547-10.799-10.556
	C153.825,64.211,137.674,64.223,121.522,64.224z"/>
<path fill-rule="evenodd" clip-rule="evenodd" fill="#FFFFFF" d="M121.522,64.223c16.151,0,32.303-0.012,48.454,0.004
	c8.391,0.009,10.778,2.359,10.799,10.556c0.011,4.329,0.052,8.659-0.012,12.988c-0.091,6.073-2.757,8.877-8.843,8.971
	c-8.323,0.127-16.65,0.036-24.976,0.036c-24.977,0.001-49.952,0.01-74.929-0.005c-8.396-0.005-10.778-2.359-10.793-10.552
	c-0.008-3.996-0.016-7.992,0.002-11.988c0.032-7.333,2.575-9.977,9.845-9.995C87.888,64.194,104.705,64.224,121.522,64.223z
	 M78.299,86.594c3.512-0.394,5.83-2.188,5.876-5.95c0.046-3.714-2.03-5.824-5.725-6.074c-3.465-0.234-6.622,2.744-6.323,6.091
	C72.447,84.235,74.552,86.291,78.299,86.594z"/>
<path fill-rule="evenodd" clip-rule="evenodd" fill="#FFFFFF" d="M121.522,103.711c16.151,0,32.303-0.012,48.454,0.004
	c8.391,0.009,10.778,2.359,10.799,10.556c0.011,4.329,0.052,8.659-0.012,12.989c-0.091,6.072-2.757,8.877-8.843,8.971
	c-8.323,0.127-16.65,0.035-24.976,0.035c-24.977,0.002-49.952,0.01-74.929-0.004c-8.396-0.006-10.778-2.359-10.793-10.553
	c-0.008-3.996-0.016-7.992,0.002-11.988c0.032-7.333,2.575-9.977,9.845-9.995C87.888,103.683,104.705,103.712,121.522,103.711z
	 M78.299,126.082c3.512-0.393,5.83-2.188,5.876-5.949c0.046-3.714-2.03-5.825-5.725-6.075c-3.465-0.234-6.622,2.744-6.323,6.09
	C72.447,123.725,74.552,125.779,78.299,126.082z"/>
<path fill-rule="evenodd" clip-rule="evenodd" fill="#FFFFFF" d="M121.522,143.711c16.151,0,32.303-0.012,48.454,0.004
	c8.391,0.01,10.778,2.359,10.799,10.557c0.011,4.328,0.052,8.658-0.012,12.988c-0.091,6.072-2.757,8.877-8.843,8.971
	c-8.323,0.127-16.65,0.035-24.976,0.035c-24.977,0.002-49.952,0.01-74.929-0.004c-8.396-0.006-10.778-2.359-10.793-10.553
	c-0.008-3.996-0.016-7.992,0.002-11.988c0.032-7.332,2.575-9.977,9.845-9.994C87.888,143.684,104.705,143.713,121.522,143.711z
	 M78.299,166.082c3.512-0.393,5.83-2.188,5.876-5.949c0.046-3.715-2.03-5.824-5.725-6.074c-3.465-0.234-6.622,2.744-6.323,6.09
	C72.447,163.725,74.552,165.779,78.299,166.082z"/>
<path fill-rule="evenodd" clip-rule="evenodd" fill="#7F0606" d="M78.299,86.594c-3.747-0.303-5.852-2.358-6.171-5.934
	c-0.299-3.347,2.858-6.325,6.323-6.091c3.695,0.25,5.771,2.36,5.725,6.074C84.129,84.406,81.811,86.2,78.299,86.594z"/>
</svg>
