<?xml version="1.0" encoding="utf-8"?>
<!-- Generator: Adobe Illustrator 16.0.0, SVG Export Plug-In . SVG Version: 6.00 Build 0)  -->
<!DOCTYPE svg PUBLIC "-//W3C//DTD SVG 1.1//EN" "http://www.w3.org/Graphics/SVG/1.1/DTD/svg11.dtd">
<svg version="1.1" id="图层_1" xmlns="http://www.w3.org/2000/svg" xmlns:xlink="http://www.w3.org/1999/xlink" x="0px" y="0px"
	 width="240px" height="240px" viewBox="0 0 240 240" enable-background="new 0 0 240 240" xml:space="preserve">
<path fill-rule="evenodd" clip-rule="evenodd" fill="#C82E26" d="M218,241c-64.667,0-129.333,0-194,0
	c-0.383-0.309-0.72-0.764-1.157-0.904C8.711,235.539,3.36,228.188,3.358,213.247c-0.004-29.166-0.001-58.332-0.001-87.498
	c0-32.832-0.018-65.664,0.009-98.497C3.377,13.962,9.544,5.865,22.369,2.05C22.964,1.873,23.458,1.357,24,1
	c64.667,0,129.333,0,194,0c0.382,0.31,0.716,0.768,1.152,0.907c14.128,4.544,19.488,11.903,19.49,26.845
	c0.003,33.332,0.001,66.664,0.001,99.996c0,28.666,0.022,57.332-0.011,85.997c-0.016,13.311-6.177,21.396-18.997,25.208
	C219.039,240.13,218.543,240.644,218,241z M235.356,121.152c0-31.648,0.013-63.298-0.007-94.947
	c-0.008-13.264-8.219-21.552-21.375-21.555c-61.966-0.015-123.931-0.015-185.897,0C14.887,4.653,6.654,12.913,6.65,26.153
	C6.636,89.285,6.638,152.417,6.648,215.549c0.002,13.606,8.13,21.8,21.628,21.803c61.799,0.012,123.599,0.011,185.397,0
	c13.528-0.002,21.671-8.174,21.678-21.751C235.367,184.118,235.356,152.636,235.356,121.152z"/>
<path fill-rule="evenodd" clip-rule="evenodd" fill="#FFFFFF" d="M235.356,121.152c0,31.483,0.011,62.966-0.005,94.448
	c-0.007,13.577-8.149,21.749-21.678,21.751c-61.799,0.011-123.599,0.012-185.397,0c-13.498-0.003-21.625-8.196-21.628-21.803
	C6.638,152.417,6.636,89.285,6.65,26.153c0.003-13.24,8.237-21.5,21.427-21.503c61.966-0.015,123.931-0.015,185.897,0
	c13.156,0.003,21.367,8.291,21.375,21.555C235.369,57.854,235.356,89.504,235.356,121.152z M47.81,141.582
	c11.066,0,21.147,0,31.431,0c0-8.322,0-16.387,0-24.863c-8.571-1.453-17.163-2.909-26.525-4.497
	C51.058,122.143,49.479,131.593,47.81,141.582z M163.698,139.499c10.154,0,20.504,0,31.771,0
	c-2.139-9.999-4.167-19.481-6.284-29.382c-9.157,2.276-17.28,4.296-25.486,6.336C163.698,124.377,163.698,131.826,163.698,139.499z
	 M102.849,46.169c2.651,5.954,4.944,11.424,7.581,16.724c0.455,0.913,2.351,1.505,3.608,1.554c4.576,0.18,9.167,0.161,13.744,0.001
	c1.297-0.046,3.298-0.465,3.73-1.333c2.696-5.414,5.039-11.005,7.684-16.952C126.829,41.462,115.327,41.308,102.849,46.169z
	 M116.649,181.459c0.481-0.135,0.962-0.271,1.443-0.405c1.903,5.401,3.676,10.856,5.797,16.171c0.57,1.428,2.205,2.432,3.351,3.63
	c1.107-1.246,2.544-2.333,3.246-3.776c1.083-2.228,1.617-4.716,2.467-7.063c1.12-3.095,2.32-6.161,3.486-9.239
	c0.445,0.113,0.891,0.228,1.336,0.341c0,5.274-0.177,10.558,0.124,15.814c0.075,1.326,1.678,2.564,2.578,3.844
	c0.679-1.307,1.916-2.602,1.946-3.922c0.182-8.162,0.201-16.332-0.012-24.492c-0.038-1.432-1.431-2.828-2.198-4.241
	c-1.626,0.998-4.125,1.629-4.725,3.058c-2.443,5.819-4.28,11.892-6.402,17.849c-0.44,1.235-1.141,2.378-2.24,4.623
	c-2.931-8.303-5.234-15.406-8.039-22.307c-0.587-1.444-3.017-2.141-4.597-3.181c-0.721,1.442-2.032,2.872-2.066,4.331
	c-0.195,8.327-0.165,16.663,0.015,24.992c0.024,1.112,1.325,2.198,2.035,3.296c0.818-1.131,2.287-2.231,2.343-3.399
	C116.792,192.085,116.649,186.769,116.649,181.459z M88.142,88.351c-7.074-2.951-14.078-5.873-21.752-9.075
	c-3.164,6.876-6.098,13.252-9.19,19.975c8.479,3.609,16.067,6.839,23.726,10.1C83.425,102.076,85.724,95.386,88.142,88.351z
	 M154.887,89.735c2.274,6.88,4.321,13.071,6.491,19.637c7.85-3.398,15.269-6.611,23.454-10.155
	c-3.111-6.793-6.036-13.178-9.152-19.983C168.339,82.94,161.712,86.288,154.887,89.735z M152.547,80.94
	c4.179-3.306,9.941-7.865,16.485-13.043c-6.363-5.957-12.071-11.302-18.037-16.887c-5.217,6.204-9.664,11.493-13.476,16.025
	C142.669,71.8,147.378,76.157,152.547,80.94z M73.034,69.024c6.643,5.225,12.411,9.761,16.156,12.705
	c5.586-4.912,10.392-9.139,15.447-13.585c-4.131-4.883-8.584-10.146-13.712-16.206C84.774,57.812,79.117,63.216,73.034,69.024z
	 M178.225,187.64c-0.425,0.087-0.849,0.175-1.272,0.262c-0.441-0.81-0.941-1.594-1.314-2.434c-2.229-5.019-4.25-10.144-6.768-15.012
	c-0.621-1.2-2.768-1.839-4.337-2.205c-0.583-0.136-2.186,1.236-2.196,1.939c-0.154,9.49-0.157,18.985-0.019,28.477
	c0.011,0.723,1.379,1.426,2.116,2.139c0.753-0.86,2.086-1.676,2.155-2.588c0.265-3.479,0.124-6.987,0.129-10.485
	c0.005-2.83,0.001-5.66,0.001-8.489c0.485-0.051,0.971-0.102,1.456-0.151c2.938,6.468,5.766,12.991,8.918,19.353
	c0.562,1.133,2.474,1.596,3.762,2.368c0.634-1.152,1.794-2.295,1.815-3.458c0.157-8.492,0.175-16.991-0.011-25.482
	c-0.027-1.24-1.368-2.451-2.101-3.677c-0.778,1.182-2.172,2.334-2.229,3.549C178.083,177.033,178.225,182.34,178.225,187.64z
	 M47.318,189.688c6.998-4.509,9.308-10.053,6.998-15.808c-2.226-5.547-9.262-7.72-19.461-5.688c0,10.281-0.102,20.703,0.187,31.114
	c0.024,0.87,2.679,1.668,5.307,3.193c0-5.211,0-8.575,0-13.415c3.217,3.534,5.4,5.964,7.619,8.36
	c2.282,2.465,4.265,5.834,9.066,2.856c-1.679-1.913-3.138-3.632-4.659-5.293C50.815,193.306,49.195,191.658,47.318,189.688z
	 M84.199,200.898c10.571,1.87,16.368,0.24,19.67-5.294c3.942-6.605,3.508-18.892-1.107-24.126
	c-5.226-5.928-12.011-3.604-18.563-3.92C84.199,179.15,84.199,189.907,84.199,200.898z M78.487,201.177
	c1.284-3.25,0.481-4.896-3.121-4.696c-1.492,0.083-3.016-0.165-4.483,0.041c-4.143,0.582-4.901-1.418-4.987-5.146
	c-0.097-4.205,1.332-5.767,5.425-5.276c1.263,0.151,2.583-0.175,4.117-0.303c0-1.32,0.232-3.313-0.036-3.383
	c-2.91-0.759-5.898-1.215-8.818-1.745c-1.389-8.319-1.389-8.318,6.571-8.382c0.997-0.008,2.132,0.268,2.956-0.117
	c0.98-0.457,1.693-1.486,2.521-2.269c-0.819-0.805-1.608-2.268-2.461-2.306c-4.937-0.223-9.888-0.108-15.137-0.108
	c0,11.528,0,22.423,0,33.689C67.013,201.177,72.746,201.177,78.487,201.177z M190.473,184.359c0,1.332,0,2.664,0,3.996
	c0,12.703,0.002,12.776,12.524,12.532c1.854-0.036,3.688-1.142,5.531-1.751c-1.758-0.692-3.489-1.468-5.286-2.036
	c-0.757-0.239-1.662-0.125-2.483-0.029c-4.007,0.469-5.751-1.07-5.616-5.301c0.12-3.772,0.423-6.607,5.356-6.095
	c1.303,0.135,2.736-0.995,4.109-1.545c-1.373-0.769-2.688-2.034-4.131-2.2c-2.771-0.318-5.18-0.123-5.322-4.129
	c-0.16-4.465,1.208-6.65,5.92-5.976c0.979,0.14,2.062,0.233,2.978-0.043c1.24-0.373,2.367-1.124,3.542-1.713
	c-1.105-0.673-2.172-1.834-3.324-1.926c-3.309-0.265-6.655-0.002-9.98-0.127c-2.803-0.104-3.896,1.122-3.835,3.856
	C190.549,176.034,190.479,180.197,190.473,184.359z M154.658,184.406c0-4.315,0.14-8.638-0.096-12.94
	c-0.061-1.118-1.293-2.172-1.986-3.255c-0.813,0.979-2.313,1.944-2.333,2.939c-0.182,8.959-0.165,17.924-0.008,26.884
	c0.017,0.928,1.321,1.833,2.028,2.749c0.797-0.978,2.225-1.92,2.282-2.939C154.798,193.377,154.654,188.888,154.658,184.406z"/>
<path fill-rule="evenodd" clip-rule="evenodd" fill="#AD2222" d="M47.81,141.582c1.669-9.989,3.248-19.439,4.905-29.36
	c9.362,1.588,17.954,3.044,26.525,4.497c0,8.477,0,16.541,0,24.863C68.957,141.582,58.875,141.582,47.81,141.582z"/>
<path fill-rule="evenodd" clip-rule="evenodd" fill="#AD2222" d="M163.698,139.499c0-7.673,0-15.122,0-23.046
	c8.206-2.04,16.329-4.06,25.486-6.336c2.117,9.9,4.146,19.383,6.284,29.382C184.202,139.499,173.853,139.499,163.698,139.499z"/>
<path fill-rule="evenodd" clip-rule="evenodd" fill="#AD2222" d="M102.849,46.169c12.478-4.861,23.98-4.707,36.347-0.007
	c-2.645,5.947-4.987,11.538-7.684,16.952c-0.433,0.868-2.434,1.287-3.73,1.333c-4.577,0.16-9.168,0.179-13.744-0.001
	c-1.257-0.049-3.154-0.641-3.608-1.554C107.793,57.593,105.5,52.123,102.849,46.169z"/>
<path fill-rule="evenodd" clip-rule="evenodd" fill="#AD2222" d="M116.649,181.459c0,5.31,0.143,10.626-0.112,15.922
	c-0.056,1.168-1.525,2.269-2.343,3.399c-0.71-1.098-2.011-2.184-2.035-3.296c-0.179-8.329-0.209-16.665-0.015-24.992
	c0.034-1.459,1.345-2.889,2.066-4.331c1.581,1.04,4.01,1.736,4.597,3.181c2.804,6.9,5.108,14.004,8.039,22.307
	c1.1-2.245,1.8-3.388,2.24-4.623c2.122-5.957,3.959-12.029,6.402-17.849c0.6-1.429,3.099-2.06,4.725-3.058
	c0.768,1.413,2.16,2.81,2.198,4.241c0.213,8.16,0.193,16.33,0.012,24.492c-0.03,1.32-1.268,2.615-1.946,3.922
	c-0.9-1.279-2.503-2.518-2.578-3.844c-0.301-5.257-0.124-10.54-0.124-15.814c-0.445-0.113-0.891-0.228-1.336-0.341
	c-1.166,3.078-2.366,6.145-3.486,9.239c-0.85,2.348-1.384,4.836-2.467,7.063c-0.702,1.443-2.139,2.53-3.246,3.776
	c-1.146-1.198-2.78-2.202-3.351-3.63c-2.121-5.314-3.894-10.77-5.797-16.171C117.611,181.188,117.13,181.324,116.649,181.459z"/>
<path fill-rule="evenodd" clip-rule="evenodd" fill="#AD2222" d="M88.142,88.351c-2.418,7.035-4.717,13.726-7.217,20.999
	c-7.659-3.261-15.246-6.49-23.726-10.1c3.093-6.723,6.027-13.099,9.19-19.975C74.064,82.478,81.068,85.399,88.142,88.351z"/>
<path fill-rule="evenodd" clip-rule="evenodd" fill="#AD2222" d="M154.887,89.735c6.825-3.447,13.452-6.795,20.793-10.502
	c3.116,6.806,6.041,13.19,9.152,19.983c-8.186,3.544-15.604,6.757-23.454,10.155C159.208,102.807,157.161,96.615,154.887,89.735z"/>
<path fill-rule="evenodd" clip-rule="evenodd" fill="#AD2222" d="M152.547,80.94c-5.169-4.783-9.878-9.141-15.027-13.904
	c3.812-4.532,8.259-9.821,13.476-16.025c5.966,5.585,11.674,10.93,18.037,16.887C162.488,73.075,156.726,77.635,152.547,80.94z"/>
<path fill-rule="evenodd" clip-rule="evenodd" fill="#AD2222" d="M73.034,69.024c6.083-5.809,11.741-11.213,17.891-17.086
	c5.128,6.061,9.581,11.323,13.712,16.206c-5.056,4.446-9.861,8.673-15.447,13.585C85.445,78.785,79.677,74.249,73.034,69.024z"/>
<path fill-rule="evenodd" clip-rule="evenodd" fill="#AD2222" d="M178.225,187.64c0-5.3-0.142-10.606,0.105-15.896
	c0.058-1.215,1.451-2.367,2.229-3.549c0.732,1.226,2.073,2.437,2.101,3.677c0.186,8.491,0.168,16.99,0.011,25.482
	c-0.021,1.163-1.182,2.306-1.815,3.458c-1.288-0.772-3.2-1.235-3.762-2.368c-3.152-6.361-5.979-12.885-8.918-19.353
	c-0.485,0.05-0.971,0.101-1.456,0.151c0,2.829,0.004,5.659-0.001,8.489c-0.005,3.498,0.136,7.007-0.129,10.485
	c-0.069,0.912-1.402,1.728-2.155,2.588c-0.737-0.713-2.105-1.416-2.116-2.139c-0.139-9.491-0.136-18.986,0.019-28.477
	c0.011-0.703,1.613-2.075,2.196-1.939c1.569,0.366,3.716,1.005,4.337,2.205c2.518,4.868,4.538,9.993,6.768,15.012
	c0.373,0.84,0.873,1.624,1.314,2.434C177.376,187.814,177.8,187.727,178.225,187.64z"/>
<path fill-rule="evenodd" clip-rule="evenodd" fill="#AD2222" d="M47.318,189.688c1.877,1.97,3.498,3.617,5.057,5.32
	c1.521,1.661,2.979,3.38,4.659,5.293c-4.801,2.978-6.785-0.392-9.066-2.856c-2.219-2.396-4.401-4.826-7.619-8.36
	c0,4.84,0,8.204,0,13.415c-2.628-1.525-5.283-2.323-5.307-3.193c-0.289-10.411-0.187-20.833-0.187-31.114
	c10.199-2.031,17.235,0.142,19.461,5.688C56.625,179.636,54.316,185.18,47.318,189.688z M39.28,176.982
	c1.615,3.664-1.11,8.255,4.457,8.043c4.103-0.155,5.619-3.057,5.684-6.794c0.075-4.278-2.791-6.201-6.371-5.791
	C41.536,172.614,40.346,175.615,39.28,176.982z"/>
<path fill-rule="evenodd" clip-rule="evenodd" fill="#AD2222" d="M84.199,200.898c0-10.991,0-21.748,0-33.34
	c6.552,0.315,13.337-2.008,18.563,3.92c4.615,5.234,5.05,17.521,1.107,24.126C100.566,201.139,94.77,202.769,84.199,200.898z
	 M89.338,184.317c0,2.316-0.236,4.665,0.073,6.938c0.257,1.892,1.155,3.695,1.77,5.538c2.615-1.021,6.438-1.295,7.619-3.203
	c3.498-5.651,3.376-12.218,0.202-17.96c-1.072-1.939-4.891-2.36-7.455-3.476c-0.736,1.903-1.775,3.753-2.125,5.726
	C89.052,179.966,89.338,182.167,89.338,184.317z"/>
<path fill-rule="evenodd" clip-rule="evenodd" fill="#AD2222" d="M78.487,201.177c-5.742,0-11.474,0-17.454,0
	c0-11.267,0-22.161,0-33.689c5.25,0,10.201-0.114,15.137,0.108c0.853,0.038,1.643,1.501,2.461,2.306
	c-0.829,0.782-1.542,1.812-2.521,2.269c-0.824,0.385-1.959,0.109-2.956,0.117c-7.959,0.063-7.959,0.063-6.571,8.382
	c2.92,0.53,5.908,0.986,8.818,1.745c0.268,0.069,0.036,2.063,0.036,3.383c-1.534,0.128-2.854,0.454-4.117,0.303
	c-4.093-0.49-5.522,1.071-5.425,5.276c0.086,3.728,0.845,5.728,4.987,5.146c1.467-0.206,2.991,0.042,4.483-0.041
	C78.969,196.281,79.771,197.927,78.487,201.177z"/>
<path fill-rule="evenodd" clip-rule="evenodd" fill="#AD2222" d="M190.477,184.359c0.003-4.162,0.072-8.325-0.021-12.485
	c-0.062-2.734,1.032-3.961,3.835-3.856c3.325,0.125,6.672-0.138,9.98,0.127c1.152,0.092,2.219,1.253,3.324,1.926
	c-1.175,0.589-2.302,1.34-3.542,1.713c-0.916,0.276-1.999,0.183-2.978,0.043c-4.712-0.675-6.08,1.511-5.92,5.976
	c0.143,4.006,2.551,3.811,5.322,4.129c1.442,0.166,2.758,1.432,4.131,2.2c-1.373,0.55-2.807,1.68-4.109,1.545
	c-4.934-0.513-5.236,2.322-5.356,6.095c-0.135,4.23,1.609,5.77,5.616,5.301c0.821-0.096,1.727-0.21,2.483,0.029
	c1.797,0.568,3.528,1.344,5.286,2.036c-1.844,0.609-3.677,1.715-5.531,1.751c-12.522,0.244-12.524,0.171-12.524-12.532
	C190.473,187.023,190.473,185.691,190.477,184.359z"/>
<path fill-rule="evenodd" clip-rule="evenodd" fill="#AD2222" d="M154.656,184.406c-0.002,4.481,0.142,8.971-0.11,13.438
	c-0.058,1.02-1.485,1.962-2.282,2.939c-0.707-0.916-2.012-1.821-2.028-2.749c-0.157-8.96-0.174-17.925,0.008-26.884
	c0.02-0.995,1.52-1.96,2.333-2.939c0.693,1.083,1.926,2.137,1.986,3.255C154.798,175.769,154.658,180.091,154.656,184.406z"/>
</svg>
