<?xml version="1.0" encoding="utf-8"?>
<!-- Generator: Adobe Illustrator 16.0.0, SVG Export Plug-In . SVG Version: 6.00 Build 0)  -->
<!DOCTYPE svg PUBLIC "-//W3C//DTD SVG 1.1//EN" "http://www.w3.org/Graphics/SVG/1.1/DTD/svg11.dtd">
<svg version="1.1" id="图层_1" xmlns="http://www.w3.org/2000/svg" xmlns:xlink="http://www.w3.org/1999/xlink" x="0px" y="0px"
	 width="240px" height="240px" viewBox="0 0 240 240" enable-background="new 0 0 240 240" xml:space="preserve">
<g>
	<path fill-rule="evenodd" clip-rule="evenodd" fill="#FFFFFF" d="M26,238c-12.131,0-22-9.869-22-22V24C4,11.869,13.869,2,26,2h188
		c12.131,0,22,9.869,22,22v192c0,12.131-9.869,22-22,22H26z"/>
	<g>
		<path fill="#11A2C8" d="M214,4c11.028,0,20,8.972,20,20v192c0,11.028-8.972,20-20,20H26c-11.028,0-20-8.972-20-20V24
			C6,12.972,14.972,4,26,4H214 M214,0H26C12.745,0,2,10.745,2,24v192c0,13.255,10.745,24,24,24h188c13.255,0,24-10.745,24-24V24
			C238,10.745,227.255,0,214,0L214,0z"/>
	</g>
</g>
<path fill-rule="evenodd" clip-rule="evenodd" d="M82.382,164.85c-14.749,0-28.697,0-43.021,0c0-36.088,0-72.113,0-108.503
	c35.906,0,71.932,0,108.307,0c0,17.114,0,34.306,0,52.035c-1.96,0-3.743,0-5.527,0c-17.98,0-35.962,0.136-53.939-0.096
	c-4.45-0.058-6.04,0.951-5.937,5.737c0.323,14.977,0.119,29.964,0.119,44.947C82.382,160.778,82.382,162.585,82.382,164.85z"/>
<rect x="83.2" y="108.286" fill-rule="evenodd" clip-rule="evenodd" fill="#11A2C8" width="117.8" height="81.714"/>
<g>
	<path fill="#FFFFFF" d="M96.273,176v-51.539h21.902c5.508,0,9.51,0.463,12.006,1.389s4.494,2.572,5.994,4.939
		s2.25,5.074,2.25,8.121c0,3.867-1.137,7.061-3.41,9.58s-5.672,4.107-10.195,4.764c2.25,1.313,4.107,2.754,5.572,4.324
		s3.439,4.359,5.924,8.367L142.609,176h-12.445l-7.523-11.215c-2.672-4.008-4.5-6.533-5.484-7.576s-2.027-1.758-3.129-2.145
		s-2.848-0.58-5.238-0.58h-2.109V176H96.273z M106.68,146.258h7.699c4.992,0,8.109-0.211,9.352-0.633s2.215-1.148,2.918-2.18
		s1.055-2.32,1.055-3.867c0-1.734-0.463-3.135-1.389-4.201s-2.232-1.74-3.92-2.021c-0.844-0.117-3.375-0.176-7.594-0.176h-8.121
		V146.258z"/>
	<path fill="#FFFFFF" d="M145.598,159.23l10.125-0.984c0.609,3.398,1.846,5.895,3.709,7.488s4.377,2.391,7.541,2.391
		c3.352,0,5.877-0.709,7.576-2.127s2.549-3.076,2.549-4.975c0-1.219-0.357-2.256-1.072-3.111s-1.963-1.6-3.744-2.232
		c-1.219-0.422-3.996-1.172-8.332-2.25c-5.578-1.383-9.492-3.082-11.742-5.098c-3.164-2.836-4.746-6.293-4.746-10.371
		c0-2.625,0.744-5.08,2.232-7.365s3.633-4.025,6.434-5.221s6.182-1.793,10.143-1.793c6.469,0,11.338,1.418,14.607,4.254
		s4.986,6.621,5.15,11.355l-10.406,0.457c-0.445-2.648-1.4-4.553-2.865-5.713s-3.662-1.74-6.592-1.74
		c-3.023,0-5.391,0.621-7.102,1.863c-1.102,0.797-1.652,1.863-1.652,3.199c0,1.219,0.516,2.262,1.547,3.129
		c1.313,1.102,4.5,2.25,9.563,3.445s8.807,2.432,11.232,3.709s4.324,3.023,5.695,5.238s2.057,4.951,2.057,8.209
		c0,2.953-0.82,5.719-2.461,8.297s-3.961,4.494-6.961,5.748s-6.738,1.881-11.215,1.881c-6.516,0-11.52-1.506-15.012-4.518
		S146.277,164.996,145.598,159.23z"/>
</g>
</svg>
