<?xml version="1.0" encoding="utf-8"?>
<!-- Generator: Adobe Illustrator 16.0.0, SVG Export Plug-In . SVG Version: 6.00 Build 0)  -->
<!DOCTYPE svg PUBLIC "-//W3C//DTD SVG 1.1//EN" "http://www.w3.org/Graphics/SVG/1.1/DTD/svg11.dtd">
<svg version="1.1" id="图层_1" xmlns="http://www.w3.org/2000/svg" xmlns:xlink="http://www.w3.org/1999/xlink" x="0px" y="0px"
	 width="240px" height="240px" viewBox="0 0 240 240" enable-background="new 0 0 240 240" xml:space="preserve">
<path fill-rule="evenodd" clip-rule="evenodd" fill="#DB2323" d="M219,241c-65.333,0-130.667,0-196,0
	c-0.717-0.368-1.399-0.848-2.158-1.089c-10.986-3.488-17.595-11.913-17.608-23.28c-0.072-63.753-0.063-127.506,0-191.259
	C3.242,17.029,6.666,10.13,13.673,5.449C16.508,3.556,19.875,2.459,23,1c65.333,0,130.667,0,196,0
	c0.394,0.291,0.745,0.708,1.187,0.855c12.969,4.333,18.601,12.014,18.613,25.514c0.017,17.645,0.004,35.288,0.004,52.933
	c0,44.943,0.016,89.887-0.01,134.83c-0.008,12.844-6.029,21.018-18.123,24.887C220.071,240.211,219.556,240.667,219,241z
	 M112.006,148.287c0,3.982-0.007,8.282,0.002,12.582c0.018,8.723,2.093,10.783,11,10.802c12.162,0.025,24.338,0.354,36.48-0.124
	c7.221-0.284,13.433,0.976,18.617,6.21c0.864,0.872,2.141,1.335,3.639,2.235c0.335-2.921,0.608-5.318,0.886-7.74
	c0.879-0.214,1.507-0.433,2.151-0.514c7.549-0.952,9.189-2.722,9.204-10.154c0.023-11.328,0.07-22.658-0.027-33.986
	c-0.05-5.876-2.734-8.464-8.622-8.57c-4.592-0.083-9.187-0.017-14.142-0.017c0-11.07,0.013-21.372-0.004-31.674
	c-0.014-8.877-3.56-12.506-12.305-12.524c-13.328-0.029-26.656-0.009-39.984-0.009c-16.66,0.001-33.32-0.037-49.98,0.021
	c-6.508,0.023-10.978,3.754-11.036,9.705c-0.17,17.658-0.153,35.32-0.01,52.979c0.046,5.653,4.192,9.452,9.952,9.756
	c1.914,0.102,3.837,0.017,6.262,0.017c0,4.533,0,8.254,0,11.974c0.304,0.406,0.607,0.813,0.911,1.218
	C84.858,149.301,96.636,144.19,112.006,148.287z"/>
<path fill-rule="evenodd" clip-rule="evenodd" fill="#FFFFFF" d="M112.006,148.287C96.636,144.19,84.858,149.301,75,160.473
	c-0.304-0.405-0.607-0.812-0.911-1.218c0-3.72,0-7.44,0-11.974c-2.424,0-4.348,0.085-6.262-0.017
	c-5.759-0.304-9.906-4.103-9.952-9.756c-0.143-17.658-0.16-35.32,0.01-52.979c0.058-5.951,4.527-9.682,11.036-9.705
	c16.66-0.059,33.32-0.021,49.98-0.021c13.328,0,26.656-0.021,39.984,0.009c8.745,0.019,12.291,3.647,12.305,12.524
	c0.017,10.302,0.004,20.604,0.004,31.674c4.955,0,9.55-0.066,14.142,0.017c5.888,0.106,8.572,2.694,8.622,8.57
	c0.098,11.328,0.051,22.658,0.027,33.986c-0.015,7.433-1.655,9.202-9.204,10.154c-0.645,0.081-1.272,0.3-2.151,0.514
	c-0.277,2.422-0.551,4.819-0.886,7.74c-1.498-0.9-2.774-1.363-3.639-2.235c-5.185-5.234-11.396-6.494-18.617-6.21
	c-12.143,0.479-24.318,0.149-36.48,0.124c-8.908-0.019-10.983-2.079-11-10.802C111.999,156.569,112.006,152.27,112.006,148.287z
	 M122.776,110.272c0.135-4.703-4.081-8.999-8.818-8.983c-4.53,0.016-8.573,3.994-8.713,8.574c-0.139,4.533,3.722,8.688,8.302,8.934
	C118.302,119.053,122.639,115.048,122.776,110.272z M92.027,110.083c-0.003-4.951-3.992-8.957-8.763-8.801
	c-4.622,0.152-8.277,4.023-8.29,8.777c-0.013,4.972,3.905,8.881,8.762,8.742C88.405,118.668,92.03,114.856,92.027,110.083z
	 M153.023,109.851c-0.1-4.718-3.904-8.56-8.496-8.576c-4.776-0.019-8.644,4.058-8.557,9.016c0.084,4.756,3.814,8.487,8.501,8.504
	C149.352,118.812,153.13,114.86,153.023,109.851z"/>
<path fill-rule="evenodd" clip-rule="evenodd" fill="#DB2323" d="M122.776,110.272c-0.138,4.775-4.474,8.78-9.229,8.524
	c-4.58-0.246-8.44-4.4-8.302-8.934c0.14-4.58,4.184-8.559,8.713-8.574C118.695,101.273,122.911,105.569,122.776,110.272z"/>
<path fill-rule="evenodd" clip-rule="evenodd" fill="#DB2323" d="M92.027,110.083c0.003,4.773-3.622,8.585-8.291,8.719
	c-4.857,0.139-8.775-3.771-8.762-8.742c0.012-4.754,3.668-8.625,8.29-8.777C88.035,101.126,92.024,105.132,92.027,110.083z"/>
<path fill-rule="evenodd" clip-rule="evenodd" fill="#DB2323" d="M153.023,109.851c0.106,5.01-3.672,8.961-8.552,8.943
	c-4.687-0.017-8.417-3.748-8.501-8.504c-0.087-4.958,3.78-9.034,8.557-9.016C149.119,101.291,152.924,105.133,153.023,109.851z"/>
</svg>
