<?xml version="1.0" encoding="utf-8"?>
<!-- Generator: Adobe Illustrator 16.0.0, SVG Export Plug-In . SVG Version: 6.00 Build 0)  -->
<!DOCTYPE svg PUBLIC "-//W3C//DTD SVG 1.1//EN" "http://www.w3.org/Graphics/SVG/1.1/DTD/svg11.dtd">
<svg version="1.1" id="图层_1" xmlns="http://www.w3.org/2000/svg" xmlns:xlink="http://www.w3.org/1999/xlink" x="0px" y="0px"
	 width="240px" height="240px" viewBox="0 0 240 240" enable-background="new 0 0 240 240" xml:space="preserve">
<path fill="#D3892F" d="M24,1c64.667,0,129.333,0,194,0c0.247,0.218,0.466,0.576,0.746,0.634c14.26,2.93,20.227,14.579,20.05,28.016
	c-0.396,30.278-0.124,60.565-0.124,90.85c0,31.614,0.032,63.229-0.018,94.846c-0.021,11.944-6.598,21.178-17.021,24.28
	c-1.237,0.368-2.425,0.912-3.635,1.375c-64.667,0-129.333,0-194,0c-0.249-0.217-0.47-0.571-0.751-0.629
	C9.025,237.48,2.989,225.773,3.204,212.35c0.421-26.283,0.124-52.578,0.124-78.869c0-35.608-0.026-71.218,0.015-106.827
	c0.014-11.93,6.584-21.151,17.03-24.271C21.609,2.013,22.792,1.465,24,1z"/>
<path fill="#FFFFFF" d="M128.955,120.516c11.668,10.909,22.236,20.78,32.793,30.664c2.794,2.615,5.684,5.146,8.305,7.93
	c6.288,6.677,3.35,16.861-5.516,19.307c-1.426,0.395-2.939,0.65-4.414,0.652c-25.813,0.039-51.625,0.099-77.437-0.01
	c-9.1-0.037-14.196-5.42-12.803-13.773c0.446-2.674,2.385-5.486,4.408-7.444c11.002-10.653,22.247-21.055,33.399-31.553
	c1.689-1.591,3.333-3.229,5.505-5.337c-6.928-6.519-13.663-12.865-20.409-19.199C86.96,96.281,81.18,90.76,75.266,85.387
	c-4.414-4.011-6.086-8.898-4.043-14.396c2.071-5.572,6.789-8.049,12.622-8.062c25.146-0.052,50.292-0.078,75.438,0.02
	c6.333,0.024,10.924,3.09,12.521,8.114c1.789,5.635,0.209,10.374-4.162,14.407c-11.742,10.84-23.375,21.799-35.084,32.677
	C131.716,118.93,130.617,119.438,128.955,120.516z M81.549,74.315c-0.369,0.585-0.738,1.171-1.106,1.757
	c6.031,5.529,12.028,11.096,18.146,16.526c0.593,0.526,1.934,0.275,2.928,0.276c13.154,0.015,26.31,0.087,39.461-0.079
	c1.777-0.022,3.889-0.858,5.246-2.018c4.426-3.776,8.604-7.847,12.81-11.876c1.09-1.045,1.924-2.356,3.709-4.587
	C134.727,74.315,108.138,74.315,81.549,74.315z M148.104,152.802c-9.537-8.726-18.049-16.511-26.826-24.542
	c-8.729,8.066-17.17,15.867-26.56,24.542C112.991,152.802,129.746,152.802,148.104,152.802z M162.716,167.751
	c-2.69-4.086-4.958-6.711-9.729-6.669c-21.159,0.188-42.32,0.15-63.479,0.027c-4.625-0.026-7.165,2.268-9.479,6.642
	C107.785,167.751,134.881,167.751,162.716,167.751z M135.523,100.791c-9.897,0-18.828,0-28.414,0
	c4.922,4.626,9.36,8.797,14.142,13.292C125.919,109.736,130.37,105.592,135.523,100.791z"/>
</svg>
