<?xml version="1.0" encoding="utf-8"?>
<!-- Generator: Adobe Illustrator 16.0.0, SVG Export Plug-In . SVG Version: 6.00 Build 0)  -->
<!DOCTYPE svg PUBLIC "-//W3C//DTD SVG 1.1//EN" "http://www.w3.org/Graphics/SVG/1.1/DTD/svg11.dtd">
<svg version="1.1" id="图层_1" xmlns="http://www.w3.org/2000/svg" xmlns:xlink="http://www.w3.org/1999/xlink" x="0px" y="0px"
	 width="240px" height="240px" viewBox="0 0 240 240" enable-background="new 0 0 240 240" xml:space="preserve">
<path fill="#4D97FF" d="M238,216c0,13.255-10.745,24-24,24H26c-13.255,0-24-10.745-24-24V24C2,10.745,12.745,0,26,0h188
	c13.255,0,24,10.745,24,24V216z"/>
<path id="path3602" sodipodi:nodetypes="csccscscsccscsscsccsccsccscsccscsc" fill="#FFFFFF" d="M34.761,99.507
	c0,0-0.886-4.669,2.657-4.831c3.543-0.161,2.657,4.187,2.657,4.187l-0.402,11.916c0,0,0,3.382-3.06,3.301
	c-3.06-0.08-3.301-3.784-3.301-3.784s-0.483-2.899-1.288-4.831c-0.805-1.932-2.416-3.945-2.416-3.945s-1.288-0.805-2.254-0.081
	c-0.966,0.725-1.69,3.301-1.69,3.301l-0.564,5.154c0,0-0.161,2.254,0.725,2.979c0.885,0.724,3.301,1.046,3.301,1.046
	c-0.085,0.043,4.148,0.342,5.797,0.805c1.21,0.34,6.924,0.966,7.648,8.938c0.725,7.971-6.28,10.064-6.28,10.064
	s-3.789,2.067-7.407,1.69c-4.404-0.459-5.565-2.345-5.556-2.335l-0.081,4.509c0,0-0.966,2.094-2.979,2.174
	c-2.013,0.081-2.334-1.852-2.334-1.852l-0.242-16.264c0,0-0.402-2.335,3.301-2.254c3.704,0.08,2.738,2.737,2.738,2.737l0.322,2.818
	c0,0,1.208,5.313,5.395,5.556c4.187,0.241,7.246-2.738,7.246-2.738s1.37-4.187-0.563-6.199c-1.933-2.013-6.361-2.254-6.361-2.254
	l-2.979-0.161c0,0-6.844-2.174-7.407-7.649c-0.561-5.449,1.288-10.467,1.288-10.467s1.213-5.232,7.81-4.75
	C33.999,96.689,34.432,99.668,34.761,99.507z"/>
<path id="path3614" sodipodi:nodetypes="csccsscsscsccsscscscscsc" fill="#FFFFFF" d="M61.976,124.628c0,0-0.081-2.898,3.22-2.817
	c3.301,0.08,2.979,2.656,2.979,2.656l-0.483,7.649c0,0-1.771,10.064-11.835,9.742c-10.064-0.322-12.722-5.233-12.802-9.179
	c-0.08-3.945,0.081-13.366,0.081-13.366s0.26-2.868,1.289-5.073l1.127-2.415c0.571-1.224,3.481-3.083,3.543-2.899
	c-0.013-0.05,1.421-0.888,7.085,0c3.53,0.554,4.025,2.577,4.025,2.577l0.161-4.992c0,0,0.483-2.094,2.737-2.094
	c2.255,0,2.979,0.644,3.06,2.254s0,10.226,0,10.226s0,2.093-3.06,2.093c-3.059,0-3.542-2.254-3.542-2.254
	c-1.687-2.18-3.336-3.45-7.166-2.898c-3.426,0.494-3.865,5.877-3.865,5.877s-1.449,8.375,0.402,13.366
	c1.852,4.991,6.925,3.784,6.925,3.784s6.119-0.321,6.2-5.233C62.136,126.722,62.056,124.789,61.976,124.628L61.976,124.628z"/>
<path id="path3634" sodipodi:nodetypes="ccscccscccscsssscsssssssscssscssccsscsccc" fill="#FFFFFF" d="M84.546,98.149
	c-5.023,0.017-14.278,0.877-14.278,0.877s-3.952,0.639-4.113,3.135c-0.162,2.496,3.304,2.815,3.304,2.815l2.664-0.152l0.32,9.339
	c0,0-2.165,0.321-2.326,2.495c-0.161,2.174,2.815,2.984,2.815,2.984l0.792,12.307l-3.135,0.32c0,0-2.899,0.487-2.899,2.984
	c0,2.495,3.135,2.494,3.135,2.494s9.99-0.881,11.278-1.686s2.425-1.849,2.023-3.54c-0.403-1.691-2.42-1.764-3.388-1.702
	c-1.629,0.102-1.652,0.353-1.669-0.304c-0.091-3.602-0.421-12.003-0.421-12.003s1.851-1.38,3.22-0.978
	c1.368,0.403,3.773,0.811,5.142,4.435c0.4,1.061,1.041,3.792,1.23,4.838c0.832,4.59,0.868,8.463,2.967,10.3
	c2.576,2.255,2.735,2.006,4.989,2.006c2.255,0,5.804-1.918,6.608-4.012c0.805-2.094,1.038-3.876-0.573-4.922
	c-1.61-1.048-3.375-0.311-4.181,0.978c-0.805,1.288-0.725,2.899-0.725,2.899s-1.987,3.173-3.473-3.877
	c-0.413-1.958-0.038-3.703-0.135-4.906c-0.236-2.937-0.419-3.814-0.91-5.158c-0.6-1.642-2.583-5.304-2.816-5.227
	c0,0,5.641-1.941,5.479-8.462c-0.161-6.521-5.396-7.562-8.294-8.125C86.632,98.195,85.705,98.145,84.546,98.149z M78.326,103.291
	c0,0,3.863,0.074,6.439,0.236c2.576,0.161,4.503,1.462,4.906,3.877c0.402,2.416-2.327,3.692-2.327,3.692
	c0,0.089-3.873,1.008-4.758,0.884c-0.877-0.123-3.058,1.055-3.058,1.055l-0.883,0.168L78.326,103.291z"/>
<path id="path3653" fill="#FFFFFF" d="M114.738,93.901c-1.17-0.013-2.696,0.279-4.703,0.455c-4.59,0.402-8.686,0.718-8.042,4.181
	s9.103,0,9.103,0l-4.838,24.562h-6.204c0,0-2.65,0.563-2.731,2.495s1.922,2.495,1.922,2.495s3.3,0.346,6.456,0.809
	c1.453,0.214,2.799-0.018,3.945,0.152c3.379,0.5,2.817-0.158,3.945-2.091c1.127-1.932-1.214-2.579-1.214-2.579
	s-0.719,0.083-0.236-1.045s9.491-2.007,9.491-2.007l1.449,5.8c0,0-1.41,0.748-2.174,1.45c-2.184,2.003-0.725,3.944-0.725,3.944
	c-0.415,0.178,1.875,1.409,4.112,0.404c1.223-0.549,7.172-4.356,9.829-5.242s2.402-2.579,1.517-4.35
	c-0.886-1.771-3.051-1.197-3.051-1.197s-1.778,0.645-2.664,1.45c-0.885,0.805-1.602-0.489-1.602-0.489s-9.261-23.503-10.468-26.804
	C117.177,94.438,116.242,93.917,114.738,93.901z M115.429,106.831l4.282,9.255c0,0-6.119,1.139-6.119,0.978
	C113.592,116.902,115.429,106.831,115.429,106.831z"/>
<path id="path3672" sodipodi:nodetypes="cccsccssccscscscscsscsscc" fill="#FFFFFF" d="M142.974,104.66l0.16,28.342l-3.461,0.16
	c0,0-3.061,0.322-3.061,2.657s2.496,2.818,2.496,2.818l14.091-0.241c0,0,2.254-0.564,2.093-2.898
	c-0.161-2.336-1.369-2.738-2.495-2.738c-1.128,0-3.543-0.16-3.543-0.16l-0.484-28.664c0,0,9.068,0.275,9.018-0.483
	c-0.033-0.512-0.452,6.522-0.321,6.522c0,0-0.321,2.093,2.898,2.093c3.221,0,3.221-3.221,3.221-3.221s-0.08-5.475,0.241-7.085
	c0.34-1.695-0.482-3.14-0.482-3.14s-1.208-1.771-4.268-0.885c-3.06,0.885-13.445,1.288-13.445,1.288s-10.95-0.966-13.366-0.563
	s-3.703,0.563-4.187,2.174c-0.483,1.61,1.852,12.158,1.852,12.158s0.161,3.06,2.335,2.898s2.979-0.081,2.979-3.221
	s-0.885-8.052-0.885-8.052L142.974,104.66L142.974,104.66z"/>
<path id="path3614-9" sodipodi:nodetypes="csccsscsscsccsscscscscsc" fill="#FFFFFF" d="M181.087,123.505c0,0-0.08-2.898,3.22-2.817
	c3.302,0.08,2.979,2.657,2.979,2.657l-0.482,7.648c0,0-1.772,10.064-11.837,9.743c-10.063-0.322-12.721-5.233-12.801-9.179
	c-0.081-3.945,0.08-13.366,0.08-13.366s0.26-2.868,1.288-5.073l1.127-2.415c0.571-1.224,3.481-3.083,3.543-2.898
	c-0.012-0.05,1.421-0.888,7.086,0c3.53,0.554,4.025,2.576,4.025,2.576l0.161-4.992c0,0,0.482-2.093,2.736-2.093
	c2.255,0,2.979,0.645,3.061,2.254c0.08,1.611,0,10.226,0,10.226s0,2.093-3.061,2.093c-3.059,0-3.542-2.254-3.542-2.254
	c-1.687-2.18-3.335-3.451-7.165-2.898c-3.427,0.494-3.865,5.877-3.865,5.877s-1.449,8.374,0.402,13.366s6.924,3.783,6.924,3.783
	s6.12-0.321,6.2-5.232C181.248,125.6,181.167,123.667,181.087,123.505L181.087,123.505z"/>
<path id="path3655" sodipodi:nodetypes="ccsccssssssccsscsscccccsscsscccsccsssc" fill="#FFFFFF" d="M198.744,134.203l-0.228-11.386
	c0,0,7.857-1.709,9.905-1.709c2.051,0,1.937,0,1.937,0l0.797,18.219c0,0-2.847,0.456-4.44,1.025s-3.416,0.911-3.074,3.415
	c0.342,2.506,3.302,2.619,4.781,2.051c1.48-0.57,6.149-2.164,9.338-1.823c3.188,0.343,4.668-1.365,4.555-2.959
	c-0.114-1.595-1.139-3.075-2.848-2.961c-1.737,0.115-2.731,0.113-2.731,0.113l-0.684-37.917c0,0,6.034,0.341,6.034-2.96
	s-1.936-2.96-3.643-2.96c-1.708,0-10.135,0-10.135,0s-3.871,0.456-3.985,2.733c-0.113,2.277,1.367,3.188,3.985,3.529
	c2.619,0.342,1.708,0,1.708,0l0.911,14.575l-12.07,1.025l-0.113-12.752l3.188-0.114c0,0,2.847-0.57,2.961-2.847
	c0.113-2.277-2.051-3.074-3.416-3.074c-1.367,0-10.932,0-10.932,0s-3.984,0.228-4.099,3.074c-0.113,2.847,2.162,3.302,3.188,3.302
	c1.024,0,3.303,0.114,3.303,0.114l0.113,30.288l-3.871,0.114c0,0-2.732,0.455-2.618,2.505c0.113,2.05,2.618,2.847,2.618,2.847h4.669
	c0,0,5.987,0.729,7.514,0.684c2.374-0.072,3.259-0.964,3.304-2.961c0.045-2.052-2.733-2.847-3.531-2.847
	C200.338,134.545,198.744,134.203,198.744,134.203L198.744,134.203z"/>
</svg>
