<?xml version="1.0" encoding="utf-8"?>
<!-- Generator: Adobe Illustrator 16.0.0, SVG Export Plug-In . SVG Version: 6.00 Build 0)  -->
<!DOCTYPE svg PUBLIC "-//W3C//DTD SVG 1.1//EN" "http://www.w3.org/Graphics/SVG/1.1/DTD/svg11.dtd">
<svg version="1.1" id="图层_1" xmlns="http://www.w3.org/2000/svg" xmlns:xlink="http://www.w3.org/1999/xlink" x="0px" y="0px"
	 width="240px" height="240px" viewBox="0 0 240 240" enable-background="new 0 0 240 240" xml:space="preserve">
<path fill-rule="evenodd" clip-rule="evenodd" fill="#006EE5" d="M216,241c-63.333,0-126.667,0-190,0
	c-0.891-0.418-1.742-1.012-2.679-1.229c-12.699-2.937-19.778-11.26-19.8-24.41c-0.108-62.907-0.109-125.815,0-188.724
	C3.543,13.49,10.639,5.148,23.324,2.232C24.261,2.017,25.11,1.42,26,1c63.333,0,126.667,0,190,0c0.89,0.42,1.739,1.017,2.676,1.232
	c12.852,2.953,19.81,11.435,19.824,24.903c0.067,62.406,0.071,124.813-0.003,187.219c-0.017,14.142-6.521,22.051-20.306,25.521
	C217.416,240.071,216.729,240.617,216,241z M82.042,102.812c-4.071-6.096-7.177-1.148-10.535,1.471
	c0.371-1.519,0.614-2.511,0.857-3.504c-1.05-0.166-2.1-0.463-3.15-0.465c-1.426-0.004-2.86,0.158-4.275,0.359
	c-1.936,0.275-4.595,0.018-5.582,1.162c-1.042,1.209-1.285,4.358-0.398,5.625c0.894,1.277,3.591,1.696,5.521,1.756
	c3.371,0.104,6.944-1.146,10.099-0.407c5.812,1.362,7.97-0.047,7.382-6.135c0.542,2.206,1.085,4.413,1.627,6.62
	c0.455-0.025,0.909-0.051,1.363-0.076c0.518-1.837,1.036-3.674,1.718-6.095c1.986,6.408,1.986,6.408,5.502,5.29
	c-0.546-1.391-1.092-2.78-1.847-4.702c1.428,0.065,2.058,0.196,2.649,0.101c1.506-0.245,3.061-0.434,4.441-1.015
	c0.323-0.135,0.305-2.408-0.03-2.546c-1.373-0.564-3.073-0.392-4.384-1.036c-1.948-0.958-5.216,1.916-6.153-2.094
	c-0.026-0.114-2.547-0.14-2.86,0.4C83.059,99.122,82.652,101.026,82.042,102.812z M168.974,135.563
	c-1.956-4.933-3.386-9.921-5.832-14.346c-2.851-5.153-2.852-6.432,2.844-7.946c14.322-3.809,28.667-7.542,43.067-11.043
	c8.016-1.949,16.16-3.373,24.965-5.181c-1.44-2.405-2.469-4.425-3.771-6.248c-9.112-12.749-21.59-21.046-35.843-27
	c-15.951-6.663-32.694-10.303-49.676-12.965c-4.343-0.681-7.295-2.465-9.043-6.666c-3.643-8.752-7.775-17.304-11.304-26.099
	c-1.293-3.223-2.715-4.216-5.903-2.9c-3.231,1.333-6.636,2.269-9.808,3.722c-8.618,3.948-17.326,7.757-25.665,12.241
	c-6.289,3.383-6.367,6.158-1.428,11.143c3.871,3.906,7.722,7.838,11.729,11.603c23.538,22.116,16.994,55.801-7.979,79.32
	c0-5.891,0.215-11.153-0.121-16.38c-0.112-1.738-1.635-3.386-2.513-5.074c-0.984,1.591-2.165,3.099-2.878,4.803
	c-0.416,0.994-0.084,2.302-0.086,3.468c-0.013,5.999,0.818,12.172-0.364,17.931c-0.679,3.307-4.455,6.13-7.271,8.692
	c-0.454,0.414-3.182-1.671-5.671-3.051c6.894-2.998,9.506-7.798,10.501-13.688c1.491-8.821-3.65-16.8-11.93-18.561
	c-8.004-1.702-15.359,2.943-17.46,11.027c-2.572,9.895,1.413,18.708,9.92,20.954c4.624,1.222,7.205,4.182,9.057,7.209
	c-5.729,6.503-11.536,12.256-16.328,18.757c-5.427,7.36-5.156,15.634,0.863,22.548c3.966,4.555,8.851,8.735,14.115,11.661
	c21.982,12.215,46.355,14.94,70.891,16.466c1.785,0.11,4.611-1.567,5.432-3.186c9.673-19.091,18.079-38.65,19.747-60.371
	c0.552-7.19,0.982-14.391,1.54-22.647c1.27,3.13,1.995,5.335,3.036,7.38c1.323,2.598,4.019,3.634,5.373,0.919
	c3.352-6.72,5.903-13.838,9.092-21.56c-2.382,0.104-4.234-0.221-4.475,0.26C173.401,125.55,171.27,130.477,168.974,135.563z
	 M184.197,133.444c3.65,0,6.409,0.011,9.168-0.002c6.231-0.028,8.105-2.747,4.861-8.215c-1.424-2.399-4.427-4.519-7.145-5.343
	c-4.224-1.282-9.109,2.21-10.977,6.761c-2.153,5.248-0.767,12.138,3.054,15.172c3.273,2.601,10.064,3.096,13.153,0.602
	c1.081-0.874,1.401-2.69,2.513-4.997C192.826,138.479,187.361,142.287,184.197,133.444z M45.093,117.169
	c-1.086-2.41-1.339-4.408-2.44-5.154c-3.798-2.573-11.195-0.679-13.882,3.205c-2.765,3.997-1.5,9.224,3.115,12.55
	c1.748,1.26,3.893,2.092,5.336,3.612c1.306,1.376,1.903,3.424,2.813,5.175c-1.884,0.729-3.734,1.918-5.663,2.063
	c-2.017,0.151-4.109-0.7-7.252-1.33c0.718,2.229,0.754,4.275,1.792,5.212c3.359,3.031,12.065,1.52,14.959-2.286
	c3.087-4.06,1.867-9.412-3.032-12.89c-1.891-1.343-4.147-2.25-5.805-3.814c-1.162-1.097-2.59-3.53-2.12-4.37
	c0.776-1.385,2.904-2.441,4.622-2.754C39.39,116.05,41.426,116.728,45.093,117.169z M220.107,124.812
	c-1.472-2.138-2.365-4.655-3.387-4.709c-4.402-0.229-8.851,0.186-13.262,0.584c-0.638,0.058-1.655,1.295-1.671,2.006
	c-0.137,5.984-0.181,11.978,0.026,17.958c0.031,0.886,1.519,1.722,2.332,2.58c0.765-0.855,2.049-1.634,2.188-2.581
	c0.335-2.282,0.105-4.644,0.154-6.972c0.152-7.406,1.667-8.831,9.074-8.644C216.541,125.059,217.522,124.944,220.107,124.812z
	 M29.022,108.905c0.491,0.109,0.981,0.219,1.472,0.328c0.469-1.329,0.937-2.659,1.401-3.976c0.943,1.428,1.81,2.739,3.011,4.559
	c1.327-1.892,2.302-3.281,3.28-4.677c0.372,1.358,0.729,2.661,1.084,3.964c0.433-0.031,0.865-0.063,1.297-0.095
	c0-3.817,0-7.635,0-11.453c-0.427-0.184-0.854-0.368-1.281-0.552c-1.425,2.179-2.85,4.357-4.271,6.546
	c-1.513-2.218-3.027-4.436-4.54-6.653c-0.484,0.241-0.969,0.482-1.454,0.724C29.022,101.382,29.022,105.144,29.022,108.905z
	 M52.461,101.894c0.047-0.413,0.094-0.826,0.141-1.239c-1.622,0.104-3.617-0.351-4.788,0.431c-2.441,1.629-3.232,4.194-1.138,6.763
	c1.771,2.171,3.809,2.635,6.027,0.261c-1.53-1.21-2.806-2.219-4.082-3.229C49.902,103.885,51.182,102.889,52.461,101.894z"/>
<path fill-rule="evenodd" clip-rule="evenodd" fill="#FFFFFF" d="M168.974,135.563c2.296-5.087,4.428-10.014,6.825-14.808
	c0.24-0.48,2.093-0.155,4.475-0.26c-3.188,7.722-5.74,14.84-9.092,21.56c-1.354,2.715-4.05,1.679-5.373-0.919
	c-1.041-2.045-1.767-4.25-3.036-7.38c-0.558,8.257-0.988,15.457-1.54,22.647c-1.668,21.721-10.074,41.28-19.747,60.371
	c-0.82,1.618-3.646,3.296-5.432,3.186c-24.536-1.525-48.909-4.251-70.891-16.466c-5.264-2.926-10.149-7.106-14.115-11.661
	c-6.019-6.914-6.29-15.188-0.863-22.548c4.792-6.501,10.6-12.254,16.328-18.757c-1.852-3.027-4.434-5.987-9.057-7.209
	c-8.507-2.246-12.492-11.06-9.92-20.954c2.102-8.084,9.457-12.729,17.46-11.027c8.279,1.761,13.421,9.739,11.93,18.561
	c-0.996,5.89-3.608,10.689-10.501,13.688c2.489,1.38,5.217,3.465,5.671,3.051c2.816-2.563,6.591-5.386,7.271-8.692
	c1.183-5.759,0.351-11.932,0.364-17.931c0.002-1.166-0.33-2.474,0.086-3.468c0.713-1.704,1.894-3.212,2.878-4.803
	c0.878,1.688,2.401,3.336,2.513,5.074c0.335,5.227,0.121,10.489,0.121,16.38c24.973-23.52,31.516-57.204,7.979-79.32
	c-4.006-3.765-7.857-7.696-11.729-11.603c-4.939-4.984-4.861-7.76,1.428-11.143c8.338-4.484,17.046-8.293,25.665-12.241
	c3.172-1.453,6.577-2.389,9.808-3.722c3.188-1.315,4.61-0.322,5.903,2.9c3.528,8.795,7.661,17.347,11.304,26.099
	c1.748,4.201,4.7,5.985,9.043,6.666c16.981,2.662,33.725,6.302,49.676,12.965c14.253,5.954,26.73,14.251,35.843,27
	c1.303,1.823,2.331,3.843,3.771,6.248c-8.805,1.808-16.949,3.231-24.965,5.181c-14.4,3.501-28.745,7.234-43.067,11.043
	c-5.695,1.515-5.694,2.793-2.844,7.946C165.588,125.643,167.018,130.631,168.974,135.563z M229.419,95.277
	c0.349-0.486,0.696-0.973,1.044-1.459c-8.009-6.101-15.988-12.239-24.042-18.279c-2.816-2.113-3.862,0.087-5.29,2.182
	c-4.575,6.712-9.259,13.361-14.204,19.802c-1.432,1.865-3.885,2.946-5.869,4.387c0.449,0.423,0.899,0.846,1.35,1.269
	C198.077,100.544,213.748,97.911,229.419,95.277z M176.59,104.69c7.856-10.109,15.516-19.965,23.174-29.82
	c-0.401-0.549-0.804-1.098-1.205-1.647c-12.642,4.577-25.283,9.154-38.417,13.91C166.019,93.406,170.985,98.708,176.59,104.69z
	 M117.045,185.605c-0.059,0.657-0.118,1.314-0.177,1.972c8.921,2.436,17.827,4.932,26.786,7.221
	c0.986,0.252,3.074-0.424,3.304-1.115c2.69-8.12,5.122-16.326,8.016-25.796C141.31,174.271,129.178,179.938,117.045,185.605z
	 M53.042,172.765c0.326,0.558,0.651,1.115,0.977,1.673c9.62-2.792,19.24-5.585,28.583-8.296c-1.339-6.561-2.535-12.424-3.832-18.777
	C66.863,152.937,57.324,160.234,53.042,172.765z M97.899,209.814c0.201,0.413,0.401,0.827,0.602,1.24
	c14.622-4.31,29.243-8.62,44.814-13.21c-10.479-2.904-19.691-5.508-28.948-7.941c-0.863-0.228-2.431,0.308-2.955,1.018
	C106.814,197.15,102.381,203.5,97.899,209.814z M172.88,105.816c-6.188-4.77-11.193-8.746-16.376-12.477
	c-0.682-0.491-2.768-0.158-3.358,0.524c-7.24,8.365-14.322,16.866-21.251,25.102C144.649,114.873,157.844,110.641,172.88,105.816z
	 M103.944,185.789c-4.943-4.227-9.227-7.64-13.2-11.381c-2.252-2.12-3.864-2.099-5.747,0.225c-3.143,3.878-6.409,7.655-9.522,11.557
	c-2.746,3.441-5.352,6.993-8.02,10.496c0.321,0.495,0.642,0.99,0.963,1.485C80.178,194.072,91.938,189.974,103.944,185.789z
	 M167.184,59.964c-2.534,8.183-4.695,15.165-6.885,22.236c12.148-3.789,23.896-7.453,35.646-11.117
	c0.041-0.441,0.082-0.884,0.124-1.326C186.554,66.531,177.04,63.306,167.184,59.964z M71.559,127.722
	c0.038-7.504-3.181-11.454-9.354-11.481c-6.333-0.027-9.824,3.893-9.897,11.111c-0.075,7.393,3.229,11.411,9.409,11.443
	C68.104,138.828,71.522,134.981,71.559,127.722z M118.042,180.838c12.584-5.123,23.807-9.691,36.175-14.726
	c-9.3-3.834-17.041-7.025-25.072-10.336C125.604,163.771,122.139,171.592,118.042,180.838z M64.295,197.144
	c6.855-9.717,12.51-17.732,18.166-25.748c-9.36,1.035-18.043,2.958-26.672,5.099c-3.067,0.76-3.31,3.435-1.983,5.562
	C56.802,186.863,60.249,191.391,64.295,197.144z M93.154,167.767c-0.358,0.505-0.716,1.009-1.075,1.514
	c5.38,4.215,10.709,8.5,16.213,12.547c0.621,0.457,2.896-0.062,3.278-0.752c4.133-7.463,8.042-15.052,12.011-22.605
	c-0.348-0.256-0.695-0.512-1.043-0.768C112.744,161.058,102.949,164.412,93.154,167.767z M103.213,212.703
	c11.692,1.823,22.078,3.486,32.485,4.993c0.972,0.141,2.726-0.427,3.033-1.135c2.371-5.465,4.477-11.045,6.798-16.929
	C131.162,204.071,117.938,208.155,103.213,212.703z M71.12,199.456c-0.125,0.585-0.251,1.169-0.376,1.753
	c6.971,2.772,13.917,5.611,20.946,8.227c0.791,0.295,2.517-0.354,3.016-1.098c3.749-5.595,7.298-11.323,10.91-17.01
	c-0.291-0.389-0.581-0.777-0.871-1.166C93.537,193.261,82.329,196.358,71.12,199.456z M157.355,138.382
	c-9.146,5.329-16.871,9.831-26.017,15.16c8.595,3.866,15.84,7.125,24.306,10.934C156.268,154.97,156.772,147.276,157.355,138.382z
	 M95.213,162.289c10.288-3.632,19.171-6.769,27.966-9.874c-3.175-8.682-10.077-8.464-16.534-8.996
	c-0.758-0.063-1.968,0.608-2.332,1.283C101.442,150.033,98.725,155.447,95.213,162.289z M125.835,33.206
	c-1.575-6.063-2.944-11.334-4.517-17.39c-9.032,4.117-17.138,7.813-25.243,11.509c0.144,0.34,0.288,0.68,0.432,1.021
	C106.051,29.927,115.595,31.509,125.835,33.206z M153.999,83.519c3.725-7.627,8.507-14.192,9.236-24.069
	c-9.065,5.637-16.855,10.479-25.616,15.926C143.679,78.388,148.508,80.789,153.999,83.519z M159.54,58.388
	c-9.813-1.799-18.633-3.416-27.732-5.084c1.156,6.848,2.156,12.773,3.157,18.696C143.013,67.542,150.758,63.253,159.54,58.388z
	 M110.641,67.357c7.453,2.101,13.257,3.737,20.679,5.829c-0.823-7.317-1.507-13.396-2.191-19.475
	c-0.629-0.103-1.259-0.205-1.889-0.307C122.104,57.722,116.969,62.039,110.641,67.357z M126.772,120.852
	c7.029-9.034,13.343-17.147,19.656-25.261c-0.338-0.371-0.676-0.742-1.014-1.113c-4.459,2.38-8.935,4.729-13.373,7.147
	c-8.987,4.897-8.979,4.913-6.492,14.529C125.837,117.264,126.127,118.371,126.772,120.852z M126.089,36.968
	c-11.058-2.075-21.359-4.009-32.647-6.128c5,4.644,9.209,8.86,13.798,12.61c1.254,1.025,3.995,1.427,5.46,0.776
	C117.15,42.253,121.31,39.624,126.089,36.968z M88.801,162.329c5.065-9.006,9.57-17.015,14.075-25.022
	c-0.525-0.424-1.05-0.848-1.575-1.271c-1.343,0.99-3.896,2.072-3.83,2.957c0.403,5.382-3.285,4.108-6.264,4.531
	c-1.919,0.272-5.054,0.984-5.355,2.112C84.425,150.961,84.949,156.277,88.801,162.329z M124.482,52.317
	c-7.657-1.504-14.468-2.842-22.437-4.406c2.289,6.218,4.125,11.204,6.049,16.435C113.623,60.288,118.618,56.622,124.482,52.317z
	 M110.218,73.046c0.386,7.177,0.705,13.1,1.06,19.713c5.411-5.063,10.236-9.579,15.913-14.892
	C121.031,76.117,116.183,74.74,110.218,73.046z M148.385,87.798c-5.58-2.604-9.843-4.595-14.28-6.666
	c-2.438,6.514-4.563,12.195-6.814,18.212C134.125,95.604,140.626,92.045,148.385,87.798z M120.656,104.215
	c3.14-7.4,5.966-14.064,8.792-20.729c-0.526-0.29-1.053-0.58-1.579-0.87c-5.406,4.715-10.812,9.43-16.437,14.336
	C114.581,99.431,117.021,101.353,120.656,104.215z M144.261,128.858c-0.127,4.552-2.934,4.788-6.156,4.61
	c-4.33-0.238-4.801,2.273-4.042,6.167c2.751-0.685,5.202-1.294,7.884-1.96c1.155,5.048-2.394,5.339-5.343,6.098
	c-4.466,1.149-4.473,1.12-4.393,4.345C145.121,144.537,148.094,140.1,144.261,128.858z M82.717,39.649
	c6.461,1.464,11.768,2.665,17.441,3.95c-0.23-1.211-0.189-1.6-0.363-1.816c-1.858-2.322-3.722-4.641-5.639-6.914
	c-3.645-4.321-4.471-4.33-8.272,0.048C84.953,35.989,84.281,37.287,82.717,39.649z M110.115,121.565
	c3.751,4.357,6.281,4.93,11.056,1.439c1.381-1.009,1.413-3.864,2.098-5.976C117.374,116.481,112.576,115.548,110.115,121.565z
	 M128.146,38.262c-3.872,3.029-6.863,5.37-10.595,8.29c5.749,0.816,10.389,1.477,16.237,2.308
	C131.609,44.767,130.026,41.795,128.146,38.262z M127.059,148.914c0.249-2.84,0.886-4.563,0.434-5.925
	c-1.646-4.964-3.657-9.806-5.835-15.488c-0.15,1.431-0.427,2.616-0.365,3.782c0.111,2.075,1.35,4.697,0.495,6.108
	C118.258,143.224,122.764,145.137,127.059,148.914z M88.957,44.93c4.613,5.021,9.392,10.225,14.158,15.425
	C101.936,51.896,99.73,44.364,88.957,44.93z M101.964,117.6c4.672-3.677,8.518-6.704,13.009-10.238
	c-2.389-1.559-4.169-2.721-6.195-4.042C106.435,108.23,104.39,112.517,101.964,117.6z M156.028,118.451
	c-0.314-0.661-0.628-1.322-0.941-1.983c-4.916,1.574-9.832,3.148-15.64,5.009c2.349,1.813,3.716,2.869,6.173,4.766
	c-0.544-5.601,1.663-6.391,5.658-5.471C152.613,121.078,154.431,119.285,156.028,118.451z M103.855,121.18
	c-0.63-0.575-1.261-1.151-1.892-1.727c-4.217,4.147-8.434,8.295-12.651,12.441c0.49,0.49,0.98,0.98,1.471,1.471
	C95.379,129.548,101.385,127.18,103.855,121.18z M156.458,125.177c-0.56-0.267-1.12-0.533-1.681-0.801
	c-1.062,1.398-3.281,3.275-2.942,4.094c0.701,1.693,2.763,2.824,4.265,4.187c0.334-0.281,0.669-0.562,1.003-0.842
	C156.888,129.602,156.673,127.39,156.458,125.177z M107.813,128.456c-0.238-0.657-0.475-1.314-0.713-1.972
	c-5.03-0.81-6.889,4.63-10.353,6.919C100.437,131.754,104.125,130.105,107.813,128.456z"/>
<path fill-rule="evenodd" clip-rule="evenodd" fill="#FFFFFF" d="M184.197,133.444c3.164,8.843,8.629,5.035,14.628,3.978
	c-1.111,2.307-1.432,4.123-2.513,4.997c-3.089,2.494-9.88,1.999-13.153-0.602c-3.82-3.034-5.207-9.924-3.054-15.172
	c1.867-4.551,6.753-8.043,10.977-6.761c2.718,0.824,5.721,2.943,7.145,5.343c3.244,5.468,1.37,8.187-4.861,8.215
	C190.606,133.455,187.848,133.444,184.197,133.444z M184.931,127.036c0.199,0.439,0.397,0.879,0.597,1.318c2.674,0,5.349,0,8.023,0
	c0.226-0.441,0.452-0.882,0.679-1.323c-1.44-0.854-2.91-2.433-4.314-2.376C188.225,124.723,186.59,126.18,184.931,127.036z"/>
<path fill-rule="evenodd" clip-rule="evenodd" fill="#FFFFFF" d="M45.093,117.169c-3.667-0.441-5.703-1.119-7.555-0.782
	c-1.718,0.313-3.846,1.369-4.622,2.754c-0.47,0.84,0.958,3.273,2.12,4.37c1.657,1.564,3.914,2.472,5.805,3.814
	c4.899,3.478,6.12,8.83,3.032,12.89c-2.894,3.806-11.601,5.317-14.959,2.286c-1.038-0.937-1.074-2.982-1.792-5.212
	c3.143,0.63,5.235,1.481,7.252,1.33c1.928-0.145,3.778-1.333,5.663-2.063c-0.91-1.751-1.507-3.799-2.813-5.175
	c-1.444-1.521-3.589-2.353-5.336-3.612c-4.615-3.326-5.88-8.553-3.115-12.55c2.687-3.884,10.083-5.778,13.882-3.205
	C43.754,112.761,44.006,114.759,45.093,117.169z"/>
<path fill-rule="evenodd" clip-rule="evenodd" fill="#FFFFFF" d="M81.96,102.662c0.588,6.1-1.57,7.509-7.382,6.146
	c-3.155-0.739-6.729,0.512-10.099,0.407c-1.93-0.06-4.627-0.479-5.521-1.756c-0.887-1.267-0.643-4.416,0.398-5.625
	c0.987-1.145,3.646-0.887,5.582-1.162c1.415-0.201,2.85-0.363,4.275-0.359c1.05,0.002,2.101,0.299,3.15,0.465
	c-0.243,0.993-0.486,1.985-0.857,3.504c3.358-2.619,6.464-7.566,10.535-1.471L81.96,102.662z"/>
<path fill-rule="evenodd" clip-rule="evenodd" fill="#FFFFFF" d="M220.107,124.812c-2.585,0.133-3.566,0.247-4.544,0.223
	c-7.407-0.188-8.922,1.237-9.074,8.644c-0.049,2.328,0.181,4.689-0.154,6.972c-0.14,0.947-1.424,1.726-2.188,2.581
	c-0.813-0.858-2.301-1.694-2.332-2.58c-0.207-5.98-0.163-11.974-0.026-17.958c0.016-0.711,1.033-1.948,1.671-2.006
	c4.411-0.398,8.859-0.813,13.262-0.584C217.742,120.156,218.636,122.674,220.107,124.812z"/>
<path fill-rule="evenodd" clip-rule="evenodd" fill="#FFFFFF" d="M82.042,102.812c0.611-1.785,1.017-3.689,1.946-5.29
	c0.313-0.54,2.833-0.515,2.86-0.4c0.937,4.01,4.206,1.136,6.153,2.094c1.311,0.645,3.011,0.472,4.384,1.036
	c0.335,0.138,0.353,2.411,0.03,2.546c-1.38,0.581-2.935,0.77-4.441,1.015c-0.592,0.096-1.221-0.035-2.649-0.101
	c0.755,1.922,1.301,3.312,1.845,4.703c-3.514,1.117-3.514,1.117-5.5-5.291c-0.683,2.421-1.2,4.258-1.718,6.095
	c-0.455,0.025-0.909,0.051-1.363,0.076c-0.542-2.207-1.085-4.414-1.627-6.626C81.96,102.662,82.042,102.812,82.042,102.812z"/>
<path fill-rule="evenodd" clip-rule="evenodd" fill="#FFFFFF" d="M29.022,108.905c0-3.762,0-7.523,0-11.285
	c0.484-0.241,0.969-0.482,1.454-0.724c1.513,2.218,3.027,4.436,4.539,6.648c1.423-2.184,2.848-4.362,4.273-6.541
	c0.427,0.184,0.854,0.368,1.281,0.552c0,3.818,0,7.636,0,11.453c-0.433,0.032-0.865,0.063-1.297,0.095
	c-0.356-1.303-0.712-2.605-1.084-3.964c-0.978,1.396-1.953,2.785-3.28,4.677c-1.202-1.819-2.068-3.131-3.011-4.559
	c-0.464,1.316-0.933,2.646-1.401,3.976C30.003,109.124,29.513,109.015,29.022,108.905z"/>
<path fill-rule="evenodd" clip-rule="evenodd" fill="#FFFFFF" d="M52.461,101.894c-1.28,0.995-2.559,1.991-3.839,2.986
	c1.276,1.01,2.552,2.019,4.082,3.229c-2.219,2.374-4.256,1.91-6.027-0.261c-2.094-2.568-1.303-5.134,1.138-6.763
	c1.17-0.781,3.166-0.326,4.788-0.431C52.556,101.067,52.508,101.48,52.461,101.894z"/>
<path fill-rule="evenodd" clip-rule="evenodd" fill="#006EE5" d="M229.419,95.277c-15.671,2.634-31.342,5.267-47.012,7.9
	c-0.45-0.423-0.9-0.846-1.35-1.269c1.984-1.44,4.438-2.521,5.869-4.387c4.945-6.44,9.629-13.09,14.204-19.802
	c1.428-2.095,2.474-4.295,5.29-2.182c8.054,6.04,16.033,12.179,24.042,18.279C230.115,94.305,229.768,94.791,229.419,95.277z"/>
<path fill-rule="evenodd" clip-rule="evenodd" fill="#006EE5" d="M176.59,104.69c-5.604-5.982-10.571-11.284-16.448-17.558
	c13.134-4.756,25.775-9.333,38.417-13.91c0.401,0.55,0.804,1.099,1.205,1.647C192.105,84.726,184.446,94.581,176.59,104.69z"/>
<path fill-rule="evenodd" clip-rule="evenodd" fill="#006EE5" d="M117.045,185.605c12.132-5.668,24.264-11.335,37.928-17.719
	c-2.894,9.47-5.325,17.676-8.016,25.796c-0.229,0.691-2.317,1.367-3.304,1.115c-8.959-2.289-17.865-4.785-26.786-7.221
	C116.927,186.92,116.986,186.263,117.045,185.605z"/>
<path fill-rule="evenodd" clip-rule="evenodd" fill="#006EE5" d="M53.042,172.765c4.283-12.53,13.822-19.828,25.728-25.4
	c1.296,6.354,2.493,12.217,3.832,18.777c-9.343,2.711-18.962,5.504-28.583,8.296C53.692,173.88,53.367,173.322,53.042,172.765z"/>
<path fill-rule="evenodd" clip-rule="evenodd" fill="#006EE5" d="M97.899,209.814c4.482-6.314,8.916-12.664,13.512-18.894
	c0.524-0.71,2.092-1.245,2.955-1.018c9.257,2.434,18.47,5.037,28.948,7.941c-15.571,4.59-30.192,8.9-44.814,13.21
	C98.3,210.642,98.1,210.228,97.899,209.814z"/>
<path fill-rule="evenodd" clip-rule="evenodd" fill="#006EE5" d="M172.88,105.816c-15.036,4.824-28.23,9.057-40.985,13.149
	c6.929-8.235,14.011-16.736,21.251-25.102c0.591-0.683,2.677-1.016,3.358-0.524C161.687,97.07,166.692,101.047,172.88,105.816z"/>
<path fill-rule="evenodd" clip-rule="evenodd" fill="#006EE5" d="M103.944,185.789c-12.006,4.185-23.766,8.283-35.526,12.382
	c-0.321-0.495-0.642-0.99-0.963-1.485c2.668-3.503,5.274-7.055,8.02-10.496c3.113-3.901,6.379-7.679,9.522-11.557
	c1.882-2.323,3.494-2.345,5.747-0.225C94.718,178.149,99.001,181.563,103.944,185.789z"/>
<path fill-rule="evenodd" clip-rule="evenodd" fill="#006EE5" d="M167.184,59.964c9.856,3.342,19.37,6.567,28.885,9.793
	c-0.042,0.442-0.083,0.885-0.124,1.326c-11.749,3.664-23.497,7.328-35.646,11.117C162.488,75.129,164.649,68.146,167.184,59.964z"/>
<path fill-rule="evenodd" clip-rule="evenodd" fill="#006EE5" d="M71.559,127.722c-0.037,7.26-3.456,11.106-9.842,11.073
	c-6.18-0.032-9.484-4.051-9.409-11.443c0.073-7.219,3.565-11.139,9.897-11.111C68.378,116.268,71.597,120.218,71.559,127.722z"/>
<path fill-rule="evenodd" clip-rule="evenodd" fill="#006EE5" d="M118.042,180.838c4.096-9.246,7.561-17.067,11.103-25.062
	c8.031,3.311,15.772,6.502,25.072,10.336C141.85,171.146,130.627,175.715,118.042,180.838z"/>
<path fill-rule="evenodd" clip-rule="evenodd" fill="#006EE5" d="M64.295,197.144c-4.046-5.753-7.493-10.28-10.49-15.088
	c-1.326-2.127-1.084-4.802,1.983-5.562c8.629-2.141,17.312-4.063,26.672-5.099C76.805,179.411,71.15,187.427,64.295,197.144z"/>
<path fill-rule="evenodd" clip-rule="evenodd" fill="#006EE5" d="M93.154,167.767c9.795-3.354,19.59-6.709,29.385-10.064
	c0.348,0.256,0.695,0.512,1.043,0.768c-3.97,7.554-7.878,15.143-12.011,22.605c-0.382,0.69-2.658,1.209-3.278,0.752
	c-5.504-4.047-10.833-8.332-16.213-12.547C92.438,168.775,92.795,168.271,93.154,167.767z"/>
<path fill-rule="evenodd" clip-rule="evenodd" fill="#006EE5" d="M103.213,212.703c14.725-4.548,27.949-8.632,42.316-13.07
	c-2.321,5.884-4.427,11.464-6.798,16.929c-0.308,0.708-2.062,1.275-3.033,1.135C125.291,216.189,114.905,214.526,103.213,212.703z"
	/>
<path fill-rule="evenodd" clip-rule="evenodd" fill="#006EE5" d="M71.12,199.456c11.208-3.098,22.417-6.195,33.625-9.294
	c0.29,0.389,0.58,0.777,0.871,1.166c-3.612,5.687-7.162,11.415-10.91,17.01c-0.499,0.743-2.225,1.393-3.016,1.098
	c-7.029-2.615-13.976-5.454-20.946-8.227C70.869,200.625,70.995,200.041,71.12,199.456z"/>
<path fill-rule="evenodd" clip-rule="evenodd" fill="#006EE5" d="M157.355,138.382c-0.583,8.895-1.088,16.588-1.711,26.094
	c-8.466-3.809-15.711-7.067-24.306-10.934C140.484,148.213,148.21,143.711,157.355,138.382z"/>
<path fill-rule="evenodd" clip-rule="evenodd" fill="#006EE5" d="M95.213,162.289c3.511-6.842,6.229-12.256,9.101-17.587
	c0.363-0.675,1.574-1.346,2.332-1.283c6.457,0.532,13.359,0.314,16.534,8.996C114.384,155.521,105.501,158.657,95.213,162.289z"/>
<path fill-rule="evenodd" clip-rule="evenodd" fill="#006EE5" d="M125.835,33.206c-10.24-1.697-19.784-3.279-29.328-4.86
	c-0.144-0.341-0.288-0.681-0.432-1.021c8.105-3.696,16.211-7.392,25.243-11.509C122.891,21.872,124.26,27.144,125.835,33.206z"/>
<path fill-rule="evenodd" clip-rule="evenodd" fill="#006EE5" d="M153.999,83.519c-5.491-2.729-10.32-5.131-16.38-8.144
	c8.761-5.446,16.551-10.289,25.616-15.926C162.506,69.326,157.724,75.892,153.999,83.519z"/>
<path fill-rule="evenodd" clip-rule="evenodd" fill="#006EE5" d="M159.54,58.388c-8.782,4.865-16.527,9.154-24.575,13.612
	c-1.001-5.923-2.001-11.849-3.157-18.696C140.907,54.972,149.728,56.589,159.54,58.388z"/>
<path fill-rule="evenodd" clip-rule="evenodd" fill="#006EE5" d="M110.641,67.357c6.328-5.318,11.463-9.636,16.599-13.952
	c0.63,0.102,1.26,0.204,1.889,0.307c0.685,6.078,1.368,12.157,2.191,19.475C123.898,71.095,118.094,69.458,110.641,67.357z"/>
<path fill-rule="evenodd" clip-rule="evenodd" fill="#006EE5" d="M126.772,120.852c-0.646-2.48-0.936-3.588-1.223-4.697
	c-2.487-9.616-2.495-9.632,6.492-14.529c4.438-2.419,8.914-4.768,13.373-7.147c0.338,0.371,0.676,0.742,1.014,1.113
	C140.115,103.704,133.802,111.817,126.772,120.852z"/>
<path fill-rule="evenodd" clip-rule="evenodd" fill="#006EE5" d="M126.089,36.968c-4.779,2.656-8.939,5.285-13.389,7.259
	c-1.465,0.65-4.206,0.249-5.46-0.776c-4.589-3.75-8.798-7.967-13.798-12.61C104.729,32.959,115.031,34.893,126.089,36.968z"/>
<path fill-rule="evenodd" clip-rule="evenodd" fill="#006EE5" d="M88.801,162.329c-3.852-6.052-4.375-11.368-2.95-16.693
	c0.302-1.128,3.437-1.84,5.355-2.112c2.979-0.423,6.667,0.851,6.264-4.531c-0.066-0.885,2.487-1.967,3.83-2.957
	c0.525,0.424,1.05,0.848,1.575,1.271C98.371,145.314,93.866,153.323,88.801,162.329z"/>
<path fill-rule="evenodd" clip-rule="evenodd" fill="#006EE5" d="M124.482,52.317c-5.865,4.305-10.86,7.971-16.387,12.028
	c-1.925-5.23-3.761-10.217-6.049-16.435C110.014,49.476,116.825,50.813,124.482,52.317z"/>
<path fill-rule="evenodd" clip-rule="evenodd" fill="#006EE5" d="M110.218,73.046c5.964,1.694,10.813,3.071,16.973,4.821
	c-5.677,5.313-10.502,9.829-15.913,14.892C110.923,86.146,110.604,80.223,110.218,73.046z"/>
<path fill-rule="evenodd" clip-rule="evenodd" fill="#006EE5" d="M148.385,87.798c-7.759,4.247-14.26,7.806-21.095,11.546
	c2.251-6.017,4.377-11.698,6.814-18.212C138.542,83.203,142.805,85.193,148.385,87.798z"/>
<path fill-rule="evenodd" clip-rule="evenodd" fill="#006EE5" d="M120.656,104.215c-3.635-2.862-6.076-4.784-9.224-7.263
	c5.625-4.906,11.03-9.621,16.437-14.336c0.526,0.29,1.053,0.58,1.579,0.87C126.622,90.15,123.796,96.814,120.656,104.215z"/>
<path fill-rule="evenodd" clip-rule="evenodd" fill="#006EE5" d="M144.261,128.858c3.833,11.241,0.86,15.679-12.05,19.26
	c-0.08-3.225-0.073-3.195,4.393-4.345c2.949-0.759,6.498-1.05,5.343-6.098c-2.682,0.666-5.133,1.275-7.884,1.96
	c-0.759-3.894-0.288-6.405,4.042-6.167C141.327,133.646,144.134,133.41,144.261,128.858z"/>
<path fill-rule="evenodd" clip-rule="evenodd" fill="#006EE5" d="M82.717,39.649c1.564-2.362,2.236-3.66,3.167-4.732
	c3.801-4.378,4.627-4.369,8.272-0.048c1.917,2.273,3.781,4.592,5.639,6.914c0.174,0.217,0.133,0.605,0.363,1.816
	C94.484,42.314,89.178,41.113,82.717,39.649z"/>
<path fill-rule="evenodd" clip-rule="evenodd" fill="#006EE5" d="M110.115,121.565c2.461-6.018,7.259-5.084,13.153-4.536
	c-0.685,2.111-0.717,4.967-2.098,5.976C116.396,126.495,113.866,125.923,110.115,121.565z"/>
<path fill-rule="evenodd" clip-rule="evenodd" fill="#006EE5" d="M128.146,38.262c1.881,3.533,3.464,6.505,5.643,10.598
	c-5.849-0.831-10.488-1.491-16.237-2.308C121.282,43.632,124.273,41.291,128.146,38.262z"/>
<path fill-rule="evenodd" clip-rule="evenodd" fill="#006EE5" d="M127.059,148.914c-4.295-3.777-8.8-5.69-5.271-11.522
	c0.854-1.411-0.384-4.033-0.495-6.108c-0.062-1.166,0.215-2.352,0.365-3.782c2.178,5.683,4.188,10.524,5.835,15.488
	C127.944,144.351,127.308,146.074,127.059,148.914z"/>
<path fill-rule="evenodd" clip-rule="evenodd" fill="#006EE5" d="M88.957,44.93c10.774-0.565,12.979,6.966,14.164,15.426
	C98.348,55.154,93.569,49.951,88.957,44.93z"/>
<path fill-rule="evenodd" clip-rule="evenodd" fill="#006EE5" d="M101.964,117.6c2.426-5.083,4.471-9.369,6.814-14.28
	c2.025,1.321,3.806,2.483,6.195,4.042C110.481,110.896,106.636,113.923,101.964,117.6z"/>
<path fill-rule="evenodd" clip-rule="evenodd" fill="#006EE5" d="M156.028,118.451c-1.598,0.834-3.415,2.627-4.75,2.32
	c-3.995-0.92-6.202-0.13-5.658,5.471c-2.457-1.896-3.824-2.952-6.173-4.766c5.808-1.86,10.724-3.435,15.64-5.009
	C155.4,117.129,155.714,117.79,156.028,118.451z"/>
<path fill-rule="evenodd" clip-rule="evenodd" fill="#006EE5" d="M103.855,121.18c-2.47,6-8.476,8.368-13.072,12.186
	c-0.49-0.49-0.98-0.98-1.471-1.471c4.217-4.146,8.434-8.294,12.651-12.441C102.594,120.028,103.225,120.604,103.855,121.18z"/>
<path fill-rule="evenodd" clip-rule="evenodd" fill="#006EE5" d="M156.458,125.177c0.215,2.213,0.43,4.425,0.645,6.638
	c-0.334,0.28-0.669,0.561-1.003,0.842c-1.502-1.362-3.563-2.493-4.265-4.187c-0.339-0.818,1.881-2.695,2.942-4.094
	C155.338,124.644,155.898,124.91,156.458,125.177z"/>
<path fill-rule="evenodd" clip-rule="evenodd" fill="#006EE5" d="M107.813,128.456c-3.688,1.649-7.377,3.298-11.065,4.947
	c3.463-2.289,5.322-7.729,10.353-6.919C107.338,127.142,107.576,127.799,107.813,128.456z"/>
<path fill-rule="evenodd" clip-rule="evenodd" fill="#006EE5" d="M184.931,127.036c1.659-0.856,3.294-2.313,4.984-2.381
	c1.404-0.057,2.874,1.521,4.314,2.376c-0.227,0.441-0.453,0.882-0.679,1.323c-2.675,0-5.35,0-8.023,0
	C185.328,127.915,185.13,127.476,184.931,127.036z"/>
</svg>
