<?xml version="1.0" encoding="utf-8"?>
<!-- Generator: Adobe Illustrator 16.0.0, SVG Export Plug-In . SVG Version: 6.00 Build 0)  -->
<!DOCTYPE svg PUBLIC "-//W3C//DTD SVG 1.1//EN" "http://www.w3.org/Graphics/SVG/1.1/DTD/svg11.dtd">
<svg version="1.1" id="图层_1" xmlns="http://www.w3.org/2000/svg" xmlns:xlink="http://www.w3.org/1999/xlink" x="0px" y="0px"
	 width="240px" height="240px" viewBox="0 0 240 240" enable-background="new 0 0 240 240" xml:space="preserve">
<path fill-rule="evenodd" clip-rule="evenodd" fill="#FFFFFF" stroke="#1389FD" stroke-width="4" stroke-miterlimit="10" d="
	M238,216c0,13.255-10.745,24-24,24H26c-13.255,0-24-10.745-24-24V24C2,10.745,12.745,0,26,0h188c13.255,0,24,10.745,24,24V216z"/>
<path fill-rule="evenodd" clip-rule="evenodd" fill="#FFFFFF" d="M138.193,154.204c0,10.383,0,19.941,0,29.746
	c4.71,0,9.036,0.244,13.323-0.062c5.466-0.389,8.736-5.093,7.116-10.228c-0.608-1.93-2.229-3.54-3.389-5.296
	c0.487-0.007,0.975-0.014,1.462-0.021c0.025-3.362,0.87-6.994-0.126-10.02c-1.32-4.014-5.46-4.258-9.285-4.14
	C144.339,154.277,141.377,154.204,138.193,154.204z"/>
<path fill-rule="evenodd" clip-rule="evenodd" fill="#FFFFFF" d="M26.544,177.731c0.233,0.717,0.335,2.314,1.157,3.331
	c2.786,3.446,8.628,4.619,13.293,2.994c3.438-1.197,5.584-3.323,5.864-7.181c0.271-3.734-1.601-6.014-4.714-7.403
	c-2.873-1.283-6.093-1.916-8.737-3.529c-1.54-0.939-3.432-3.614-3.046-4.843c0.551-1.755,3.047-4.043,4.707-4.038
	c2.49,0.007,4.964,1.831,7.469,2.824c0.686,0.271,1.455,0.334,2.186,0.492c0.126-0.709,0.61-1.654,0.323-2.091
	c-2.429-3.687-6.054-5.133-10.295-4.552c-3.825,0.523-6.982,2.184-7.656,6.585c-0.695,4.542,1.354,7.281,5.534,8.73
	c2.507,0.869,5.271,1.405,7.389,2.862c1.645,1.131,3.777,3.905,3.352,5.143c-0.63,1.828-3.422,4.211-5.142,4.096
	C34.645,180.913,31.164,179.19,26.544,177.731z"/>
<path fill-rule="evenodd" clip-rule="evenodd" fill="#FFFFFF" d="M85.053,182.424c0-3.162-0.018-7.283,0.005-11.405
	c0.021-3.75-1.579-6.661-5.208-7.559c-4.11-1.016-8.419-1.422-11.186,3.343c2.751-0.011,5.39-1.063,8.01-1.021
	c3.232,0.052,5.402,1.923,5.257,5.801c-2.527-0.144-5.014-0.915-7.016-0.243c-2.724,0.915-5.758,2.452-7.326,4.666
	c-0.885,1.251,0.223,5.648,1.632,6.411c2.566,1.388,6.018,1.351,9.116,1.463C80.128,183.943,81.949,183.137,85.053,182.424z"/>
<path fill-rule="evenodd" clip-rule="evenodd" fill="#FFFFFF" d="M118.425,174.079c4.259,3.844,7.961,7.185,11.665,10.526
	c0.39-0.433,0.779-0.865,1.169-1.298c-2.981-3.362-5.962-6.726-9.764-11.014c3.609-2.907,6.817-5.493,10.026-8.078
	c-0.515-0.598-1.029-1.194-1.545-1.792c-3.698,3.161-7.396,6.322-12.424,10.619c0-7.267,0-12.979,0-18.692
	c-3.145,4.017-2.869,26.672-0.075,29.876C117.806,180.708,118.081,177.762,118.425,174.079z"/>
<path fill-rule="evenodd" clip-rule="evenodd" fill="#FFFFFF" d="M88.876,172.246c0.394,0.296,0.788,0.592,1.182,0.889
	c-0.343,4.867,1.719,8.399,6.044,10.502c4.116,2.002,8.128,1.479,11.702-1.277c0.816-0.63,1.001-2.078,1.476-3.149
	c-1.049,0.243-2.104,0.462-3.145,0.734c-2.172,0.568-4.885,2.26-6.385,1.51c-2.673-1.337-5.84-3.834-6.491-6.427
	c-0.585-2.328,1.305-6.037,3.237-8.048c2.477-2.579,6.025-2.081,9.202-0.14c1.016,0.62,2.378,0.676,3.582,0.99
	c-0.792-1.238-1.311-2.881-2.428-3.64c-3.596-2.44-7.821-2.854-11.214-0.25C92.882,166.055,91.094,169.43,88.876,172.246z"/>
<path fill-rule="evenodd" clip-rule="evenodd" fill="#FFFFFF" d="M215.681,163.904c-6.038,0-10.681,0-15.323,0
	c-0.001,0.479-0.003,0.956-0.004,1.434c3.113,0.261,6.228,0.521,10.243,0.858c-4.165,6.001-7.916,11.408-11.903,17.154
	c6.39,0,11.626,0,16.861,0c0.017-0.514,0.033-1.027,0.051-1.541c-3.66-0.313-7.319-0.626-11.623-0.994
	C208.075,174.899,211.684,169.683,215.681,163.904z"/>
<path fill-rule="evenodd" clip-rule="evenodd" fill="#FFFFFF" d="M182.761,164.902c4.701,0.622,3.581,4.572,3.647,8.015
	c0.049,2.482-0.135,5.051,0.438,7.424c1.018,4.216,5.248,5.242,8.264,2.253c-5.999-2.247-7.179-6.253-4.801-16.349
	c1.686-0.396,3.372-0.791,5.058-1.187c-0.059-0.446-0.116-0.893-0.175-1.339c-1.664-0.38-3.328-0.76-5.196-1.187
	c-0.283-1.719-0.563-3.409-1.008-6.099C186.587,159.7,184.755,162.191,182.761,164.902z"/>
<path fill-rule="evenodd" clip-rule="evenodd" fill="#FFFFFF" d="M51.604,163.662c1.031,3.159,2.146,5.568,2.549,8.092
	c0.414,2.589-0.126,5.322,0.21,7.934c0.541,4.192,4.354,5.65,7.787,3.614c-1.635-1.814-4.116-3.435-4.801-5.618
	c-0.854-2.718-0.895-6.122-0.01-8.811c0.637-1.938,3.358-3.189,4.537-4.214c-2.063-2.075-4.264-4.291-6.406-6.446
	C54.301,159.861,52.647,162.192,51.604,163.662z"/>
<path fill-rule="evenodd" clip-rule="evenodd" fill="#FFFFFF" d="M167.566,168.689c0-4.324,0.086-8.651-0.074-12.97
	c-0.031-0.844-1.02-1.652-1.567-2.477c-0.512,0.863-1.457,1.72-1.468,2.59c-0.111,8.48-0.111,16.964,0.007,25.445
	c0.012,0.831,1.027,1.649,1.577,2.474c0.51-0.863,1.425-1.71,1.458-2.591C167.655,177.009,167.568,172.848,167.566,168.689z"/>
<path fill-rule="evenodd" clip-rule="evenodd" fill="#FFFFFF" d="M177.246,173.504c0-2.666,0.101-5.34-0.063-7.996
	c-0.048-0.764-0.86-1.479-1.322-2.218c-0.524,0.675-1.486,1.341-1.502,2.027c-0.122,5.497-0.121,11,0.008,16.496
	c0.016,0.675,1.011,1.326,1.552,1.989c0.443-0.767,1.222-1.513,1.27-2.303C177.348,178.844,177.248,176.171,177.246,173.504z"/>
<path fill-rule="evenodd" clip-rule="evenodd" d="M138.193,154.204c3.184,0,6.146,0.073,9.102-0.019
	c3.825-0.118,7.965,0.126,9.285,4.14c0.996,3.025,0.151,6.657,0.126,10.02c-0.487,0.007-0.975,0.014-1.462,0.021
	c1.159,1.756,2.78,3.366,3.389,5.296c1.62,5.135-1.65,9.839-7.116,10.228c-4.287,0.306-8.613,0.062-13.323,0.062
	C138.193,174.146,138.193,164.587,138.193,154.204z M146.923,181.227c0.99,0,1.981,0.014,2.972-0.003
	c3.521-0.059,5.836-1.931,5.957-5.322c0.124-3.483-2.266-5.336-5.707-5.549c-2.137-0.133-4.307-0.213-6.425,0.018
	c-0.962,0.104-2.309,0.804-2.674,1.603C138.687,177.138,141.36,181.235,146.923,181.227z M146.095,167.318
	c4.28,0.141,8.379,0.062,8.289-5.147c-0.088-5.073-4.2-5.061-8.021-5.277c-3.819-0.218-5.7,0.632-5.699,5.136
	C140.665,166.614,142.271,168.097,146.095,167.318z"/>
<path fill-rule="evenodd" clip-rule="evenodd" d="M26.544,177.731c4.62,1.459,8.101,3.182,11.682,3.421
	c1.72,0.115,4.512-2.268,5.142-4.096c0.426-1.237-1.707-4.012-3.352-5.143c-2.119-1.457-4.882-1.993-7.389-2.862
	c-4.18-1.449-6.229-4.188-5.534-8.73c0.674-4.401,3.832-6.062,7.656-6.585c4.241-0.581,7.866,0.865,10.295,4.552
	c0.288,0.437-0.196,1.382-0.323,2.091c-0.731-0.158-1.5-0.221-2.186-0.492c-2.504-0.993-4.979-2.817-7.469-2.824
	c-1.66-0.005-4.156,2.283-4.707,4.038c-0.386,1.229,1.506,3.903,3.046,4.843c2.644,1.613,5.864,2.246,8.737,3.529
	c3.113,1.39,4.986,3.669,4.714,7.403c-0.28,3.857-2.426,5.983-5.864,7.181c-4.666,1.625-10.508,0.452-13.293-2.994
	C26.879,180.046,26.777,178.448,26.544,177.731z"/>
<path fill-rule="evenodd" clip-rule="evenodd" d="M85.053,182.424c-3.104,0.713-4.925,1.52-6.715,1.455
	c-3.098-0.112-6.55-0.075-9.116-1.463c-1.409-0.763-2.517-5.16-1.632-6.411c1.568-2.214,4.602-3.751,7.326-4.666
	c2.001-0.672,4.488,0.1,7.016,0.243c0.146-3.878-2.025-5.749-5.257-5.801c-2.621-0.042-5.259,1.011-8.01,1.021
	c2.767-4.765,7.076-4.358,11.186-3.343c3.629,0.897,5.229,3.809,5.208,7.559C85.036,175.141,85.053,179.262,85.053,182.424z
	 M76.724,171.935c-2.611,2.418-4.465,4.135-6.319,5.852c1.694,1.457,3.892,4.427,4.981,4.064c2.493-0.829,4.444-3.287,6.615-5.083
	C80.527,175.418,79.053,174.068,76.724,171.935z"/>
<path fill-rule="evenodd" clip-rule="evenodd" d="M118.425,174.079c-0.344,3.683-0.62,6.629-0.948,10.147
	c-2.794-3.204-3.07-25.859,0.075-29.876c0,5.713,0,11.426,0,18.692c5.028-4.297,8.726-7.458,12.424-10.619
	c0.516,0.598,1.03,1.194,1.545,1.792c-3.209,2.585-6.417,5.171-10.026,8.078c3.802,4.288,6.782,7.651,9.764,11.014
	c-0.39,0.433-0.779,0.865-1.169,1.298C126.387,181.264,122.685,177.923,118.425,174.079z"/>
<path fill-rule="evenodd" clip-rule="evenodd" d="M88.876,172.246c2.217-2.816,4.005-6.191,6.761-8.306
	c3.393-2.604,7.619-2.19,11.214,0.25c1.118,0.759,1.636,2.401,2.428,3.64c-1.204-0.314-2.565-0.37-3.582-0.99
	c-3.177-1.941-6.725-2.439-9.202,0.14c-1.932,2.011-3.822,5.72-3.237,8.048c0.651,2.593,3.818,5.09,6.491,6.427
	c1.5,0.75,4.212-0.941,6.385-1.51c1.041-0.272,2.096-0.491,3.145-0.734c-0.475,1.071-0.66,2.52-1.476,3.149
	c-3.574,2.756-7.586,3.279-11.702,1.277c-4.325-2.103-6.387-5.635-6.044-10.502C89.664,172.838,89.271,172.542,88.876,172.246z"/>
<path fill-rule="evenodd" clip-rule="evenodd" d="M215.681,163.904c-3.997,5.778-7.605,10.995-11.698,16.911
	c4.304,0.368,7.963,0.681,11.623,0.994c-0.018,0.514-0.034,1.027-0.051,1.541c-5.235,0-10.472,0-16.861,0
	c3.987-5.746,7.738-11.153,11.903-17.154c-4.016-0.337-7.13-0.598-10.243-0.858c0.001-0.478,0.003-0.955,0.004-1.434
	C205,163.904,209.643,163.904,215.681,163.904z"/>
<path fill-rule="evenodd" clip-rule="evenodd" d="M182.761,164.902c1.994-2.711,3.826-5.202,6.228-8.468
	c0.445,2.689,0.725,4.38,1.008,6.099c1.868,0.427,3.532,0.807,5.196,1.187c0.059,0.446,0.116,0.893,0.175,1.339
	c-1.686,0.396-3.372,0.791-5.065,1.185c-2.37,10.098-1.19,14.104,4.809,16.351c-3.016,2.989-7.246,1.963-8.264-2.253
	c-0.573-2.373-0.39-4.941-0.438-7.424C186.342,169.475,187.462,165.524,182.761,164.902z"/>
<path fill-rule="evenodd" clip-rule="evenodd" d="M51.604,163.662c1.043-1.47,2.697-3.801,3.866-5.449
	c2.142,2.155,4.343,4.371,6.406,6.446c-1.178,1.024-3.899,2.276-4.537,4.214c-0.884,2.688-0.843,6.093,0.01,8.811
	c0.685,2.184,3.167,3.804,4.801,5.618c-3.433,2.036-7.247,0.578-7.787-3.614c-0.337-2.611,0.203-5.345-0.21-7.934
	C53.75,169.23,52.635,166.821,51.604,163.662z"/>
<path fill-rule="evenodd" clip-rule="evenodd" d="M167.567,168.689c0.001,4.158,0.088,8.319-0.068,12.472
	c-0.033,0.881-0.948,1.728-1.458,2.591c-0.55-0.824-1.565-1.643-1.577-2.474c-0.118-8.481-0.118-16.965-0.007-25.445
	c0.011-0.87,0.956-1.727,1.468-2.59c0.548,0.824,1.536,1.633,1.567,2.477C167.652,160.038,167.566,164.365,167.567,168.689z"/>
<path fill-rule="evenodd" clip-rule="evenodd" d="M177.247,173.504c0.001,2.667,0.101,5.34-0.06,7.996
	c-0.048,0.79-0.826,1.536-1.27,2.303c-0.541-0.663-1.536-1.314-1.552-1.989c-0.129-5.496-0.13-10.999-0.008-16.496
	c0.016-0.687,0.978-1.353,1.502-2.027c0.462,0.738,1.274,1.454,1.322,2.218C177.347,168.164,177.246,170.838,177.247,173.504z"/>
<path fill-rule="evenodd" clip-rule="evenodd" fill="#FFFFFF" d="M146.923,181.233c-5.563,0.002-8.236-4.096-5.877-9.261
	c0.365-0.799,1.712-1.498,2.674-1.603c2.118-0.23,4.288-0.15,6.425-0.018c3.441,0.213,5.831,2.065,5.707,5.549
	c-0.121,3.392-2.437,5.264-5.957,5.322C148.904,181.24,147.913,181.227,146.923,181.233z"/>
<path fill-rule="evenodd" clip-rule="evenodd" fill="#FFFFFF" d="M146.095,167.318c-3.824,0.778-5.43-0.704-5.431-5.289
	c-0.001-4.504,1.88-5.354,5.699-5.136c3.82,0.217,7.933,0.204,8.021,5.277C154.474,167.38,150.375,167.459,146.095,167.318z"/>
<path fill-rule="evenodd" clip-rule="evenodd" fill="#FFFFFF" d="M76.724,171.935c2.329,2.134,3.803,3.483,5.277,4.833
	c-2.171,1.796-4.122,4.254-6.615,5.083c-1.089,0.362-3.287-2.607-4.981-4.064C72.258,176.069,74.112,174.353,76.724,171.935z"/>
<polygon fill-rule="evenodd" clip-rule="evenodd" fill="#1389FD" points="145.904,36 88.904,95 120.904,95 102.904,135 157.904,77 
	127.904,75 "/>
</svg>
