<?xml version="1.0" encoding="utf-8"?>
<!-- Generator: Adobe Illustrator 16.0.0, SVG Export Plug-In . SVG Version: 6.00 Build 0)  -->
<!DOCTYPE svg PUBLIC "-//W3C//DTD SVG 1.1//EN" "http://www.w3.org/Graphics/SVG/1.1/DTD/svg11.dtd">
<svg version="1.1" id="图层_1" xmlns="http://www.w3.org/2000/svg" xmlns:xlink="http://www.w3.org/1999/xlink" x="0px" y="0px"
	 width="240px" height="240px" viewBox="0 0 240 240" enable-background="new 0 0 240 240" xml:space="preserve">
<path fill-rule="evenodd" clip-rule="evenodd" fill="#5C566B" d="M218,241c-64.667,0-129.333,0-194,0
	c-0.414-0.272-0.793-0.66-1.248-0.801C8.95,235.929,3.299,228.311,3.291,213.885c-0.008-15.314-0.002-30.628-0.002-45.942
	c0-47.108-0.013-94.216,0.012-141.323C3.306,16.239,7.66,8.334,17.067,3.577C19.253,2.472,21.683,1.847,24,1
	c64.667,0,129.333,0,194,0c0.413,0.273,0.79,0.664,1.244,0.804c13.8,4.262,19.459,11.887,19.465,26.313
	c0.008,20.808,0.002,41.614,0.002,62.422c0,41.448-0.006,82.896,0.003,124.345c0.002,10.328-3.934,18.42-13.35,23.285
	C223.041,239.368,220.462,240.069,218,241z M172.448,121.834c-0.323,0.021-0.647,0.043-0.972,0.064
	c-1.076-3.625-2.203-7.235-3.22-10.877c-3.782-13.555-3.765-13.463-17.881-12.926c-3.454,0.131-4.613,1.339-4.559,4.76
	c0.163,10.148-0.032,20.303,0.079,30.453c0.12,10.883-1.977,9.659,10.304,9.87c3.424,0.059,4.26-1.354,4.138-4.461
	c-0.191-4.856-0.051-9.726-0.051-14.589c2.133,5.168,3.888,10.342,5.068,15.643c0.932,4.186,3.907,3.322,6.589,3.326
	c2.702,0.003,5.701,0.803,6.612-3.359c0.955-4.367,2.506-8.604,3.796-12.897c0.796,2.495,0.779,4.813,0.798,7.13
	c0.087,10.55-0.843,8.869,9.534,9.225c3.934,0.135,5.303-1.22,5.22-5.114c-0.188-8.815-0.054-17.639-0.053-26.459
	c0.001-13.75,0.001-13.638-13.736-13.546c-3.566,0.023-5.414,1.092-6.291,4.663C176.25,109.157,174.263,115.475,172.448,121.834z
	 M131.17,122.674c10.124-10.914,4.496-22.521-6.281-23.678c-8.89-0.954-17.922-0.697-26.889-0.648
	c-1.079,0.006-3.061,2.057-3.08,3.187c-0.219,12.807-0.204,25.62-0.02,38.429c0.016,1.091,1.613,3.003,2.602,3.089
	c4.067,0.353,8.182,0.147,12.779,0.147c0-5.249,0-9.837,0-14.32c9.156-1.473,10.167-0.675,10.93,7.905
	c0.175,1.957,0.594,3.893,0.916,5.938c5.338,0,10.461,0,15.995,0C134.033,136.183,139.296,127.41,131.17,122.674z M86.77,124.873
	c-2.354,0-4.331-0.034-6.306,0.007c-4.155,0.085-8.236-0.922-10.569,4.762c-1.632,3.978-8.444,3.142-10.835-0.802
	c-2.773-4.575-3.007-9.627-0.935-14.348c0.982-2.237,3.382-4.545,5.66-5.353c3.105-1.101,5.543,1.033,7.239,3.936
	c0.73,1.25,2.208,2.745,3.474,2.874c3.749,0.38,7.561,0.136,11.277,0.136c0.965-10.21-7.242-18.451-18.469-19.258
	c-16.096-1.156-25.601,7.49-26.002,23.653c-0.358,14.42,8.842,23.605,23.673,23.64C76.873,144.146,86.955,135.544,86.77,124.873z"/>
<path fill-rule="evenodd" clip-rule="evenodd" fill="#FFFFFF" d="M172.448,121.834c1.814-6.359,3.802-12.677,5.376-19.095
	c0.877-3.571,2.725-4.64,6.291-4.663c13.737-0.092,13.737-0.204,13.736,13.546c-0.001,8.82-0.135,17.644,0.053,26.459
	c0.083,3.895-1.286,5.249-5.22,5.114c-10.377-0.355-9.447,1.325-9.534-9.225c-0.019-2.317-0.002-4.635-0.798-7.13
	c-1.29,4.294-2.841,8.53-3.796,12.897c-0.911,4.162-3.91,3.362-6.612,3.359c-2.682-0.004-5.657,0.859-6.589-3.326
	c-1.181-5.301-2.936-10.475-5.068-15.643c0,4.863-0.141,9.732,0.051,14.589c0.122,3.106-0.714,4.52-4.138,4.461
	c-12.28-0.211-10.184,1.013-10.304-9.87c-0.111-10.15,0.084-20.305-0.079-30.453c-0.055-3.421,1.104-4.629,4.559-4.76
	c14.116-0.537,14.099-0.629,17.881,12.926c1.017,3.642,2.144,7.252,3.22,10.877C171.801,121.877,172.125,121.855,172.448,121.834z"
	/>
<path fill-rule="evenodd" clip-rule="evenodd" fill="#FFFFFF" d="M131.17,122.674c8.126,4.736,2.863,13.509,6.952,20.049
	c-5.534,0-10.657,0-15.995,0c-0.322-2.046-0.741-3.981-0.916-5.938c-0.764-8.58-1.774-9.378-10.93-7.905c0,4.483,0,9.071,0,14.32
	c-4.597,0-8.712,0.205-12.779-0.147c-0.988-0.086-2.586-1.998-2.602-3.089c-0.184-12.809-0.2-25.622,0.02-38.429
	c0.02-1.13,2.001-3.181,3.08-3.187c8.967-0.049,18-0.306,26.889,0.648C135.666,100.153,141.294,111.76,131.17,122.674z
	 M110.586,110.172c0,2.645,0,4.507,0,6.676c2.567,0,4.806,0.405,6.792-0.129c1.591-0.427,2.875-1.994,4.295-3.056
	c-1.327-1.163-2.49-2.928-4.021-3.346C115.534,109.739,113.137,110.172,110.586,110.172z"/>
<path fill-rule="evenodd" clip-rule="evenodd" fill="#FFFFFF" d="M86.77,124.873c0.185,10.671-9.897,19.273-21.793,19.247
	c-14.832-0.034-24.031-9.22-23.673-23.64c0.401-16.163,9.906-24.81,26.002-23.653c11.228,0.807,19.434,9.048,18.469,19.258
	c-3.717,0-7.529,0.244-11.277-0.136c-1.266-0.129-2.743-1.624-3.474-2.874c-1.696-2.902-4.134-5.036-7.239-3.936
	c-2.278,0.808-4.678,3.115-5.66,5.353c-2.072,4.721-1.838,9.772,0.935,14.348c2.391,3.943,9.203,4.779,10.835,0.802
	c2.333-5.684,6.414-4.677,10.569-4.762C82.439,124.839,84.417,124.873,86.77,124.873z"/>
<path fill-rule="evenodd" clip-rule="evenodd" fill="#5C566B" d="M110.586,110.172c2.551,0,4.947-0.433,7.067,0.146
	c1.53,0.418,2.693,2.183,4.021,3.346c-1.42,1.062-2.705,2.629-4.295,3.056c-1.986,0.534-4.225,0.129-6.792,0.129
	C110.586,114.679,110.586,112.816,110.586,110.172z"/>
<g>
	<path fill-rule="evenodd" clip-rule="evenodd" fill="#DC6254" d="M190,152h-2.264c-12.002,25.36-37.816,42.908-67.736,42.908
		c-29.92,0-55.734-17.548-67.736-42.908H47c-3.002,0-5.873-0.556-8.521-1.563C50.818,183.474,82.66,207,120,207
		c37.993,0,70.293-24.356,82.15-58.305C198.586,150.792,194.435,152,190,152z"/>
	<path fill-rule="evenodd" clip-rule="evenodd" fill="#DC6254" d="M47,89h4.812C63.604,63.104,89.69,45.092,120,45.092
		c30.31,0,56.396,18.012,68.188,43.908H190c4.613,0,8.922,1.305,12.58,3.561C191.088,57.958,158.461,33,120,33
		c-37.779,0-69.928,24.082-81.948,57.73C40.818,89.618,43.836,89,47,89z"/>
</g>
</svg>
