<?xml version="1.0" encoding="utf-8"?>
<!-- Generator: Adobe Illustrator 16.0.0, SVG Export Plug-In . SVG Version: 6.00 Build 0)  -->
<!DOCTYPE svg PUBLIC "-//W3C//DTD SVG 1.1//EN" "http://www.w3.org/Graphics/SVG/1.1/DTD/svg11.dtd">
<svg version="1.1" id="图层_1" xmlns="http://www.w3.org/2000/svg" xmlns:xlink="http://www.w3.org/1999/xlink" x="0px" y="0px"
	 width="240px" height="240px" viewBox="0 0 240 240" enable-background="new 0 0 240 240" xml:space="preserve">
<path fill-rule="evenodd" clip-rule="evenodd" fill="#484848" d="M219,241c-65.333,0-130.667,0-196,0
	c-0.881-0.4-1.733-0.892-2.648-1.188c-10.505-3.401-17.105-12.025-17.118-23.184c-0.07-63.753-0.062-127.505,0-191.258
	C3.242,17.026,6.667,10.13,13.675,5.449C16.509,3.557,19.875,2.459,23,1c65.333,0,130.667,0,196,0
	c0.393,0.292,0.743,0.71,1.185,0.857c12.979,4.332,18.603,11.999,18.614,25.51c0.017,18.977,0.005,37.952,0.005,56.928
	c-0.001,43.612,0.016,87.224-0.011,130.835c-0.008,12.848-6.02,21.007-18.12,24.889C220.072,240.211,219.556,240.667,219,241z
	 M121.505,175.629c17.663,0,35.327,0.008,52.99-0.003c10.806-0.007,13.37-2.54,13.377-13.149c0.001-2.333,0-4.666,0-6.999
	c0-24.161,0.024-48.323-0.014-72.485c-0.013-7.869-3.085-10.931-10.833-11.005c-4.165-0.039-8.332,0.007-12.497-0.013
	c-9.141-0.044-8.23,0.737-8.304-8.398c-0.008-0.998,0.012-2.008-0.119-2.993c-0.518-3.907-2.966-6.104-6.718-6.041
	c-3.757,0.062-6.154,2.348-6.51,6.268c-0.164,1.82-0.275,3.684-0.073,5.49c0.478,4.279-1.043,5.931-5.564,5.771
	c-8.987-0.318-17.994-0.093-26.992-0.093c-9.597,0-9.597,0-10.034-9.68c-0.015-0.333-0.016-0.667-0.036-0.999
	c-0.243-4.152-2.567-6.684-6.575-6.749c-4.009-0.065-6.464,2.385-6.752,6.537c-0.149,2.157-0.195,4.338-0.069,6.494
	c0.185,3.16-1.014,4.547-4.321,4.434c-5.16-0.176-10.33-0.052-15.496-0.033c-9.105,0.031-11.83,2.78-11.834,12.02
	c-0.013,26.495-0.014,52.989,0,79.484c0.005,9.234,2.937,12.12,12.383,12.135C85.512,175.648,103.509,175.628,121.505,175.629z"/>
<path fill-rule="evenodd" clip-rule="evenodd" fill="#00D1C1" d="M121.505,175.629c-17.996-0.001-35.993,0.02-53.989-0.009
	c-9.446-0.015-12.378-2.9-12.383-12.135c-0.014-26.495-0.013-52.989,0-79.484c0.004-9.239,2.729-11.988,11.834-12.02
	c5.166-0.019,10.336-0.143,15.496,0.033c3.307,0.113,4.506-1.273,4.321-4.434c-0.126-2.156-0.081-4.337,0.069-6.494
	c0.288-4.152,2.743-6.603,6.752-6.537c4.007,0.065,6.332,2.597,6.575,6.749c0.02,0.332,0.021,0.666,0.036,0.999
	c0.437,9.68,0.437,9.68,10.034,9.68c8.998,0,18.004-0.226,26.992,0.093c4.521,0.16,6.042-1.491,5.564-5.771
	c-0.202-1.807-0.091-3.67,0.073-5.49c0.355-3.92,2.753-6.206,6.51-6.268c3.752-0.063,6.2,2.134,6.718,6.041
	c0.131,0.985,0.111,1.995,0.119,2.993c0.073,9.136-0.837,8.354,8.304,8.398c4.165,0.02,8.332-0.026,12.497,0.013
	c7.748,0.074,10.82,3.136,10.833,11.005c0.038,24.162,0.014,48.324,0.014,72.485c0,2.333,0.001,4.666,0,6.999
	c-0.007,10.609-2.571,13.143-13.377,13.149C156.832,175.637,139.168,175.629,121.505,175.629z M156.459,125.995
	c1.597,1.449,2.871,3.103,4.551,3.992c1.771,0.938,4.151,1.904,5.843,1.41c1.143-0.334,2.027-3.125,2.21-4.901
	c0.783-7.608,1.174-15.256,1.891-22.873c0.392-4.167-1.418-6.177-5.405-5.66c-7.585,0.983-15.17,2.082-22.672,3.555
	c-4.462,0.875-5.361,4.788-2.283,8.347c1.154,1.333,2.399,2.588,3.277,3.528c-4.383,4.492-8.375,8.585-12.55,12.865
	c-4.468-4.938-8.926-9.866-13.383-14.794c-4.879-5.395-9.134-5.537-14.408-0.349c-5.459,5.37-10.841,10.818-16.25,16.239
	c-4.586,4.596-9.305,9.069-13.694,13.847c-3.227,3.51-3.095,8.363-0.202,11.332c3.152,3.234,7.9,3.25,11.674-0.16
	c2.591-2.341,4.988-4.897,7.449-7.381c5.916-5.969,11.818-11.952,17.914-18.119c2.798,2.849,4.975,5.134,7.229,7.339
	c2.26,2.211,4.485,4.479,6.923,6.48c6.229,5.114,9.23,5.26,15.362,0.157C145.544,136.183,150.811,131.103,156.459,125.995z"/>
<path fill-rule="evenodd" clip-rule="evenodd" fill="#484848" d="M156.459,125.995c-5.648,5.107-10.915,10.188-16.524,14.854
	c-6.132,5.103-9.133,4.957-15.362-0.157c-2.438-2.001-4.664-4.27-6.923-6.48c-2.254-2.205-4.431-4.49-7.229-7.339
	c-6.096,6.167-11.998,12.15-17.914,18.119c-2.461,2.483-4.858,5.04-7.449,7.381c-3.774,3.41-8.521,3.395-11.674,0.16
	c-2.894-2.969-3.025-7.822,0.202-11.332c4.39-4.777,9.108-9.251,13.694-13.847c5.409-5.421,10.792-10.869,16.25-16.239
	c5.274-5.188,9.529-5.046,14.408,0.349c4.458,4.928,8.916,9.855,13.383,14.794c4.175-4.28,8.167-8.373,12.55-12.865
	c-0.878-0.94-2.123-2.195-3.277-3.528c-3.078-3.559-2.179-7.472,2.283-8.347c7.502-1.473,15.087-2.571,22.672-3.555
	c3.987-0.517,5.797,1.493,5.405,5.66c-0.717,7.617-1.107,15.265-1.891,22.873c-0.183,1.776-1.067,4.567-2.21,4.901
	c-1.691,0.494-4.071-0.472-5.843-1.41C159.33,129.098,158.056,127.444,156.459,125.995z"/>
</svg>
