<?xml version="1.0" encoding="utf-8"?>
<!-- Generator: Adobe Illustrator 16.0.0, SVG Export Plug-In . SVG Version: 6.00 Build 0)  -->
<!DOCTYPE svg PUBLIC "-//W3C//DTD SVG 1.1//EN" "http://www.w3.org/Graphics/SVG/1.1/DTD/svg11.dtd">
<svg version="1.1" id="图层_1" xmlns="http://www.w3.org/2000/svg" xmlns:xlink="http://www.w3.org/1999/xlink" x="0px" y="0px"
	 width="240px" height="240px" viewBox="0 0 240 240" enable-background="new 0 0 240 240" xml:space="preserve">
<path fill-rule="evenodd" clip-rule="evenodd" fill="#373277" d="M23,1c65.333,0,130.667,0,196,0
	c0.394,0.291,0.745,0.708,1.187,0.855c12.97,4.331,18.601,12.011,18.613,25.512c0.018,17.312,0.005,34.623,0.005,51.935
	c0,45.276,0.015,90.553-0.011,135.829c-0.007,12.845-6.023,21.012-18.121,24.888c-0.601,0.192-1.117,0.648-1.673,0.981
	c-65.333,0-130.667,0-196,0c-0.881-0.4-1.734-0.891-2.649-1.187C9.849,236.415,3.245,227.784,3.233,216.63
	c-0.069-63.753-0.062-127.507,0-191.26c0.008-8.344,3.435-15.241,10.438-19.924C16.505,3.552,19.875,2.458,23,1z M81.115,119.11
	c-3.049,2.766-5.38,4.884-7.716,6.995c-2.346,2.12-4.708,4.223-7.043,6.355c-2.689,2.456-5.24,4.893-2.143,8.842
	c5.047,6.436,9.228,8.133,13.646,5.003c4.886-3.46,9.774-6.97,14.275-10.898c2.962-2.586,4.739-2.182,7.464,0.348
	c13.294,12.34,26.869,24.379,40.17,36.711c3.984,3.693,7.667,4.361,12.53,1.705c6.248-3.413,12.824-6.227,19.265-9.288
	c3.965-1.886,5.896-4.693,5.86-9.398c-0.183-24.308-0.191-48.618,0.006-72.926c0.039-4.904-1.935-7.795-6.12-9.733
	c-6.021-2.787-11.999-5.664-17.995-8.504c-7.804-3.696-8.245-3.69-14.454,1.963c-13.168,11.987-26.347,23.966-39.37,36.109
	c-2.275,2.122-3.784,2.545-6.257,0.44c-3.794-3.229-7.907-6.08-11.842-9.146c-7.696-5.994-8.357-5.982-15.4,0.633
	c-4.72,4.433-4.756,6.595,0.03,11.043C70.864,109.866,75.794,114.272,81.115,119.11z"/>
<path fill-rule="evenodd" clip-rule="evenodd" fill="#FFFFFF" d="M81.115,119.11c-5.321-4.838-10.251-9.244-15.093-13.746
	c-4.786-4.448-4.75-6.61-0.03-11.043c7.043-6.615,7.704-6.627,15.4-0.633c3.935,3.065,8.048,5.917,11.842,9.146
	c2.473,2.104,3.981,1.682,6.257-0.44c13.023-12.144,26.202-24.122,39.37-36.109c6.209-5.653,6.65-5.659,14.454-1.963
	c5.996,2.84,11.975,5.717,17.995,8.504c4.186,1.938,6.159,4.829,6.12,9.733c-0.197,24.308-0.188,48.618-0.006,72.926
	c0.036,4.705-1.896,7.513-5.86,9.398c-6.44,3.062-13.017,5.875-19.265,9.288c-4.863,2.656-8.546,1.988-12.53-1.705
	c-13.302-12.332-26.876-24.371-40.17-36.711c-2.725-2.529-4.502-2.934-7.464-0.348c-4.501,3.929-9.39,7.438-14.275,10.898
	c-4.418,3.13-8.599,1.433-13.646-5.003c-3.097-3.949-0.546-6.386,2.143-8.842c2.334-2.133,4.697-4.235,7.043-6.355
	C75.735,123.994,78.066,121.876,81.115,119.11z M147.896,93.443c-11.287,8.532-22.056,16.671-33.483,25.309
	c11.379,8.666,22.235,16.933,33.483,25.498C147.896,127.106,147.896,110.61,147.896,93.443z"/>
<path fill-rule="evenodd" clip-rule="evenodd" fill="#373277" d="M147.896,93.443c0,17.167,0,33.663,0,50.807
	c-11.248-8.565-22.104-16.832-33.483-25.498C125.841,110.114,136.609,101.976,147.896,93.443z"/>
</svg>
