<?xml version="1.0" encoding="utf-8"?>
<!-- Generator: Adobe Illustrator 16.0.0, SVG Export Plug-In . SVG Version: 6.00 Build 0)  -->
<!DOCTYPE svg PUBLIC "-//W3C//DTD SVG 1.1//EN" "http://www.w3.org/Graphics/SVG/1.1/DTD/svg11.dtd">
<svg version="1.1" id="图层_1" xmlns="http://www.w3.org/2000/svg" xmlns:xlink="http://www.w3.org/1999/xlink" x="0px" y="0px"
	 width="240px" height="240px" viewBox="0 0 240 240" enable-background="new 0 0 240 240" xml:space="preserve">
<path fill-rule="evenodd" clip-rule="evenodd" d="M220,241c-66,0-132,0-198,0c-14.346-4.936-19.27-15.209-19.171-30.021
	C3.238,149.996,2.993,89.01,3.023,28.024c0.001-2.65,0.052-5.358,0.571-7.941C5.65,9.856,12.757,4.367,22,1c66,0,132,0,198,0
	c14.34,4.94,19.271,15.208,19.172,30.023c-0.41,60.982-0.165,121.969-0.194,182.953c-0.002,2.651-0.045,5.361-0.568,7.942
	C236.338,232.132,229.28,237.67,220,241z M145.511,62.571c0.994,2.654,2.346,4.662,2.417,6.715
	c0.426,12.294,0.777,24.599,0.736,36.898c-0.069,21.107-0.375,42.216-0.798,63.319c-0.044,2.165-1.563,4.299-2.682,7.178
	c1.739-0.48,3.905-0.783,5.807-1.658c6.8-3.129,13.455-6.57,20.273-9.654c3.998-1.808,5.678-4.549,5.661-8.954
	c-0.093-24.636-0.066-49.273,0.051-73.909c0.02-4.202-1.601-6.872-5.393-8.614c-7.103-3.264-14.083-6.792-21.184-10.06
	C148.723,63.06,146.771,62.883,145.511,62.571z M65.634,89.78c2.018,2.505,3.878,5.065,5.991,7.397
	c14.277,15.764,28.915,31.215,42.755,47.352c4.878,5.688,10.317,7.341,17.134,7.575c5.326,0.184,9.052-1.333,10.552-6.876
	c0.331-1.223,1.585-2.196,2.609-3.542c-19.974-16.397-40.436-32.578-60.097-49.678c-6.784-5.9-12.39-6.324-19.31-1.806
	C65.144,90.284,65.062,90.429,65.634,89.78z"/>
<path fill-rule="evenodd" clip-rule="evenodd" fill="#BD8CF3" d="M145.511,62.571c1.26,0.312,3.212,0.488,4.89,1.261
	c7.101,3.268,14.081,6.796,21.184,10.06c3.792,1.742,5.412,4.412,5.393,8.614c-0.117,24.636-0.144,49.273-0.051,73.909
	c0.017,4.405-1.663,7.146-5.661,8.954c-6.818,3.084-13.474,6.525-20.273,9.654c-1.901,0.875-4.067,1.178-5.807,1.658
	c1.118-2.879,2.638-5.013,2.682-7.178c0.423-21.104,0.729-42.212,0.798-63.319c0.041-12.3-0.311-24.604-0.736-36.898
	C147.856,67.233,146.505,65.226,145.511,62.571z"/>
<path fill-rule="evenodd" clip-rule="evenodd" fill="#7F3CBC" d="M65.634,149.493c-0.572-0.648-0.49-0.504-0.366-0.423
	c6.92,4.519,12.526,4.095,19.31-1.806c19.662-17.1,40.124-33.28,60.097-49.678c-1.024-1.346-2.278-2.319-2.609-3.542
	c-1.5-5.543-5.226-7.06-10.552-6.876c-6.816,0.234-12.255,1.887-17.134,7.575c-13.84,16.137-28.478,31.588-42.755,47.352
	C69.512,144.428,67.651,146.988,65.634,149.493z"/>
<path fill-rule="evenodd" clip-rule="evenodd" fill="#8E51CB" d="M65.634,89.78c-0.572,0.648-0.49,0.504-0.366,0.423
	c6.92-4.519,12.526-4.095,19.31,1.806c19.662,17.1,40.124,33.28,60.097,49.678c-1.024,1.346-2.278,2.319-2.609,3.542
	c-1.5,5.543-5.226,7.06-10.552,6.876c-6.816-0.234-12.255-1.887-17.134-7.575c-13.84-16.137-28.478-31.588-42.755-47.352
	C69.512,94.846,67.651,92.285,65.634,89.78z"/>
</svg>
