<?xml version="1.0" encoding="utf-8"?>
<!-- Generator: Adobe Illustrator 16.0.0, SVG Export Plug-In . SVG Version: 6.00 Build 0)  -->
<!DOCTYPE svg PUBLIC "-//W3C//DTD SVG 1.1//EN" "http://www.w3.org/Graphics/SVG/1.1/DTD/svg11.dtd">
<svg version="1.1" id="图层_1" xmlns="http://www.w3.org/2000/svg" xmlns:xlink="http://www.w3.org/1999/xlink" x="0px" y="0px"
	 width="240px" height="240px" viewBox="0 0 240 240" enable-background="new 0 0 240 240" xml:space="preserve">
<path fill="#333333" d="M238,216c0,13.255-10.745,24-24,24H26c-13.255,0-24-10.745-24-24V24C2,10.745,12.745,0,26,0h188
	c13.255,0,24,10.745,24,24V216z"/>
<g>
	<path fill="#FFFFFF" d="M40.373,61.47h27.332c5.953,0,10.411,1.416,13.375,4.247c2.964,2.832,4.446,6.86,4.446,12.087
		c0,5.372-1.615,9.57-4.846,12.595s-8.161,4.537-14.791,4.537h-9.002v19.746H40.373V61.47z M56.888,84.156h4.029
		c3.169,0,5.396-0.55,6.679-1.652c1.282-1.101,1.923-2.51,1.923-4.229c0-1.669-0.557-3.085-1.669-4.247
		c-1.113-1.162-3.207-1.743-6.279-1.743h-4.683V84.156z"/>
	<path fill="#FFFFFF" d="M94.202,61.47h16.443v18.62h17.966V61.47h16.517v53.212h-16.517V93.157h-17.966v21.524H94.202V61.47z"/>
	<path fill="#FFFFFF" d="M155.98,61.47h27.332c5.951,0,10.41,1.416,13.375,4.247c2.963,2.832,4.445,6.86,4.445,12.087
		c0,5.372-1.613,9.57-4.845,12.595s-8.162,4.537-14.792,4.537h-9.001v19.746H155.98V61.47z M172.496,84.156h4.027
		c3.17,0,5.396-0.55,6.68-1.652c1.281-1.101,1.924-2.51,1.924-4.229c0-1.669-0.557-3.085-1.67-4.247
		c-1.113-1.162-3.206-1.743-6.279-1.743h-4.682V84.156L172.496,84.156z"/>
</g>
<g>
	<path fill="#FFFFFF" d="M44.415,192.542V161.46h13.781c2.771,0,4.876,0.279,6.318,0.838c1.441,0.56,2.593,1.544,3.456,2.958
		c0.862,1.413,1.293,2.977,1.293,4.686c0,2.205-0.714,4.063-2.141,5.576c-1.428,1.512-3.633,2.474-6.615,2.883
		c1.088,0.523,1.915,1.039,2.481,1.549c1.201,1.103,2.339,2.48,3.413,4.135l5.407,8.459h-5.173l-4.113-6.467
		c-1.202-1.865-2.191-3.293-2.968-4.282c-0.777-0.989-1.473-1.683-2.088-2.078c-0.615-0.396-1.24-0.671-1.876-0.827
		c-0.467-0.099-1.23-0.147-2.29-0.147h-4.771v13.803h-4.114V192.542z M48.528,175.178h8.841c1.879,0,3.35-0.193,4.41-0.582
		c1.06-0.39,1.866-1.012,2.417-1.865c0.551-0.855,0.827-1.785,0.827-2.789c0-1.471-0.534-2.678-1.601-3.625
		c-1.067-0.946-2.753-1.42-5.057-1.42h-9.838L48.528,175.178L48.528,175.178z"/>
	<path fill="#FFFFFF" d="M89.978,192.542v-3.308c-1.753,2.543-4.134,3.815-7.145,3.815c-1.329,0-2.569-0.254-3.721-0.764
		c-1.152-0.509-2.007-1.147-2.565-1.918c-0.559-0.771-0.951-1.714-1.177-2.831c-0.156-0.749-0.233-1.936-0.233-3.563v-13.951h3.816
		v12.488c0,1.993,0.078,3.336,0.233,4.028c0.24,1.004,0.749,1.791,1.526,2.364c0.777,0.572,1.738,0.857,2.883,0.857
		s2.219-0.293,3.223-0.88c1.003-0.586,1.714-1.385,2.131-2.396c0.417-1.012,0.625-2.479,0.625-4.399v-12.063h3.816v22.517h-3.412
		V192.542z"/>
	<path fill="#FFFFFF" d="M99.37,192.542v-22.517h3.435v3.201c1.654-2.474,4.042-3.711,7.166-3.711c1.357,0,2.604,0.244,3.742,0.731
		c1.138,0.487,1.989,1.128,2.555,1.919c0.565,0.792,0.961,1.73,1.188,2.82c0.141,0.707,0.212,1.943,0.212,3.71v13.845h-3.816
		v-13.695c0-1.556-0.148-2.718-0.445-3.488c-0.296-0.771-0.823-1.385-1.579-1.844c-0.756-0.459-1.643-0.689-2.661-0.689
		c-1.625,0-3.028,0.517-4.208,1.548c-1.18,1.032-1.77,2.989-1.77,5.873v12.297H99.37L99.37,192.542z"/>
	<path fill="#FFFFFF" d="M131.852,189.129l0.551,3.371c-1.074,0.227-2.035,0.339-2.883,0.339c-1.387,0-2.459-0.22-3.224-0.657
		c-0.764-0.438-1.301-1.014-1.61-1.728c-0.313-0.714-0.468-2.216-0.468-4.506v-12.954h-2.798v-2.969h2.798v-5.575l3.796-2.29v7.865
		h3.838v2.969h-3.838v13.166c0,1.089,0.066,1.788,0.201,2.099c0.135,0.313,0.354,0.56,0.657,0.742
		c0.304,0.185,0.737,0.276,1.304,0.276C130.6,189.277,131.158,189.229,131.852,189.129z"/>
	<path fill="#FFFFFF" d="M135.604,165.85v-4.39h3.816v4.39H135.604z M135.604,192.542v-22.517h3.816v22.517H135.604z"/>
	<path fill="#FFFFFF" d="M145.229,192.542v-22.517h3.414v3.158c0.707-1.103,1.646-1.988,2.819-2.66
		c1.173-0.672,2.509-1.008,4.007-1.008c1.668,0,3.035,0.348,4.104,1.039c1.066,0.693,1.818,1.661,2.258,2.905
		c1.781-2.63,4.1-3.944,6.954-3.944c2.233,0,3.95,0.619,5.151,1.855s1.803,3.143,1.803,5.714v15.456h-3.795v-14.184
		c0-1.526-0.125-2.627-0.371-3.297c-0.247-0.672-0.696-1.213-1.346-1.623c-0.65-0.41-1.414-0.614-2.291-0.614
		c-1.582,0-2.896,0.526-3.942,1.579c-1.048,1.054-1.569,2.738-1.569,5.058v13.081h-3.816v-14.629c0-1.696-0.311-2.969-0.933-3.816
		c-0.622-0.849-1.64-1.271-3.053-1.271c-1.074,0-2.067,0.283-2.979,0.849c-0.91,0.565-1.572,1.392-1.981,2.479
		c-0.41,1.089-0.614,2.658-0.614,4.707v11.683H145.229z"/>
	<path fill="#FFFFFF" d="M196.813,185.291l3.943,0.486c-0.623,2.306-1.773,4.093-3.456,5.365c-1.683,1.271-3.831,1.907-6.444,1.907
		c-3.295,0-5.905-1.014-7.834-3.042c-1.931-2.027-2.896-4.873-2.896-8.533c0-3.789,0.976-6.729,2.926-8.82
		c1.951-2.092,4.479-3.139,7.591-3.139c3.012,0,5.471,1.025,7.379,3.074c1.908,2.051,2.861,4.934,2.861,8.65
		c0,0.227-0.008,0.564-0.021,1.018H184.07c0.142,2.475,0.841,4.368,2.1,5.684c1.258,1.313,2.826,1.972,4.706,1.972
		c1.399,0,2.595-0.367,3.584-1.103C195.447,188.076,196.232,186.902,196.813,185.291z M184.282,179.121h12.571
		c-0.17-1.895-0.649-3.314-1.44-4.262c-1.216-1.471-2.792-2.204-4.729-2.204c-1.752,0-3.227,0.586-4.42,1.76
		C185.068,175.588,184.409,177.157,184.282,179.121z"/>
</g>
<rect x="35.001" y="143" fill="#FFFFFF" width="168.999" height="7"/>
</svg>
