<?xml version="1.0" encoding="utf-8"?>
<!-- Generator: Adobe Illustrator 16.0.0, SVG Export Plug-In . SVG Version: 6.00 Build 0)  -->
<!DOCTYPE svg PUBLIC "-//W3C//DTD SVG 1.1//EN" "http://www.w3.org/Graphics/SVG/1.1/DTD/svg11.dtd">
<svg version="1.1" id="图层_1" xmlns="http://www.w3.org/2000/svg" xmlns:xlink="http://www.w3.org/1999/xlink" x="0px" y="0px"
	 width="240px" height="240px" viewBox="0 0 240 240" enable-background="new 0 0 240 240" xml:space="preserve">
<path fill-rule="evenodd" clip-rule="evenodd" fill="#FFFFFF" d="M136.79,140.722c-0.916-0.579-2.24-2.123-3.606-2.161
	c-8.156-0.23-16.324-0.065-24.486-0.14c-2.735-0.024-3.603,1.366-3.255,3.761c1.726,11.873,3.816,23.668,9.973,34.23
	c4.039,6.929,7.118,6.895,11.239-0.113C132.86,165.746,134.779,153.911,136.79,140.722z"/>
<path fill-rule="evenodd" clip-rule="evenodd" fill="#FFFFFF" d="M63.637,138.496c2.034,13.429,18.895,33.742,29.186,35.392
	c-2.062-10.622-4.108-21.491-6.367-32.316c-0.242-1.157-1.687-2.902-2.629-2.939C77.239,138.375,70.636,138.496,63.637,138.496z"/>
<path fill-rule="evenodd" clip-rule="evenodd" fill="#FFFFFF" d="M178.898,138.473c-7.473,0-13.938-0.201-20.365,0.189
	c-1.125,0.068-2.669,2.486-3.048,4.054c-2.221,9.172-4.148,18.415-6.188,27.631c-0.294,1.33-0.657,2.645-1.235,4.951
	C163.666,166.985,173.418,155.319,178.898,138.473z"/>
<path fill-rule="evenodd" clip-rule="evenodd" fill="#333333" d="M23,241c-3.275-1.544-6.838-2.676-9.769-4.715
	c-6.742-4.691-9.994-11.518-9.992-19.675c0.007-28.15,0.207-56.301,0.174-84.45c-0.004-4.006,1.559-5.229,5.338-5.161
	c8.992,0.159,17.998,0.287,26.979-0.05c4.544-0.171,6.123,1.786,6.825,5.858c4.782,27.761,20.011,47.98,45.36,59.888
	c47.563,22.34,103.517-7.891,111.54-59.885c0.631-4.089,2.269-6.032,6.813-5.861c8.982,0.337,17.988,0.209,26.979,0.05
	c3.779-0.067,5.343,1.154,5.338,5.16c-0.032,28.15,0.196,56.301,0.165,84.45c-0.012,11.426-6.592,19.861-17.564,23.327
	c-0.765,0.241-1.459,0.704-2.187,1.063C153.667,241,88.333,241,23,241z"/>
<path fill-rule="evenodd" clip-rule="evenodd" fill="#333333" d="M136.79,140.722c-2.011,13.189-3.93,25.024-10.136,35.577
	c-4.121,7.008-7.2,7.042-11.239,0.113c-6.157-10.563-8.247-22.357-9.973-34.23c-0.348-2.395,0.52-3.785,3.255-3.761
	c8.163,0.074,16.33-0.091,24.486,0.14C134.55,138.599,135.874,140.143,136.79,140.722z"/>
<path fill-rule="evenodd" clip-rule="evenodd" fill="#333333" d="M63.637,138.496c6.999,0,13.602-0.121,20.189,0.136
	c0.943,0.037,2.388,1.782,2.629,2.939c2.258,10.825,4.305,21.694,6.367,32.316C82.532,172.238,65.671,151.925,63.637,138.496z"/>
<path fill-rule="evenodd" clip-rule="evenodd" fill="#333333" d="M178.898,138.473c-5.48,16.847-15.232,28.513-30.836,36.825
	c0.578-2.307,0.941-3.621,1.235-4.951c2.039-9.216,3.967-18.459,6.188-27.631c0.379-1.567,1.923-3.985,3.048-4.054
	C164.961,138.271,171.426,138.473,178.898,138.473z"/>
<path fill-rule="evenodd" clip-rule="evenodd" fill="#FFFFFF" d="M126.654,64.701c-4.121-7.008-7.2-7.042-11.239-0.113
	c-6.157,10.563-8.247,22.357-9.973,34.23c-0.348,2.395,0.52,3.785,3.255,3.761c8.163-0.074,16.33,0.091,24.486-0.14
	c1.366-0.038,2.69-1.582,3.606-2.161C134.779,87.089,132.86,75.254,126.654,64.701z"/>
<path fill-rule="evenodd" clip-rule="evenodd" fill="#FFFFFF" d="M83.827,102.368c0.943-0.037,2.388-1.782,2.629-2.939
	c2.258-10.825,4.305-21.694,6.367-32.316c-10.291,1.649-27.152,21.963-29.186,35.392C70.636,102.504,77.239,102.625,83.827,102.368z
	"/>
<path fill-rule="evenodd" clip-rule="evenodd" fill="#FFFFFF" d="M148.063,65.702c0.578,2.307,0.941,3.621,1.235,4.951
	c2.039,9.216,3.967,18.459,6.188,27.631c0.379,1.567,1.923,3.985,3.048,4.054c6.428,0.391,12.893,0.189,20.365,0.189
	C173.418,85.681,163.666,74.015,148.063,65.702z"/>
<path fill-rule="evenodd" clip-rule="evenodd" fill="#333333" d="M23,0c-3.275,1.544-6.838,2.676-9.769,4.715
	C6.49,9.406,3.237,16.232,3.239,24.39c0.007,28.15,0.207,56.301,0.174,84.45c-0.004,4.006,1.559,5.229,5.338,5.161
	c8.992-0.159,17.998-0.287,26.979,0.05c4.544,0.171,6.123-1.786,6.825-5.858c4.782-27.761,20.011-47.98,45.36-59.888
	c47.563-22.34,103.517,7.891,111.54,59.885c0.631,4.089,2.269,6.032,6.813,5.861c8.982-0.337,17.988-0.209,26.979-0.05
	c3.779,0.067,5.343-1.154,5.338-5.16c-0.032-28.15,0.196-56.301,0.165-84.45c-0.012-11.426-6.592-19.861-17.564-23.327
	C220.422,0.822,219.728,0.359,219,0C153.667,0,88.333,0,23,0z"/>
<path fill-rule="evenodd" clip-rule="evenodd" fill="#333333" d="M136.79,100.278c-2.011-13.189-3.93-25.024-10.136-35.577
	c-4.121-7.008-7.2-7.042-11.239-0.113c-6.157,10.563-8.247,22.357-9.973,34.23c-0.348,2.395,0.52,3.785,3.255,3.761
	c8.163-0.074,16.33,0.091,24.486-0.14C134.55,102.401,135.874,100.857,136.79,100.278z"/>
<path fill-rule="evenodd" clip-rule="evenodd" fill="#333333" d="M63.637,102.504c6.999,0,13.602,0.121,20.189-0.136
	c0.943-0.037,2.388-1.782,2.629-2.939c2.258-10.825,4.305-21.694,6.367-32.316C82.532,68.762,65.671,89.075,63.637,102.504z"/>
<path fill-rule="evenodd" clip-rule="evenodd" fill="#333333" d="M178.898,102.527c-5.48-16.847-15.232-28.513-30.836-36.825
	c0.578,2.307,0.941,3.621,1.235,4.951c2.039,9.216,3.967,18.459,6.188,27.631c0.379,1.567,1.923,3.985,3.048,4.054
	C164.961,102.729,171.426,102.527,178.898,102.527z"/>
<g>
	<path fill="#333333" d="M80.215,133.421l-5.469-22.906h4.734l3.453,15.734l4.188-15.734h5.5l4.016,16l3.516-16h4.656l-5.563,22.906
		H94.34l-4.563-17.125l-4.547,17.125H80.215z"/>
	<path fill="#333333" d="M113.618,133.421l-5.469-22.906h4.734l3.453,15.734l4.188-15.734h5.5l4.016,16l3.516-16h4.656
		l-5.563,22.906h-4.906l-4.563-17.125l-4.547,17.125H113.618z"/>
	<path fill="#333333" d="M147.021,133.421l-5.469-22.906h4.734l3.453,15.734l4.188-15.734h5.5l4.016,16l3.516-16h4.656
		l-5.563,22.906h-4.906l-4.563-17.125l-4.547,17.125H147.021z"/>
</g>
</svg>
