<?xml version="1.0" encoding="utf-8"?>
<!-- Generator: Adobe Illustrator 16.0.0, SVG Export Plug-In . SVG Version: 6.00 Build 0)  -->
<!DOCTYPE svg PUBLIC "-//W3C//DTD SVG 1.1//EN" "http://www.w3.org/Graphics/SVG/1.1/DTD/svg11.dtd">
<svg version="1.1" id="图层_1" xmlns="http://www.w3.org/2000/svg" xmlns:xlink="http://www.w3.org/1999/xlink" x="0px" y="0px"
	 width="240px" height="240px" viewBox="0 0 240 240" enable-background="new 0 0 240 240" xml:space="preserve">
<path fill="#3E7CBC" d="M238,216c0,13.255-10.745,24-24,24H26c-13.255,0-24-10.745-24-24V24C2,10.745,12.745,0,26,0h188
	c13.255,0,24,10.745,24,24V216z"/>
<g>
	<path fill="#FFFFFF" d="M177.363,172.534c-4.101,4.1-10.749,4.1-14.85,0l-90.51-90.51c-4.1-4.1-4.1-10.749,0-14.849l0,0
		c4.101-4.1,10.749-4.1,14.85,0l90.51,90.51C181.463,161.785,181.463,168.434,177.363,172.534L177.363,172.534z"/>
	<path fill="#FFFFFF" d="M173.189,62.108c4.443,3.728,5.021,10.351,1.295,14.793l-82.277,98.054
		c-3.728,4.442-10.351,5.021-14.793,1.294l0,0c-4.442-3.728-5.021-10.351-1.294-14.792l82.276-98.054
		C162.125,58.96,168.748,58.381,173.189,62.108L173.189,62.108z"/>
	<path fill="#FFFFFF" d="M87.5,120c0,3.313-2.687,6-6,6h-20c-3.313,0-6-2.687-6-6l0,0c0-3.313,2.687-6,6-6h20
		C84.813,114,87.5,116.687,87.5,120L87.5,120z"/>
	<path fill="#FFFFFF" d="M184.5,120c0,3.313-2.687,6-6,6h-20c-3.313,0-6-2.687-6-6l0,0c0-3.313,2.687-6,6-6h20
		C181.813,114,184.5,116.687,184.5,120L184.5,120z"/>
	<path fill="#FFFFFF" d="M120,152.5c3.313,0,6,2.687,6,6v20c0,3.313-2.687,6-6,6l0,0c-3.313,0-6-2.687-6-6v-20
		C114,155.187,116.687,152.5,120,152.5L120,152.5z"/>
	<path fill="#FFFFFF" d="M120,55.5c3.313,0,6,2.687,6,6v20c0,3.313-2.687,6-6,6l0,0c-3.313,0-6-2.687-6-6v-20
		C114,58.187,116.687,55.5,120,55.5L120,55.5z"/>
</g>
</svg>
