<?xml version="1.0" encoding="utf-8"?>
<!-- Generator: Adobe Illustrator 16.0.0, SVG Export Plug-In . SVG Version: 6.00 Build 0)  -->
<!DOCTYPE svg PUBLIC "-//W3C//DTD SVG 1.1//EN" "http://www.w3.org/Graphics/SVG/1.1/DTD/svg11.dtd">
<svg version="1.1" id="图层_1" xmlns="http://www.w3.org/2000/svg" xmlns:xlink="http://www.w3.org/1999/xlink" x="0px" y="0px"
	 width="240px" height="240px" viewBox="0 0 240 240" enable-background="new 0 0 240 240" xml:space="preserve">
<path fill-rule="evenodd" clip-rule="evenodd" d="M220,241c-66,0-132,0-198,0c-14.346-4.936-19.27-15.209-19.171-30.021
	C3.238,149.996,2.993,89.01,3.023,28.024c0.001-2.65,0.052-5.358,0.571-7.941C5.65,9.856,12.757,4.367,22,1c66,0,132,0,198,0
	c14.34,4.94,19.271,15.208,19.172,30.023c-0.41,60.982-0.165,121.969-0.194,182.953c-0.002,2.651-0.045,5.361-0.568,7.942
	C236.338,232.132,229.28,237.67,220,241z M72.863,125.269c-0.486-0.297-0.972-0.594-1.458-0.891
	c-6.957,7.05-14.676,13.512-20.685,21.295c-8.117,10.514-7.412,26.252,0.155,37.032c7.627,10.867,21.989,16.323,34.777,13.59
	c8.437-1.804,16.968-3.188,25.48-4.617c23.936-4.02,47.905-7.852,71.816-12.011c6.702-1.166,11.59-5.389,13.526-11.964
	c1.955-6.639,0.661-12.908-4.488-17.951c-4.046-3.962-8.178-7.837-12.284-11.738c-3.298-3.134-6.615-6.249-10.758-10.159
	c0,12.757-0.166,24.223,0.088,35.68c0.092,4.184-1.279,5.366-5.39,5.358c-28.32-0.054-56.643,0.025-84.961,0.318
	c-4.69,0.049-5.996-1.499-5.906-6.017C73.028,150.557,72.863,137.911,72.863,125.269z M168.946,109.698
	c6.389-5.617,13.812-11.526,20.504-18.172c9.984-9.915,10.401-26.2,1.538-36.816c-9.089-10.887-25.373-13.633-36.867-5.046
	c-8.952,6.688-16.813,14.836-25.998,23.09c2.801,0.13,4.385,0.264,5.97,0.268c9.149,0.021,18.3,0.009,27.449,0.011
	c7.4,0.001,7.402,0.003,7.403,7.644C168.947,90.979,168.946,101.281,168.946,109.698z M82.027,86.579
	c6.514,12.288,18.503,22.314,14.025,38.319c3.647,0,6.208,0,9.126,0c0-2.333,0.209-4.332-0.039-6.272
	c-0.803-6.293,1.069-11.606,4.853-16.66c3.638-4.858,6.643-10.19,10.013-15.449c-6.535-1.631-11.039-0.344-13.598,5.95
	c-1.255,3.089-3.486,5.78-5.556,9.1c-1.981-3.347-3.821-5.785-4.961-8.516C93.332,86.921,89.175,84.366,82.027,86.579z
	 M135.704,94.035c0,10.548,0,20.741,0,30.919c3.115,0,5.527,0,8.412,0c0-10.358,0-20.418,0-31.055c4.188,0,7.914,0,11.769,0
	c0-2.844,0-5.098,0-7.621c-10.785,0-21.324,0-32.068,0c0,2.638,0,5.01,0,7.757C127.797,94.035,131.405,94.035,135.704,94.035z
	 M82.54,156.165c12.05,0,23.571,0,35.2,0c0-1.887,0-3.458,0-5.146c-11.881,0-23.519,0-35.2,0
	C82.54,152.885,82.54,154.332,82.54,156.165z"/>
<path fill-rule="evenodd" clip-rule="evenodd" fill="#6A54EE" d="M72.863,125.269c0,12.643,0.165,25.288-0.088,37.926
	c-0.09,4.518,1.215,6.065,5.906,6.017c28.319-0.293,56.641-0.372,84.961-0.318c4.11,0.008,5.481-1.175,5.39-5.358
	c-0.254-11.457-0.088-22.923-0.088-35.68c4.143,3.91,7.46,7.025,10.758,10.159c4.106,3.901,8.238,7.776,12.284,11.738
	c5.149,5.043,6.443,11.313,4.488,17.951c-1.937,6.575-6.824,10.798-13.526,11.964c-23.911,4.159-47.88,7.991-71.816,12.011
	c-8.513,1.429-17.043,2.813-25.48,4.617c-12.788,2.733-27.149-2.723-34.777-13.59c-7.567-10.78-8.271-26.519-0.155-37.032
	c6.008-7.783,13.728-14.245,20.685-21.295C71.891,124.675,72.377,124.972,72.863,125.269z"/>
<path fill-rule="evenodd" clip-rule="evenodd" fill="#3A9DE7" d="M168.946,109.698c0-8.417,0.001-18.72-0.001-29.022
	c-0.001-7.641-0.003-7.643-7.403-7.644c-9.149-0.002-18.3,0.01-27.449-0.011c-1.585-0.004-3.169-0.138-5.97-0.268
	c9.186-8.254,17.046-16.402,25.998-23.09c11.494-8.587,27.778-5.841,36.867,5.046c8.863,10.616,8.446,26.901-1.538,36.816
	C182.758,98.172,175.335,104.081,168.946,109.698z"/>
<path fill-rule="evenodd" clip-rule="evenodd" fill="#E63676" d="M73.271,109.698c0-8.417-0.001-18.72,0.001-29.022
	c0.001-7.641,0.003-7.643,7.403-7.644c9.149-0.002,18.3,0.01,27.449-0.011c1.585-0.004,3.169-0.138,5.97-0.268
	c-9.186-8.254-17.046-16.402-25.998-23.09c-11.494-8.587-27.778-5.841-36.867,5.046c-8.863,10.616-8.446,26.901,1.538,36.816
	C59.46,98.172,66.883,104.081,73.271,109.698z"/>
<path fill-rule="evenodd" clip-rule="evenodd" fill="#FFFFFF" d="M82.027,86.579c7.148-2.213,11.305,0.342,13.864,6.472
	c1.14,2.73,2.98,5.169,4.961,8.516c2.069-3.319,4.3-6.011,5.556-9.1c2.559-6.294,7.063-7.581,13.598-5.95
	c-3.37,5.259-6.375,10.591-10.013,15.449c-3.784,5.054-5.656,10.367-4.853,16.66c0.248,1.94,0.039,3.939,0.039,6.272
	c-2.918,0-5.479,0-9.126,0C100.53,108.894,88.541,98.867,82.027,86.579z"/>
<path fill-rule="evenodd" clip-rule="evenodd" fill="#FFFFFF" d="M135.704,94.035c-4.299,0-7.907,0-11.888,0
	c0-2.747,0-5.119,0-7.757c10.744,0,21.283,0,32.068,0c0,2.523,0,4.777,0,7.621c-3.854,0-7.581,0-11.769,0
	c0,10.637,0,20.696,0,31.055c-2.885,0-5.297,0-8.412,0C135.704,114.776,135.704,104.583,135.704,94.035z"/>
<path fill-rule="evenodd" clip-rule="evenodd" fill="#FFFFFF" d="M82.54,156.165c0-1.833,0-3.28,0-5.146c11.682,0,23.319,0,35.2,0
	c0,1.688,0,3.259,0,5.146C106.11,156.165,94.59,156.165,82.54,156.165z"/>
</svg>
