<?xml version="1.0" encoding="utf-8"?>
<!-- Generator: Adobe Illustrator 16.0.0, SVG Export Plug-In . SVG Version: 6.00 Build 0)  -->
<!DOCTYPE svg PUBLIC "-//W3C//DTD SVG 1.1//EN" "http://www.w3.org/Graphics/SVG/1.1/DTD/svg11.dtd">
<svg version="1.1" id="图层_1" xmlns="http://www.w3.org/2000/svg" xmlns:xlink="http://www.w3.org/1999/xlink" x="0px" y="0px"
	 width="240px" height="240px" viewBox="0 0 240 240" enable-background="new 0 0 240 240" xml:space="preserve">
<path fill-rule="evenodd" clip-rule="evenodd" d="M221,241c-66.667,0-133.333,0-200,0c-0.343-0.313-0.632-0.757-1.035-0.919
	c-11.893-4.779-16.962-12.133-16.963-24.719C2.998,152.455,2.984,89.548,3.048,26.641c0.003-3.115,0.28-6.356,1.161-9.321
	C6.728,8.841,13.369,4.354,21,1c66.667,0,133.333,0,200,0c0.342,0.313,0.63,0.758,1.031,0.92
	c11.911,4.799,16.965,12.13,16.966,24.719c0.005,62.908,0.019,125.816-0.045,188.725c-0.004,3.115-0.282,6.355-1.162,9.32
	C235.274,233.163,228.639,237.655,221,241z M234.734,120.061c-2.148,0-3.946,0-5.744,0c-12.328,0-24.66-0.198-36.98,0.108
	c-4.235,0.105-6.112-1.263-7.33-5.271c-4.447-14.641-9.266-29.168-13.884-43.756c-1.564-4.939-3.963-8.884-9.822-9.04
	c-5.784-0.154-8.541,3.443-10.463,8.336c-7.54,19.19-15.187,38.339-22.805,57.499c-2.229,5.604-4.495,11.194-7.172,17.856
	c-1.566-2.458-2.474-3.777-3.276-5.158c-8.446-14.525-16.759-29.131-25.356-43.567c-4.854-8.149-12.5-8.325-18.034-0.626
	c-4.858,6.758-9.372,13.771-14.414,20.386c-1.253,1.645-3.941,3.05-6,3.091c-13.655,0.271-27.318,0.132-40.979,0.152
	c-1.754,0.003-3.509,0.15-5.025,0.22c0,6.701,0,12.764,0,19.157c18.426,0,36.415,0.31,54.374-0.278
	c3.32-0.109,7.09-3.311,9.644-6.031c3.698-3.939,6.477-8.741,10.062-13.754c1.189,1.964,2.065,3.316,2.849,4.72
	c8.761,15.688,17.57,31.349,26.22,47.099c2.609,4.751,6.197,7.098,11.703,6.724c5.263-0.357,7.22-3.894,8.924-8.133
	c8.621-21.441,17.339-42.845,26.068-64.243c0.434-1.063,1.297-1.95,2.379-3.532c2.928,9.623,5.578,18.35,8.238,27.073
	c2.324,7.624,5.91,10.374,13.789,10.388c15.993,0.03,31.986,0.008,47.979-0.021c1.607-0.003,3.214-0.2,5.055-0.323
	C234.734,132.795,234.734,126.847,234.734,120.061z"/>
<path fill-rule="evenodd" clip-rule="evenodd" fill="#FFFFFF" d="M234.734,120.061c0,6.786,0,12.734,0,19.074
	c-1.841,0.123-3.447,0.32-5.055,0.323c-15.993,0.029-31.986,0.052-47.979,0.021c-7.879-0.014-11.465-2.764-13.789-10.388
	c-2.66-8.724-5.311-17.45-8.238-27.073c-1.082,1.582-1.945,2.47-2.379,3.532c-8.729,21.398-17.447,42.802-26.068,64.243
	c-1.704,4.239-3.661,7.775-8.924,8.133c-5.505,0.374-9.093-1.973-11.703-6.724c-8.649-15.75-17.459-31.411-26.22-47.099
	c-0.784-1.403-1.66-2.756-2.849-4.72c-3.585,5.013-6.364,9.814-10.062,13.754c-2.554,2.721-6.324,5.922-9.644,6.031
	c-17.959,0.588-35.948,0.278-54.374,0.278c0-6.394,0-12.456,0-19.157c1.516-0.069,3.271-0.217,5.025-0.22
	c13.661-0.021,27.324,0.118,40.979-0.152c2.058-0.041,4.746-1.446,6-3.091c5.042-6.614,9.555-13.628,14.414-20.386
	c5.535-7.699,13.18-7.523,18.034,0.626c8.597,14.437,16.91,29.042,25.356,43.567c0.803,1.381,1.71,2.7,3.276,5.158
	c2.677-6.662,4.943-12.252,7.172-17.856c7.618-19.16,15.265-38.309,22.805-57.499c1.922-4.893,4.679-8.49,10.463-8.336
	c5.859,0.156,8.258,4.101,9.822,9.04c4.618,14.588,9.437,29.115,13.884,43.756c1.218,4.008,3.095,5.376,7.33,5.271
	c12.32-0.307,24.652-0.108,36.98-0.108C230.788,120.061,232.586,120.061,234.734,120.061z"/>
</svg>
