<?xml version="1.0" encoding="utf-8"?>
<!-- Generator: Adobe Illustrator 16.0.0, SVG Export Plug-In . SVG Version: 6.00 Build 0)  -->
<!DOCTYPE svg PUBLIC "-//W3C//DTD SVG 1.1//EN" "http://www.w3.org/Graphics/SVG/1.1/DTD/svg11.dtd">
<svg version="1.1" id="图层_1" xmlns="http://www.w3.org/2000/svg" xmlns:xlink="http://www.w3.org/1999/xlink" x="0px" y="0px"
	 width="240px" height="240px" viewBox="0 0 240 240" enable-background="new 0 0 240 240" xml:space="preserve">
<path fill-rule="evenodd" clip-rule="evenodd" fill="#2F397C" d="M219,241c-65.333,0-130.667,0-196,0
	c-0.389-0.296-0.735-0.721-1.174-0.868C8.85,235.767,3.227,228.104,3.214,214.619c-0.02-18.974-0.005-37.946-0.005-56.92
	c0-43.604-0.015-87.209,0.01-130.814C3.226,14.059,9.222,5.918,21.346,1.999C21.942,1.806,22.451,1.339,23,1
	c65.333,0,130.667,0,196,0c0.713,0.373,1.389,0.862,2.144,1.101c10.971,3.462,17.593,11.89,17.606,23.277
	c0.075,63.749,0.064,127.497,0.002,191.246c-0.008,8.341-3.424,15.242-10.436,19.922C225.482,238.438,222.121,239.539,219,241z
	 M130.106,138.355c8.569,8.518,21.614,10.175,32.025,3.79c3.349-2.054,5.452-1.983,8.761,0.029
	c10.144,6.173,22.824,4.767,31.566-2.923c8.926-7.853,11.87-19.914,7.538-30.885c-4.265-10.801-15.156-18.399-26.656-17.09
	c-5.701,0.648-11.122,5.432-16.656,5.406c-5.714-0.026-11.276-4.589-17.15-5.408c-7.617-1.063-14.415,2.093-20.122,7.626
	C140.17,112.25,140.262,125.188,130.106,138.355z M34.042,145.406c17.734,0,34.575,0,51.442,0c0-5.876,0-11.292,0-17.59
	c-6.642,0-12.958,0-20.192,0c7.249-12.688,13.879-24.292,20.675-36.186c-17.765,0-34.634,0-51.825,0c0,4.81,0.183,9.142-0.058,13.45
	c-0.195,3.482,1.056,4.776,4.553,4.623c4.921-0.215,9.858-0.055,16.059-0.055C47.481,122.141,40.893,133.547,34.042,145.406z"/>
<path fill-rule="evenodd" clip-rule="evenodd" fill="#5EB5E8" d="M130.106,138.355c10.155-13.168,10.063-26.105-0.694-39.454
	c5.707-5.533,12.505-8.689,20.122-7.626c5.874,0.819,11.437,5.382,17.15,5.408c5.534,0.025,10.955-4.758,16.656-5.406
	c11.5-1.31,22.392,6.289,26.656,17.09c4.332,10.971,1.388,23.032-7.538,30.885c-8.742,7.689-21.423,9.096-31.566,2.923
	c-3.309-2.013-5.412-2.083-8.761-0.029C151.721,148.53,138.676,146.873,130.106,138.355z M148.548,126.93
	c4.519-0.03,8.748-4.324,8.566-8.698c-0.177-4.262-4.278-8.155-8.599-8.164c-4.631-0.009-8.6,4.081-8.439,8.696
	C140.23,123.205,144.126,126.96,148.548,126.93z M184.664,126.923c4.424-0.097,8.23-3.955,8.261-8.373
	c0.031-4.615-4.044-8.606-8.652-8.473c-4.309,0.125-8.368,4.168-8.403,8.368C175.832,122.837,180.173,127.021,184.664,126.923z"/>
<path fill-rule="evenodd" clip-rule="evenodd" fill="#FCCF08" d="M34.042,145.406c6.85-11.859,13.439-23.266,20.653-35.757
	c-6.201,0-11.138-0.16-16.059,0.055c-3.497,0.153-4.748-1.141-4.553-4.623c0.241-4.309,0.058-8.641,0.058-13.45
	c17.191,0,34.06,0,51.825,0c-6.795,11.894-13.426,23.498-20.675,36.186c7.234,0,13.55,0,20.192,0c0,6.298,0,11.714,0,17.59
	C68.618,145.406,51.776,145.406,34.042,145.406z"/>
<path fill-rule="evenodd" clip-rule="evenodd" fill="#2F397C" d="M148.548,126.93c-4.422,0.03-8.317-3.725-8.472-8.166
	c-0.16-4.615,3.809-8.705,8.439-8.696c4.32,0.009,8.422,3.902,8.599,8.164C157.296,122.605,153.066,126.899,148.548,126.93z"/>
<path fill-rule="evenodd" clip-rule="evenodd" fill="#2F397C" d="M184.664,126.923c-4.491,0.099-8.832-4.086-8.795-8.478
	c0.035-4.2,4.095-8.243,8.403-8.368c4.608-0.134,8.684,3.857,8.652,8.473C192.895,122.968,189.088,126.826,184.664,126.923z"/>
<path fill-rule="evenodd" clip-rule="evenodd" fill="#E55733" d="M114.301,90.162v-0.495H85.967v55.739h28.333v-0.495
	c13.384-1.938,23.666-13.454,23.666-27.375C137.967,103.616,127.685,92.101,114.301,90.162z M112.382,126.669v0.157h-9.081v-17.666
	h9.081v0.156c4.289,0.615,7.585,4.265,7.585,8.676C119.967,122.405,116.671,126.056,112.382,126.669z"/>
</svg>
